<svg width="3840" height="2160" version="1.1" viewBox="0 0 1016 571.5" xmlns="http://www.w3.org/2000/svg" xmlns:xlink="http://www.w3.org/1999/xlink"><defs><filter id="d" x="-.031376" y="-.042222" width="1.0628" height="1.0844" style="color-interpolation-filters:sRGB"><feGaussianBlur stdDeviation="5.4740673"/></filter><radialGradient id="a" cx="995.81" cy="-233" r="508" gradientTransform="matrix(-1.72e-5 -.49986 .49816 0 370.29 641.09)" gradientUnits="userSpaceOnUse"><stop stop-color="#23bac2" style="stop-color:#37d6dd" offset="0"/><stop stop-color="#3b6ab9" offset="1"/></radialGradient><clipPath id="e"><path d="m120.56 14.626c-61.366 0.0712-101.89 5.0257-102.07 5.0469-3.7e-4 4e-5 -0.09765 8e-3 -0.09765 8e-3l0.22266 2.6326s223.89-10.666 403.29 61.699c6.2364 27.328 23.949 71.221 33.883 93.273-13.899 9.5704-28.749 19.048-40.824 34.164-12.324 15.428-21.667 36.68-24.172 69.551-5.0387 66.144 51.806 124.21 122.21 126 66.176 3.5222 111.59 4.0133 166.73 32.578 26.085 14.417 50.051 43.79 67.961 79.563 17.912 35.776 29.784 77.929 31.918 117.77l2.6406 0.032c2.3367-29.958-2.1041-76.909-20.219-121.38-16.667-40.915-45.194-79.521-90.5-100.7 64.207 14.176 100.35 44.827 120.26 72.875 21.049 29.654 24.285 55.929 24.336 56.352l-0.0664 0.78139 0.82031 0.39439 2.1875 1.0586-0.28517-2.3984-6e-3 -0.0198c0.0654-0.806 2.4394-31.764-19.238-66.359-21.963-35.051-68.607-73.569-166.72-87.957-24.864-3.646-56.282-6.4472-88.086-6.5273h-0.0199c-77.907 1.0294-117.82-43.652-123.99-89.625-3.0876-22.987 2.3074-46.301 15.719-64.41 13.411-18.109 34.812-31.063 64.02-33.344h8e-3c48.222-3.9765 106.32 22.043 163.26 48.535-0.153 6.8099 0.2658 13.285 4.9883 19.184 2.7017 3.3749 8.3982 6.3068 14.219 9.0547 5.8205 2.7478 11.792 5.202 14.457 6.7304 5.6106 3.2187 23.892 14.878 34.914 29.215l1.2461 1.625 0.96875-1.8086c0.37378-0.69873 2.0604-2.4654 4.2695-4.3125 2.2091-1.8472 4.9633-3.9149 7.6446-5.8438 5.3624-3.8577 10.43-7.1562 10.43-7.1562l3.8946-2.5313-4.6445 0.10166s-1.0234 0.0342-3.5781-0.45313c-2.5547-0.48741-6.5385-1.5021-12.148-3.5976-5.4231-2.0254-11.57-6.2226-16.336-10.004-2.3828-1.8906-4.4278-3.6784-5.8867-5.0273-0.72951-0.6745-1.3163-1.2414-1.7149-1.6485-0.19918-0.20352-0.35237-0.36658-0.4453-0.47265-0.093-0.10602-0.1656-0.33806 0.0119 0.0742-0.10216-0.23839-0.0606-0.22619-0.0977-0.15618-0.037 0.07 0.12559-0.23363 1.2617-0.46093l0.332-0.0663 0.26173-0.21873c0.96189-0.80925 1.0913-2.135 0.85936-3.1719-0.23188-1.0369-0.74184-2.0366-1.3555-3.0273-1.2272-1.9815-2.8992-3.885-3.9804-4.9648-0.0694-0.0694-0.53893-0.66258-1.086-1.4609-0.54705-0.79837-1.2374-1.8479-2.0078-3.0586-1.5408-2.4215-3.4162-5.4816-5.2422-8.4961-3.6519-6.029-7.0386-11.785-7.2578-12.152h-6e-3c-0.1852-0.30858-0.58044-1.3183-1.7774-2.1172l-0.15237-0.10164-0.17582-0.0546c-1.1601-0.37286-2.531-0.33723-4.2266-0.25001-1.6955 0.0873-3.6296 0.29305-5.4648 0.52734-3.4127 0.43568-6.0491 0.90696-6.4649 0.98049-0.96864-0.48976-19.422-10.012-25.965-30.098l-2.582 0.44531c0.0671 2.4911-2.3873 6.7611-0.6758 13.73-9.0842-4.4439-16.89-11.69-23.285-28.512l-1.207-3.1797-1.2578 3.1602c-2.1997 5.5288-2.2205 10.138-1.6563 13.359 0.24953 1.4246 0.4422 1.4176 0.78126 2.2852-5.5198-2.0122-21.982-9.3462-25.152-27.617l-0.76568-4.4219-1.7539 4.1328c-2.261 5.3272-2.2886 9.7032-1.7031 12.742 0.19378 1.0058 0.33883 0.88993 0.60934 1.6055-7.1022-3.3933-44.144-19.773-104.41-20.07-10.785-0.98864-19.401-6.4354-26.324-14.391-6.9236-7.9552-12.09-18.42-15.746-29.203-3.6564-10.784-5.8074-21.883-6.7852-31.074-0.9778-9.1911-0.69289-16.624 0.1874-19.438l0.32811-1.0508-0.97655-0.51172s-64.685-34.047-191.64-49.055c-47.605-5.6281-92.004-7.355-128.9-7.3122zm175.75 63.633c-24.483-0.2782-51.712 0.31218-80.805 2.3789-116.45 8.2725-233.87 48.98-233.87 48.98l0.75391 2.5312s239.96-60.276 440.86-24.918l0.23045-1.3047 1.2578-0.39063-5.4766-17.656-0.79684-0.1406s-48.708-8.6459-122.16-9.4805zm118.09 35.965c-24.869 0.43313-85.573 4.7314-173.32 32.176-119.27 37.297-187.03 90.23-187.03 90.23l1.4609 2.1992s177.28-98.873 377.18-104.49l1.7774-0.0508-6.586-19.867-0.88673-0.0586s-4.308-0.28499-12.598-0.1406zm128.82 15.137-0.8867 2.4883c54.857 22.285 102.53 51.787 139.52 92.402l3.4024 3.7344-0.78518-3.4102 9.9453-0.64844-1.6445-1.9922s-51.334-62.222-149.43-92.531c-6e-3 -1e-3 -8e-3 -2e-3 -0.0119-4e-3 -0.0386-0.012-0.0706-0.0271-0.10943-0.039z" style="color-rendering:auto;color:#000000;dominant-baseline:auto;fill:#fff;font-feature-settings:normal;font-variant-alternates:normal;font-variant-caps:normal;font-variant-ligatures:normal;font-variant-numeric:normal;font-variant-position:normal;image-rendering:auto;isolation:auto;mix-blend-mode:normal;opacity:.05;shape-padding:0;shape-rendering:auto;solid-color:#000000;text-decoration-color:#000000;text-decoration-line:none;text-decoration-style:solid;text-indent:0;text-orientation:mixed;text-transform:none;white-space:normal"/></clipPath><filter id="c" x="-.057303" y="-.096838" width="1.1146" height="1.1937" style="color-interpolation-filters:sRGB"><feGaussianBlur stdDeviation="1.7725928"/></filter></defs><g id="b" transform="scale(2)"><path d="m-5.4095e-7 0h508v285.75h-508z" style="fill:url(#a);paint-order:normal;stroke-width:.49975"/><path d="m-5.4095e-7 285.75 508-285.75h-508z" style="fill:#fff;opacity:.02"/><path d="m254 285.75h-254l2e-14 -285.75h254z" style="opacity:.03"/><path d="m254 285.75 254-285.75h-254z" style="fill:#fff;opacity:.05"/><path d="m-5.4095e-7 0 254 285.75h254z" style="opacity:.02"/></g><path transform="matrix(1.9987 0 0 1.9987 1.2605 -570.9)" d="m59.522 294.87c-30.683 0.0356-50.947 2.5109-51.033 2.5215-1.8e-4 2e-5 -0.0488 4e-3 -0.0488 4e-3l0.11132 1.3164s111.94-5.3329 201.64 30.85c3.1182 13.664 11.974 35.611 16.941 46.637-6.9496 4.7852-14.375 9.5242-20.412 17.082-6.162 7.7138-10.833 18.34-12.086 34.775-2.5193 33.072 25.903 62.106 61.105 63 33.088 1.7611 55.795 2.0066 83.367 16.289 13.042 7.2083 25.025 21.895 33.98 39.781 8.9559 17.888 14.892 38.964 15.959 58.887l1.3203 0.016c1.1684-14.979-1.052-38.455-10.109-60.689-8.3328-20.456-22.595-39.758-45.246-50.35 32.102 7.0882 50.173 22.412 60.127 36.436 10.524 14.827 12.142 27.964 12.168 28.176l-0.0332 0.3906 0.41016 0.1992 1.0938 0.5274-0.14258-1.1992-2e-3 -0.01c0.0327-0.403 1.2197-15.882-9.6191-33.18-10.982-17.525-34.304-36.784-83.361-43.979-12.432-1.823-28.141-3.2236-44.043-3.2637h-0.01c-38.954 0.51471-58.908-21.826-61.996-44.812-1.5438-11.493 1.1537-23.151 7.8594-32.205 6.7057-9.0545 17.406-15.531 32.01-16.672h4e-3c24.111-1.9882 53.162 11.022 81.631 24.268-0.0765 3.405 0.13288 6.6424 2.4941 9.5918 1.3508 1.6875 4.2011 3.1534 7.1113 4.5273 2.9096 1.3736 5.8934 2.601 7.2266 3.3652 2.8053 1.6094 11.946 7.4388 17.457 14.607l0.625 0.8125 0.48242-0.9043c0.18687-0.34936 1.0302-1.2327 2.1348-2.1562 1.1046-0.92357 2.4817-1.9574 3.8223-2.9219 2.6812-1.9288 5.2148-3.5781 5.2148-3.5781l1.9473-1.2656-2.3223 0.0508s-0.5117 0.0171-1.7891-0.22657c-1.2774-0.24371-3.2693-0.7491-6.0742-1.7969-2.7116-1.0127-5.7852-3.1133-8.168-5.0039-1.1914-0.94532-2.2139-1.8392-2.9434-2.5137-0.36473-0.33724-0.6562-0.61875-0.85547-0.82226-0.0996-0.10176-0.17813-0.18525-0.22461-0.23829-0.0465-0.053-0.0828-0.16902 6e-3 0.0371-0.0511-0.1192-0.0303-0.11311-0.0488-0.0781-0.0185 0.035 0.0628-0.11683 0.63086-0.23047l0.16797-0.0332 0.12891-0.10938c0.48092-0.40463 0.54562-1.0675 0.42968-1.5859s-0.37093-1.0164-0.67773-1.5117c-0.6136-0.99074-1.4496-1.9444-1.9902-2.4844-0.0347-0.0347-0.26943-0.33128-0.54296-0.73047-0.27354-0.39919-0.61675-0.92393-1.002-1.5293-0.7704-1.2107-1.7101-2.7408-2.623-4.248-1.826-3.0145-3.5196-5.8911-3.6289-6.0742v-2e-3c-0.0926-0.15427-0.29215-0.65916-0.89063-1.0586l-0.0762-0.0508-0.0879-0.0273c-0.58009-0.18644-1.2655-0.16862-2.1133-0.125-0.84776 0.0436-1.8129 0.14652-2.7305 0.26367-1.7064 0.21784-3.0266 0.45349-3.2344 0.49023-0.48432-0.24487-9.711-5.006-12.982-15.049l-1.2891 0.22265c0.0336 1.2455-1.1956 3.3805-0.33984 6.8652-4.5421-2.222-8.4448-5.845-11.643-14.256l-0.60352-1.5898-0.6289 1.5801c-1.0999 2.7644-1.1083 5.0689-0.82617 6.6797 0.12498 0.71356 0.22084 0.71052 0.39062 1.1445-2.7572-1.0047-10.993-4.6703-12.578-13.809l-0.38282-2.2129-0.87695 2.0664c-1.1305 2.6636-1.1443 4.8535-0.85156 6.373 0.0969 0.50325 0.16933 0.44482 0.30469 0.80273-3.5505-1.6964-22.071-9.8886-52.203-10.037-5.3923-0.49431-9.7003-3.2177-13.162-7.1953s-6.0429-9.2098-7.8711-14.602-2.9056-10.94-3.3945-15.535c-0.4889-4.5955-0.34644-8.3118 0.0937-9.7188l0.16406-0.52734-0.48828-0.25586s-32.342-17.023-95.822-24.527c-23.804-2.8142-46.004-3.6757-64.453-3.6543zm87.877 31.814c-12.241-0.1391-25.856 0.15609-40.402 1.1894-58.225 4.1363-116.93 24.49-116.93 24.49l0.37695 1.2676s119.98-30.14 220.43-12.461l0.11524-0.65235 0.6289-0.19531-2.7383-8.8281-0.39648-0.0703s-24.356-4.3229-61.08-4.7402zm59.043 17.982c-12.434 0.21657-42.787 2.3657-86.662 16.088-59.637 18.648-93.512 45.115-93.512 45.115l0.72852 1.0996s88.638-49.436 188.59-52.244l0.88868-0.0254-3.293-9.9336-0.44336-0.0293s-2.154-0.1425-6.2988-0.0703zm64.408 7.5684-0.44336 1.2441c27.428 11.143 51.267 25.894 69.76 46.201l1.1309-0.60352-0.59961 0.81641 5.75-0.375-0.82227-0.9961s-25.667-31.111-74.715-46.266c-2e-3 -6.4e-4 -4e-3 -1e-3 -6e-3 -2e-3 -0.0193-6e-3 -0.0353-0.0136-0.0547-0.0195z" style="color-rendering:auto;color:#000000;dominant-baseline:auto;filter:url(#d);font-feature-settings:normal;font-variant-alternates:normal;font-variant-caps:normal;font-variant-ligatures:normal;font-variant-numeric:normal;font-variant-position:normal;image-rendering:auto;isolation:auto;mix-blend-mode:normal;opacity:.05;shape-padding:0;shape-rendering:auto;solid-color:#000000;text-decoration-color:#000000;text-decoration-line:none;text-decoration-style:solid;text-indent:0;text-orientation:mixed;text-transform:none;white-space:normal"/><path d="m913.05 495.68c-1.0381 8e-3 -1.9495 0.66368-2.2944 1.6397-0.11274 0.31734-0.1452 0.63873-0.1452 0.97152v32.715c0.0384 1.3632 1.1048 2.426 2.4556 2.4293 2.8313 4e-3 8.662-0.0103 8.662-0.0103l-0.0104-2.5316h-8.5043c-0.0451-0.27199-0.0336-32.288 0.0103-32.437 0.26051-0.0364 68.816-0.0233 68.966 0.0119 0.0415 0.24693 0.0293 32.267-0.016 32.435h-57.334v2.5321s0.22365 1.4e-4 0.32607 4e-3h57.255c1.0268-0.0103 1.9362-0.65466 2.2862-1.6226 0.11274-0.30837 0.1452-0.62629 0.1452-0.95136v-32.777c-0.0216-1.0828-0.75842-2.0339-1.8009-2.3218l-2e-3 1e-3c-0.27607-0.0739-0.55142-0.0873-0.83664-0.0873zm31.925 9.6066c-0.0214 0.0412-0.037 0.0711-0.0455 0.0992-2.3235 6.2308-4.6448 12.464-6.9675 18.694-0.0103 0.0103-0.0103 0.0292-0.0103 0.0413v0.0201c0 8e-3 0.0102 0.0118 0.0119 0.0212h3.1955c0.0246-0.0711 0.053-0.13229 0.0744-0.19844 0.49387-1.4031 0.98782-2.8037 1.4831-4.208 0.0824-0.22572 0.1643-0.45291 0.23876-0.67953 0.0294-0.0946 0.078-0.14377 0.17775-0.13179 0.0324 4e-3 0.07 0 0.10284 0h6.9717c0.63021 1.746 1.256 3.4794 1.8795 5.2131h3.2634c-2.3543-6.3078-4.6984-12.592-7.0383-18.872zm-12.266 0.0625c-0.1819 0-0.29652 0.0526-0.41653 0.19378-2.4301 2.8777-4.8662 5.756-7.3019 8.6305-0.0324 0.0368-0.0745 0.0696-0.1447 0.13436v-7.1588c0-0.59254 0.0103-1.187 0-1.7797h-3.0562v18.772c0.2426 0.0426 2.8977 0.034 3.0613-0.0103v-0.23874l-9e-3 -1e-3v-6.5479c0-0.14769 0.0417-0.25157 0.16227-0.3452 0.50572-0.39989 1.0043-0.81082 1.5033-1.219 0.0498-0.037 0.0981-0.0699 0.16018-0.11523 0.0538 0.0696 0.0993 0.12658 0.14108 0.18912 0.84828 1.2238 1.6972 2.446 2.5451 3.668 1.0402 1.5051 2.0821 3.0034 3.1202 4.5015 0.0576 0.087 0.11038 0.15296 0.23823 0.15296 1.093-4e-3 2.185-4e-3 3.2768-4e-3 0.0362 0 0.0731-0.0118 0.13073-0.0248-2.4172-3.5203-4.8242-7.0162-7.2388-10.533 0.48577-0.56391 0.95583-1.1068 1.4252-1.663 0.47061-0.54451 0.9393-1.0908 1.4092-1.6392 0.46916-0.54692 0.93517-1.0948 1.4056-1.6423 0.46942-0.54875 0.9395-1.0961 1.4035-1.6433 0.46733-0.54306 0.93099-1.0863 1.4263-1.6722h-0.27493c-0.98912 0-1.978 6e-3 -2.9672-4e-3zm24.765 0.0202c-0.051 0.23471-0.0385 18.64 0.0103 18.794h10.993v-2.6154h-5.303c-0.44583 0-0.89506 4e-3 -1.339 0-0.43746-4e-3 -0.87323 0.0165-1.327-0.01v-14.717l-2e-3 -2e-3c0-0.48612 0.018-0.96798-0.0139-1.4495zm13.095 6e-3v18.783h3.0448c0.0103-0.0316 0.0181-0.0479 0.0181-0.0692v-18.604h-2e-3c0-0.0292-6e-5 -0.0535-0.0104-0.0837 0-8e-3 -0.0103-0.0103-0.0103-0.016 0-4e-3 -0.0119-0.0104-0.0119-0.0104zm-23.958 2.6288c0.0324 0.0494 0.0574 0.0796 0.0661 0.11213 0.51051 1.9062 1.2085 3.7557 1.8423 5.6255 0.26323 0.77803 0.53612 1.5516 0.80407 2.3301 0.0204 0.0696 0.0403 0.13917 0.0651 0.22529h-5.4756c0.0244-0.0811 0.045-0.15086 0.0687-0.22063 0.64272-1.8611 1.2945-3.714 1.9208-5.58 0.25131-0.74999 0.44083-1.5238 0.65474-2.2888 0.018-0.058 0.0294-0.11634 0.0538-0.2036zm-23.963 27.65c-0.58013 1.1e-4 -1.0279 0.17021-1.34 0.51004-0.31335 0.34057-0.47027 0.82717-0.47027 1.4614 0 0.63428 0.15663 1.1234 0.46818 1.4681 0.31097 0.34435 0.75613 0.51625 1.3364 0.51625 0.57451 0 1.017-0.17396 1.3296-0.51988 0.31326-0.3474 0.47027-0.83277 0.47027-1.4593 0-0.62717-0.15534-1.1139-0.46871-1.4588-0.31208-0.34525-0.75412-0.51768-1.325-0.51779zm42.008 6e-3c-0.37349 0-0.70004 0.0797-0.97668 0.23926-0.27628 0.1593-0.48805 0.38864-0.63458 0.68834-0.1465 0.30062-0.21963 0.65032-0.21963 1.049 0 0.63487 0.15108 1.1219 0.4532 1.4619 0.30142 0.34184 0.73364 0.51212 1.296 0.51212 0.38137 0 0.72411-0.0581 1.0258-0.17002v-0.54001c-0.16428 0.0521-0.3238 0.0932-0.47646 0.1266-0.1519 0.032-0.31081 0.048-0.47334 0.048-0.37621 0-0.6644-0.12181-0.86405-0.3638-0.19865-0.24125-0.29816-0.59897-0.29816-1.0686 0-0.45149 0.10369-0.80256 0.31057-1.0594 0.20682-0.25646 0.49038-0.38396 0.85111-0.38396 0.15909 0 0.31136 0.0217 0.45683 0.0692 0.14449 0.0462 0.2817 0.10059 0.41185 0.16174l0.22582-0.52295c-0.33269-0.16529-0.69686-0.24754-1.0883-0.24754zm-22.68 5.2e-4c-0.3838 0-0.6904 0.0924-0.91829 0.27544-0.22804 0.18407-0.34158 0.43709-0.34158 0.75705 0 0.25649 0.0717 0.47506 0.21601 0.65786 0.14309 0.18227 0.39103 0.34327 0.74258 0.48522 0.3388 0.13692 0.56348 0.25506 0.67231 0.35554 0.10834 0.10055 0.16279 0.22228 0.16279 0.36484 0 0.15949-0.0585 0.28678-0.17724 0.3819-0.11795 0.0942-0.30282 0.14158-0.55192 0.14158-0.1691 0-0.35399-0.0236-0.55086-0.0708-0.19789-0.0476-0.38246-0.11226-0.55759-0.19481v0.59428c0.27692 0.13393 0.63244 0.20257 1.0666 0.20257 0.43535 0 0.77608-0.098 1.0237-0.29197 0.24707-0.19386 0.37102-0.46265 0.37102-0.80407 0-0.1747-0.0316-0.32406-0.0925-0.45167-0.0605-0.12872-0.15816-0.2432-0.2894-0.3452h2e-3c-0.1325-0.10176-0.33985-0.21154-0.62063-0.32814-0.25188-0.10332-0.42518-0.18708-0.52091-0.25064-0.0971-0.0629-0.16621-0.12983-0.20773-0.19997-0.043-0.0716-0.0641-0.1574-0.0641-0.25736 0-0.1451 0.0525-0.26249 0.15762-0.34983 0.10493-0.0897 0.25923-0.13335 0.46302-0.13335 0.26741 0 0.57322 0.0712 0.91569 0.2155l0.19844-0.5116c-0.36301-0.16147-0.72985-0.24236-1.0986-0.24236zm15.054 0c-0.38396 0-0.68953 0.0924-0.91726 0.27544-0.22791 0.18407-0.34261 0.43709-0.34261 0.75705 0 0.25649 0.0719 0.47506 0.21601 0.65786 0.14311 0.18227 0.39026 0.34327 0.74207 0.48522 0.33981 0.13692 0.56388 0.25506 0.67284 0.35554 0.10832 0.10055 0.16227 0.22228 0.16227 0.36484 0 0.15949-0.0587 0.28678-0.17674 0.3819-0.11814 0.0942-0.30247 0.14158-0.55192 0.14158-0.16889 0-0.35359-0.0236-0.5493-0.0708-0.19908-0.0476-0.38434-0.11226-0.56071-0.19481v0.59428c0.2781 0.13393 0.63397 0.20257 1.0687 0.20257 0.43479 0 0.77658-0.098 1.0237-0.29197 0.24672-0.19386 0.37002-0.46262 0.37002-0.80407 0-0.1747-0.0315-0.32406-0.092-0.45167-0.0622-0.12872-0.15869-0.2432-0.28937-0.3452-0.13171-0.10176-0.33907-0.21154-0.62167-0.32814-0.24894-0.10332-0.42434-0.18708-0.51988-0.25064-0.0959-0.0629-0.16565-0.12983-0.20722-0.19997-0.0415-0.0716-0.063-0.1574-0.063-0.25736 0-0.1451 0.0518-0.26249 0.15761-0.34983 0.10494-0.0897 0.25998-0.13335 0.46252-0.13335 0.26861 0 0.57388 0.0712 0.91623 0.2155l0.19843-0.5116c-0.3634-0.16147-0.73038-0.24236-1.0986-0.24236zm-42.173 0.0532 1.2749 2.374v1.4692h0.63148v-1.4904l1.2805-2.3528h-0.68419l-0.909 1.7544-0.91053-1.7544zm17.759 0v3.8432h2.1751v-0.53332h-1.5456v-1.2061h1.4485v-0.52605h-1.4485v-1.0464h1.5456v-0.53123zm-21.344 5e-4v3.8432h1.3875c0.42932 0 0.76499-0.096 1.0067-0.293 0.24075-0.19587 0.36071-0.46606 0.36071-0.81082 0-0.25643-0.0644-0.45876-0.19068-0.60872-0.12743-0.15063-0.32515-0.25048-0.59429-0.30181v-0.0258c0.21715-0.0379 0.38365-0.1321 0.4997-0.28061 0.11453-0.1487 0.17261-0.33563 0.17261-0.56018 0-0.33279-0.11726-0.57682-0.35346-0.7307-0.23553-0.15391-0.61909-0.23151-1.1477-0.23151zm14.535 0v3.8427h0.62423v-1.5777h1.4485v-0.53279h-1.4485v-1.201h1.5451v-0.53123zm3.405 0v3.8427h0.62373v-1.5777h1.4485v-0.53279h-1.4485v-1.201h1.5462v-0.53123zm6.952 0v3.8432h0.57049v-1.9973c0-0.27022-0.0144-0.56761-0.0377-0.89349l-0.0119-0.17053h0.0202l1.8919 3.0613h0.76896v-3.8426h-0.57518v2.0138h-2e-3c0 0.14129-4.2e-4 0.33843 0.0176 0.59222 0.0103 0.25379 0.0183 0.40031 0.0202 0.44027h-0.0139l-1.8867-3.0468zm14.326 0v3.8437h2.1735v-0.53435h-1.5467v-1.2056h1.45v-0.52607h-1.45v-1.0465h1.5467v-0.53123zm8.9808 0v3.8437h2.1746v-0.53435h-1.5456v-1.2056h1.4485v-0.52607h-1.4485v-1.0465h1.5456v-0.53123zm-15.053 5.3e-4v3.8432h0.62891v-3.8432zm32.818 0v0.54002h1.1296v3.3032h0.62789v-3.3032h1.1312v-0.54002zm-31.144 5e-4 1.341 3.8427h0.66352l1.3467-3.8427h-0.65321l-0.79994 2.3782c-0.0305 0.0845-0.069 0.21487-0.11732 0.38965-0.0466 0.17468-0.0822 0.32986-0.10488 0.46199-0.016-0.0873-0.0453-0.22016-0.0925-0.4-0.0484-0.17986-0.091-0.32657-0.13486-0.44079l-0.80203-2.389zm20.842 0v2.4763c0 0.44046 0.13216 0.78825 0.39688 1.0402 0.26524 0.25297 0.63529 0.3788 1.1121 0.3788 0.32078 0 0.59721-0.0582 0.82785-0.17208 0.23003-0.11433 0.40561-0.2789 0.52763-0.49094 0.12232-0.21261 0.18294-0.46156 0.18294-0.74517v-2.4872h-0.62789v2.4257c0 0.62206-0.29614 0.9338-0.88934 0.9338-0.30454 0-0.53184-0.0766-0.6785-0.22686-0.1475-0.14991-0.22066-0.38314-0.22066-0.70075v-2.4319zm4.5692 0v3.8432h0.62839v-1.5353h0.62063l0.91935 1.5343h0.71623l-1.0857-1.7002c0.49818-0.2032 0.74634-0.54292 0.74671-1.0222v-5.1e-4 -5.3e-4c-2.2e-4 -0.37398-0.11965-0.65344-0.35656-0.84023-0.2391-0.18489-0.60605-0.27856-1.1022-0.27856zm3.9801 0v3.8427h0.62891v-3.8427zm5.2607 0 1.2764 2.374v1.4686h0.63098v-1.4898l1.2811-2.3528h-0.68419l-0.9095 1.7539-0.91004-1.7539zm-58.094 0.47853c0.37356 0 0.65336 0.12057 0.84283 0.36483 0.18727 0.24334 0.28164 0.60111 0.28164 1.0723 0 0.47799-0.0947 0.83828-0.28424 1.0795-0.19166 0.24217-0.47228 0.3633-0.84645 0.3633-0.37478 0-0.65768-0.12245-0.84955-0.3669-0.19008-0.24424-0.28578-0.60325-0.28578-1.0759 0-0.4712 0.0961-0.82865 0.28887-1.0723 0.19127-0.24392 0.47586-0.36483 0.85268-0.36483zm-10.749 0.0455h0.54364c0.28466 0 0.49157 0.0405 0.62373 0.12195 0.12993 0.0806 0.19431 0.2118 0.19431 0.39224 0 0.19947-0.0599 0.33962-0.18087 0.42373-0.12031 0.0824-0.31314 0.12507-0.57568 0.12507h-0.60513zm60.231 7e-3h0.41497c0.28612 0 0.50065 0.0477 0.64183 0.14161 0.14308 0.0951 0.21291 0.2508 0.21291 0.46818 0 0.21381-0.0647 0.37536-0.19638 0.48421-0.1307 0.10793-0.34364 0.16277-0.63666 0.16277h-0.43667zm-60.231 1.5648h0.63614c0.279 0 0.48707 0.0485 0.62219 0.1452 0.1379 0.0951 0.20566 0.24439 0.20566 0.44392 0 0.21738-0.0654 0.37608-0.2005 0.47746-0.13491 0.10057-0.33208 0.15143-0.59582 0.15143h-0.66767z" style="clip-rule:evenodd;fill-rule:evenodd;filter:url(#c);opacity:.3;stroke-width:.2983"/><path d="m983.05 495.77c-0.27607-0.0739-0.55144-0.0874-0.83666-0.0874h-69.162c-1.0381 8e-3 -1.9494 0.66352-2.2943 1.6395-0.11273 0.31733-0.1455 0.63849-0.1455 0.97129v32.715c0.0384 1.3632 1.1049 2.4263 2.4557 2.4296 2.8313 4e-3 8.662-0.0103 8.662-0.0103l-0.0103-2.5318h-8.5045c-0.0451-0.27198-0.0336-32.288 0.0103-32.437 0.26051-0.0364 68.816-0.0232 68.966 0.012 0.0415 0.24694 0.0294 32.267-0.0159 32.435h-57.334v2.5321s0.22377 0 0.32618 4e-3h57.255c1.0268-0.0103 1.9365-0.65429 2.2865-1.6223 0.11273-0.30836 0.14511-0.62622 0.14511-0.95128v-32.777c-0.0216-1.0828-0.75851-2.0339-1.801-2.3218zm-58.207 28.124v-6.5478c0-0.14769 0.0415-0.25138 0.16209-0.34502 0.50571-0.3999 1.0046-0.81114 1.5036-1.2194 0.0498-0.037 0.0982-0.0698 0.16029-0.11512 0.0538 0.0696 0.0991 0.12652 0.14091 0.18908 0.84828 1.2238 1.6972 2.4463 2.545 3.6682 1.0402 1.5051 2.0822 3.0033 3.1202 4.5014 0.0576 0.087 0.11053 0.1529 0.23838 0.1529 1.093-4e-3 2.1848-4e-3 3.2766-4e-3 0.0362 0 0.0733-0.012 0.13092-0.025-2.4172-3.5203-4.8245-7.0163-7.2391-10.533 0.48578-0.56391 0.95574-1.1066 1.4251-1.6628 0.47063-0.54452 0.93962-1.0909 1.4095-1.6392 0.46917-0.54691 0.93492-1.0947 1.4053-1.6422 0.46941-0.54873 0.93963-1.0962 1.4037-1.6434 0.46732-0.54306 0.93126-1.0864 1.4266-1.6723h-0.27539c-0.98912 0-1.9778 6e-3 -2.9671-4e-3 -0.18188 0-0.29658 0.0527-0.41658 0.19387-2.4301 2.8777-4.866 5.756-7.3017 8.6305-0.0324 0.0368-0.0743 0.0698-0.14449 0.13451v-7.159c0-0.59255 0.0103-1.1869 0-1.7797h-3.0562v18.772c0.2426 0.0426 2.8972 0.034 3.0609-0.0103v-0.23886zm16.318 0.27168c0.0246-0.0711 0.0527-0.13212 0.0741-0.19826 0.49388-1.4031 0.98826-2.8038 1.4835-4.2081 0.0824-0.22571 0.16429-0.45266 0.23874-0.6793 0.0294-0.0946 0.0777-0.1441 0.17748-0.13212 0.0324 4e-3 0.0699 0 0.10271 0h6.9716c0.63021 1.746 1.2561 3.4794 1.8796 5.2131h3.2637c-2.3543-6.3078-4.6987-12.591-7.0386-18.872h-3.3372c-0.0214 0.0412-0.0372 0.0712-0.0457 0.0993-2.3235 6.2308-4.6446 12.464-6.9673 18.694-0.0103 0.0103-0.0103 0.0294-0.0103 0.0415v0.0199c0 8e-3 0.0103 0.012 0.012 0.0214h3.1895zm2.8214-8.0868c0.64273-1.8611 1.2946-3.714 1.9209-5.58 0.25129-0.74998 0.44073-1.5236 0.65466-2.2885 0.018-0.058 0.0294-0.11612 0.0538-0.20337 0.0324 0.0494 0.0576 0.0794 0.0663 0.11192 0.51052 1.9062 1.2084 3.7557 1.8421 5.6255 0.26324 0.77803 0.5359 1.5513 0.80386 2.3298 0.0204 0.0696 0.0406 0.13931 0.0654 0.22545h-5.476c0.0244-0.0811 0.0451-0.1509 0.0688-0.22068zm16.525-9.2574c0-0.48611 0.018-0.96775-0.014-1.4493h-3.0183c-0.051 0.23472-0.0385 18.64 0.0103 18.794h10.994v-2.615h-5.3032c-0.44582 0-0.89511 4e-3 -1.339 0-0.43748-4e-3 -0.87313 0.016-1.3269-0.0103v-14.717zm13.124-1.3336c0-0.0292 0-0.0534-0.0103-0.0836 0-8e-3 -0.0103-0.0103-0.0103-0.016 0-4e-3 -0.012-0.0103-0.012-0.0103h-3.0286v18.783h3.0447c0.0103-0.0316 0.018-0.0483 0.018-0.0696v-18.604z" style="clip-rule:evenodd;fill-rule:evenodd;fill:#fff;stroke-width:.2983"/><path d="m913.24 537.54v-0.0258c0.21716-0.0379 0.38396-0.13211 0.50002-0.28062 0.11453-0.14871 0.17229-0.33548 0.17229-0.56003 0-0.33281-0.11712-0.57704-0.35332-0.73091-0.23551-0.15391-0.61897-0.23142-1.1476-0.23142h-1.1413v3.8431h1.3878c0.42931 0 0.76471-0.0959 1.0064-0.2929 0.24075-0.19588 0.36102-0.4661 0.36102-0.81085 0-0.25644-0.0644-0.45865-0.19068-0.60862-0.12751-0.1507-0.32526-0.2505-0.59466-0.3018zm-1.3416-1.3038h0.54365c0.28467 0 0.49119 0.0402 0.62336 0.12171 0.12992 0.0806 0.19448 0.21173 0.19448 0.39217 0 0.19947-0.0599 0.33994-0.18088 0.42405-0.12032 0.0824-0.31333 0.12512-0.57586 0.12512h-0.60483zm1.2632 2.6385c-0.1349 0.10055-0.33202 0.1515-0.59576 0.1515h-0.66751v-1.218h0.63583c0.27899 0 0.48729 0.0484 0.62241 0.14511 0.1379 0.0951 0.20554 0.24456 0.20554 0.44406 0 0.2174-0.0654 0.37574-0.20051 0.47713zm3.2881-1.4099-0.91024-1.754h-0.68337l1.2748 2.374v1.4689h0.63141v-1.4903l1.281-2.3526h-0.68418zm6.1975-1.8143c-0.58039 0-1.028 0.17029-1.3401 0.51024-0.31333 0.34055-0.47027 0.82695-0.47027 1.4612 0 0.63429 0.1563 1.1234 0.46787 1.4681 0.31095 0.34435 0.75609 0.51624 1.3363 0.51624 0.57452 0 1.0173-0.17389 1.33-0.51981 0.31327-0.34741 0.46989-0.83261 0.46989-1.4592 0-0.62716-0.1553-1.1138-0.46869-1.4588-0.31216-0.34536-0.75398-0.51803-1.3251-0.51803zm0.84059 3.0567c-0.19168 0.24216-0.47241 0.36353-0.84658 0.36353-0.37479 0-0.65791-0.12233-0.84978-0.3668-0.19007-0.24424-0.28556-0.60326-0.28556-1.0759 0-0.47119 0.0959-0.82875 0.28863-1.0724 0.19127-0.24393 0.47588-0.36499 0.8527-0.36499 0.37358 0 0.65348 0.12072 0.84296 0.36499 0.18728 0.24334 0.28195 0.6012 0.28195 1.0724 0 0.47802-0.0948 0.83795-0.28432 1.0792zm2.3167 0.84672h0.6245v-1.5776h1.4486v-0.53289h-1.4486v-1.2012h1.5453v-0.53112h-2.1695v3.8426zm3.405 0h0.62401v-1.5776h1.4484v-0.53289h-1.4484v-1.2012h1.5462v-0.53112h-2.1698v3.8426zm3.4055 0h2.1747v-0.53358h-1.5456v-1.206h1.4486v-0.52603h-1.4486v-1.0464h1.5456v-0.53112h-2.1747zm6.1712-1.8287c0 0.1413 0 0.33846 0.018 0.59224 0.0103 0.25379 0.018 0.40051 0.0199 0.44046h-0.014l-1.8864-3.0468h-0.76213v3.843h0.57052v-1.997c0-0.2702-0.014-0.5678-0.0373-0.89369l-0.012-0.1703h0.0199l1.892 3.0614h0.76871v-3.843h-0.57493v2.0138zm3.9658-0.0103c-0.13251-0.10178-0.33956-0.21143-0.62035-0.32803-0.25187-0.10333-0.42554-0.18727-0.52125-0.25081-0.0971-0.0629-0.16589-0.12971-0.20742-0.19987-0.043-0.0716-0.0644-0.15709-0.0644-0.25705 0-0.14509 0.0528-0.26274 0.1579-0.35009 0.10493-0.0897 0.25926-0.13331 0.46303-0.13331 0.26741 0 0.57321 0.0711 0.91569 0.21535l0.19846-0.51145c-0.36302-0.16149-0.73013-0.24245-1.0989-0.24245-0.38379 0-0.69018 0.0925-0.91807 0.27556-0.22803 0.18407-0.34195 0.43686-0.34195 0.75682 0 0.25647 0.0722 0.47507 0.21652 0.65787 0.1431 0.18228 0.39065 0.34354 0.74221 0.48549 0.3388 0.13691 0.56359 0.25498 0.67243 0.35548 0.10833 0.10055 0.1629 0.22215 0.1629 0.3647 0 0.15949-0.0587 0.28689-0.17748 0.382-0.11793 0.0942-0.30284 0.14151-0.55193 0.14151-0.16909 0-0.35364-0.0235-0.55053-0.0707-0.19787-0.0476-0.38289-0.11213-0.55803-0.19467v0.59408c0.27693 0.13392 0.63253 0.20247 1.0667 0.20247 0.43534 0 0.77611-0.098 1.0238-0.29197 0.24707-0.19387 0.37092-0.46222 0.37092-0.80366 0-0.17469-0.0314-0.32449-0.0923-0.45209-0.0605-0.12872-0.15789-0.24304-0.28912-0.34502zm1.6636 1.8399h0.62891v-3.843h-0.62891zm3.5716-1.4645c-0.0305 0.0845-0.0688 0.215-0.11712 0.38976-0.0466 0.17468-0.0823 0.32982-0.10493 0.46193-0.016-0.0873-0.0451-0.22039-0.0923-0.40021-0.0484-0.17988-0.0913-0.32654-0.13511-0.44076l-0.80209-2.3892h-0.64634l1.341 3.8429h0.66329l1.3467-3.8429h-0.65285zm2.5009 1.4645h2.1733v-0.53428h-1.5464v-1.2059h1.4501v-0.52605h-1.4501v-1.0464h1.5464v-0.53113h-2.1733zm7.317-1.8399c-0.13171-0.10178-0.33925-0.21143-0.62186-0.32803-0.24893-0.10333-0.42426-0.18727-0.51979-0.25081-0.0959-0.0629-0.16589-0.12971-0.20745-0.19987-0.0415-0.0716-0.0629-0.15709-0.0629-0.25705 0-0.14509 0.0519-0.26274 0.15769-0.35009 0.10493-0.0897 0.26001-0.13331 0.46254-0.13331 0.2686 0 0.57378 0.0711 0.91612 0.21535l0.19828-0.51145c-0.3634-0.16149-0.73046-0.24245-1.0987-0.24245-0.38397 0-0.68947 0.0925-0.91719 0.27556-0.22791 0.18407-0.3425 0.43686-0.3425 0.75682 0 0.25647 0.0722 0.47507 0.2163 0.65787 0.1431 0.18228 0.39 0.34354 0.74181 0.48549 0.33979 0.13691 0.5639 0.25498 0.67285 0.35548 0.10832 0.10055 0.16249 0.22215 0.16249 0.3647 0 0.15949-0.0588 0.28689-0.17688 0.382-0.11813 0.0942-0.30258 0.14151-0.55201 0.14151-0.16889 0-0.35358-0.0235-0.5493-0.0707-0.19907-0.0476-0.38406-0.11213-0.56042-0.19467v0.59408c0.27809 0.13392 0.63348 0.20247 1.0682 0.20247 0.43479 0 0.77666-0.098 1.0238-0.29197 0.24671-0.19387 0.37039-0.46222 0.37039-0.80368 0-0.17469-0.0318-0.32447-0.0923-0.45207-0.0622-0.12872-0.15849-0.24304-0.28918-0.34504zm1.6637 1.8399h2.1746v-0.53428h-1.5459v-1.2059h1.4486v-0.52605h-1.4486v-1.0464h1.5459v-0.53113h-2.1746zm5.1797-3.3587c0.15908 0 0.31138 0.0222 0.45683 0.0697 0.1445 0.0462 0.28133 0.10034 0.41148 0.16149l0.22613-0.52275c-0.33269-0.16529-0.69706-0.24751-1.0885-0.24751-0.3735 0-0.70002 0.0796-0.97666 0.23916-0.2763 0.15929-0.48784 0.38858-0.63437 0.68827-0.1465 0.30061-0.21985 0.65009-0.21985 1.0488 0 0.63487 0.1511 1.1221 0.45322 1.4621 0.30141 0.34183 0.73368 0.51192 1.2961 0.51192 0.38135 0 0.72414-0.058 1.0258-0.16989v-0.53996c-0.16428 0.0521-0.3238 0.0933-0.47645 0.12672-0.1519 0.032-0.31076 0.0478-0.47331 0.0478-0.37621 0-0.66448-0.12152-0.86412-0.36351-0.19867-0.24126-0.29806-0.59912-0.29806-1.0688 0-0.45147 0.10373-0.80276 0.31061-1.0596 0.20682-0.25645 0.49028-0.38378 0.85101-0.38378zm4.7022 1.9417c0 0.62207-0.29573 0.93373-0.88892 0.93373-0.30455 0-0.53207-0.0764-0.67874-0.22664-0.1475-0.14991-0.22084-0.38349-0.22084-0.70108v-2.432h-0.63051v2.4766c0 0.44044 0.13211 0.78815 0.39684 1.0402 0.26524 0.25297 0.63495 0.37869 1.1117 0.37869 0.32076 0 0.59708-0.058 0.82774-0.17189 0.23003-0.11432 0.40606-0.27879 0.52809-0.49083 0.12232-0.21262 0.18288-0.46163 0.18288-0.74523v-2.4874h-0.62784v2.4256zm4.6956-1.3061c0-0.37454-0.11932-0.65397-0.35646-0.84097-0.2391-0.18487-0.60644-0.27851-1.1026-0.27851h-1.0864v3.843h0.62836v-1.5353h0.62039l0.91924 1.5345h0.71649l-1.0858-1.7005c0.49857-0.20336 0.7468-0.54302 0.7468-1.0228zm-1.4806 0.66858h-0.43657v-1.2569h0.41482c0.28611 0 0.50059 0.0476 0.64178 0.14151 0.1431 0.0951 0.21272 0.25079 0.21272 0.46819 0 0.21381-0.0644 0.37547-0.19608 0.48431-0.13071 0.10793-0.34375 0.1627-0.63677 0.1627zm2.9151 2.0545h0.62862v-3.8429h-0.62862zm1.753-3.3032h1.1294v3.3032h0.62772v-3.3032h1.1315v-0.53978h-2.8889v0.53978zm6.0118-0.53948-0.90935 1.754-0.91016-1.754h-0.6845l1.2761 2.3741v1.4688h0.63111v-1.4903l1.2811-2.3526z" style="clip-rule:evenodd;fill-rule:evenodd;fill:#fff;stroke-width:.2983"/><use width="100%" height="100%" clip-path="url(#e)" xlink:href="#b"/><path d="m426.42 116.26s-68.565-4.5596-185.32 31.955c-118.99 37.208-186.48 89.952-186.48 89.952s177.35-98.963 377.54-104.59zm255.75 107.6 8.9139-0.5811s-51.07-61.928-148.82-92.09c54.95 22.323 102.78 51.902 139.91 92.673zm14.588 25.73c1.3705-2.3747 5.7943 7.5444 9.1546 11.711 0.14251 0.8321 0.37867 1.3398-1.5693 0.93931-0.16329-0.85537-0.44649-1.1034-0.44649-1.1034s-4.7018-2.796-6.1436-4.7794c-1.4427-1.9833-1.6987-5.4525-0.99543-6.768zm119.96 294.78s10.841-124.4-184.71-153.07c-24.786-3.6345-56.13-6.4321-87.837-6.512-156.74 2.071-162.45-180.67-44.342-189.89 48.948-4.0363 107.4 22.353 164.53 48.946-0.21197 7.092 0.0815 13.395 4.7435 19.218 4.6606 5.822 22.565 12.174 28.286 15.454 5.7206 3.2818 24.047 14.927 35.279 29.537 2.4355-4.5532 22.776-17.785 22.776-17.785s-4.8728 0.10613-16.208-4.1281c-11.337-4.234-24.789-17.045-25.108-17.785-0.31769-0.74165-0.52911-1.9057 2.1202-2.4357 2.0117-1.6925-2.5442-7.1982-4.557-9.2085-2.0116-2.0118-15.467-24.877-15.784-25.408-0.31769-0.52943-0.42434-1.0581-1.3769-1.6939-2.967-0.95356-15.997 1.3761-15.997 1.3761s-20.039-9.8368-26.948-31.045c0.10034 3.7147-3.4365 7.7705 0 16.305-10.449-4.4176-19.424-11.952-26.503-30.57-4.2134 10.59 0 17.323 0 17.323s-24.605-6.8713-28.54-29.549c-4.3206 10.18 0 16.303 0 16.303s-40.113-20.918-106.77-21.222c-44.623-4.0906-53.912-82.542-49.779-95.752 0 0-64.362-33.901-191.06-48.878-126.7-14.979-230.6-2.2573-230.6-2.2573s224.39-10.763 404.17 61.974c6.1112 27.317 24.494 72.813 34.395 94.685-28.332 19.577-60.281 37.986-65.256 103.28-4.9736 65.29 51.194 122.72 120.84 124.49 66.136 3.5208 111.83 4.0209 167.22 32.718 52.868 29.213 96.214 118.23 100.5 198.29 4.6333-59.402-17.672-187.14-121.76-225.93 145.48 25.444 158.28 133.23 158.28 133.23zm-393.72-437.86-5.2346-16.874s-86.374-15.329-202.5-7.0791c-116.13 8.2497-233.37 48.878-233.37 48.878s239.92-60.333 441.12-24.923" style="fill:none;opacity:.05;stroke-width:2.6441;stroke:#fff"/></svg>
