<svg version="1.1" viewBox="0 0 700 910" xmlns="http://www.w3.org/2000/svg" xmlns:xlink="http://www.w3.org/1999/xlink">
	<defs>
		<linearGradient id="dark-normal">
			<stop stop-color="#1c1e25" offset="0"/>
			<stop stop-color="#16171d" offset="1"/>
		</linearGradient>
		<linearGradient id="dark-hover" x1="95.213" x2="95.213" y1="171.21" y2="184.86" gradientTransform="matrix(3.0318 0 0 1.0053 -102.66 -.82153)" gradientUnits="userSpaceOnUse">
			<stop stop-color="#23252e" offset="0"/>
			<stop stop-color="#1a1c23" offset="1"/>
		</linearGradient>
		<linearGradient id="j" x1="95.213" x2="95.213" y1="161.96" y2="188.92" gradientTransform="matrix(3.0318 0 0 1.0053 -102.66 -.82153)" gradientUnits="userSpaceOnUse" xlink:href="#dark-normal"/>
		<linearGradient id="o" x1="98.388" x2="98.388" y1="17.217" y2="-11.144" gradientTransform="matrix(3.0318 0 0 1.0053 -102.66 -.82153)" gradientUnits="userSpaceOnUse" xlink:href="#dark-normal"/>
		<linearGradient id="n" x1="95.213" x2="95.213" y1="167.99" y2="191.11" gradientTransform="matrix(3.0318 0 0 1.0053 -102.66 -.82153)" gradientUnits="userSpaceOnUse" xlink:href="#dark-normal"/>
		<linearGradient id="m" x1="95.213" x2="95.213" y1="158.85" y2="188.92" gradientTransform="matrix(3.0318 0 0 1.0053 -102.66 -.82153)" gradientUnits="userSpaceOnUse" xlink:href="#dark-normal"/>
		<linearGradient id="l" x1="95.213" x2="95.213" y1="162.09" y2="188.92" gradientTransform="matrix(3.0318 0 0 1.0053 -102.66 -.82153)" gradientUnits="userSpaceOnUse" xlink:href="#dark-normal"/>
		<linearGradient id="k" x1="98.388" x2="98.388" y1="17.217" y2="-11.671" gradientTransform="matrix(3.0318 0 0 1.0053 -102.66 -.82153)" gradientUnits="userSpaceOnUse" xlink:href="#dark-normal"/>
		<clipPath id="b">
			<rect x="9.8426" y="715.31" width="240" height="61" opacity=".2"/>
		</clipPath>
	</defs>
	<g transform="translate(0 -142.36)">
		<path d="m0.0039062 582.36h435.87v470h-435.88z" color="#000000" fill="#23252e"/>
		<path d="m0.0039062 582.36h435.87v-440h-435.88z" color="#000000" fill="#fff"/>
		<path d="m426.88 582.36h273.12l-1.4e-4 470h-273.12z" color="#000000" fill="#2777ff"/>
		<path d="m426.88 142.36h273.12v440h-273.12z" color="#000000" fill="#2777ff"/>
	</g>
	<g transform="translate(0 -142.36)">
		<g id="slider-horz-scale-has-marks-below" transform="matrix(1.0003 0 0 1.0007 7.8222 406.99)">
			<path d="m201.72-8.3361c-3.71-3.7184-9.725-3.7184-13.435 0s-3.71 9.7472 0 13.466l6.7175 6.7328 6.7175-6.7328c3.71-3.7184 3.71-9.7472 0-13.466z" color="#000000" color-rendering="auto" image-rendering="auto" opacity=".1" shape-rendering="auto" solid-color="#000000" stroke="#000" stroke-linejoin="round" style="isolation:auto;mix-blend-mode:normal"/>
			<path d="m201.72-9.3362c-3.71-3.7184-9.725-3.7184-13.435 0s-3.71 9.7472 0 13.466l6.7175 6.7328 6.7175-6.7328c3.71-3.7184 3.71-9.7472 0-13.466z" color="#000000" color-rendering="auto" fill="#fff" image-rendering="auto" shape-rendering="auto" solid-color="#000000" stroke="#c2c2c2" stroke-linejoin="round" style="isolation:auto;mix-blend-mode:normal"/>
			<path d="m195-11.625c-2.3086 1e-6 -4.6131 0.85911-6.375 2.625-1.8882 1.8925-2.7598 4.4008-2.625 6.875 0.12078-2.1382 0.99306-4.2394 2.625-5.875 1.7619-1.7659 4.0664-2.625 6.375-2.625s4.6131 0.85911 6.375 2.625c1.6319 1.6357 2.5042 3.7368 2.625 5.875 0.13081-2.4698-0.7403-4.986-2.625-6.875-1.7619-1.7659-4.0664-2.625-6.375-2.625z" color="#000000" fill="#fff"/>
			<path d="m186.06-3.6562c-0.0184 0.15788-0.0524 0.31027-0.0625 0.46875 9.6e-4 0.021167-1e-3 0.041339 0 0.0625 0.113 2.1497 0.98494 4.2625 2.625 5.9062l6.375 6.4062 6.375-6.4062c1.6401-1.6438 2.512-3.7565 2.625-5.9062-1e-3 -0.020511 1e-3 -0.041996 0-0.0625-0.01-0.15504-0.0445-0.3143-0.0625-0.46875-0.20963 1.9842-1.0442 3.9157-2.5625 5.4375l-6.375 6.4062-6.375-6.4062c-1.5183-1.5218-2.3529-3.4533-2.5625-5.4375z" color="#000000" color-rendering="auto" fill="#ededec" image-rendering="auto" shape-rendering="auto" solid-color="#000000" style="isolation:auto;mix-blend-mode:normal"/>
		</g>
		<g id="slider-horz-scale-has-marks-above" transform="matrix(1.0002 0 0 .99956 7.829 406.99)">
			<path d="m224.99-15.637a0.50019 0.50019 0 0 0-0.34766 0.14648l-6.7188 6.7402c-3.9008 3.914-3.9008 10.273 0 14.188 3.9008 3.914 10.244 3.914 14.145 0 3.9008-3.914 3.9008-10.273 0-14.188l-6.7188-6.7402a0.50019 0.50019 0 0 0-0.35938-0.14648zm6e-3 1.207 6.3633 6.3867c3.5192 3.5311 3.5192 9.2423 0 12.773-3.5192 3.5311-9.2074 3.5311-12.727 0-3.5192-3.5311-3.5192-9.2423 0-12.773l6.3631-6.3867z" color="#000000" color-rendering="auto" image-rendering="auto" opacity=".1" shape-rendering="auto" solid-color="#000000" style="isolation:auto;mix-blend-mode:normal;text-decoration-color:#000000;text-decoration-line:none;text-decoration-style:solid;text-indent:0;text-transform:none;white-space:normal"/>
			<path d="m218.28 4.0831c3.71 3.7226 9.725 3.7226 13.435 0s3.71-9.758 0-13.481l-6.7175-6.7403-6.7175 6.7403c-3.71 3.7226-3.71 9.758 0 13.481z" color="#000000" color-rendering="auto" fill="#fff" image-rendering="auto" shape-rendering="auto" solid-color="#000000" stroke="#c2c2c2" stroke-linejoin="round" stroke-width="1.0006" style="isolation:auto;mix-blend-mode:normal"/>
			<g transform="rotate(180 209.99 -2.6314)">
				<path d="m186-3.125c-0.14009 2.48 0.73219 5.0091 2.625 6.9062l6.375 6.4062 6.375-6.4062c1.8928-1.8971 2.7651-4.4262 2.625-6.9062-0.11682 2.1445-0.98843 4.266-2.625 5.9062l-6.375 6.4062-6.375-6.4062c-1.6366-1.6403-2.5082-3.7618-2.625-5.9062z" color="#000000" fill="#fff"/>
			</g>
			<path d="m224.99 5.3622c2.3086-1e-6 4.6131-0.85911 6.375-2.625 1.8882-1.8925 2.7598-4.4008 2.625-6.875-0.12078 2.1382-0.99306 4.2394-2.625 5.875-1.7619 1.7659-4.0664 2.625-6.375 2.625s-4.6131-0.85911-6.375-2.625c-1.6319-1.6357-2.5042-3.7368-2.625-5.875-0.13081 2.4698 0.7403 4.986 2.625 6.875 1.7619 1.7659 4.0664 2.625 6.375 2.625z" color="#000000" color-rendering="auto" fill="#ededec" image-rendering="auto" shape-rendering="auto" solid-color="#000000" style="isolation:auto;mix-blend-mode:normal"/>
		</g>
		<g id="slider-vert-scale-has-marks-above" transform="matrix(1.0001 0 0 1.0003 7.843 406.99)">
			<path d="m261.71 5.0927c3.7205-3.71 3.7205-9.725 0-13.435s-9.7526-3.71-13.473 0l-6.7366 6.7175 6.7366 6.7175c3.7205 3.71 9.7526 3.71 13.473-1e-6z" color="#000000" opacity=".1" stroke="#000" stroke-linejoin="round"/>
			<path d="m261.71 4.0925c3.7205-3.71 3.7205-9.725 0-13.435s-9.7526-3.71-13.473-2e-7l-6.7366 6.7175 6.7366 6.7175c3.7205 3.71 9.7526 3.71 13.473-5e-7z" color="#000000" fill="#fff" stroke="#c2c2c2" stroke-linejoin="round" stroke-width="1.0003"/>
			<path d="m263.94-3.6562c-0.20946 1.9782-1.042 3.8901-2.5625 5.4062-3.53 3.5201-9.2512 3.5201-12.781 0l-5.4062-5.375-0.5 0.5 5.9062 5.875c3.53 3.5201 9.2512 3.5201 12.781 0 1.6384-1.6338 2.5093-3.7343 2.625-5.875-1e-3 -0.020474 1e-3 -0.042033 0-0.0625-0.01-0.1568-0.0447-0.31253-0.0625-0.46875z" color="#000000" color-rendering="auto" fill="#ededec" image-rendering="auto" shape-rendering="auto" solid-color="#000000" style="isolation:auto;mix-blend-mode:normal"/>
			<path d="m254.97-11.625c-2.312-1e-6 -4.609 0.86399-6.375 2.625l-6.4062 6.375 0.5 0.5 5.9062-5.875c1.766-1.761 4.063-2.625 6.375-2.625s4.6422 0.86596 6.4062 2.625c1.6389 1.6343 2.508 3.7348 2.625 5.875 0.13498-2.4693-0.7341-4.9894-2.625-6.875-1.764-1.759-4.0942-2.625-6.4062-2.625z" color="#000000" fill="#fff"/>
		</g>
		<g id="slider-vert-scale-has-marks-below" transform="matrix(1.0001 0 0 1.0003 7.8348 406.99)">
			<path d="m278.29-8.3424c-3.7205 3.71-3.7205 9.725 0 13.435s9.7526 3.71 13.473 0l6.7366-6.7175-6.7366-6.7175c-3.7205-3.71-9.7526-3.71-13.473 0z" color="#000000" color-rendering="auto" image-rendering="auto" opacity=".1" shape-rendering="auto" solid-color="#000000" stroke="#000" stroke-linejoin="round" style="isolation:auto;mix-blend-mode:normal"/>
			<path d="m278.29-9.3425c-3.7205 3.71-3.7205 9.725 0 13.435s9.7526 3.71 13.473 0l6.7366-6.7175-6.7366-6.7175c-3.7205-3.71-9.7526-3.71-13.473 3e-7z" color="#000000" color-rendering="auto" fill="#fff" image-rendering="auto" shape-rendering="auto" solid-color="#000000" stroke="#c2c2c2" stroke-linejoin="round" stroke-width="1.0003" style="isolation:auto;mix-blend-mode:normal"/>
			<g transform="matrix(-1 0 0 1 540.01 -.027864)">
				<path d="m263.94-3.6562c-0.20946 1.9782-1.042 3.8901-2.5625 5.4062-3.53 3.5201-9.2512 3.5201-12.781 0l-5.4062-5.375-0.5 0.5 5.9062 5.875c3.53 3.5201 9.2512 3.5201 12.781 0 1.6384-1.6338 2.5093-3.7343 2.625-5.875-1e-3 -0.020474 1e-3 -0.042033 0-0.0625-0.01-0.1568-0.0447-0.31253-0.0625-0.46875z" color="#000000" color-rendering="auto" fill="#ededec" image-rendering="auto" shape-rendering="auto" solid-color="#000000" style="isolation:auto;mix-blend-mode:normal"/>
				<path d="m254.97-11.625c-2.312-1e-6 -4.609 0.86399-6.375 2.625l-6.4062 6.375 0.5 0.5 5.9062-5.875c1.766-1.761 4.063-2.625 6.375-2.625s4.6422 0.86596 6.4062 2.625c1.6389 1.6343 2.508 3.7348 2.625 5.875 0.13498-2.4693-0.7341-4.9894-2.625-6.875-1.764-1.759-4.0942-2.625-6.4062-2.625z" color="#000000" fill="#fff"/>
			</g>
		</g>
		<g id="slider-horz-scale-has-marks-below-dark" transform="matrix(1.0003 0 0 1.0007 7.8224 426.87)">
			<path d="m201.72 171.66c-3.71-3.7184-9.725-3.7184-13.435 0s-3.71 9.7472 0 13.466l6.7175 6.7328 6.7175-6.7328c3.71-3.7184 3.71-9.7472 0-13.466z" color="#000000" opacity=".1" stroke="#000" stroke-linejoin="round"/>
			<path d="m201.72 170.66c-3.71-3.7184-9.725-3.7184-13.435 0s-3.71 9.7472 0 13.466l6.7175 6.7328 6.7175-6.7328c3.71-3.7184 3.71-9.7472 0-13.466z" color="#000000" fill="url(#n)" stroke="#000" stroke-linejoin="round"/>
			<g transform="translate(0,180)">
				<path d="m195-11.625c-2.3086 1e-6 -4.6131 0.85911-6.375 2.625-1.8882 1.8925-2.7598 4.4008-2.625 6.875 0.12078-2.1382 0.99306-4.2394 2.625-5.875 1.7619-1.7659 4.0664-2.625 6.375-2.625s4.6131 0.85911 6.375 2.625c1.6319 1.6357 2.5042 3.7368 2.625 5.875 0.13081-2.4698-0.7403-4.986-2.625-6.875-1.7619-1.7659-4.0664-2.625-6.375-2.625z" color="#000000" fill="#fff" opacity=".02"/>
				<path d="m186.06-3.6562c-0.0184 0.15788-0.0524 0.31027-0.0625 0.46875 9.6e-4 0.021167-1e-3 0.041339 0 0.0625 0.113 2.1497 0.98494 4.2625 2.625 5.9062l6.375 6.4062 6.375-6.4062c1.6401-1.6438 2.512-3.7565 2.625-5.9062-1e-3 -0.020511 1e-3 -0.041996 0-0.0625-0.01-0.15504-0.0445-0.3143-0.0625-0.46875-0.20963 1.9842-1.0442 3.9157-2.5625 5.4375l-6.375 6.4062-6.375-6.4062c-1.5183-1.5218-2.3529-3.4533-2.5625-5.4375z" color="#000000" color-rendering="auto" fill="#c4d6df" image-rendering="auto" opacity=".05" shape-rendering="auto" solid-color="#000000" style="isolation:auto;mix-blend-mode:normal"/>
			</g>
		</g>
		<g id="slider-horz-scale-has-marks-above-dark" transform="matrix(1.0003 0 0 .9996 7.8169 427.06)">
			<path d="m218.28 185.08c3.71 3.7226 9.725 3.7226 13.435 0s3.71-9.758 0-13.481l-6.7175-6.7403-6.7175 6.7403c-3.71 3.7226-3.71 9.758 0 13.481z" color="#000000" opacity=".2" stroke="#000" stroke-linejoin="round" stroke-width="1.0003"/>
			<path d="m218.28 184.08c3.71 3.7226 9.725 3.7226 13.435 0s3.71-9.758 0-13.481l-6.7175-6.7403-6.7175 6.7403c-3.71 3.7226-3.71 9.758 0 13.481z" color="#000000" fill="url(#m)" stroke="#000" stroke-linejoin="round" stroke-width="1.0005"/>
			<g transform="rotate(180 209.99 87.369)">
				<path d="m186-3.125c-0.14009 2.48 0.73219 5.0091 2.625 6.9062l6.375 6.4062 6.375-6.4062c1.8928-1.8971 2.7651-4.4262 2.625-6.9062-0.11682 2.1445-0.98843 4.266-2.625 5.9062l-6.375 6.4062-6.375-6.4062c-1.6366-1.6403-2.5082-3.7618-2.625-5.9062z" color="#000000" fill="#fff" opacity=".02"/>
			</g>
			<path d="m224.99 185.36c2.3086 0 4.6131-0.85911 6.375-2.625 1.8882-1.8925 2.7598-4.4008 2.625-6.875-0.12078 2.1382-0.99306 4.2394-2.625 5.875-1.7619 1.7659-4.0664 2.625-6.375 2.625s-4.6131-0.85911-6.375-2.625c-1.6319-1.6356-2.5042-3.7368-2.625-5.875-0.13081 2.4698 0.7403 4.986 2.625 6.875 1.7619 1.7659 4.0664 2.625 6.375 2.625z" color="#000000" color-rendering="auto" fill="#c4d6df" image-rendering="auto" opacity=".05" shape-rendering="auto" solid-color="#000000" style="isolation:auto;mix-blend-mode:normal"/>
		</g>
		<g id="slider-vert-scale-has-marks-above-dark" transform="matrix(1.0001 0 0 1.0003 7.8432 426.94)">
			<path d="m261.71 185.09c3.7205-3.71 3.7205-9.7251 0-13.435-3.7205-3.71-9.7526-3.71-13.473 0l-6.7366 6.7175 6.7366 6.7175c3.7205 3.71 9.7526 3.71 13.473 0z" color="#000000" opacity=".1" stroke="#000" stroke-linejoin="round"/>
			<path d="m261.71 184.09c3.7205-3.71 3.7205-9.725 0-13.435s-9.7526-3.71-13.473 0l-6.7366 6.7175 6.7366 6.7175c3.7205 3.71 9.7526 3.71 13.473 0z" color="#000000" fill="url(#l)" stroke="#000" stroke-linejoin="round" stroke-width="1.0003"/>
			<g transform="translate(0,180)">
				<path d="m263.94-3.6562c-0.20946 1.9782-1.042 3.8901-2.5625 5.4062-3.53 3.5201-9.2512 3.5201-12.781 0l-5.4062-5.375-0.5 0.5 5.9062 5.875c3.53 3.5201 9.2512 3.5201 12.781 0 1.6384-1.6338 2.5093-3.7343 2.625-5.875-1e-3 -0.020474 1e-3 -0.042033 0-0.0625-0.01-0.1568-0.0447-0.31253-0.0625-0.46875z" color="#000000" color-rendering="auto" fill="#c4d6df" image-rendering="auto" opacity=".05" shape-rendering="auto" solid-color="#000000" style="isolation:auto;mix-blend-mode:normal"/>
				<path d="m254.97-11.625c-2.312-1e-6 -4.609 0.86399-6.375 2.625l-6.4062 6.375 0.5 0.5 5.9062-5.875c1.766-1.761 4.063-2.625 6.375-2.625s4.6422 0.86596 6.4062 2.625c1.6389 1.6343 2.508 3.7348 2.625 5.875 0.13498-2.4693-0.7341-4.9894-2.625-6.875-1.764-1.759-4.0942-2.625-6.4062-2.625z" color="#000000" fill="#fff" opacity=".02"/>
			</g>
		</g>
		<g id="slider-vert-scale-has-marks-below-dark" transform="matrix(1.0001 0 0 1.0003 7.8349 426.94)">
			<path d="m278.29 171.66c-3.7205 3.71-3.7205 9.725 0 13.435s9.7526 3.71 13.473 0l6.7366-6.7175-6.7366-6.7175c-3.7205-3.71-9.7526-3.71-13.473 0z" color="#000000" opacity=".1" stroke="#000" stroke-linejoin="round"/>
			<path d="m278.29 170.66c-3.7205 3.71-3.7205 9.725 0 13.435s9.7526 3.71 13.473 0l6.7366-6.7175-6.7366-6.7175c-3.7205-3.71-9.7526-3.71-13.473 0z" color="#000000" fill="url(#j)" stroke="#000" stroke-linejoin="round" stroke-width="1.0003"/>
			<g transform="matrix(-1 0 0 1 540.01 179.97)">
				<path d="m263.94-3.6562c-0.20946 1.9782-1.042 3.8901-2.5625 5.4062-3.53 3.5201-9.2512 3.5201-12.781 0l-5.4062-5.375-0.5 0.5 5.9062 5.875c3.53 3.5201 9.2512 3.5201 12.781 0 1.6384-1.6338 2.5093-3.7343 2.625-5.875-1e-3 -0.020474 1e-3 -0.042033 0-0.0625-0.01-0.1568-0.0447-0.31253-0.0625-0.46875z" color="#000000" color-rendering="auto" fill="#c4d6df" image-rendering="auto" opacity=".05" shape-rendering="auto" solid-color="#000000" style="isolation:auto;mix-blend-mode:normal"/>
				<path d="m254.97-11.625c-2.312-1e-6 -4.609 0.86399-6.375 2.625l-6.4062 6.375 0.5 0.5 5.9062-5.875c1.766-1.761 4.063-2.625 6.375-2.625s4.6422 0.86596 6.4062 2.625c1.6389 1.6343 2.508 3.7348 2.625 5.875 0.13498-2.4693-0.7341-4.9894-2.625-6.875-1.764-1.759-4.0942-2.625-6.4062-2.625z" color="#000000" fill="#fff" opacity=".02"/>
			</g>
		</g>
		<g id="slider-horz-scale-has-marks-below-hover" transform="matrix(.99998 0 0 1.0007 7.8804 436.99)">
			<path d="m201.72-8.3498c-3.711-3.7209-9.7278-3.7209-13.439 0-3.711 3.7209-3.711 9.7536 0 13.474l6.7194 6.7372 6.7194-6.7372c3.711-3.7209 3.711-9.7536 0-13.474z" color="#000000" color-rendering="auto" image-rendering="auto" opacity=".1" shape-rendering="auto" solid-color="#000000" stroke="#000" stroke-linejoin="round" stroke-width="1.0005" style="isolation:auto;mix-blend-mode:normal"/>
			<g fill="#fff">
				<path d="m201.72-9.3362c-3.71-3.7184-9.725-3.7184-13.435 0s-3.71 9.7472 0 13.466l6.7175 6.7328 6.7175-6.7328c3.71-3.7184 3.71-9.7472 0-13.466z" color="#000000" stroke="#c2c2c2" stroke-linejoin="round" stroke-width="1.0001"/>
				<path d="m195-11.625c-2.3086 1e-6 -4.6131 0.85911-6.375 2.625-1.8882 1.8925-2.7598 4.4008-2.625 6.875 0.12078-2.1382 0.99306-4.2394 2.625-5.875 1.7619-1.7659 4.0664-2.625 6.375-2.625s4.6131 0.85911 6.375 2.625c1.6319 1.6357 2.5042 3.7368 2.625 5.875 0.13081-2.4698-0.7403-4.986-2.625-6.875-1.7619-1.7659-4.0664-2.625-6.375-2.625z" color="#000000"/>
				<path d="m186.06-3.6562c-0.0184 0.15788-0.0524 0.31027-0.0625 0.46875 9.6e-4 0.021167-1e-3 0.041339 0 0.0625 0.113 2.1497 0.98494 4.2625 2.625 5.9062l6.375 6.4062 6.375-6.4062c1.6401-1.6438 2.512-3.7565 2.625-5.9062-1e-3 -0.020511 1e-3 -0.041996 0-0.0625-0.01-0.15504-0.0445-0.3143-0.0625-0.46875-0.20963 1.9842-1.0442 3.9157-2.5625 5.4375l-6.375 6.4062-6.375-6.4062c-1.5183-1.5218-2.3529-3.4533-2.5625-5.4375z" color="#000000" color-rendering="auto" image-rendering="auto" opacity=".4" shape-rendering="auto" solid-color="#000000" style="isolation:auto;mix-blend-mode:normal"/>
			</g>
		</g>
		<g id="slider-horz-scale-has-marks-above-hover" transform="matrix(1 0 0 .99944 7.8771 436.99)">
			<path d="m224.99-15.637a0.5003 0.50025 0 0 0-0.34774 0.1465l-6.7202 6.741c-3.9016 3.9145-3.9016 10.275 0 14.189 3.9016 3.9145 10.246 3.9145 14.148 0s3.9016-10.275 0-14.189l-6.7202-6.741a0.5003 0.50025 0 0 0-0.35945-0.1465zm6e-3 1.2072 6.3646 6.3875c3.5199 3.5315 3.5199 9.2434 0 12.775-3.5199 3.5315-9.2094 3.5315-12.729 0-3.52-3.5315-3.52-9.2434 0-12.775l6.3645-6.3875z" color="#000000" color-rendering="auto" image-rendering="auto" opacity=".1" shape-rendering="auto" solid-color="#000000" style="isolation:auto;mix-blend-mode:normal;text-decoration-color:#000000;text-decoration-line:none;text-decoration-style:solid;text-indent:0;text-transform:none;white-space:normal"/>
			<path d="m218.28 4.0831c3.71 3.7226 9.725 3.7226 13.435 0s3.71-9.758 0-13.481l-6.7175-6.7403-6.7175 6.7403c-3.71 3.7226-3.71 9.758 0 13.481z" color="#000000" fill="#fff" stroke="#c2c2c2" stroke-linejoin="round" stroke-width="1.0007"/>
			<g transform="rotate(180 209.99 -2.6314)">
				<path d="m186-3.125c-0.14009 2.48 0.73219 5.0091 2.625 6.9062l6.375 6.4062 6.375-6.4062c1.8928-1.8971 2.7651-4.4262 2.625-6.9062-0.11682 2.1445-0.98843 4.266-2.625 5.9062l-6.375 6.4062-6.375-6.4062c-1.6366-1.6403-2.5082-3.7618-2.625-5.9062z" color="#000000" fill="#fff"/>
			</g>
			<path d="m224.99 5.3622c2.3086-1e-6 4.6131-0.85911 6.375-2.625 1.8882-1.8925 2.7598-4.4008 2.625-6.875-0.12078 2.1382-0.99306 4.2394-2.625 5.875-1.7619 1.7659-4.0664 2.625-6.375 2.625s-4.6131-0.85911-6.375-2.625c-1.6319-1.6357-2.5042-3.7368-2.625-5.875-0.13081 2.4698 0.7403 4.986 2.625 6.875 1.7619 1.7659 4.0664 2.625 6.375 2.625z" color="#000000" color-rendering="auto" fill="#fff" image-rendering="auto" opacity=".4" shape-rendering="auto" solid-color="#000000" style="isolation:auto;mix-blend-mode:normal"/>
		</g>
		<g id="slider-vert-scale-has-marks-above-hover" transform="matrix(.99998 0 0 1.0008 7.8813 436.99)">
			<path d="m261.71 5.0816c3.721-3.711 3.721-9.7277 0-13.439-3.721-3.711-9.754-3.711-13.475 0l-6.7375 6.7193 6.7375 6.7193c3.721 3.711 9.754 3.711 13.475-1e-6z" color="#000000" opacity=".1" stroke="#000" stroke-linejoin="round" stroke-width="1.0002"/>
			<g fill="#fff">
				<path d="m261.71 4.0925c3.7205-3.71 3.7205-9.725 0-13.435s-9.7526-3.71-13.473-2e-7l-6.7366 6.7175 6.7366 6.7175c3.7205 3.71 9.7526 3.71 13.473-5e-7z" color="#000000" stroke="#c2c2c2" stroke-linejoin="round" stroke-width="1.0001"/>
				<path d="m263.94-3.6562c-0.20946 1.9782-1.042 3.8901-2.5625 5.4062-3.53 3.5201-9.2512 3.5201-12.781 0l-5.4062-5.375-0.5 0.5 5.9062 5.875c3.53 3.5201 9.2512 3.5201 12.781 0 1.6384-1.6338 2.5093-3.7343 2.625-5.875-1e-3 -0.020474 1e-3 -0.042033 0-0.0625-0.01-0.1568-0.0447-0.31253-0.0625-0.46875z" color="#000000" color-rendering="auto" image-rendering="auto" opacity=".4" shape-rendering="auto" solid-color="#000000" style="isolation:auto;mix-blend-mode:normal"/>
				<path d="m254.97-11.625c-2.312-1e-6 -4.609 0.86399-6.375 2.625l-6.4062 6.375 0.5 0.5 5.9062-5.875c1.766-1.761 4.063-2.625 6.375-2.625s4.6422 0.86596 6.4062 2.625c1.6389 1.6343 2.508 3.7348 2.625 5.875 0.13498-2.4693-0.7341-4.9894-2.625-6.875-1.764-1.759-4.0942-2.625-6.4062-2.625z" color="#000000"/>
			</g>
		</g>
		<g id="slider-vert-scale-has-marks-below-hover" transform="matrix(.99998 0 0 1.0008 7.8818 436.99)">
			<path d="m278.29-8.3571c-3.721 3.711-3.721 9.7277 0 13.439 3.721 3.711 9.754 3.711 13.475 0l6.7375-6.7193-6.7375-6.7193c-3.721-3.711-9.754-3.711-13.475 0z" color="#000000" color-rendering="auto" image-rendering="auto" opacity=".1" shape-rendering="auto" solid-color="#000000" stroke="#000" stroke-linejoin="round" stroke-width="1.0002" style="isolation:auto;mix-blend-mode:normal"/>
			<path d="m278.29-9.3425c-3.7205 3.71-3.7205 9.725 0 13.435s9.7526 3.71 13.473 0l6.7366-6.7175-6.7366-6.7175c-3.7205-3.71-9.7526-3.71-13.473 3e-7z" color="#000000" fill="#fff" stroke="#c2c2c2" stroke-linejoin="round" stroke-width="1.0001"/>
			<g transform="matrix(-1 0 0 1 540.01 -.027864)" fill="#fff">
				<path d="m263.94-3.6562c-0.20946 1.9782-1.042 3.8901-2.5625 5.4062-3.53 3.5201-9.2512 3.5201-12.781 0l-5.4062-5.375-0.5 0.5 5.9062 5.875c3.53 3.5201 9.2512 3.5201 12.781 0 1.6384-1.6338 2.5093-3.7343 2.625-5.875-1e-3 -0.020474 1e-3 -0.042033 0-0.0625-0.01-0.1568-0.0447-0.31253-0.0625-0.46875z" color="#000000" color-rendering="auto" image-rendering="auto" opacity=".4" shape-rendering="auto" solid-color="#000000" style="isolation:auto;mix-blend-mode:normal"/>
				<path d="m254.97-11.625c-2.312-1e-6 -4.609 0.86399-6.375 2.625l-6.4062 6.375 0.5 0.5 5.9062-5.875c1.766-1.761 4.063-2.625 6.375-2.625s4.6422 0.86596 6.4062 2.625c1.6389 1.6343 2.508 3.7348 2.625 5.875 0.13498-2.4693-0.7341-4.9894-2.625-6.875-1.764-1.759-4.0942-2.625-6.4062-2.625z" color="#000000"/>
			</g>
		</g>
		<g id="slider-horz-scale-has-marks-below-backdrop-insensitive" transform="matrix(1.0003 0 0 1.0007 7.8225 556.99)" fill="#faf9f8" stroke="#d1ccc8" stroke-linejoin="round" stroke-width=".99951">
			<path d="m201.72-8.3369c-3.71-3.7184-9.725-3.7184-13.435 0s-3.71 9.7472 0 13.466l6.7175 6.7328 6.7175-6.7328c3.71-3.7184 3.71-9.7472 0-13.466z" color="#000000" opacity="0"/>
			<path d="m201.72-9.3362c-3.71-3.7184-9.725-3.7184-13.435 0s-3.71 9.7472 0 13.466l6.7175 6.7328 6.7175-6.7328c3.71-3.7184 3.71-9.7472 0-13.466z" color="#000000" fill="#fff" stroke="#dadada" stroke-linejoin="round"/>
		</g>
		<g id="slider-horz-scale-has-marks-above-backdrop-insensitive" transform="matrix(1.0003 0 0 .9996 7.8169 556.99)">
			<path d="m218.28 5.0835c3.71 3.7226 9.725 3.7226 13.435 0s3.71-9.758 0-13.481l-6.7175-6.7403-6.7175 6.7403c-3.71 3.7226-3.71 9.758 0 13.481z" color="#000000" opacity="0" stroke-width="1.0003"/>
			<path d="m218.28 4.0831c3.71 3.7226 9.725 3.7226 13.435 0s3.71-9.758 0-13.481l-6.7175-6.7403-6.7175 6.7403c-3.71 3.7226-3.71 9.758 0 13.481z" color="#000000" fill="#fff" stroke="#dadada" stroke-linejoin="round" stroke-width="1.0001"/>
		</g>
		<g id="slider-vert-scale-has-marks-above-backdrop-insensitive" transform="matrix(1.0001 0 0 1.0003 7.8432 556.99)">
			<path d="m261.71 5.0922c3.7205-3.71 3.7205-9.725 0-13.435s-9.7526-3.71-13.473 0l-6.7366 6.7175 6.7366 6.7175c3.7205 3.71 9.7526 3.71 13.473 0z" color="#000000" opacity="0"/>
			<path d="m261.71 4.0925c3.7205-3.71 3.7205-9.725 0-13.435s-9.7526-3.71-13.473-2e-7l-6.7366 6.7175 6.7366 6.7175c3.7205 3.71 9.7526 3.71 13.473-5e-7z" color="#000000" fill="#fff" stroke="#dadada" stroke-linejoin="round" stroke-width=".99978"/>
		</g>
		<g id="slider-vert-scale-has-marks-below-backdrop-insensitive" transform="matrix(1.0001 0 0 1.0003 7.835 556.99)">
			<path d="m278.29-8.3428c-3.7205 3.71-3.7205 9.725 0 13.435s9.7526 3.71 13.473 0l6.7366-6.7175-6.7366-6.7175c-3.7205-3.71-9.7526-3.71-13.473 0z" color="#000000" opacity="0"/>
			<path d="m278.29-9.3425c-3.7205 3.71-3.7205 9.725 0 13.435s9.7526 3.71 13.473 0l6.7366-6.7175-6.7366-6.7175c-3.7205-3.71-9.7526-3.71-13.473 3e-7z" color="#000000" fill="#fff" stroke="#dadada" stroke-linejoin="round" stroke-width=".99978"/>
		</g>
		<g id="slider-horz-scale-has-marks-below-hover-dark" transform="matrix(1.0003 0 0 1.0007 7.8225 456.87)">
			<path d="m201.72 171.66c-3.71-3.7184-9.725-3.7184-13.435 0s-3.71 9.7472 0 13.466l6.7175 6.7328 6.7175-6.7328c3.71-3.7184 3.71-9.7472 0-13.466z" color="#000000" opacity=".1" stroke="#000" stroke-linejoin="round"/>
			<path d="m201.72 170.66c-3.71-3.7184-9.725-3.7184-13.435 0s-3.71 9.7472 0 13.466l6.7175 6.7328 6.7175-6.7328c3.71-3.7184 3.71-9.7472 0-13.466z" color="#000000" fill="url(#dark-hover)" stroke="#000" stroke-linejoin="round"/>
			<g transform="translate(0,180)">
				<path d="m195-11.625c-2.3086 1e-6 -4.6131 0.85911-6.375 2.625-1.8882 1.8925-2.7598 4.4008-2.625 6.875 0.12078-2.1382 0.99306-4.2394 2.625-5.875 1.7619-1.7659 4.0664-2.625 6.375-2.625s4.6131 0.85911 6.375 2.625c1.6319 1.6357 2.5042 3.7368 2.625 5.875 0.13081-2.4698-0.7403-4.986-2.625-6.875-1.7619-1.7659-4.0664-2.625-6.375-2.625z" color="#000000" fill="#fff" opacity=".02"/>
				<path d="m186-3.125c-0.14009 2.48 0.73219 5.0091 2.625 6.9062l6.375 6.4062 6.375-6.4062c1.8928-1.8971 2.7651-4.4262 2.625-6.9062-0.11682 2.1445-0.98843 4.266-2.625 5.9062l-6.375 6.4062-6.375-6.4062c-1.6366-1.6403-2.5082-3.7618-2.625-5.9062z" color="#000000" opacity=".1"/>
				<path d="m186.06-3.6562c-0.0184 0.15788-0.0524 0.31027-0.0625 0.46875 9.6e-4 0.021167-1e-3 0.041339 0 0.0625 0.113 2.1497 0.98494 4.2625 2.625 5.9062l6.375 6.4062 6.375-6.4062c1.6401-1.6438 2.512-3.7565 2.625-5.9062-1e-3 -0.020511 1e-3 -0.041996 0-0.0625-0.01-0.15504-0.0445-0.3143-0.0625-0.46875-0.20963 1.9842-1.0442 3.9157-2.5625 5.4375l-6.375 6.4062-6.375-6.4062c-1.5183-1.5218-2.3529-3.4533-2.5625-5.4375z" color="#000000" color-rendering="auto" fill="#abcad3" image-rendering="auto" opacity=".05" shape-rendering="auto" solid-color="#000000" style="isolation:auto;mix-blend-mode:normal"/>
			</g>
		</g>
		<g id="slider-horz-scale-has-marks-above-hover-dark" transform="matrix(1.0003 0 0 .9996 7.8169 457.06)">
			<path d="m218.28 185.08c3.71 3.7226 9.725 3.7226 13.435 0s3.71-9.758 0-13.481l-6.7175-6.7403-6.7175 6.7403c-3.71 3.7226-3.71 9.758 0 13.481z" color="#000000" opacity=".1" stroke="#000" stroke-linejoin="round" stroke-width="1.0003"/>
			<path d="m218.28 184.08c3.71 3.7226 9.725 3.7226 13.435 0s3.71-9.758 0-13.481l-6.7175-6.7403-6.7175 6.7403c-3.71 3.7226-3.71 9.758 0 13.481z" color="#000000" fill="url(#dark-hover)" stroke="#000" stroke-linejoin="round" stroke-width="1.0005"/>
			<g transform="rotate(180 209.99 87.369)">
				<path d="m195-11.625c-2.3086 1e-6 -4.6131 0.85911-6.375 2.625-1.8882 1.8925-2.7598 4.4008-2.625 6.875 0.12078-2.1382 0.99306-4.2394 2.625-5.875 1.7619-1.7659 4.0664-2.625 6.375-2.625s4.6131 0.85911 6.375 2.625c1.6319 1.6357 2.5042 3.7368 2.625 5.875 0.13081-2.4698-0.7403-4.986-2.625-6.875-1.7619-1.7659-4.0664-2.625-6.375-2.625z" color="#000000" opacity=".1"/>
				<path d="m186-3.125c-0.14009 2.48 0.73219 5.0091 2.625 6.9062l6.375 6.4062 6.375-6.4062c1.8928-1.8971 2.7651-4.4262 2.625-6.9062-0.11682 2.1445-0.98843 4.266-2.625 5.9062l-6.375 6.4062-6.375-6.4062c-1.6366-1.6403-2.5082-3.7618-2.625-5.9062z" color="#000000" fill="#fff" opacity=".02"/>
			</g>
			<path d="m224.99 185.36c2.3086 0 4.6131-0.85911 6.375-2.625 1.8882-1.8925 2.7598-4.4008 2.625-6.875-0.12078 2.1382-0.99306 4.2394-2.625 5.875-1.7619 1.7659-4.0664 2.625-6.375 2.625s-4.6131-0.85911-6.375-2.625c-1.6319-1.6356-2.5042-3.7368-2.625-5.875-0.13081 2.4698 0.7403 4.986 2.625 6.875 1.7619 1.7659 4.0664 2.625 6.375 2.625z" color="#000000" color-rendering="auto" fill="#abcad3" image-rendering="auto" opacity=".05" shape-rendering="auto" solid-color="#000000" style="isolation:auto;mix-blend-mode:normal"/>
		</g>
		<g id="slider-vert-scale-has-marks-above-hover-dark" transform="matrix(1.0001 0 0 1.0003 7.8432 456.94)">
			<path d="m261.71 185.09c3.7205-3.71 3.7205-9.7251 0-13.435-3.7205-3.71-9.7526-3.71-13.473 0l-6.7366 6.7175 6.7366 6.7175c3.7205 3.71 9.7526 3.71 13.473 0z" color="#000000" opacity=".1" stroke="#000" stroke-linejoin="round"/>
			<path d="m261.71 184.09c3.7205-3.71 3.7205-9.725 0-13.435s-9.7526-3.71-13.473 0l-6.7366 6.7175 6.7366 6.7175c3.7205 3.71 9.7526 3.71 13.473 0z" color="#000000" fill="url(#dark-hover)" stroke="#000" stroke-linejoin="round" stroke-width="1.0003"/>
			<g transform="translate(0,180)">
				<path d="m242.69-3.125-0.5 0.5 6.4062 6.375c3.53 3.5201 9.2512 3.5201 12.781 0 1.8909-1.8856 2.76-4.4057 2.625-6.875-0.11699 2.1402-0.98607 4.2407-2.625 5.875-3.53 3.5201-9.2512 3.5201-12.781 0z" color="#000000" opacity=".1"/>
				<path d="m263.94-3.6562c-0.20946 1.9782-1.042 3.8901-2.5625 5.4062-3.53 3.5201-9.2512 3.5201-12.781 0l-5.4062-5.375-0.5 0.5 5.9062 5.875c3.53 3.5201 9.2512 3.5201 12.781 0 1.6384-1.6338 2.5093-3.7343 2.625-5.875-1e-3 -0.020474 1e-3 -0.042033 0-0.0625-0.01-0.1568-0.0447-0.31253-0.0625-0.46875z" color="#000000" color-rendering="auto" fill="#abcad3" image-rendering="auto" opacity=".05" shape-rendering="auto" solid-color="#000000" style="isolation:auto;mix-blend-mode:normal"/>
				<path d="m254.97-11.625c-2.312-1e-6 -4.609 0.86399-6.375 2.625l-6.4062 6.375 0.5 0.5 5.9062-5.875c1.766-1.761 4.063-2.625 6.375-2.625s4.6422 0.86596 6.4062 2.625c1.6389 1.6343 2.508 3.7348 2.625 5.875 0.13498-2.4693-0.7341-4.9894-2.625-6.875-1.764-1.759-4.0942-2.625-6.4062-2.625z" color="#000000" fill="#fff" opacity=".02"/>
			</g>
		</g>
		<g id="slider-vert-scale-has-marks-below-hover-dark" transform="matrix(1.0001 0 0 1.0003 7.8349 456.94)">
			<path d="m278.29 171.66c-3.7205 3.71-3.7205 9.725 0 13.435s9.7526 3.71 13.473 0l6.7366-6.7175-6.7366-6.7175c-3.7205-3.71-9.7526-3.71-13.473 0z" color="#000000" opacity=".1" stroke="#000" stroke-linejoin="round"/>
			<path d="m278.29 170.66c-3.7205 3.71-3.7205 9.725 0 13.435s9.7526 3.71 13.473 0l6.7366-6.7175-6.7366-6.7175c-3.7205-3.71-9.7526-3.71-13.473 0z" color="#000000" fill="url(#dark-hover)" stroke="#000" stroke-linejoin="round" stroke-width="1.0003"/>
			<g transform="matrix(-1 0 0 1 540.01 179.97)">
				<path d="m242.69-3.125-0.5 0.5 6.4062 6.375c3.53 3.5201 9.2512 3.5201 12.781 0 1.8909-1.8856 2.76-4.4057 2.625-6.875-0.11699 2.1402-0.98607 4.2407-2.625 5.875-3.53 3.5201-9.2512 3.5201-12.781 0z" color="#000000" opacity=".1"/>
				<path d="m263.94-3.6562c-0.20946 1.9782-1.042 3.8901-2.5625 5.4062-3.53 3.5201-9.2512 3.5201-12.781 0l-5.4062-5.375-0.5 0.5 5.9062 5.875c3.53 3.5201 9.2512 3.5201 12.781 0 1.6384-1.6338 2.5093-3.7343 2.625-5.875-1e-3 -0.020474 1e-3 -0.042033 0-0.0625-0.01-0.1568-0.0447-0.31253-0.0625-0.46875z" color="#000000" color-rendering="auto" fill="#abcad3" image-rendering="auto" opacity=".05" shape-rendering="auto" solid-color="#000000" style="isolation:auto;mix-blend-mode:normal"/>
				<path d="m254.97-11.625c-2.312-1e-6 -4.609 0.86399-6.375 2.625l-6.4062 6.375 0.5 0.5 5.9062-5.875c1.766-1.761 4.063-2.625 6.375-2.625s4.6422 0.86596 6.4062 2.625c1.6389 1.6343 2.508 3.7348 2.625 5.875 0.13498-2.4693-0.7341-4.9894-2.625-6.875-1.764-1.759-4.0942-2.625-6.4062-2.625z" color="#000000" fill="#fff" opacity=".02"/>
			</g>
		</g>
		<g id="slider-horz-scale-has-marks-below-backdrop" transform="matrix(1.0003 0 0 1.0007 7.8223 526.99)">
			<path d="m201.72-9.3362c-3.71-3.7184-9.725-3.7184-13.435 0s-3.71 9.7472 0 13.466l6.7175 6.7328 6.7175-6.7328c3.71-3.7184 3.71-9.7472 0-13.466z" color="#000000" fill="#fff" stroke="#dadada" stroke-linejoin="round" stroke-width=".99953"/>
			<path d="m201.72-8.3362c-3.71-3.7184-9.725-3.7184-13.435 0s-3.71 9.7472 0 13.466l6.7175 6.7328 6.7175-6.7328c3.71-3.7184 3.71-9.7472 0-13.466z" color="#000000" opacity="0"/>
		</g>
		<g id="slider-horz-scale-has-marks-above-backdrop" transform="matrix(1 0 0 .99958 7.8779 526.99)">
			<path d="m218.28 4.0858c3.711 3.7231 9.7276 3.7231 13.439 0 3.711-3.7231 3.711-9.7595 0-13.483l-6.7193-6.7413-6.7193 6.7413c-3.711 3.7231-3.711 9.7595 0 13.483z" color="#000000" fill="#fff" stroke="#dadada" stroke-linejoin="round" stroke-width="1.0002"/>
			<path d="m218.28 5.0836c3.71 3.7226 9.725 3.7226 13.435 0s3.71-9.758 0-13.481l-6.7175-6.7403-6.7175 6.7403c-3.71 3.7226-3.71 9.758 0 13.481z" color="#000000" opacity="0" stroke-width="1.0003"/>
		</g>
		<g id="slider-vert-scale-has-marks-above-backdrop" transform="matrix(1.0001 0 0 1 7.8416 526.99)">
			<path d="m261.71 5.0925c3.7205-3.71 3.7205-9.725 0-13.435s-9.7526-3.71-13.473 0l-6.7366 6.7175 6.7366 6.7175c3.7205 3.71 9.7526 3.71 13.473 0z" color="#000000" opacity="0"/>
			<path d="m261.71 4.0925c3.7205-3.71 3.7205-9.725 0-13.435s-9.7526-3.71-13.473-2e-7l-6.7366 6.7175 6.7366 6.7175c3.7205 3.71 9.7526 3.71 13.473-5e-7z" color="#000000" fill="#fff" stroke="#dadada" stroke-linejoin="round" stroke-width=".99993"/>
		</g>
		<g id="slider-vert-scale-has-marks-below-backdrop" transform="matrix(1.0001 0 0 1.0003 7.8332 526.99)">
			<path d="m278.29-8.3428c-3.7205 3.71-3.7205 9.725 0 13.435s9.7526 3.71 13.473 0l6.7366-6.7175-6.7366-6.7175c-3.7205-3.71-9.7526-3.71-13.473 0z" color="#000000" opacity="0"/>
			<path d="m278.29-9.3425c-3.7205 3.71-3.7205 9.725 0 13.435s9.7526 3.71 13.473 0l6.7366-6.7175-6.7366-6.7175c-3.7205-3.71-9.7526-3.71-13.473 3e-7z" color="#000000" fill="#fff" stroke="#dadada" stroke-linejoin="round" stroke-width=".99978"/>
		</g>
		<g id="slider-horz-scale-has-marks-below-insensitive" transform="matrix(1.0003 0 0 1.0007 7.8224 496.99)">
			<path d="m201.72-8.3362c-3.71-3.7184-9.725-3.7184-13.435 0s-3.71 9.7472 0 13.466l6.7175 6.7328 6.7175-6.7328c3.71-3.7184 3.71-9.7472 0-13.466z" color="#000000" opacity="0"/>
			<path d="m201.72-9.3362c-3.71-3.7184-9.725-3.7184-13.435 0s-3.71 9.7472 0 13.466l6.7175 6.7328 6.7175-6.7328c3.71-3.7184 3.71-9.7472 0-13.466z" color="#000000" color-rendering="auto" fill="#fff" image-rendering="auto" shape-rendering="auto" solid-color="#000000" stroke="#dadada" stroke-linejoin="round" stroke-width=".99953" style="isolation:auto;mix-blend-mode:normal"/>
		</g>
		<g id="slider-horz-scale-has-marks-above-insensitive" transform="matrix(1.0003 0 0 .9996 7.8169 496.99)">
			<path d="m218.28 5.0836c3.71 3.7226 9.725 3.7226 13.435 0s3.71-9.758 0-13.481l-6.7175-6.7403-6.7175 6.7403c-3.71 3.7226-3.71 9.758 0 13.481z" color="#000000" opacity="0" stroke-width="1.0003"/>
			<path d="m218.28 4.0831c3.71 3.7226 9.725 3.7226 13.435 0s3.71-9.758 0-13.481l-6.7175-6.7403-6.7175 6.7403c-3.71 3.7226-3.71 9.758 0 13.481z" color="#000000" color-rendering="auto" fill="#fff" image-rendering="auto" shape-rendering="auto" solid-color="#000000" stroke="#dadada" stroke-linejoin="round" stroke-width="1.0001" style="isolation:auto;mix-blend-mode:normal"/>
		</g>
		<g id="slider-vert-scale-has-marks-above-insensitive" transform="matrix(1.0001 0 0 1.0003 7.8431 496.99)">
			<path d="m261.71 5.0925c3.7205-3.71 3.7205-9.725 0-13.435s-9.7526-3.71-13.473 0l-6.7366 6.7175 6.7366 6.7175c3.7205 3.71 9.7526 3.71 13.473 0z" color="#000000" opacity="0"/>
			<path d="m261.71 4.0925c3.7205-3.71 3.7205-9.725 0-13.435s-9.7526-3.71-13.473-2e-7l-6.7366 6.7175 6.7366 6.7175c3.7205 3.71 9.7526 3.71 13.473-5e-7z" color="#000000" color-rendering="auto" fill="#fff" image-rendering="auto" shape-rendering="auto" solid-color="#000000" stroke="#dadada" stroke-linejoin="round" stroke-width=".99979" style="isolation:auto;mix-blend-mode:normal"/>
		</g>
		<g id="slider-vert-scale-has-marks-below-insensitive" transform="matrix(1.0001 0 0 1.0003 7.8349 496.99)">
			<path d="m278.29-8.3425c-3.7205 3.71-3.7205 9.725 0 13.435s9.7526 3.71 13.473 0l6.7366-6.7175-6.7366-6.7175c-3.7205-3.71-9.7526-3.71-13.473 0z" color="#000000" opacity="0"/>
			<path d="m278.29-9.3425c-3.7205 3.71-3.7205 9.725 0 13.435s9.7526 3.71 13.473 0l6.7366-6.7175-6.7366-6.7175c-3.7205-3.71-9.7526-3.71-13.473 3e-7z" color="#000000" color-rendering="auto" fill="#fff" image-rendering="auto" shape-rendering="auto" solid-color="#000000" stroke="#dadada" stroke-linejoin="round" stroke-width=".99979" style="isolation:auto;mix-blend-mode:normal"/>
		</g>
		<g id="slider-horz-scale-has-marks-below-backdrop-insensitive-dark" transform="matrix(1.0003 0 0 1.0007 7.8225 756.99)">
			<path d="m201.72-8.3368c-3.71-3.7184-9.725-3.7184-13.435 0s-3.71 9.7472 0 13.466l6.7175 6.7328 6.7175-6.7328c3.71-3.7184 3.71-9.7472 0-13.466z" color="#000000" opacity="0"/>
			<path d="m201.72-9.3362c-3.71-3.7184-9.725-3.7184-13.435 0s-3.71 9.7472 0 13.466l6.7175 6.7328 6.7175-6.7328c3.71-3.7184 3.71-9.7472 0-13.466z" color="#000000" color-rendering="auto" fill="#252730" image-rendering="auto" shape-rendering="auto" solid-color="#000000" stroke="#0d0e11" stroke-linejoin="round" style="isolation:auto;mix-blend-mode:normal"/>
		</g>
		<g id="slider-horz-scale-has-marks-above-backdrop-insensitive-dark" transform="matrix(1.0003 0 0 .9996 7.8169 756.99)">
			<path d="m218.28 5.0833c3.71 3.7226 9.725 3.7226 13.435 0s3.71-9.758 0-13.481l-6.7175-6.7403-6.7175 6.7403c-3.71 3.7226-3.71 9.758 0 13.481z" color="#000000" opacity="0" stroke-width="1.0003"/>
			<path d="m218.28 4.0831c3.71 3.7226 9.725 3.7226 13.435 0s3.71-9.758 0-13.481l-6.7175-6.7403-6.7175 6.7403c-3.71 3.7226-3.71 9.758 0 13.481z" color="#000000" color-rendering="auto" fill="#252730" image-rendering="auto" shape-rendering="auto" solid-color="#000000" stroke="#0d0e11" stroke-linejoin="round" stroke-width="1.0005" style="isolation:auto;mix-blend-mode:normal"/>
		</g>
		<g id="slider-vert-scale-has-marks-above-backdrop-insensitive-dark" transform="matrix(1.0001 0 0 1.0003 7.8432 756.99)">
			<path d="m261.71 5.0922c3.7205-3.71 3.7205-9.725 0-13.435s-9.7526-3.71-13.473 0l-6.7366 6.7175 6.7366 6.7175c3.7205 3.71 9.7526 3.71 13.473 0z" color="#000000" opacity="0"/>
			<path d="m261.71 4.0925c3.7205-3.71 3.7205-9.725 0-13.435s-9.7526-3.71-13.473-2e-7l-6.7366 6.7175 6.7366 6.7175c3.7205 3.71 9.7526 3.71 13.473-5e-7z" color="#000000" color-rendering="auto" fill="#252730" image-rendering="auto" shape-rendering="auto" solid-color="#000000" stroke="#0d0e11" stroke-linejoin="round" stroke-width="1.0003" style="isolation:auto;mix-blend-mode:normal"/>
		</g>
		<g id="slider-vert-scale-has-marks-below-backdrop-insensitive-dark" transform="matrix(1.0001 0 0 1.0003 7.835 756.99)">
			<path d="m278.29-8.3428c-3.7205 3.71-3.7205 9.725 0 13.435s9.7526 3.71 13.473 0l6.7366-6.7175-6.7366-6.7175c-3.7205-3.71-9.7526-3.71-13.473 0z" color="#000000" opacity="0"/>
			<path d="m278.29-9.3425c-3.7205 3.71-3.7205 9.725 0 13.435s9.7526 3.71 13.473 0l6.7366-6.7175-6.7366-6.7175c-3.7205-3.71-9.7526-3.71-13.473 3e-7z" color="#000000" color-rendering="auto" fill="#252730" image-rendering="auto" shape-rendering="auto" solid-color="#000000" stroke="#0d0e11" stroke-linejoin="round" stroke-width="1.0003" style="isolation:auto;mix-blend-mode:normal"/>
		</g>
		<g id="slider-horz-scale-has-marks-below-backdrop-dark" transform="matrix(1.0003 0 0 1.0007 7.8224 726.99)">
			<path d="m201.72-8.3368c-3.71-3.7184-9.725-3.7184-13.435 0s-3.71 9.7472 0 13.466l6.7175 6.7328 6.7175-6.7328c3.71-3.7184 3.71-9.7472 0-13.466z" color="#000000" opacity="0"/>
			<path d="m201.72-9.3362c-3.71-3.7184-9.725-3.7184-13.435 0s-3.71 9.7472 0 13.466l6.7175 6.7328 6.7175-6.7328c3.71-3.7184 3.71-9.7472 0-13.466z" color="#000000" fill="#252730" stroke="#0d0e11" stroke-linejoin="round"/>
		</g>
		<g id="slider-horz-scale-has-marks-above-backdrop-dark" transform="matrix(1.0003 0 0 .9996 7.8169 726.99)">
			<path d="m218.28 5.0833c3.71 3.7226 9.725 3.7226 13.435 0s3.71-9.758 0-13.481l-6.7175-6.7403-6.7175 6.7403c-3.71 3.7226-3.71 9.758 0 13.481z" color="#000000" opacity="0" stroke-width="1.0003"/>
			<path d="m218.28 4.0831c3.71 3.7226 9.725 3.7226 13.435 0s3.71-9.758 0-13.481l-6.7175-6.7403-6.7175 6.7403c-3.71 3.7226-3.71 9.758 0 13.481z" color="#000000" fill="#252730" stroke="#0d0e11" stroke-linejoin="round" stroke-width="1.0005"/>
		</g>
		<g id="slider-vert-scale-has-marks-above-backdrop-dark" transform="matrix(1.0001 0 0 1.0003 7.8432 726.99)">
			<path d="m261.71 5.0922c3.7205-3.71 3.7205-9.725 0-13.435s-9.7526-3.71-13.473 0l-6.7366 6.7175 6.7366 6.7175c3.7205 3.71 9.7526 3.71 13.473 0z" color="#000000" opacity="0"/>
			<path d="m261.71 4.0925c3.7205-3.71 3.7205-9.725 0-13.435s-9.7526-3.71-13.473-2e-7l-6.7366 6.7175 6.7366 6.7175c3.7205 3.71 9.7526 3.71 13.473-5e-7z" color="#000000" fill="#252730" stroke="#0d0e11" stroke-linejoin="round" stroke-width="1.0003"/>
		</g>
		<g id="slider-vert-scale-has-marks-below-backdrop-dark" transform="matrix(1.0001 0 0 1.0003 7.835 726.99)">
			<path d="m278.29-8.3428c-3.7205 3.71-3.7205 9.725 0 13.435s9.7526 3.71 13.473 0l6.7366-6.7175-6.7366-6.7175c-3.7205-3.71-9.7526-3.71-13.473 0z" color="#000000" opacity="0"/>
			<path d="m278.29-9.3425c-3.7205 3.71-3.7205 9.725 0 13.435s9.7526 3.71 13.473 0l6.7366-6.7175-6.7366-6.7175c-3.7205-3.71-9.7526-3.71-13.473 3e-7z" color="#000000" fill="#252730" stroke="#0d0e11" stroke-linejoin="round" stroke-width="1.0003"/>
		</g>
		<g id="slider-horz-scale-has-marks-below-insensitive-dark" transform="matrix(1.0003 0 0 1.0007 7.8225 696.99)">
			<path d="m201.72-8.3368c-3.71-3.7184-9.725-3.7184-13.435 0s-3.71 9.7472 0 13.466l6.7175 6.7328 6.7175-6.7328c3.71-3.7184 3.71-9.7472 0-13.466z" color="#000000" opacity="0"/>
			<path d="m201.72-9.3362c-3.71-3.7184-9.725-3.7184-13.435 0s-3.71 9.7472 0 13.466l6.7175 6.7328 6.7175-6.7328c3.71-3.7184 3.71-9.7472 0-13.466z" color="#000000" color-rendering="auto" fill="#252730" image-rendering="auto" shape-rendering="auto" solid-color="#000000" stroke="#0d0e11" stroke-linejoin="round" style="isolation:auto;mix-blend-mode:normal"/>
		</g>
		<g id="slider-horz-scale-has-marks-above-insensitive-dark" transform="matrix(1.0003 0 0 .9996 7.8169 696.99)">
			<path d="m218.28 5.0833c3.71 3.7226 9.725 3.7226 13.435 0s3.71-9.758 0-13.481l-6.7175-6.7403-6.7175 6.7403c-3.71 3.7226-3.71 9.758 0 13.481z" color="#000000" opacity="0" stroke-width="1.0003"/>
			<path d="m218.28 4.0831c3.71 3.7226 9.725 3.7226 13.435 0s3.71-9.758 0-13.481l-6.7175-6.7403-6.7175 6.7403c-3.71 3.7226-3.71 9.758 0 13.481z" color="#000000" color-rendering="auto" fill="#252730" image-rendering="auto" shape-rendering="auto" solid-color="#000000" stroke="#0d0e11" stroke-linejoin="round" stroke-width="1.0005" style="isolation:auto;mix-blend-mode:normal"/>
		</g>
		<g id="slider-vert-scale-has-marks-above-insensitive-dark" transform="matrix(1.0001 0 0 1.0003 7.8432 696.99)">
			<path d="m261.71 5.0922c3.7205-3.71 3.7205-9.725 0-13.435s-9.7526-3.71-13.473 0l-6.7366 6.7175 6.7366 6.7175c3.7205 3.71 9.7526 3.71 13.473 0z" color="#000000" opacity="0"/>
			<path d="m261.71 4.0925c3.7205-3.71 3.7205-9.725 0-13.435s-9.7526-3.71-13.473-2e-7l-6.7366 6.7175 6.7366 6.7175c3.7205 3.71 9.7526 3.71 13.473-5e-7z" color="#000000" color-rendering="auto" fill="#252730" image-rendering="auto" shape-rendering="auto" solid-color="#000000" stroke="#0d0e11" stroke-linejoin="round" stroke-width="1.0003" style="isolation:auto;mix-blend-mode:normal"/>
		</g>
		<g id="slider-vert-scale-has-marks-below-insensitive-dark" transform="matrix(1.0001 0 0 1.0003 7.835 696.99)">
			<path d="m278.29-8.3428c-3.7205 3.71-3.7205 9.725 0 13.435s9.7526 3.71 13.473 0l6.7366-6.7175-6.7366-6.7175c-3.7205-3.71-9.7526-3.71-13.473 0z" color="#000000" opacity="0"/>
			<path d="m278.29-9.3425c-3.7205 3.71-3.7205 9.725 0 13.435s9.7526 3.71 13.473 0l6.7366-6.7175-6.7366-6.7175c-3.7205-3.71-9.7526-3.71-13.473 3e-7z" color="#000000" color-rendering="auto" fill="#252730" image-rendering="auto" shape-rendering="auto" solid-color="#000000" stroke="#0d0e11" stroke-linejoin="round" stroke-width="1.0003" style="isolation:auto;mix-blend-mode:normal"/>
		</g>
		<g id="slider-horz-scale-has-marks-below-active" transform="matrix(.99998 0 0 1.0007 7.8804 466.99)" stroke-linejoin="round">
			<path d="m201.72-8.3498c-3.711-3.7209-9.7278-3.7209-13.439 0-3.711 3.7209-3.711 9.7536 0 13.474l6.7194 6.7372 6.7194-6.7372c3.711-3.7209 3.711-9.7536 0-13.474z" color="#000000" color-rendering="auto" image-rendering="auto" opacity=".1" shape-rendering="auto" solid-color="#000000" stroke="#000" stroke-width="1.0005" style="isolation:auto;mix-blend-mode:normal"/>
			<path d="m201.72-9.3362c-3.71-3.7184-9.725-3.7184-13.435 0s-3.71 9.7472 0 13.466l6.7175 6.7328 6.7175-6.7328c3.71-3.7184 3.71-9.7472 0-13.466z" color="#000000" fill="#fff" stroke="#2777ff" stroke-width="1.0013"/>
		</g>
		<g id="slider-horz-scale-has-marks-above-active" transform="matrix(1 0 0 .99944 7.8771 466.99)">
			<path d="m224.99-15.637a0.5003 0.50025 0 0 0-0.34774 0.1465l-6.7202 6.741c-3.9016 3.9145-3.9016 10.275 0 14.189 3.9016 3.9145 10.246 3.9145 14.148 0s3.9016-10.275 0-14.189l-6.7202-6.741a0.5003 0.50025 0 0 0-0.35945-0.1465zm6e-3 1.2072 6.3646 6.3875c3.5199 3.5315 3.5199 9.2434 0 12.775-3.5199 3.5315-9.2094 3.5315-12.729 0-3.52-3.5315-3.52-9.2434 0-12.775l6.3645-6.3875z" color="#000000" color-rendering="auto" image-rendering="auto" opacity=".1" shape-rendering="auto" solid-color="#000000" style="isolation:auto;mix-blend-mode:normal;text-decoration-color:#000000;text-decoration-line:none;text-decoration-style:solid;text-indent:0;text-transform:none;white-space:normal"/>
			<path d="m218.28 4.0831c3.71 3.7226 9.725 3.7226 13.435 0s3.71-9.758 0-13.481l-6.7175-6.7403-6.7175 6.7403c-3.71 3.7226-3.71 9.758 0 13.481z" color="#000000" fill="#fff" stroke="#2777ff" stroke-linejoin="round" stroke-width="1.0003"/>
		</g>
		<g id="slider-vert-scale-has-marks-above-active" transform="matrix(.99998 0 0 1.0008 7.8813 466.99)" stroke-linejoin="round">
			<path d="m261.71 5.0816c3.721-3.711 3.721-9.7277 0-13.439-3.721-3.711-9.754-3.711-13.475 0l-6.7375 6.7193 6.7375 6.7193c3.721 3.711 9.754 3.711 13.475-1e-6z" color="#000000" opacity=".1" stroke="#000" stroke-width="1.0002"/>
			<path d="m261.71 4.0925c3.7205-3.71 3.7205-9.725 0-13.435s-9.7526-3.71-13.473-2e-7l-6.7366 6.7175 6.7366 6.7175c3.7205 3.71 9.7526 3.71 13.473-5e-7z" color="#000000" fill="#fff" stroke="#2777ff"/>
		</g>
		<g id="slider-vert-scale-has-marks-below-active" transform="matrix(.99998 0 0 1.0008 7.8818 466.99)" stroke-linejoin="round">
			<path d="m278.29-8.3571c-3.721 3.711-3.721 9.7277 0 13.439 3.721 3.711 9.754 3.711 13.475 0l6.7375-6.7193-6.7375-6.7193c-3.721-3.711-9.754-3.711-13.475 0z" color="#000000" color-rendering="auto" image-rendering="auto" opacity=".1" shape-rendering="auto" solid-color="#000000" stroke="#000" stroke-width="1.0002" style="isolation:auto;mix-blend-mode:normal"/>
			<path d="m278.29-9.3425c-3.7205 3.71-3.7205 9.725 0 13.435s9.7526 3.71 13.473 0l6.7366-6.7175-6.7366-6.7175c-3.7205-3.71-9.7526-3.71-13.473 3e-7z" color="#000000" fill="#fff" stroke="#2777ff"/>
		</g>
		<g id="slider-horz-scale-has-marks-below-active-dark" transform="matrix(1.0003 0 0 1.0007 7.8225 486.87)">
			<path d="m201.72 170.66c-3.71-3.7184-9.725-3.7184-13.435 0s-3.71 9.7472 0 13.466l6.7175 6.7328 6.7175-6.7328c3.71-3.7184 3.71-9.7472 0-13.466z" color="#000000" fill="#0f1014" stroke="#2777ff" stroke-linejoin="round"/>
		</g>
		<g id="slider-horz-scale-has-marks-above-active-dark" transform="matrix(1.0003 0 0 .9996 7.8169 487.06)">
			<path d="m218.28 184.08c3.71 3.7226 9.725 3.7226 13.435 0s3.71-9.758 0-13.481l-6.7175-6.7403-6.7175 6.7403c-3.71 3.7226-3.71 9.758 0 13.481z" color="#000000" fill="#0f1014" stroke="#2777ff" stroke-linejoin="round" stroke-width="1.0003"/>
		</g>
		<g id="slider-vert-scale-has-marks-above-active-dark" transform="matrix(1.0001 0 0 1.0003 7.8432 486.94)">
			<path d="m261.71 184.09c3.7205-3.71 3.7205-9.725 0-13.435s-9.7526-3.71-13.473 0l-6.7366 6.7175 6.7366 6.7175c3.7205 3.71 9.7526 3.71 13.473 0z" color="#000000" fill="#0f1014" stroke="#2777ff" stroke-linejoin="round"/>
		</g>
		<g id="slider-vert-scale-has-marks-below-active-dark" transform="matrix(1.0001 0 0 1.0003 7.835 486.94)">
			<path d="m278.29 170.66c-3.7205 3.71-3.7205 9.725 0 13.435s9.7526 3.71 13.473 0l6.7366-6.7175-6.7366-6.7175c-3.7205-3.71-9.7526-3.71-13.473 0z" color="#000000" fill="#0f1014" stroke="#2777ff" stroke-linejoin="round"/>
		</g>
		<g id="text-select-end" transform="rotate(180 273.95 202.86)">
			<path d="m201.72-9.3362c-3.71-3.7184-9.725-3.7184-13.435 0s-4.2019 13.444 3.6239 16.029l12.624 4.1695-0.16117-6.7328c-0.1257-5.2512 1.0583-9.7472-2.6516-13.466z" color="#000000" color-rendering="auto" fill="#fff" image-rendering="auto" shape-rendering="auto" solid-color="#000000" stroke="#c2c2c2" stroke-linejoin="round" stroke-width="1.0005" style="isolation:auto;mix-blend-mode:normal"/>
			<path d="m195-10.5c-2.3086 1e-6 -4.6131 0.85911-6.375 2.625-1.8882 1.8925-2.4946 4.3124-2.3598 6.7866 0.12078-2.1382 0.72789-4.151 2.3598-5.7866 1.7619-1.7659 4.0664-2.625 6.375-2.625s4.6131 0.85911 6.375 2.625c1.6319 1.6357 2.5042 3.7368 2.625 5.875 0.13081-2.4698-0.7403-4.986-2.625-6.875-1.7619-1.7659-4.0664-2.625-6.375-2.625z" color="#000000" color-rendering="auto" fill="#ededec" image-rendering="auto" shape-rendering="auto" solid-color="#000000" style="isolation:auto;mix-blend-mode:normal"/>
			<path d="m186.22-1.1363c0.113 2.1497 2.0766 6.5869 6.5141 7.5414l11.237 3.3712 0.02773-12.194c-1e-3 -0.020511 1e-3 -0.041996 0-0.0625-0.01-0.15504-0.0445-0.3143-0.0625-0.46875l-0.84911 11.665-10.177-2.957c-5.4789-1.2801-6.6908-6.895-6.6908-6.895z" color="#000000" fill="#f9f9f9"/>
			<rect x="185" y="-12.638" width="20" height="24" color="#000000" color-rendering="auto" fill="none" image-rendering="auto" shape-rendering="auto" solid-color="#000000" style="isolation:auto;mix-blend-mode:normal;paint-order:normal"/>
		</g>
		<g shape-rendering="auto">
			<g id="text-select-end-active" transform="rotate(180 273.95 232.86)">
				<path d="m201.72-9.3362c-3.71-3.7184-9.725-3.7184-13.435 0s-4.2019 13.444 3.6239 16.029l12.624 4.1695-0.16117-6.7328c-0.1257-5.2512 1.0583-9.7472-2.6516-13.466z" color="#000000" color-rendering="auto" fill="#fff" image-rendering="auto" solid-color="#000000" stroke="#2777ff" stroke-linejoin="round" style="isolation:auto;mix-blend-mode:normal"/>
				<rect x="185" y="-12.638" width="20" height="24" color="#000000" color-rendering="auto" fill="none" image-rendering="auto" solid-color="#000000" style="isolation:auto;mix-blend-mode:normal;paint-order:normal"/>
			</g>
			<g id="text-select-end-hover" transform="rotate(180 273.95 217.86)">
				<path d="m201.72-9.3362c-3.71-3.7184-9.725-3.7184-13.435 0s-4.2019 13.444 3.6239 16.029l12.624 4.1695-0.16117-6.7328c-0.1257-5.2512 1.0583-9.7472-2.6516-13.466z" color="#000000" color-rendering="auto" fill="#fff" image-rendering="auto" solid-color="#000000" stroke="#c2c2c2" stroke-linejoin="round" style="isolation:auto;mix-blend-mode:normal"/>
				<rect x="185" y="-12.638" width="20" height="24" color="#000000" color-rendering="auto" fill="none" image-rendering="auto" solid-color="#000000" style="isolation:auto;mix-blend-mode:normal;paint-order:normal"/>
			</g>
			<g id="text-select-end-dark" transform="rotate(180 273.95 302.86)">
				<path d="m201.72-9.3362c-3.71-3.7184-9.725-3.7184-13.435 0s-4.2019 13.444 3.6239 16.029l12.624 4.1695-0.16117-6.7328c-0.1257-5.2512 1.0583-9.7472-2.6516-13.466z" color="#000000" color-rendering="auto" fill="url(#o)" image-rendering="auto" solid-color="#000000" stroke="#000" stroke-linejoin="round" stroke-width="1.0005" style="isolation:auto;mix-blend-mode:normal"/>
				<path d="m195-10.5c-2.3086 1e-6 -4.6131 0.85911-6.375 2.625-1.8882 1.8925-2.4946 4.3124-2.3598 6.7866 0.12078-2.1382 0.72789-4.151 2.3598-5.7866 1.7619-1.7659 4.0664-2.625 6.375-2.625s4.6131 0.85911 6.375 2.625c1.6319 1.6357 2.5042 3.7368 2.625 5.875 0.13081-2.4698-0.7403-4.986-2.625-6.875-1.7619-1.7659-4.0664-2.625-6.375-2.625z" color="#000000" color-rendering="auto" fill="#c4d6df" image-rendering="auto" opacity=".05" solid-color="#000000" style="isolation:auto;mix-blend-mode:normal"/>
				<path d="m186.22-1.1363c0.113 2.1497 2.0766 6.5869 6.5141 7.5414l11.237 3.3712 0.02773-12.194c-1e-3 -0.020511 1e-3 -0.041996 0-0.0625-0.01-0.15504-0.0445-0.3143-0.0625-0.46875l-0.84911 11.665-10.177-2.957c-5.4789-1.2801-6.6908-6.895-6.6908-6.895z" color="#000000" color-rendering="auto" fill="#fff" image-rendering="auto" opacity=".02" solid-color="#000000" style="isolation:auto;mix-blend-mode:normal"/>
				<rect x="185" y="-12.638" width="20" height="24" color="#000000" color-rendering="auto" fill="none" image-rendering="auto" solid-color="#000000" style="isolation:auto;mix-blend-mode:normal;paint-order:normal"/>
			</g>
			<g id="text-select-end-active-dark" transform="rotate(180 273.95 332.86)">
				<path d="m201.72-9.3362c-3.71-3.7184-9.725-3.7184-13.435 0s-4.2019 13.444 3.6239 16.029l12.624 4.1695-0.16117-6.7328c-0.1257-5.2512 1.0583-9.7472-2.6516-13.466z" color="#000000" color-rendering="auto" fill="#0f1014" image-rendering="auto" solid-color="#000000" stroke="#2777ff" stroke-linejoin="round" style="isolation:auto;mix-blend-mode:normal"/>
				<rect x="185" y="-12.638" width="20" height="24" color="#000000" color-rendering="auto" fill="none" image-rendering="auto" solid-color="#000000" style="isolation:auto;mix-blend-mode:normal;paint-order:normal"/>
			</g>
			<g id="text-select-end-hover-dark" transform="rotate(180 273.95 317.86)">
				<path d="m201.72-9.3362c-3.71-3.7184-9.725-3.7184-13.435 0s-4.2019 13.444 3.6239 16.029l12.624 4.1695-0.16117-6.7328c-0.1257-5.2512 1.0583-9.7472-2.6516-13.466z" color="#000000" color-rendering="auto" fill="url(#dark-hover)" image-rendering="auto" solid-color="#000000" stroke="#080909" stroke-linejoin="round" stroke-width="1.0005" style="isolation:auto;mix-blend-mode:normal"/>
				<rect x="185" y="-12.638" width="20" height="24" color="#000000" color-rendering="auto" fill="none" image-rendering="auto" solid-color="#000000" style="isolation:auto;mix-blend-mode:normal;paint-order:normal"/>
				<path d="m195-10.785c-2.3086 0-4.6131 0.85911-6.375 2.625-1.8882 1.8925-2.4946 4.3124-2.3598 6.7866 0.12078-2.1382 0.72789-4.151 2.3598-5.7866 1.7619-1.7659 4.0664-2.625 6.375-2.625s4.6131 0.85911 6.375 2.625c1.6319 1.6356 2.5042 3.7368 2.625 5.875 0.13081-2.4698-0.7403-4.986-2.625-6.875-1.7619-1.7659-4.0664-2.625-6.375-2.625z" color="#000000" color-rendering="auto" fill="#abcad3" image-rendering="auto" opacity=".05" solid-color="#000000" style="isolation:auto;mix-blend-mode:normal"/>
				<path d="m186.22-1.1363c0.113 2.1497 2.0766 6.5869 6.5141 7.5414l11.237 3.3712 0.0277-12.194c-1e-3 -0.0205 1e-3 -0.042 0-0.0625-0.01-0.15503-0.0445-0.3143-0.0625-0.46875l-0.84911 11.665-10.177-2.957c-5.4789-1.2801-6.6908-6.895-6.6908-6.895z" color="#000000" color-rendering="auto" fill="#fff" image-rendering="auto" opacity=".02" solid-color="#000000" style="isolation:auto;mix-blend-mode:normal"/>
			</g>
		</g>
		<g id="text-select-start" transform="matrix(1 0 0 -1 129.88 405.72)">
			<path d="m201.72-9.3362c-3.71-3.7184-9.725-3.7184-13.435 0s-4.2019 13.444 3.6239 16.029l12.624 4.1695-0.16117-6.7328c-0.1257-5.2512 1.0583-9.7472-2.6516-13.466z" color="#000000" color-rendering="auto" fill="#fff" image-rendering="auto" shape-rendering="auto" solid-color="#000000" stroke="#c2c2c2" stroke-linejoin="round" stroke-width="1.0005" style="isolation:auto;mix-blend-mode:normal"/>
			<path d="m195-10.5c-2.3086 1e-6 -4.6131 0.85911-6.375 2.625-1.8882 1.8925-2.4946 4.3124-2.3598 6.7866 0.12078-2.1382 0.72789-4.151 2.3598-5.7866 1.7619-1.7659 4.0664-2.625 6.375-2.625s4.6131 0.85911 6.375 2.625c1.6319 1.6357 2.5042 3.7368 2.625 5.875 0.13081-2.4698-0.7403-4.986-2.625-6.875-1.7619-1.7659-4.0664-2.625-6.375-2.625z" color="#000000" color-rendering="auto" fill="#ededec" image-rendering="auto" shape-rendering="auto" solid-color="#000000" style="isolation:auto;mix-blend-mode:normal"/>
			<path d="m186.22-1.1363c0.113 2.1497 2.0766 6.5869 6.5141 7.5414l11.237 3.3712 0.02773-12.194c-1e-3 -0.020511 1e-3 -0.041996 0-0.0625-0.01-0.15504-0.0445-0.3143-0.0625-0.46875l-0.84911 11.665-10.177-2.957c-5.4789-1.2801-6.6908-6.895-6.6908-6.895z" color="#000000" fill="#f9f9f9"/>
			<rect x="185" y="-12.638" width="20" height="24" color="#000000" color-rendering="auto" fill="none" image-rendering="auto" shape-rendering="auto" solid-color="#000000" style="isolation:auto;mix-blend-mode:normal;paint-order:normal"/>
		</g>
		<g shape-rendering="auto">
			<g id="text-select-start-active" transform="matrix(1 0 0 -1 129.88 465.72)">
				<path d="m201.72-9.3362c-3.71-3.7184-9.725-3.7184-13.435 0s-4.2019 13.444 3.6239 16.029l12.624 4.1695-0.16117-6.7328c-0.1257-5.2512 1.0583-9.7472-2.6516-13.466z" color="#000000" color-rendering="auto" fill="#fff" image-rendering="auto" solid-color="#000000" stroke="#2777ff" stroke-linejoin="round" style="isolation:auto;mix-blend-mode:normal"/>
				<rect x="185" y="-12.638" width="20" height="24" color="#000000" color-rendering="auto" fill="none" image-rendering="auto" solid-color="#000000" style="isolation:auto;mix-blend-mode:normal;paint-order:normal"/>
			</g>
			<g id="text-select-start-hover" transform="matrix(1 0 0 -1 129.88 435.72)">
				<path d="m201.72-9.3362c-3.71-3.7184-9.725-3.7184-13.435 0s-4.2019 13.444 3.6239 16.029l12.624 4.1695-0.16117-6.7328c-0.1257-5.2512 1.0583-9.7472-2.6516-13.466z" color="#000000" color-rendering="auto" fill="#fff" image-rendering="auto" solid-color="#000000" stroke="#c2c2c2" stroke-linejoin="round" style="isolation:auto;mix-blend-mode:normal"/>
				<rect x="185" y="-12.638" width="20" height="24" color="#000000" color-rendering="auto" fill="none" image-rendering="auto" solid-color="#000000" style="isolation:auto;mix-blend-mode:normal;paint-order:normal"/>
			</g>
			<g id="text-select-start-dark" transform="matrix(1 0 0 -1 129.88 605.72)">
				<path d="m201.72-9.3362c-3.71-3.7184-9.725-3.7184-13.435 0s-4.2019 13.444 3.6239 16.029l12.624 4.1695-0.16117-6.7328c-0.1257-5.2512 1.0583-9.7472-2.6516-13.466z" color="#000000" color-rendering="auto" fill="url(#k)" image-rendering="auto" solid-color="#000000" stroke="#000" stroke-linejoin="round" stroke-width="1.0005" style="isolation:auto;mix-blend-mode:normal"/>
				<path d="m195-10.5c-2.3086 1e-6 -4.6131 0.85911-6.375 2.625-1.8882 1.8925-2.4946 4.3124-2.3598 6.7866 0.12078-2.1382 0.72789-4.151 2.3598-5.7866 1.7619-1.7659 4.0664-2.625 6.375-2.625s4.6131 0.85911 6.375 2.625c1.6319 1.6357 2.5042 3.7368 2.625 5.875 0.13081-2.4698-0.7403-4.986-2.625-6.875-1.7619-1.7659-4.0664-2.625-6.375-2.625z" color="#000000" color-rendering="auto" fill="#c4d6df" image-rendering="auto" opacity=".05" solid-color="#000000" style="isolation:auto;mix-blend-mode:normal"/>
				<path d="m186.22-1.1363c0.113 2.1497 2.0766 6.5869 6.5141 7.5414l11.237 3.3712 0.02773-12.194c-1e-3 -0.020511 1e-3 -0.041996 0-0.0625-0.01-0.15504-0.0445-0.3143-0.0625-0.46875l-0.84911 11.665-10.177-2.957c-5.4789-1.2801-6.6908-6.895-6.6908-6.895z" color="#000000" color-rendering="auto" fill="#fff" image-rendering="auto" opacity=".02" solid-color="#000000" style="isolation:auto;mix-blend-mode:normal"/>
				<rect x="185" y="-12.638" width="20" height="24" color="#000000" color-rendering="auto" fill="none" image-rendering="auto" solid-color="#000000" style="isolation:auto;mix-blend-mode:normal;paint-order:normal"/>
			</g>
			<g id="text-select-start-active-dark" transform="matrix(1 0 0 -1 129.88 665.72)">
				<path d="m201.72-9.3362c-3.71-3.7184-9.725-3.7184-13.435 0s-4.2019 13.444 3.6239 16.029l12.624 4.1695-0.16117-6.7328c-0.1257-5.2512 1.0583-9.7472-2.6516-13.466z" color="#000000" color-rendering="auto" fill="#0f1014" image-rendering="auto" solid-color="#000000" stroke="#2777ff" stroke-linejoin="round" style="isolation:auto;mix-blend-mode:normal"/>
				<rect x="185" y="-12.638" width="20" height="24" color="#000000" color-rendering="auto" fill="none" image-rendering="auto" solid-color="#000000" style="isolation:auto;mix-blend-mode:normal;paint-order:normal"/>
			</g>
			<g id="text-select-start-hover-dark" transform="matrix(1 0 0 -1 129.88 635.72)">
				<path d="m201.72-9.3362c-3.71-3.7184-9.725-3.7184-13.435 0s-4.2019 13.444 3.6239 16.029l12.624 4.1695-0.16117-6.7328c-0.1257-5.2512 1.0583-9.7472-2.6516-13.466z" color="#000000" color-rendering="auto" fill="url(#dark-hover)" image-rendering="auto" solid-color="#000000" stroke="#000" stroke-linejoin="round" stroke-width="1.0005" style="isolation:auto;mix-blend-mode:normal"/>
				<rect x="185" y="-12.638" width="20" height="24" color="#000000" color-rendering="auto" fill="none" image-rendering="auto" solid-color="#000000" style="isolation:auto;mix-blend-mode:normal;paint-order:normal"/>
				<path d="m195-10.785c-2.3086 0-4.6131 0.85911-6.375 2.625-1.8882 1.8925-2.4946 4.3124-2.3598 6.7866 0.12078-2.1382 0.72789-4.151 2.3598-5.7866 1.7619-1.7659 4.0664-2.625 6.375-2.625s4.6131 0.85911 6.375 2.625c1.6319 1.6356 2.5042 3.7368 2.625 5.875 0.13081-2.4698-0.7403-4.986-2.625-6.875-1.7619-1.7659-4.0664-2.625-6.375-2.625z" color="#000000" color-rendering="auto" fill="#abcad3" image-rendering="auto" opacity=".05" solid-color="#000000" style="isolation:auto;mix-blend-mode:normal"/>
				<path d="m186.22-1.1363c0.113 2.1497 2.0766 6.5869 6.5141 7.5414l11.237 3.3712 0.0277-12.194c-1e-3 -0.0205 1e-3 -0.042 0-0.0625-0.01-0.15503-0.0445-0.3143-0.0625-0.46875l-0.84911 11.665-10.177-2.957c-5.4789-1.2801-6.6908-6.895-6.6908-6.895z" color="#000000" color-rendering="auto" fill="#fff" image-rendering="auto" opacity=".02" solid-color="#000000" style="isolation:auto;mix-blend-mode:normal"/>
			</g>
		</g>
	</g>
	<g id="kali-headerbar-logo-dark" transform="matrix(-1 0 0 1 425.84 -70.814)" clip-path="url(#b)">
		<rect width="416" height="78" fill="none"/>
		<path d="m136.76 751.6s23.649 12.666 54.76 48.906c31.705 36.932 43.141 68.361 43.141 68.361s-38.255-69.46-103.38-112.71zm-83.285-12.074-2.8315-2.0357s29.723-9.9596 68.334 0.25662c-22.815-3.9647-44.771-4.0531-65.501 1.7782zm-10.154 5.5092c0.0375-1.0702-3.4797 1.3017-5.4543 1.9878-0.21928 0.24627-0.4026 0.36564 0.32535 0.63571 0.23121-0.24955 0.37614-0.27331 0.37614-0.27331s2.1355 0.0457 3.0232-0.31336c0.88806-0.35885 1.6906-1.4554 1.7299-2.0367zm-124.38 67.718s22.145-43.459 92.837-12.528c8.9597 3.9205 19.918 9.4746 30.434 16.003 41.37 26.597 76.713-6.819 67.445-34.626-7.3149-21.947-24.862-29.755-54.42-31.775-1.397 2.3938-2.798 4.4214-5.5467 5.3871-2.7478 0.96544-9.9908-0.63179-12.564-0.72771-2.5734-0.0955-11.052-0.0261-17.793 2.4925 0.13545-2.0123-3.8626-10.602-3.8626-10.602s1.5916 1.0426 6.2214 1.9834c4.6302 0.94114 11.735-0.52212 11.994-0.70155 0.2586-0.18007 0.5695-0.52208-0.19823-1.2454-0.31594-0.97674 2.3317-1.859 3.4142-2.1089 1.0824-0.25065 10.269-5.0449 10.483-5.155 0.21475-0.10982 0.35944-0.26289 0.80639-0.27657 1.1798 0.29753 5.0128 3.7636 5.0128 3.7636s8.6713 0.88423 15.346-4.7146c-0.80187 1.21-0.46967 3.2852-3.3732 5.4024 4.374 0.69667 8.9048 0.056 15.101-4.6495-0.7956 4.3799-3.5838 5.7398-3.5838 5.7398s9.5695 2.8106 15.565-3.8897c-0.67537 4.2665-5.0684 6.5014-5.0684 6.5014s5.7579 1.2338 17.201 8.9389c14.511 9.771 35.748-17.046 37.111-22.277 0 0 28.084 2.7702 73.139 24.004 45.055 21.233 76.832 46.933 76.832 46.933s-72.082-49.963-146.66-63.032c-7.6752 7.7877-22.334 18.758-30.138 23.957 6.2864 12.51 14.496 27.214 1.5975 49.696-11.86 22.662-44.537 28.398-67.968 14.584-22.629-12.508-37.865-21.791-62.143-23.733-23.551-1.2509-56.323 19.283-74.307 44.923 10.755-20.641 44.569-58.355 87.061-49.685-53.439-21.649-79.975 11.418-79.975 11.418zm220.97-63.677 5.2245-4.5089s31.773 12.779 68.523 39.524c36.749 26.745 67.172 64.45 67.172 64.45s-66.965-69.596-140.92-99.464" opacity=".3"/>
		<path d="m83.16 733.14c10.326-0.0322 22.548 1.0968 35.82 4.6086-11.739-2.0401-23.25-3.0439-34.485-2.753-16.105-0.10508-27.768 2.6285-32.028 3.8062l-1.824-1.3109s12.803-4.2895 32.516-4.351zm58.346 0.5515s28.085 2.77 73.139 24.004c45.055 21.233 76.833 46.932 76.833 46.932s-7.2275-4.9987-19.425-12.235c-13.661-9.2566-33.656-21.659-57.408-32.853-45.054-21.234-73.139-24.004-73.139-24.004-1.3632 5.2304-22.6 32.048-37.111 22.277-11.443-7.7051-17.2-8.9393-17.2-8.9393s0.8337-0.44515 1.8218-1.2657c2.4962 0.89879 7.5851 3.1128 15.379 8.3606 14.511 9.771 35.748-17.047 37.111-22.277zm-73.099 4.5182c-0.31383 0.63181-0.46678 1.4391-0.87924 2.3461-6.5039 4.7135-14.319 3.9283-14.319 3.9283s-3.8334-3.468-5.0132-3.7656c-0.44694 0.0136-0.59215 0.16818-0.80691 0.278-0.21461 0.11017-9.4007 4.905-10.483 5.1556-0.7572 0.17481-2.2628 0.66075-3.0016 1.2703 0.12009-0.2082 0.11098-0.51594-0.41136-1.0081-0.31594-0.97674 2.3304-1.8589 3.413-2.1088 1.0824-0.25065 10.268-5.0432 10.483-5.1534 0.21476-0.10982 0.35996-0.26434 0.80691-0.278 1.1798 0.29752 5.0132 3.7633 5.0132 3.7633s8.3032 0.83182 14.915-4.3849c0.0942-0.0141 0.18826-0.0291 0.28253-0.0429zm11.875 0.46788c-0.16828 0.9264-0.43552 1.6901-0.73684 2.362-5.8139 4.1979-10.169 4.7999-14.364 4.1317 0.76728-0.5595 1.2992-1.1138 1.6952-1.6522 3.8693 0.26884 8.0048-0.73997 13.406-4.8414zm11.982 1.8489c-0.18802 1.1878-0.67645 2.2009-1.2657 3.0694-5.9846 5.0999-14.301 2.6648-14.301 2.6648s0.82654-0.42573 1.7065-1.4963c3.0166 0.46711 9.4135 0.73122 13.86-4.238zm52.874 4.0413s31.774 12.78 68.524 39.525c36.749 26.745 67.172 64.449 67.172 64.449s-3.7604-3.882-10.273-10.056c-11.936-13.288-33.056-35.196-56.899-52.548-36.749-26.745-68.524-39.525-68.524-39.525l-3.7882 3.2683c-0.4786-0.19685-0.95381-0.40994-1.433-0.60348zm-129.66 1.8105s1.5927 1.0436 6.2225 1.9845c4.6066 0.93634 11.639-0.50469 11.966-0.69615-0.15175 0.19109-0.23559 0.39015-0.16951 0.59444 0.76771 0.72329 0.45524 1.0653 0.19664 1.2454-0.25852 0.17944-7.3627 1.6418-11.993 0.70068-2.6877-0.54621-4.2643-1.1031-5.1873-1.494-0.56724-1.2982-1.0352-2.3348-1.0352-2.3348zm27.528 0.23054c0.20932-8e-3 0.32799 0.0728 0.32097 0.2735-0.0394 0.5813-0.84103 1.6776-1.7291 2.0365-0.88768 0.35908-3.0242 0.31192-3.0242 0.31192s-0.14399 0.024-0.3752 0.27349c-0.72794-0.27007-0.54476-0.38886-0.32548-0.63513 1.6044-0.55745 4.226-2.2275 5.133-2.2603zm93.76 4.9929s23.65 12.665 54.761 48.905c31.705 36.932 43.141 68.361 43.141 68.361s-1.0171-1.8123-2.7959-4.7669c-5.0311-11.091-17.327-34.937-40.345-61.75-31.111-36.24-54.761-48.905-54.761-48.905l-4.2628 3.5441c-0.40874-0.27495-0.80513-0.56115-1.216-0.83404zm-21.393 15.327c3.7921 7.516 7.9591 15.852 7.721 26.217-0.27427-10.132-4.6786-18.325-8.4081-25.746 0.20818-0.1387 0.46943-0.32339 0.68712-0.47013zm-150.14 22.187c12.422-0.0727 27.774 2.8953 46.552 11.111 8.9597 3.9205 19.918 9.4736 30.434 16.003 36.41 23.409 68.147 0.33058 68.915-24.497 0.7998 25.502-31.604 50.329-68.915 26.341-10.516-6.5289-21.475-12.082-30.434-16.003-53.046-23.21-78.757-4.5345-88.287 6.236-3.0018 2.5566-4.5499 4.4482-4.5499 4.4482s11.943-23.439 46.285-23.64zm21.979 10.955c1.1658 0.0152 2.3418 0.0663 3.5237 0.14918 2.6567 0.84751 5.3817 1.8269 8.1866 2.9632-36.884-7.5253-67.218 19.892-81.62 40.761-1.9311 2.3053-3.7505 4.6698-5.4404 7.0791 9.7468-18.706 38.431-51.433 75.35-50.953z" opacity=".2"/>
	</g>
	<g id="kali-headerbar-logo" transform="matrix(-1 0 0 1 425.84 -545.81)" clip-path="url(#b)">
		<path d="m136.76 751.6s23.649 12.666 54.76 48.906c31.705 36.932 43.141 68.361 43.141 68.361s-38.255-69.46-103.38-112.71zm-83.285-12.074-2.8315-2.0357s29.723-9.9596 68.334 0.25662c-22.815-3.9647-44.771-4.0531-65.501 1.7782zm-10.154 5.5092c0.0375-1.0702-3.4797 1.3017-5.4543 1.9878-0.21928 0.24627-0.4026 0.36564 0.32535 0.63571 0.23121-0.24955 0.37614-0.27331 0.37614-0.27331s2.1355 0.0457 3.0232-0.31336c0.88806-0.35885 1.6906-1.4554 1.7299-2.0367zm-124.38 67.718s22.145-43.459 92.837-12.528c8.9597 3.9205 19.918 9.4746 30.434 16.003 41.37 26.597 76.713-6.819 67.445-34.626-7.3149-21.947-24.862-29.755-54.42-31.775-1.397 2.3938-2.798 4.4214-5.5467 5.3871-2.7478 0.96544-9.9908-0.63179-12.564-0.72771-2.5734-0.0955-11.052-0.0261-17.793 2.4925 0.13545-2.0123-3.8626-10.602-3.8626-10.602s1.5916 1.0426 6.2214 1.9834c4.6302 0.94114 11.735-0.52212 11.994-0.70155 0.2586-0.18007 0.5695-0.52208-0.19823-1.2454-0.31594-0.97674 2.3317-1.859 3.4142-2.1089 1.0824-0.25065 10.269-5.0449 10.483-5.155 0.21475-0.10982 0.35944-0.26289 0.80639-0.27657 1.1798 0.29753 5.0128 3.7636 5.0128 3.7636s8.6713 0.88423 15.346-4.7146c-0.80187 1.21-0.46967 3.2852-3.3732 5.4024 4.374 0.69667 8.9048 0.056 15.101-4.6495-0.7956 4.3799-3.5838 5.7398-3.5838 5.7398s9.5695 2.8106 15.565-3.8897c-0.67537 4.2665-5.0684 6.5014-5.0684 6.5014s5.7579 1.2338 17.201 8.9389c14.511 9.771 35.748-17.046 37.111-22.277 0 0 28.084 2.7702 73.139 24.004 45.055 21.233 76.832 46.933 76.832 46.933s-72.082-49.963-146.66-63.032c-7.6752 7.7877-22.334 18.758-30.138 23.957 6.2864 12.51 14.496 27.214 1.5975 49.696-11.86 22.662-44.537 28.398-67.968 14.584-22.629-12.508-37.865-21.791-62.143-23.733-23.551-1.2509-56.323 19.283-74.307 44.923 10.755-20.641 44.569-58.355 87.061-49.685-53.439-21.649-79.975 11.418-79.975 11.418zm220.97-63.677 5.2245-4.5089s31.773 12.779 68.523 39.524c36.749 26.745 67.172 64.45 67.172 64.45s-66.965-69.596-140.92-99.464" opacity=".06"/>
		<path d="m83.16 733.14c10.326-0.0322 22.548 1.0968 35.82 4.6086-11.739-2.0401-23.25-3.0439-34.485-2.753-16.105-0.10508-27.768 2.6285-32.028 3.8062l-1.824-1.3109s12.803-4.2895 32.516-4.351zm58.346 0.5515s28.085 2.77 73.139 24.004c45.055 21.233 76.833 46.932 76.833 46.932s-7.2275-4.9987-19.425-12.235c-13.661-9.2566-33.656-21.659-57.408-32.853-45.054-21.234-73.139-24.004-73.139-24.004-1.3632 5.2304-22.6 32.048-37.111 22.277-11.443-7.7051-17.2-8.9393-17.2-8.9393s0.8337-0.44515 1.8218-1.2657c2.4962 0.89879 7.5851 3.1128 15.379 8.3606 14.511 9.771 35.748-17.047 37.111-22.277zm-73.099 4.5182c-0.31383 0.63181-0.46678 1.4391-0.87924 2.3461-6.5039 4.7135-14.319 3.9283-14.319 3.9283s-3.8334-3.468-5.0132-3.7656c-0.44694 0.0136-0.59215 0.16818-0.80691 0.278-0.21461 0.11017-9.4007 4.905-10.483 5.1556-0.7572 0.17481-2.2628 0.66075-3.0016 1.2703 0.12009-0.2082 0.11098-0.51594-0.41136-1.0081-0.31594-0.97674 2.3304-1.8589 3.413-2.1088 1.0824-0.25065 10.268-5.0432 10.483-5.1534 0.21476-0.10982 0.35996-0.26434 0.80691-0.278 1.1798 0.29752 5.0132 3.7633 5.0132 3.7633s8.3032 0.83182 14.915-4.3849c0.0942-0.0141 0.18826-0.0291 0.28253-0.0429zm11.875 0.46788c-0.16828 0.9264-0.43552 1.6901-0.73684 2.362-5.8139 4.1979-10.169 4.7999-14.364 4.1317 0.76728-0.5595 1.2992-1.1138 1.6952-1.6522 3.8693 0.26884 8.0048-0.73997 13.406-4.8414zm11.982 1.8489c-0.18802 1.1878-0.67645 2.2009-1.2657 3.0694-5.9846 5.0999-14.301 2.6648-14.301 2.6648s0.82654-0.42573 1.7065-1.4963c3.0166 0.46711 9.4135 0.73122 13.86-4.238zm52.874 4.0413s31.774 12.78 68.524 39.525c36.749 26.745 67.172 64.449 67.172 64.449s-3.7604-3.882-10.273-10.056c-11.936-13.288-33.056-35.196-56.899-52.548-36.749-26.745-68.524-39.525-68.524-39.525l-3.7882 3.2683c-0.4786-0.19685-0.95381-0.40994-1.433-0.60348zm-129.66 1.8105s1.5927 1.0436 6.2225 1.9845c4.6066 0.93634 11.639-0.50469 11.966-0.69615-0.15175 0.19109-0.23559 0.39015-0.16951 0.59444 0.76771 0.72329 0.45524 1.0653 0.19664 1.2454-0.25852 0.17944-7.3627 1.6418-11.993 0.70068-2.6877-0.54621-4.2643-1.1031-5.1873-1.494-0.56724-1.2982-1.0352-2.3348-1.0352-2.3348zm27.528 0.23054c0.20932-8e-3 0.32799 0.0728 0.32097 0.2735-0.0394 0.5813-0.84103 1.6776-1.7291 2.0365-0.88768 0.35908-3.0242 0.31192-3.0242 0.31192s-0.14399 0.024-0.3752 0.27349c-0.72794-0.27007-0.54476-0.38886-0.32548-0.63513 1.6044-0.55745 4.226-2.2275 5.133-2.2603zm93.76 4.9929s23.65 12.665 54.761 48.905c31.705 36.932 43.141 68.361 43.141 68.361s-1.0171-1.8123-2.7959-4.7669c-5.0311-11.091-17.327-34.937-40.345-61.75-31.111-36.24-54.761-48.905-54.761-48.905l-4.2628 3.5441c-0.40874-0.27495-0.80513-0.56115-1.216-0.83404zm-21.393 15.327c3.7921 7.516 7.9591 15.852 7.721 26.217-0.27427-10.132-4.6786-18.325-8.4081-25.746 0.20818-0.1387 0.46943-0.32339 0.68712-0.47013zm-150.14 22.187c12.422-0.0727 27.774 2.8953 46.552 11.111 8.9597 3.9205 19.918 9.4736 30.434 16.003 36.41 23.409 68.147 0.33058 68.915-24.497 0.7998 25.502-31.604 50.329-68.915 26.341-10.516-6.5289-21.475-12.082-30.434-16.003-53.046-23.21-78.757-4.5345-88.287 6.236-3.0018 2.5566-4.5499 4.4482-4.5499 4.4482s11.943-23.439 46.285-23.64zm21.979 10.955c1.1658 0.0152 2.3418 0.0663 3.5237 0.14918 2.6567 0.84751 5.3817 1.8269 8.1866 2.9632-36.884-7.5253-67.218 19.892-81.62 40.761-1.9311 2.3053-3.7505 4.6698-5.4404 7.0791 9.7468-18.706 38.431-51.433 75.35-50.953z" opacity=".04"/>
		<rect y="169.5" width="240" height="61" fill="none"/>
	</g>
</svg>
