<svg version="1.1" viewBox="0 0 700 910" xmlns="http://www.w3.org/2000/svg" xmlns:xlink="http://www.w3.org/1999/xlink">
	<defs>
		<linearGradient id="dark-normal">
			<stop stop-color="#1c1e25" offset="0"/>
			<stop stop-color="#16171d" offset="1"/>
		</linearGradient>
		<linearGradient id="dark-hover" x1="95.213" x2="95.213" y1="171.21" y2="184.86" gradientTransform="matrix(3.0318 0 0 1.0053 -102.66 -.82153)" gradientUnits="userSpaceOnUse">
			<stop stop-color="#23252e" offset="0"/>
			<stop stop-color="#1a1c23" offset="1"/>
		</linearGradient>
		<linearGradient id="j" x1="95.213" x2="95.213" y1="161.96" y2="188.92" gradientTransform="matrix(3.0318 0 0 1.0053 -102.66 -.82153)" gradientUnits="userSpaceOnUse" xlink:href="#dark-normal"/>
		<linearGradient id="o" x1="98.388" x2="98.388" y1="17.217" y2="-11.144" gradientTransform="matrix(3.0318 0 0 1.0053 -102.66 -.82153)" gradientUnits="userSpaceOnUse" xlink:href="#dark-normal"/>
		<linearGradient id="n" x1="95.213" x2="95.213" y1="167.99" y2="191.11" gradientTransform="matrix(3.0318 0 0 1.0053 -102.66 -.82153)" gradientUnits="userSpaceOnUse" xlink:href="#dark-normal"/>
		<linearGradient id="m" x1="95.213" x2="95.213" y1="158.85" y2="188.92" gradientTransform="matrix(3.0318 0 0 1.0053 -102.66 -.82153)" gradientUnits="userSpaceOnUse" xlink:href="#dark-normal"/>
		<linearGradient id="l" x1="95.213" x2="95.213" y1="162.09" y2="188.92" gradientTransform="matrix(3.0318 0 0 1.0053 -102.66 -.82153)" gradientUnits="userSpaceOnUse" xlink:href="#dark-normal"/>
		<linearGradient id="k" x1="98.388" x2="98.388" y1="17.217" y2="-11.671" gradientTransform="matrix(3.0318 0 0 1.0053 -102.66 -.82153)" gradientUnits="userSpaceOnUse" xlink:href="#dark-normal"/>
		<clipPath id="b">
			<rect x="9.8426" y="715.31" width="416" height="61" opacity=".2"/>
		</clipPath>
	</defs>
	<g transform="translate(0 -142.36)">
		<path d="m0.0039062 582.36h435.87v470h-435.88z" color="#000000" fill="#23252e"/>
		<path d="m0.0039062 582.36h435.87v-440h-435.88z" color="#000000" fill="#fff"/>
		<path d="m426.88 582.36h273.12l-1.4e-4 470h-273.12z" color="#000000" fill="#2777ff"/>
		<path d="m426.88 142.36h273.12v440h-273.12z" color="#000000" fill="#2777ff"/>
	</g>
	<g transform="translate(0 -142.36)">
		<g id="slider-horz-scale-has-marks-below" transform="matrix(1.0003 0 0 1.0007 7.8222 406.99)">
			<path d="m201.72-8.3361c-3.71-3.7184-9.725-3.7184-13.435 0s-3.71 9.7472 0 13.466l6.7175 6.7328 6.7175-6.7328c3.71-3.7184 3.71-9.7472 0-13.466z" color="#000000" color-rendering="auto" image-rendering="auto" opacity=".1" shape-rendering="auto" solid-color="#000000" stroke="#000" stroke-linejoin="round" style="isolation:auto;mix-blend-mode:normal"/>
			<path d="m201.72-9.3362c-3.71-3.7184-9.725-3.7184-13.435 0s-3.71 9.7472 0 13.466l6.7175 6.7328 6.7175-6.7328c3.71-3.7184 3.71-9.7472 0-13.466z" color="#000000" color-rendering="auto" fill="#fff" image-rendering="auto" shape-rendering="auto" solid-color="#000000" stroke="#c2c2c2" stroke-linejoin="round" style="isolation:auto;mix-blend-mode:normal"/>
			<path d="m195-11.625c-2.3086 1e-6 -4.6131 0.85911-6.375 2.625-1.8882 1.8925-2.7598 4.4008-2.625 6.875 0.12078-2.1382 0.99306-4.2394 2.625-5.875 1.7619-1.7659 4.0664-2.625 6.375-2.625s4.6131 0.85911 6.375 2.625c1.6319 1.6357 2.5042 3.7368 2.625 5.875 0.13081-2.4698-0.7403-4.986-2.625-6.875-1.7619-1.7659-4.0664-2.625-6.375-2.625z" color="#000000" fill="#fff"/>
			<path d="m186.06-3.6562c-0.0184 0.15788-0.0524 0.31027-0.0625 0.46875 9.6e-4 0.021167-1e-3 0.041339 0 0.0625 0.113 2.1497 0.98494 4.2625 2.625 5.9062l6.375 6.4062 6.375-6.4062c1.6401-1.6438 2.512-3.7565 2.625-5.9062-1e-3 -0.020511 1e-3 -0.041996 0-0.0625-0.01-0.15504-0.0445-0.3143-0.0625-0.46875-0.20963 1.9842-1.0442 3.9157-2.5625 5.4375l-6.375 6.4062-6.375-6.4062c-1.5183-1.5218-2.3529-3.4533-2.5625-5.4375z" color="#000000" color-rendering="auto" fill="#ededec" image-rendering="auto" shape-rendering="auto" solid-color="#000000" style="isolation:auto;mix-blend-mode:normal"/>
		</g>
		<g id="slider-horz-scale-has-marks-above" transform="matrix(1.0002 0 0 .99956 7.829 406.99)">
			<path d="m224.99-15.637a0.50019 0.50019 0 0 0-0.34766 0.14648l-6.7188 6.7402c-3.9008 3.914-3.9008 10.273 0 14.188 3.9008 3.914 10.244 3.914 14.145 0 3.9008-3.914 3.9008-10.273 0-14.188l-6.7188-6.7402a0.50019 0.50019 0 0 0-0.35938-0.14648zm6e-3 1.207 6.3633 6.3867c3.5192 3.5311 3.5192 9.2423 0 12.773-3.5192 3.5311-9.2074 3.5311-12.727 0-3.5192-3.5311-3.5192-9.2423 0-12.773l6.3631-6.3867z" color="#000000" color-rendering="auto" image-rendering="auto" opacity=".1" shape-rendering="auto" solid-color="#000000" style="isolation:auto;mix-blend-mode:normal;text-decoration-color:#000000;text-decoration-line:none;text-decoration-style:solid;text-indent:0;text-transform:none;white-space:normal"/>
			<path d="m218.28 4.0831c3.71 3.7226 9.725 3.7226 13.435 0s3.71-9.758 0-13.481l-6.7175-6.7403-6.7175 6.7403c-3.71 3.7226-3.71 9.758 0 13.481z" color="#000000" color-rendering="auto" fill="#fff" image-rendering="auto" shape-rendering="auto" solid-color="#000000" stroke="#c2c2c2" stroke-linejoin="round" stroke-width="1.0006" style="isolation:auto;mix-blend-mode:normal"/>
			<g transform="rotate(180 209.99 -2.6314)">
				<path d="m186-3.125c-0.14009 2.48 0.73219 5.0091 2.625 6.9062l6.375 6.4062 6.375-6.4062c1.8928-1.8971 2.7651-4.4262 2.625-6.9062-0.11682 2.1445-0.98843 4.266-2.625 5.9062l-6.375 6.4062-6.375-6.4062c-1.6366-1.6403-2.5082-3.7618-2.625-5.9062z" color="#000000" fill="#fff"/>
			</g>
			<path d="m224.99 5.3622c2.3086-1e-6 4.6131-0.85911 6.375-2.625 1.8882-1.8925 2.7598-4.4008 2.625-6.875-0.12078 2.1382-0.99306 4.2394-2.625 5.875-1.7619 1.7659-4.0664 2.625-6.375 2.625s-4.6131-0.85911-6.375-2.625c-1.6319-1.6357-2.5042-3.7368-2.625-5.875-0.13081 2.4698 0.7403 4.986 2.625 6.875 1.7619 1.7659 4.0664 2.625 6.375 2.625z" color="#000000" color-rendering="auto" fill="#ededec" image-rendering="auto" shape-rendering="auto" solid-color="#000000" style="isolation:auto;mix-blend-mode:normal"/>
		</g>
		<g id="slider-vert-scale-has-marks-above" transform="matrix(1.0001 0 0 1.0003 7.843 406.99)">
			<path d="m261.71 5.0927c3.7205-3.71 3.7205-9.725 0-13.435s-9.7526-3.71-13.473 0l-6.7366 6.7175 6.7366 6.7175c3.7205 3.71 9.7526 3.71 13.473-1e-6z" color="#000000" opacity=".1" stroke="#000" stroke-linejoin="round"/>
			<path d="m261.71 4.0925c3.7205-3.71 3.7205-9.725 0-13.435s-9.7526-3.71-13.473-2e-7l-6.7366 6.7175 6.7366 6.7175c3.7205 3.71 9.7526 3.71 13.473-5e-7z" color="#000000" fill="#fff" stroke="#c2c2c2" stroke-linejoin="round" stroke-width="1.0003"/>
			<path d="m263.94-3.6562c-0.20946 1.9782-1.042 3.8901-2.5625 5.4062-3.53 3.5201-9.2512 3.5201-12.781 0l-5.4062-5.375-0.5 0.5 5.9062 5.875c3.53 3.5201 9.2512 3.5201 12.781 0 1.6384-1.6338 2.5093-3.7343 2.625-5.875-1e-3 -0.020474 1e-3 -0.042033 0-0.0625-0.01-0.1568-0.0447-0.31253-0.0625-0.46875z" color="#000000" color-rendering="auto" fill="#ededec" image-rendering="auto" shape-rendering="auto" solid-color="#000000" style="isolation:auto;mix-blend-mode:normal"/>
			<path d="m254.97-11.625c-2.312-1e-6 -4.609 0.86399-6.375 2.625l-6.4062 6.375 0.5 0.5 5.9062-5.875c1.766-1.761 4.063-2.625 6.375-2.625s4.6422 0.86596 6.4062 2.625c1.6389 1.6343 2.508 3.7348 2.625 5.875 0.13498-2.4693-0.7341-4.9894-2.625-6.875-1.764-1.759-4.0942-2.625-6.4062-2.625z" color="#000000" fill="#fff"/>
		</g>
		<g id="slider-vert-scale-has-marks-below" transform="matrix(1.0001 0 0 1.0003 7.8348 406.99)">
			<path d="m278.29-8.3424c-3.7205 3.71-3.7205 9.725 0 13.435s9.7526 3.71 13.473 0l6.7366-6.7175-6.7366-6.7175c-3.7205-3.71-9.7526-3.71-13.473 0z" color="#000000" color-rendering="auto" image-rendering="auto" opacity=".1" shape-rendering="auto" solid-color="#000000" stroke="#000" stroke-linejoin="round" style="isolation:auto;mix-blend-mode:normal"/>
			<path d="m278.29-9.3425c-3.7205 3.71-3.7205 9.725 0 13.435s9.7526 3.71 13.473 0l6.7366-6.7175-6.7366-6.7175c-3.7205-3.71-9.7526-3.71-13.473 3e-7z" color="#000000" color-rendering="auto" fill="#fff" image-rendering="auto" shape-rendering="auto" solid-color="#000000" stroke="#c2c2c2" stroke-linejoin="round" stroke-width="1.0003" style="isolation:auto;mix-blend-mode:normal"/>
			<g transform="matrix(-1 0 0 1 540.01 -.027864)">
				<path d="m263.94-3.6562c-0.20946 1.9782-1.042 3.8901-2.5625 5.4062-3.53 3.5201-9.2512 3.5201-12.781 0l-5.4062-5.375-0.5 0.5 5.9062 5.875c3.53 3.5201 9.2512 3.5201 12.781 0 1.6384-1.6338 2.5093-3.7343 2.625-5.875-1e-3 -0.020474 1e-3 -0.042033 0-0.0625-0.01-0.1568-0.0447-0.31253-0.0625-0.46875z" color="#000000" color-rendering="auto" fill="#ededec" image-rendering="auto" shape-rendering="auto" solid-color="#000000" style="isolation:auto;mix-blend-mode:normal"/>
				<path d="m254.97-11.625c-2.312-1e-6 -4.609 0.86399-6.375 2.625l-6.4062 6.375 0.5 0.5 5.9062-5.875c1.766-1.761 4.063-2.625 6.375-2.625s4.6422 0.86596 6.4062 2.625c1.6389 1.6343 2.508 3.7348 2.625 5.875 0.13498-2.4693-0.7341-4.9894-2.625-6.875-1.764-1.759-4.0942-2.625-6.4062-2.625z" color="#000000" fill="#fff"/>
			</g>
		</g>
		<g id="slider-horz-scale-has-marks-below-dark" transform="matrix(1.0003 0 0 1.0007 7.8224 426.87)">
			<path d="m201.72 171.66c-3.71-3.7184-9.725-3.7184-13.435 0s-3.71 9.7472 0 13.466l6.7175 6.7328 6.7175-6.7328c3.71-3.7184 3.71-9.7472 0-13.466z" color="#000000" opacity=".1" stroke="#000" stroke-linejoin="round"/>
			<path d="m201.72 170.66c-3.71-3.7184-9.725-3.7184-13.435 0s-3.71 9.7472 0 13.466l6.7175 6.7328 6.7175-6.7328c3.71-3.7184 3.71-9.7472 0-13.466z" color="#000000" fill="url(#n)" stroke="#000" stroke-linejoin="round"/>
			<g transform="translate(0,180)">
				<path d="m195-11.625c-2.3086 1e-6 -4.6131 0.85911-6.375 2.625-1.8882 1.8925-2.7598 4.4008-2.625 6.875 0.12078-2.1382 0.99306-4.2394 2.625-5.875 1.7619-1.7659 4.0664-2.625 6.375-2.625s4.6131 0.85911 6.375 2.625c1.6319 1.6357 2.5042 3.7368 2.625 5.875 0.13081-2.4698-0.7403-4.986-2.625-6.875-1.7619-1.7659-4.0664-2.625-6.375-2.625z" color="#000000" fill="#fff" opacity=".02"/>
				<path d="m186.06-3.6562c-0.0184 0.15788-0.0524 0.31027-0.0625 0.46875 9.6e-4 0.021167-1e-3 0.041339 0 0.0625 0.113 2.1497 0.98494 4.2625 2.625 5.9062l6.375 6.4062 6.375-6.4062c1.6401-1.6438 2.512-3.7565 2.625-5.9062-1e-3 -0.020511 1e-3 -0.041996 0-0.0625-0.01-0.15504-0.0445-0.3143-0.0625-0.46875-0.20963 1.9842-1.0442 3.9157-2.5625 5.4375l-6.375 6.4062-6.375-6.4062c-1.5183-1.5218-2.3529-3.4533-2.5625-5.4375z" color="#000000" color-rendering="auto" fill="#c4d6df" image-rendering="auto" opacity=".05" shape-rendering="auto" solid-color="#000000" style="isolation:auto;mix-blend-mode:normal"/>
			</g>
		</g>
		<g id="slider-horz-scale-has-marks-above-dark" transform="matrix(1.0003 0 0 .9996 7.8169 427.06)">
			<path d="m218.28 185.08c3.71 3.7226 9.725 3.7226 13.435 0s3.71-9.758 0-13.481l-6.7175-6.7403-6.7175 6.7403c-3.71 3.7226-3.71 9.758 0 13.481z" color="#000000" opacity=".2" stroke="#000" stroke-linejoin="round" stroke-width="1.0003"/>
			<path d="m218.28 184.08c3.71 3.7226 9.725 3.7226 13.435 0s3.71-9.758 0-13.481l-6.7175-6.7403-6.7175 6.7403c-3.71 3.7226-3.71 9.758 0 13.481z" color="#000000" fill="url(#m)" stroke="#000" stroke-linejoin="round" stroke-width="1.0005"/>
			<g transform="rotate(180 209.99 87.369)">
				<path d="m186-3.125c-0.14009 2.48 0.73219 5.0091 2.625 6.9062l6.375 6.4062 6.375-6.4062c1.8928-1.8971 2.7651-4.4262 2.625-6.9062-0.11682 2.1445-0.98843 4.266-2.625 5.9062l-6.375 6.4062-6.375-6.4062c-1.6366-1.6403-2.5082-3.7618-2.625-5.9062z" color="#000000" fill="#fff" opacity=".02"/>
			</g>
			<path d="m224.99 185.36c2.3086 0 4.6131-0.85911 6.375-2.625 1.8882-1.8925 2.7598-4.4008 2.625-6.875-0.12078 2.1382-0.99306 4.2394-2.625 5.875-1.7619 1.7659-4.0664 2.625-6.375 2.625s-4.6131-0.85911-6.375-2.625c-1.6319-1.6356-2.5042-3.7368-2.625-5.875-0.13081 2.4698 0.7403 4.986 2.625 6.875 1.7619 1.7659 4.0664 2.625 6.375 2.625z" color="#000000" color-rendering="auto" fill="#c4d6df" image-rendering="auto" opacity=".05" shape-rendering="auto" solid-color="#000000" style="isolation:auto;mix-blend-mode:normal"/>
		</g>
		<g id="slider-vert-scale-has-marks-above-dark" transform="matrix(1.0001 0 0 1.0003 7.8432 426.94)">
			<path d="m261.71 185.09c3.7205-3.71 3.7205-9.7251 0-13.435-3.7205-3.71-9.7526-3.71-13.473 0l-6.7366 6.7175 6.7366 6.7175c3.7205 3.71 9.7526 3.71 13.473 0z" color="#000000" opacity=".1" stroke="#000" stroke-linejoin="round"/>
			<path d="m261.71 184.09c3.7205-3.71 3.7205-9.725 0-13.435s-9.7526-3.71-13.473 0l-6.7366 6.7175 6.7366 6.7175c3.7205 3.71 9.7526 3.71 13.473 0z" color="#000000" fill="url(#l)" stroke="#000" stroke-linejoin="round" stroke-width="1.0003"/>
			<g transform="translate(0,180)">
				<path d="m263.94-3.6562c-0.20946 1.9782-1.042 3.8901-2.5625 5.4062-3.53 3.5201-9.2512 3.5201-12.781 0l-5.4062-5.375-0.5 0.5 5.9062 5.875c3.53 3.5201 9.2512 3.5201 12.781 0 1.6384-1.6338 2.5093-3.7343 2.625-5.875-1e-3 -0.020474 1e-3 -0.042033 0-0.0625-0.01-0.1568-0.0447-0.31253-0.0625-0.46875z" color="#000000" color-rendering="auto" fill="#c4d6df" image-rendering="auto" opacity=".05" shape-rendering="auto" solid-color="#000000" style="isolation:auto;mix-blend-mode:normal"/>
				<path d="m254.97-11.625c-2.312-1e-6 -4.609 0.86399-6.375 2.625l-6.4062 6.375 0.5 0.5 5.9062-5.875c1.766-1.761 4.063-2.625 6.375-2.625s4.6422 0.86596 6.4062 2.625c1.6389 1.6343 2.508 3.7348 2.625 5.875 0.13498-2.4693-0.7341-4.9894-2.625-6.875-1.764-1.759-4.0942-2.625-6.4062-2.625z" color="#000000" fill="#fff" opacity=".02"/>
			</g>
		</g>
		<g id="slider-vert-scale-has-marks-below-dark" transform="matrix(1.0001 0 0 1.0003 7.8349 426.94)">
			<path d="m278.29 171.66c-3.7205 3.71-3.7205 9.725 0 13.435s9.7526 3.71 13.473 0l6.7366-6.7175-6.7366-6.7175c-3.7205-3.71-9.7526-3.71-13.473 0z" color="#000000" opacity=".1" stroke="#000" stroke-linejoin="round"/>
			<path d="m278.29 170.66c-3.7205 3.71-3.7205 9.725 0 13.435s9.7526 3.71 13.473 0l6.7366-6.7175-6.7366-6.7175c-3.7205-3.71-9.7526-3.71-13.473 0z" color="#000000" fill="url(#j)" stroke="#000" stroke-linejoin="round" stroke-width="1.0003"/>
			<g transform="matrix(-1 0 0 1 540.01 179.97)">
				<path d="m263.94-3.6562c-0.20946 1.9782-1.042 3.8901-2.5625 5.4062-3.53 3.5201-9.2512 3.5201-12.781 0l-5.4062-5.375-0.5 0.5 5.9062 5.875c3.53 3.5201 9.2512 3.5201 12.781 0 1.6384-1.6338 2.5093-3.7343 2.625-5.875-1e-3 -0.020474 1e-3 -0.042033 0-0.0625-0.01-0.1568-0.0447-0.31253-0.0625-0.46875z" color="#000000" color-rendering="auto" fill="#c4d6df" image-rendering="auto" opacity=".05" shape-rendering="auto" solid-color="#000000" style="isolation:auto;mix-blend-mode:normal"/>
				<path d="m254.97-11.625c-2.312-1e-6 -4.609 0.86399-6.375 2.625l-6.4062 6.375 0.5 0.5 5.9062-5.875c1.766-1.761 4.063-2.625 6.375-2.625s4.6422 0.86596 6.4062 2.625c1.6389 1.6343 2.508 3.7348 2.625 5.875 0.13498-2.4693-0.7341-4.9894-2.625-6.875-1.764-1.759-4.0942-2.625-6.4062-2.625z" color="#000000" fill="#fff" opacity=".02"/>
			</g>
		</g>
		<g id="slider-horz-scale-has-marks-below-hover" transform="matrix(.99998 0 0 1.0007 7.8804 436.99)">
			<path d="m201.72-8.3498c-3.711-3.7209-9.7278-3.7209-13.439 0-3.711 3.7209-3.711 9.7536 0 13.474l6.7194 6.7372 6.7194-6.7372c3.711-3.7209 3.711-9.7536 0-13.474z" color="#000000" color-rendering="auto" image-rendering="auto" opacity=".1" shape-rendering="auto" solid-color="#000000" stroke="#000" stroke-linejoin="round" stroke-width="1.0005" style="isolation:auto;mix-blend-mode:normal"/>
			<g fill="#fff">
				<path d="m201.72-9.3362c-3.71-3.7184-9.725-3.7184-13.435 0s-3.71 9.7472 0 13.466l6.7175 6.7328 6.7175-6.7328c3.71-3.7184 3.71-9.7472 0-13.466z" color="#000000" stroke="#c2c2c2" stroke-linejoin="round" stroke-width="1.0001"/>
				<path d="m195-11.625c-2.3086 1e-6 -4.6131 0.85911-6.375 2.625-1.8882 1.8925-2.7598 4.4008-2.625 6.875 0.12078-2.1382 0.99306-4.2394 2.625-5.875 1.7619-1.7659 4.0664-2.625 6.375-2.625s4.6131 0.85911 6.375 2.625c1.6319 1.6357 2.5042 3.7368 2.625 5.875 0.13081-2.4698-0.7403-4.986-2.625-6.875-1.7619-1.7659-4.0664-2.625-6.375-2.625z" color="#000000"/>
				<path d="m186.06-3.6562c-0.0184 0.15788-0.0524 0.31027-0.0625 0.46875 9.6e-4 0.021167-1e-3 0.041339 0 0.0625 0.113 2.1497 0.98494 4.2625 2.625 5.9062l6.375 6.4062 6.375-6.4062c1.6401-1.6438 2.512-3.7565 2.625-5.9062-1e-3 -0.020511 1e-3 -0.041996 0-0.0625-0.01-0.15504-0.0445-0.3143-0.0625-0.46875-0.20963 1.9842-1.0442 3.9157-2.5625 5.4375l-6.375 6.4062-6.375-6.4062c-1.5183-1.5218-2.3529-3.4533-2.5625-5.4375z" color="#000000" color-rendering="auto" image-rendering="auto" opacity=".4" shape-rendering="auto" solid-color="#000000" style="isolation:auto;mix-blend-mode:normal"/>
			</g>
		</g>
		<g id="slider-horz-scale-has-marks-above-hover" transform="matrix(1 0 0 .99944 7.8771 436.99)">
			<path d="m224.99-15.637a0.5003 0.50025 0 0 0-0.34774 0.1465l-6.7202 6.741c-3.9016 3.9145-3.9016 10.275 0 14.189 3.9016 3.9145 10.246 3.9145 14.148 0s3.9016-10.275 0-14.189l-6.7202-6.741a0.5003 0.50025 0 0 0-0.35945-0.1465zm6e-3 1.2072 6.3646 6.3875c3.5199 3.5315 3.5199 9.2434 0 12.775-3.5199 3.5315-9.2094 3.5315-12.729 0-3.52-3.5315-3.52-9.2434 0-12.775l6.3645-6.3875z" color="#000000" color-rendering="auto" image-rendering="auto" opacity=".1" shape-rendering="auto" solid-color="#000000" style="isolation:auto;mix-blend-mode:normal;text-decoration-color:#000000;text-decoration-line:none;text-decoration-style:solid;text-indent:0;text-transform:none;white-space:normal"/>
			<path d="m218.28 4.0831c3.71 3.7226 9.725 3.7226 13.435 0s3.71-9.758 0-13.481l-6.7175-6.7403-6.7175 6.7403c-3.71 3.7226-3.71 9.758 0 13.481z" color="#000000" fill="#fff" stroke="#c2c2c2" stroke-linejoin="round" stroke-width="1.0007"/>
			<g transform="rotate(180 209.99 -2.6314)">
				<path d="m186-3.125c-0.14009 2.48 0.73219 5.0091 2.625 6.9062l6.375 6.4062 6.375-6.4062c1.8928-1.8971 2.7651-4.4262 2.625-6.9062-0.11682 2.1445-0.98843 4.266-2.625 5.9062l-6.375 6.4062-6.375-6.4062c-1.6366-1.6403-2.5082-3.7618-2.625-5.9062z" color="#000000" fill="#fff"/>
			</g>
			<path d="m224.99 5.3622c2.3086-1e-6 4.6131-0.85911 6.375-2.625 1.8882-1.8925 2.7598-4.4008 2.625-6.875-0.12078 2.1382-0.99306 4.2394-2.625 5.875-1.7619 1.7659-4.0664 2.625-6.375 2.625s-4.6131-0.85911-6.375-2.625c-1.6319-1.6357-2.5042-3.7368-2.625-5.875-0.13081 2.4698 0.7403 4.986 2.625 6.875 1.7619 1.7659 4.0664 2.625 6.375 2.625z" color="#000000" color-rendering="auto" fill="#fff" image-rendering="auto" opacity=".4" shape-rendering="auto" solid-color="#000000" style="isolation:auto;mix-blend-mode:normal"/>
		</g>
		<g id="slider-vert-scale-has-marks-above-hover" transform="matrix(.99998 0 0 1.0008 7.8813 436.99)">
			<path d="m261.71 5.0816c3.721-3.711 3.721-9.7277 0-13.439-3.721-3.711-9.754-3.711-13.475 0l-6.7375 6.7193 6.7375 6.7193c3.721 3.711 9.754 3.711 13.475-1e-6z" color="#000000" opacity=".1" stroke="#000" stroke-linejoin="round" stroke-width="1.0002"/>
			<g fill="#fff">
				<path d="m261.71 4.0925c3.7205-3.71 3.7205-9.725 0-13.435s-9.7526-3.71-13.473-2e-7l-6.7366 6.7175 6.7366 6.7175c3.7205 3.71 9.7526 3.71 13.473-5e-7z" color="#000000" stroke="#c2c2c2" stroke-linejoin="round" stroke-width="1.0001"/>
				<path d="m263.94-3.6562c-0.20946 1.9782-1.042 3.8901-2.5625 5.4062-3.53 3.5201-9.2512 3.5201-12.781 0l-5.4062-5.375-0.5 0.5 5.9062 5.875c3.53 3.5201 9.2512 3.5201 12.781 0 1.6384-1.6338 2.5093-3.7343 2.625-5.875-1e-3 -0.020474 1e-3 -0.042033 0-0.0625-0.01-0.1568-0.0447-0.31253-0.0625-0.46875z" color="#000000" color-rendering="auto" image-rendering="auto" opacity=".4" shape-rendering="auto" solid-color="#000000" style="isolation:auto;mix-blend-mode:normal"/>
				<path d="m254.97-11.625c-2.312-1e-6 -4.609 0.86399-6.375 2.625l-6.4062 6.375 0.5 0.5 5.9062-5.875c1.766-1.761 4.063-2.625 6.375-2.625s4.6422 0.86596 6.4062 2.625c1.6389 1.6343 2.508 3.7348 2.625 5.875 0.13498-2.4693-0.7341-4.9894-2.625-6.875-1.764-1.759-4.0942-2.625-6.4062-2.625z" color="#000000"/>
			</g>
		</g>
		<g id="slider-vert-scale-has-marks-below-hover" transform="matrix(.99998 0 0 1.0008 7.8818 436.99)">
			<path d="m278.29-8.3571c-3.721 3.711-3.721 9.7277 0 13.439 3.721 3.711 9.754 3.711 13.475 0l6.7375-6.7193-6.7375-6.7193c-3.721-3.711-9.754-3.711-13.475 0z" color="#000000" color-rendering="auto" image-rendering="auto" opacity=".1" shape-rendering="auto" solid-color="#000000" stroke="#000" stroke-linejoin="round" stroke-width="1.0002" style="isolation:auto;mix-blend-mode:normal"/>
			<path d="m278.29-9.3425c-3.7205 3.71-3.7205 9.725 0 13.435s9.7526 3.71 13.473 0l6.7366-6.7175-6.7366-6.7175c-3.7205-3.71-9.7526-3.71-13.473 3e-7z" color="#000000" fill="#fff" stroke="#c2c2c2" stroke-linejoin="round" stroke-width="1.0001"/>
			<g transform="matrix(-1 0 0 1 540.01 -.027864)" fill="#fff">
				<path d="m263.94-3.6562c-0.20946 1.9782-1.042 3.8901-2.5625 5.4062-3.53 3.5201-9.2512 3.5201-12.781 0l-5.4062-5.375-0.5 0.5 5.9062 5.875c3.53 3.5201 9.2512 3.5201 12.781 0 1.6384-1.6338 2.5093-3.7343 2.625-5.875-1e-3 -0.020474 1e-3 -0.042033 0-0.0625-0.01-0.1568-0.0447-0.31253-0.0625-0.46875z" color="#000000" color-rendering="auto" image-rendering="auto" opacity=".4" shape-rendering="auto" solid-color="#000000" style="isolation:auto;mix-blend-mode:normal"/>
				<path d="m254.97-11.625c-2.312-1e-6 -4.609 0.86399-6.375 2.625l-6.4062 6.375 0.5 0.5 5.9062-5.875c1.766-1.761 4.063-2.625 6.375-2.625s4.6422 0.86596 6.4062 2.625c1.6389 1.6343 2.508 3.7348 2.625 5.875 0.13498-2.4693-0.7341-4.9894-2.625-6.875-1.764-1.759-4.0942-2.625-6.4062-2.625z" color="#000000"/>
			</g>
		</g>
		<g id="slider-horz-scale-has-marks-below-backdrop-insensitive" transform="matrix(1.0003 0 0 1.0007 7.8225 556.99)" fill="#faf9f8" stroke="#d1ccc8" stroke-linejoin="round" stroke-width=".99951">
			<path d="m201.72-8.3369c-3.71-3.7184-9.725-3.7184-13.435 0s-3.71 9.7472 0 13.466l6.7175 6.7328 6.7175-6.7328c3.71-3.7184 3.71-9.7472 0-13.466z" color="#000000" opacity="0"/>
			<path d="m201.72-9.3362c-3.71-3.7184-9.725-3.7184-13.435 0s-3.71 9.7472 0 13.466l6.7175 6.7328 6.7175-6.7328c3.71-3.7184 3.71-9.7472 0-13.466z" color="#000000" fill="#fff" stroke="#dadada" stroke-linejoin="round"/>
		</g>
		<g id="slider-horz-scale-has-marks-above-backdrop-insensitive" transform="matrix(1.0003 0 0 .9996 7.8169 556.99)">
			<path d="m218.28 5.0835c3.71 3.7226 9.725 3.7226 13.435 0s3.71-9.758 0-13.481l-6.7175-6.7403-6.7175 6.7403c-3.71 3.7226-3.71 9.758 0 13.481z" color="#000000" opacity="0" stroke-width="1.0003"/>
			<path d="m218.28 4.0831c3.71 3.7226 9.725 3.7226 13.435 0s3.71-9.758 0-13.481l-6.7175-6.7403-6.7175 6.7403c-3.71 3.7226-3.71 9.758 0 13.481z" color="#000000" fill="#fff" stroke="#dadada" stroke-linejoin="round" stroke-width="1.0001"/>
		</g>
		<g id="slider-vert-scale-has-marks-above-backdrop-insensitive" transform="matrix(1.0001 0 0 1.0003 7.8432 556.99)">
			<path d="m261.71 5.0922c3.7205-3.71 3.7205-9.725 0-13.435s-9.7526-3.71-13.473 0l-6.7366 6.7175 6.7366 6.7175c3.7205 3.71 9.7526 3.71 13.473 0z" color="#000000" opacity="0"/>
			<path d="m261.71 4.0925c3.7205-3.71 3.7205-9.725 0-13.435s-9.7526-3.71-13.473-2e-7l-6.7366 6.7175 6.7366 6.7175c3.7205 3.71 9.7526 3.71 13.473-5e-7z" color="#000000" fill="#fff" stroke="#dadada" stroke-linejoin="round" stroke-width=".99978"/>
		</g>
		<g id="slider-vert-scale-has-marks-below-backdrop-insensitive" transform="matrix(1.0001 0 0 1.0003 7.835 556.99)">
			<path d="m278.29-8.3428c-3.7205 3.71-3.7205 9.725 0 13.435s9.7526 3.71 13.473 0l6.7366-6.7175-6.7366-6.7175c-3.7205-3.71-9.7526-3.71-13.473 0z" color="#000000" opacity="0"/>
			<path d="m278.29-9.3425c-3.7205 3.71-3.7205 9.725 0 13.435s9.7526 3.71 13.473 0l6.7366-6.7175-6.7366-6.7175c-3.7205-3.71-9.7526-3.71-13.473 3e-7z" color="#000000" fill="#fff" stroke="#dadada" stroke-linejoin="round" stroke-width=".99978"/>
		</g>
		<g id="slider-horz-scale-has-marks-below-hover-dark" transform="matrix(1.0003 0 0 1.0007 7.8225 456.87)">
			<path d="m201.72 171.66c-3.71-3.7184-9.725-3.7184-13.435 0s-3.71 9.7472 0 13.466l6.7175 6.7328 6.7175-6.7328c3.71-3.7184 3.71-9.7472 0-13.466z" color="#000000" opacity=".1" stroke="#000" stroke-linejoin="round"/>
			<path d="m201.72 170.66c-3.71-3.7184-9.725-3.7184-13.435 0s-3.71 9.7472 0 13.466l6.7175 6.7328 6.7175-6.7328c3.71-3.7184 3.71-9.7472 0-13.466z" color="#000000" fill="url(#dark-hover)" stroke="#000" stroke-linejoin="round"/>
			<g transform="translate(0,180)">
				<path d="m195-11.625c-2.3086 1e-6 -4.6131 0.85911-6.375 2.625-1.8882 1.8925-2.7598 4.4008-2.625 6.875 0.12078-2.1382 0.99306-4.2394 2.625-5.875 1.7619-1.7659 4.0664-2.625 6.375-2.625s4.6131 0.85911 6.375 2.625c1.6319 1.6357 2.5042 3.7368 2.625 5.875 0.13081-2.4698-0.7403-4.986-2.625-6.875-1.7619-1.7659-4.0664-2.625-6.375-2.625z" color="#000000" fill="#fff" opacity=".02"/>
				<path d="m186-3.125c-0.14009 2.48 0.73219 5.0091 2.625 6.9062l6.375 6.4062 6.375-6.4062c1.8928-1.8971 2.7651-4.4262 2.625-6.9062-0.11682 2.1445-0.98843 4.266-2.625 5.9062l-6.375 6.4062-6.375-6.4062c-1.6366-1.6403-2.5082-3.7618-2.625-5.9062z" color="#000000" opacity=".1"/>
				<path d="m186.06-3.6562c-0.0184 0.15788-0.0524 0.31027-0.0625 0.46875 9.6e-4 0.021167-1e-3 0.041339 0 0.0625 0.113 2.1497 0.98494 4.2625 2.625 5.9062l6.375 6.4062 6.375-6.4062c1.6401-1.6438 2.512-3.7565 2.625-5.9062-1e-3 -0.020511 1e-3 -0.041996 0-0.0625-0.01-0.15504-0.0445-0.3143-0.0625-0.46875-0.20963 1.9842-1.0442 3.9157-2.5625 5.4375l-6.375 6.4062-6.375-6.4062c-1.5183-1.5218-2.3529-3.4533-2.5625-5.4375z" color="#000000" color-rendering="auto" fill="#abcad3" image-rendering="auto" opacity=".05" shape-rendering="auto" solid-color="#000000" style="isolation:auto;mix-blend-mode:normal"/>
			</g>
		</g>
		<g id="slider-horz-scale-has-marks-above-hover-dark" transform="matrix(1.0003 0 0 .9996 7.8169 457.06)">
			<path d="m218.28 185.08c3.71 3.7226 9.725 3.7226 13.435 0s3.71-9.758 0-13.481l-6.7175-6.7403-6.7175 6.7403c-3.71 3.7226-3.71 9.758 0 13.481z" color="#000000" opacity=".1" stroke="#000" stroke-linejoin="round" stroke-width="1.0003"/>
			<path d="m218.28 184.08c3.71 3.7226 9.725 3.7226 13.435 0s3.71-9.758 0-13.481l-6.7175-6.7403-6.7175 6.7403c-3.71 3.7226-3.71 9.758 0 13.481z" color="#000000" fill="url(#dark-hover)" stroke="#000" stroke-linejoin="round" stroke-width="1.0005"/>
			<g transform="rotate(180 209.99 87.369)">
				<path d="m195-11.625c-2.3086 1e-6 -4.6131 0.85911-6.375 2.625-1.8882 1.8925-2.7598 4.4008-2.625 6.875 0.12078-2.1382 0.99306-4.2394 2.625-5.875 1.7619-1.7659 4.0664-2.625 6.375-2.625s4.6131 0.85911 6.375 2.625c1.6319 1.6357 2.5042 3.7368 2.625 5.875 0.13081-2.4698-0.7403-4.986-2.625-6.875-1.7619-1.7659-4.0664-2.625-6.375-2.625z" color="#000000" opacity=".1"/>
				<path d="m186-3.125c-0.14009 2.48 0.73219 5.0091 2.625 6.9062l6.375 6.4062 6.375-6.4062c1.8928-1.8971 2.7651-4.4262 2.625-6.9062-0.11682 2.1445-0.98843 4.266-2.625 5.9062l-6.375 6.4062-6.375-6.4062c-1.6366-1.6403-2.5082-3.7618-2.625-5.9062z" color="#000000" fill="#fff" opacity=".02"/>
			</g>
			<path d="m224.99 185.36c2.3086 0 4.6131-0.85911 6.375-2.625 1.8882-1.8925 2.7598-4.4008 2.625-6.875-0.12078 2.1382-0.99306 4.2394-2.625 5.875-1.7619 1.7659-4.0664 2.625-6.375 2.625s-4.6131-0.85911-6.375-2.625c-1.6319-1.6356-2.5042-3.7368-2.625-5.875-0.13081 2.4698 0.7403 4.986 2.625 6.875 1.7619 1.7659 4.0664 2.625 6.375 2.625z" color="#000000" color-rendering="auto" fill="#abcad3" image-rendering="auto" opacity=".05" shape-rendering="auto" solid-color="#000000" style="isolation:auto;mix-blend-mode:normal"/>
		</g>
		<g id="slider-vert-scale-has-marks-above-hover-dark" transform="matrix(1.0001 0 0 1.0003 7.8432 456.94)">
			<path d="m261.71 185.09c3.7205-3.71 3.7205-9.7251 0-13.435-3.7205-3.71-9.7526-3.71-13.473 0l-6.7366 6.7175 6.7366 6.7175c3.7205 3.71 9.7526 3.71 13.473 0z" color="#000000" opacity=".1" stroke="#000" stroke-linejoin="round"/>
			<path d="m261.71 184.09c3.7205-3.71 3.7205-9.725 0-13.435s-9.7526-3.71-13.473 0l-6.7366 6.7175 6.7366 6.7175c3.7205 3.71 9.7526 3.71 13.473 0z" color="#000000" fill="url(#dark-hover)" stroke="#000" stroke-linejoin="round" stroke-width="1.0003"/>
			<g transform="translate(0,180)">
				<path d="m242.69-3.125-0.5 0.5 6.4062 6.375c3.53 3.5201 9.2512 3.5201 12.781 0 1.8909-1.8856 2.76-4.4057 2.625-6.875-0.11699 2.1402-0.98607 4.2407-2.625 5.875-3.53 3.5201-9.2512 3.5201-12.781 0z" color="#000000" opacity=".1"/>
				<path d="m263.94-3.6562c-0.20946 1.9782-1.042 3.8901-2.5625 5.4062-3.53 3.5201-9.2512 3.5201-12.781 0l-5.4062-5.375-0.5 0.5 5.9062 5.875c3.53 3.5201 9.2512 3.5201 12.781 0 1.6384-1.6338 2.5093-3.7343 2.625-5.875-1e-3 -0.020474 1e-3 -0.042033 0-0.0625-0.01-0.1568-0.0447-0.31253-0.0625-0.46875z" color="#000000" color-rendering="auto" fill="#abcad3" image-rendering="auto" opacity=".05" shape-rendering="auto" solid-color="#000000" style="isolation:auto;mix-blend-mode:normal"/>
				<path d="m254.97-11.625c-2.312-1e-6 -4.609 0.86399-6.375 2.625l-6.4062 6.375 0.5 0.5 5.9062-5.875c1.766-1.761 4.063-2.625 6.375-2.625s4.6422 0.86596 6.4062 2.625c1.6389 1.6343 2.508 3.7348 2.625 5.875 0.13498-2.4693-0.7341-4.9894-2.625-6.875-1.764-1.759-4.0942-2.625-6.4062-2.625z" color="#000000" fill="#fff" opacity=".02"/>
			</g>
		</g>
		<g id="slider-vert-scale-has-marks-below-hover-dark" transform="matrix(1.0001 0 0 1.0003 7.8349 456.94)">
			<path d="m278.29 171.66c-3.7205 3.71-3.7205 9.725 0 13.435s9.7526 3.71 13.473 0l6.7366-6.7175-6.7366-6.7175c-3.7205-3.71-9.7526-3.71-13.473 0z" color="#000000" opacity=".1" stroke="#000" stroke-linejoin="round"/>
			<path d="m278.29 170.66c-3.7205 3.71-3.7205 9.725 0 13.435s9.7526 3.71 13.473 0l6.7366-6.7175-6.7366-6.7175c-3.7205-3.71-9.7526-3.71-13.473 0z" color="#000000" fill="url(#dark-hover)" stroke="#000" stroke-linejoin="round" stroke-width="1.0003"/>
			<g transform="matrix(-1 0 0 1 540.01 179.97)">
				<path d="m242.69-3.125-0.5 0.5 6.4062 6.375c3.53 3.5201 9.2512 3.5201 12.781 0 1.8909-1.8856 2.76-4.4057 2.625-6.875-0.11699 2.1402-0.98607 4.2407-2.625 5.875-3.53 3.5201-9.2512 3.5201-12.781 0z" color="#000000" opacity=".1"/>
				<path d="m263.94-3.6562c-0.20946 1.9782-1.042 3.8901-2.5625 5.4062-3.53 3.5201-9.2512 3.5201-12.781 0l-5.4062-5.375-0.5 0.5 5.9062 5.875c3.53 3.5201 9.2512 3.5201 12.781 0 1.6384-1.6338 2.5093-3.7343 2.625-5.875-1e-3 -0.020474 1e-3 -0.042033 0-0.0625-0.01-0.1568-0.0447-0.31253-0.0625-0.46875z" color="#000000" color-rendering="auto" fill="#abcad3" image-rendering="auto" opacity=".05" shape-rendering="auto" solid-color="#000000" style="isolation:auto;mix-blend-mode:normal"/>
				<path d="m254.97-11.625c-2.312-1e-6 -4.609 0.86399-6.375 2.625l-6.4062 6.375 0.5 0.5 5.9062-5.875c1.766-1.761 4.063-2.625 6.375-2.625s4.6422 0.86596 6.4062 2.625c1.6389 1.6343 2.508 3.7348 2.625 5.875 0.13498-2.4693-0.7341-4.9894-2.625-6.875-1.764-1.759-4.0942-2.625-6.4062-2.625z" color="#000000" fill="#fff" opacity=".02"/>
			</g>
		</g>
		<g id="slider-horz-scale-has-marks-below-backdrop" transform="matrix(1.0003 0 0 1.0007 7.8223 526.99)">
			<path d="m201.72-9.3362c-3.71-3.7184-9.725-3.7184-13.435 0s-3.71 9.7472 0 13.466l6.7175 6.7328 6.7175-6.7328c3.71-3.7184 3.71-9.7472 0-13.466z" color="#000000" fill="#fff" stroke="#dadada" stroke-linejoin="round" stroke-width=".99953"/>
			<path d="m201.72-8.3362c-3.71-3.7184-9.725-3.7184-13.435 0s-3.71 9.7472 0 13.466l6.7175 6.7328 6.7175-6.7328c3.71-3.7184 3.71-9.7472 0-13.466z" color="#000000" opacity="0"/>
		</g>
		<g id="slider-horz-scale-has-marks-above-backdrop" transform="matrix(1 0 0 .99958 7.8779 526.99)">
			<path d="m218.28 4.0858c3.711 3.7231 9.7276 3.7231 13.439 0 3.711-3.7231 3.711-9.7595 0-13.483l-6.7193-6.7413-6.7193 6.7413c-3.711 3.7231-3.711 9.7595 0 13.483z" color="#000000" fill="#fff" stroke="#dadada" stroke-linejoin="round" stroke-width="1.0002"/>
			<path d="m218.28 5.0836c3.71 3.7226 9.725 3.7226 13.435 0s3.71-9.758 0-13.481l-6.7175-6.7403-6.7175 6.7403c-3.71 3.7226-3.71 9.758 0 13.481z" color="#000000" opacity="0" stroke-width="1.0003"/>
		</g>
		<g id="slider-vert-scale-has-marks-above-backdrop" transform="matrix(1.0001 0 0 1 7.8416 526.99)">
			<path d="m261.71 5.0925c3.7205-3.71 3.7205-9.725 0-13.435s-9.7526-3.71-13.473 0l-6.7366 6.7175 6.7366 6.7175c3.7205 3.71 9.7526 3.71 13.473 0z" color="#000000" opacity="0"/>
			<path d="m261.71 4.0925c3.7205-3.71 3.7205-9.725 0-13.435s-9.7526-3.71-13.473-2e-7l-6.7366 6.7175 6.7366 6.7175c3.7205 3.71 9.7526 3.71 13.473-5e-7z" color="#000000" fill="#fff" stroke="#dadada" stroke-linejoin="round" stroke-width=".99993"/>
		</g>
		<g id="slider-vert-scale-has-marks-below-backdrop" transform="matrix(1.0001 0 0 1.0003 7.8332 526.99)">
			<path d="m278.29-8.3428c-3.7205 3.71-3.7205 9.725 0 13.435s9.7526 3.71 13.473 0l6.7366-6.7175-6.7366-6.7175c-3.7205-3.71-9.7526-3.71-13.473 0z" color="#000000" opacity="0"/>
			<path d="m278.29-9.3425c-3.7205 3.71-3.7205 9.725 0 13.435s9.7526 3.71 13.473 0l6.7366-6.7175-6.7366-6.7175c-3.7205-3.71-9.7526-3.71-13.473 3e-7z" color="#000000" fill="#fff" stroke="#dadada" stroke-linejoin="round" stroke-width=".99978"/>
		</g>
		<g id="slider-horz-scale-has-marks-below-insensitive" transform="matrix(1.0003 0 0 1.0007 7.8224 496.99)">
			<path d="m201.72-8.3362c-3.71-3.7184-9.725-3.7184-13.435 0s-3.71 9.7472 0 13.466l6.7175 6.7328 6.7175-6.7328c3.71-3.7184 3.71-9.7472 0-13.466z" color="#000000" opacity="0"/>
			<path d="m201.72-9.3362c-3.71-3.7184-9.725-3.7184-13.435 0s-3.71 9.7472 0 13.466l6.7175 6.7328 6.7175-6.7328c3.71-3.7184 3.71-9.7472 0-13.466z" color="#000000" color-rendering="auto" fill="#fff" image-rendering="auto" shape-rendering="auto" solid-color="#000000" stroke="#dadada" stroke-linejoin="round" stroke-width=".99953" style="isolation:auto;mix-blend-mode:normal"/>
		</g>
		<g id="slider-horz-scale-has-marks-above-insensitive" transform="matrix(1.0003 0 0 .9996 7.8169 496.99)">
			<path d="m218.28 5.0836c3.71 3.7226 9.725 3.7226 13.435 0s3.71-9.758 0-13.481l-6.7175-6.7403-6.7175 6.7403c-3.71 3.7226-3.71 9.758 0 13.481z" color="#000000" opacity="0" stroke-width="1.0003"/>
			<path d="m218.28 4.0831c3.71 3.7226 9.725 3.7226 13.435 0s3.71-9.758 0-13.481l-6.7175-6.7403-6.7175 6.7403c-3.71 3.7226-3.71 9.758 0 13.481z" color="#000000" color-rendering="auto" fill="#fff" image-rendering="auto" shape-rendering="auto" solid-color="#000000" stroke="#dadada" stroke-linejoin="round" stroke-width="1.0001" style="isolation:auto;mix-blend-mode:normal"/>
		</g>
		<g id="slider-vert-scale-has-marks-above-insensitive" transform="matrix(1.0001 0 0 1.0003 7.8431 496.99)">
			<path d="m261.71 5.0925c3.7205-3.71 3.7205-9.725 0-13.435s-9.7526-3.71-13.473 0l-6.7366 6.7175 6.7366 6.7175c3.7205 3.71 9.7526 3.71 13.473 0z" color="#000000" opacity="0"/>
			<path d="m261.71 4.0925c3.7205-3.71 3.7205-9.725 0-13.435s-9.7526-3.71-13.473-2e-7l-6.7366 6.7175 6.7366 6.7175c3.7205 3.71 9.7526 3.71 13.473-5e-7z" color="#000000" color-rendering="auto" fill="#fff" image-rendering="auto" shape-rendering="auto" solid-color="#000000" stroke="#dadada" stroke-linejoin="round" stroke-width=".99979" style="isolation:auto;mix-blend-mode:normal"/>
		</g>
		<g id="slider-vert-scale-has-marks-below-insensitive" transform="matrix(1.0001 0 0 1.0003 7.8349 496.99)">
			<path d="m278.29-8.3425c-3.7205 3.71-3.7205 9.725 0 13.435s9.7526 3.71 13.473 0l6.7366-6.7175-6.7366-6.7175c-3.7205-3.71-9.7526-3.71-13.473 0z" color="#000000" opacity="0"/>
			<path d="m278.29-9.3425c-3.7205 3.71-3.7205 9.725 0 13.435s9.7526 3.71 13.473 0l6.7366-6.7175-6.7366-6.7175c-3.7205-3.71-9.7526-3.71-13.473 3e-7z" color="#000000" color-rendering="auto" fill="#fff" image-rendering="auto" shape-rendering="auto" solid-color="#000000" stroke="#dadada" stroke-linejoin="round" stroke-width=".99979" style="isolation:auto;mix-blend-mode:normal"/>
		</g>
		<g id="slider-horz-scale-has-marks-below-backdrop-insensitive-dark" transform="matrix(1.0003 0 0 1.0007 7.8225 756.99)">
			<path d="m201.72-8.3368c-3.71-3.7184-9.725-3.7184-13.435 0s-3.71 9.7472 0 13.466l6.7175 6.7328 6.7175-6.7328c3.71-3.7184 3.71-9.7472 0-13.466z" color="#000000" opacity="0"/>
			<path d="m201.72-9.3362c-3.71-3.7184-9.725-3.7184-13.435 0s-3.71 9.7472 0 13.466l6.7175 6.7328 6.7175-6.7328c3.71-3.7184 3.71-9.7472 0-13.466z" color="#000000" color-rendering="auto" fill="#252730" image-rendering="auto" shape-rendering="auto" solid-color="#000000" stroke="#0d0e11" stroke-linejoin="round" style="isolation:auto;mix-blend-mode:normal"/>
		</g>
		<g id="slider-horz-scale-has-marks-above-backdrop-insensitive-dark" transform="matrix(1.0003 0 0 .9996 7.8169 756.99)">
			<path d="m218.28 5.0833c3.71 3.7226 9.725 3.7226 13.435 0s3.71-9.758 0-13.481l-6.7175-6.7403-6.7175 6.7403c-3.71 3.7226-3.71 9.758 0 13.481z" color="#000000" opacity="0" stroke-width="1.0003"/>
			<path d="m218.28 4.0831c3.71 3.7226 9.725 3.7226 13.435 0s3.71-9.758 0-13.481l-6.7175-6.7403-6.7175 6.7403c-3.71 3.7226-3.71 9.758 0 13.481z" color="#000000" color-rendering="auto" fill="#252730" image-rendering="auto" shape-rendering="auto" solid-color="#000000" stroke="#0d0e11" stroke-linejoin="round" stroke-width="1.0005" style="isolation:auto;mix-blend-mode:normal"/>
		</g>
		<g id="slider-vert-scale-has-marks-above-backdrop-insensitive-dark" transform="matrix(1.0001 0 0 1.0003 7.8432 756.99)">
			<path d="m261.71 5.0922c3.7205-3.71 3.7205-9.725 0-13.435s-9.7526-3.71-13.473 0l-6.7366 6.7175 6.7366 6.7175c3.7205 3.71 9.7526 3.71 13.473 0z" color="#000000" opacity="0"/>
			<path d="m261.71 4.0925c3.7205-3.71 3.7205-9.725 0-13.435s-9.7526-3.71-13.473-2e-7l-6.7366 6.7175 6.7366 6.7175c3.7205 3.71 9.7526 3.71 13.473-5e-7z" color="#000000" color-rendering="auto" fill="#252730" image-rendering="auto" shape-rendering="auto" solid-color="#000000" stroke="#0d0e11" stroke-linejoin="round" stroke-width="1.0003" style="isolation:auto;mix-blend-mode:normal"/>
		</g>
		<g id="slider-vert-scale-has-marks-below-backdrop-insensitive-dark" transform="matrix(1.0001 0 0 1.0003 7.835 756.99)">
			<path d="m278.29-8.3428c-3.7205 3.71-3.7205 9.725 0 13.435s9.7526 3.71 13.473 0l6.7366-6.7175-6.7366-6.7175c-3.7205-3.71-9.7526-3.71-13.473 0z" color="#000000" opacity="0"/>
			<path d="m278.29-9.3425c-3.7205 3.71-3.7205 9.725 0 13.435s9.7526 3.71 13.473 0l6.7366-6.7175-6.7366-6.7175c-3.7205-3.71-9.7526-3.71-13.473 3e-7z" color="#000000" color-rendering="auto" fill="#252730" image-rendering="auto" shape-rendering="auto" solid-color="#000000" stroke="#0d0e11" stroke-linejoin="round" stroke-width="1.0003" style="isolation:auto;mix-blend-mode:normal"/>
		</g>
		<g id="slider-horz-scale-has-marks-below-backdrop-dark" transform="matrix(1.0003 0 0 1.0007 7.8224 726.99)">
			<path d="m201.72-8.3368c-3.71-3.7184-9.725-3.7184-13.435 0s-3.71 9.7472 0 13.466l6.7175 6.7328 6.7175-6.7328c3.71-3.7184 3.71-9.7472 0-13.466z" color="#000000" opacity="0"/>
			<path d="m201.72-9.3362c-3.71-3.7184-9.725-3.7184-13.435 0s-3.71 9.7472 0 13.466l6.7175 6.7328 6.7175-6.7328c3.71-3.7184 3.71-9.7472 0-13.466z" color="#000000" fill="#252730" stroke="#0d0e11" stroke-linejoin="round"/>
		</g>
		<g id="slider-horz-scale-has-marks-above-backdrop-dark" transform="matrix(1.0003 0 0 .9996 7.8169 726.99)">
			<path d="m218.28 5.0833c3.71 3.7226 9.725 3.7226 13.435 0s3.71-9.758 0-13.481l-6.7175-6.7403-6.7175 6.7403c-3.71 3.7226-3.71 9.758 0 13.481z" color="#000000" opacity="0" stroke-width="1.0003"/>
			<path d="m218.28 4.0831c3.71 3.7226 9.725 3.7226 13.435 0s3.71-9.758 0-13.481l-6.7175-6.7403-6.7175 6.7403c-3.71 3.7226-3.71 9.758 0 13.481z" color="#000000" fill="#252730" stroke="#0d0e11" stroke-linejoin="round" stroke-width="1.0005"/>
		</g>
		<g id="slider-vert-scale-has-marks-above-backdrop-dark" transform="matrix(1.0001 0 0 1.0003 7.8432 726.99)">
			<path d="m261.71 5.0922c3.7205-3.71 3.7205-9.725 0-13.435s-9.7526-3.71-13.473 0l-6.7366 6.7175 6.7366 6.7175c3.7205 3.71 9.7526 3.71 13.473 0z" color="#000000" opacity="0"/>
			<path d="m261.71 4.0925c3.7205-3.71 3.7205-9.725 0-13.435s-9.7526-3.71-13.473-2e-7l-6.7366 6.7175 6.7366 6.7175c3.7205 3.71 9.7526 3.71 13.473-5e-7z" color="#000000" fill="#252730" stroke="#0d0e11" stroke-linejoin="round" stroke-width="1.0003"/>
		</g>
		<g id="slider-vert-scale-has-marks-below-backdrop-dark" transform="matrix(1.0001 0 0 1.0003 7.835 726.99)">
			<path d="m278.29-8.3428c-3.7205 3.71-3.7205 9.725 0 13.435s9.7526 3.71 13.473 0l6.7366-6.7175-6.7366-6.7175c-3.7205-3.71-9.7526-3.71-13.473 0z" color="#000000" opacity="0"/>
			<path d="m278.29-9.3425c-3.7205 3.71-3.7205 9.725 0 13.435s9.7526 3.71 13.473 0l6.7366-6.7175-6.7366-6.7175c-3.7205-3.71-9.7526-3.71-13.473 3e-7z" color="#000000" fill="#252730" stroke="#0d0e11" stroke-linejoin="round" stroke-width="1.0003"/>
		</g>
		<g id="slider-horz-scale-has-marks-below-insensitive-dark" transform="matrix(1.0003 0 0 1.0007 7.8225 696.99)">
			<path d="m201.72-8.3368c-3.71-3.7184-9.725-3.7184-13.435 0s-3.71 9.7472 0 13.466l6.7175 6.7328 6.7175-6.7328c3.71-3.7184 3.71-9.7472 0-13.466z" color="#000000" opacity="0"/>
			<path d="m201.72-9.3362c-3.71-3.7184-9.725-3.7184-13.435 0s-3.71 9.7472 0 13.466l6.7175 6.7328 6.7175-6.7328c3.71-3.7184 3.71-9.7472 0-13.466z" color="#000000" color-rendering="auto" fill="#252730" image-rendering="auto" shape-rendering="auto" solid-color="#000000" stroke="#0d0e11" stroke-linejoin="round" style="isolation:auto;mix-blend-mode:normal"/>
		</g>
		<g id="slider-horz-scale-has-marks-above-insensitive-dark" transform="matrix(1.0003 0 0 .9996 7.8169 696.99)">
			<path d="m218.28 5.0833c3.71 3.7226 9.725 3.7226 13.435 0s3.71-9.758 0-13.481l-6.7175-6.7403-6.7175 6.7403c-3.71 3.7226-3.71 9.758 0 13.481z" color="#000000" opacity="0" stroke-width="1.0003"/>
			<path d="m218.28 4.0831c3.71 3.7226 9.725 3.7226 13.435 0s3.71-9.758 0-13.481l-6.7175-6.7403-6.7175 6.7403c-3.71 3.7226-3.71 9.758 0 13.481z" color="#000000" color-rendering="auto" fill="#252730" image-rendering="auto" shape-rendering="auto" solid-color="#000000" stroke="#0d0e11" stroke-linejoin="round" stroke-width="1.0005" style="isolation:auto;mix-blend-mode:normal"/>
		</g>
		<g id="slider-vert-scale-has-marks-above-insensitive-dark" transform="matrix(1.0001 0 0 1.0003 7.8432 696.99)">
			<path d="m261.71 5.0922c3.7205-3.71 3.7205-9.725 0-13.435s-9.7526-3.71-13.473 0l-6.7366 6.7175 6.7366 6.7175c3.7205 3.71 9.7526 3.71 13.473 0z" color="#000000" opacity="0"/>
			<path d="m261.71 4.0925c3.7205-3.71 3.7205-9.725 0-13.435s-9.7526-3.71-13.473-2e-7l-6.7366 6.7175 6.7366 6.7175c3.7205 3.71 9.7526 3.71 13.473-5e-7z" color="#000000" color-rendering="auto" fill="#252730" image-rendering="auto" shape-rendering="auto" solid-color="#000000" stroke="#0d0e11" stroke-linejoin="round" stroke-width="1.0003" style="isolation:auto;mix-blend-mode:normal"/>
		</g>
		<g id="slider-vert-scale-has-marks-below-insensitive-dark" transform="matrix(1.0001 0 0 1.0003 7.835 696.99)">
			<path d="m278.29-8.3428c-3.7205 3.71-3.7205 9.725 0 13.435s9.7526 3.71 13.473 0l6.7366-6.7175-6.7366-6.7175c-3.7205-3.71-9.7526-3.71-13.473 0z" color="#000000" opacity="0"/>
			<path d="m278.29-9.3425c-3.7205 3.71-3.7205 9.725 0 13.435s9.7526 3.71 13.473 0l6.7366-6.7175-6.7366-6.7175c-3.7205-3.71-9.7526-3.71-13.473 3e-7z" color="#000000" color-rendering="auto" fill="#252730" image-rendering="auto" shape-rendering="auto" solid-color="#000000" stroke="#0d0e11" stroke-linejoin="round" stroke-width="1.0003" style="isolation:auto;mix-blend-mode:normal"/>
		</g>
		<g id="slider-horz-scale-has-marks-below-active" transform="matrix(.99998 0 0 1.0007 7.8804 466.99)" stroke-linejoin="round">
			<path d="m201.72-8.3498c-3.711-3.7209-9.7278-3.7209-13.439 0-3.711 3.7209-3.711 9.7536 0 13.474l6.7194 6.7372 6.7194-6.7372c3.711-3.7209 3.711-9.7536 0-13.474z" color="#000000" color-rendering="auto" image-rendering="auto" opacity=".1" shape-rendering="auto" solid-color="#000000" stroke="#000" stroke-width="1.0005" style="isolation:auto;mix-blend-mode:normal"/>
			<path d="m201.72-9.3362c-3.71-3.7184-9.725-3.7184-13.435 0s-3.71 9.7472 0 13.466l6.7175 6.7328 6.7175-6.7328c3.71-3.7184 3.71-9.7472 0-13.466z" color="#000000" fill="#fff" stroke="#2777ff" stroke-width="1.0013"/>
		</g>
		<g id="slider-horz-scale-has-marks-above-active" transform="matrix(1 0 0 .99944 7.8771 466.99)">
			<path d="m224.99-15.637a0.5003 0.50025 0 0 0-0.34774 0.1465l-6.7202 6.741c-3.9016 3.9145-3.9016 10.275 0 14.189 3.9016 3.9145 10.246 3.9145 14.148 0s3.9016-10.275 0-14.189l-6.7202-6.741a0.5003 0.50025 0 0 0-0.35945-0.1465zm6e-3 1.2072 6.3646 6.3875c3.5199 3.5315 3.5199 9.2434 0 12.775-3.5199 3.5315-9.2094 3.5315-12.729 0-3.52-3.5315-3.52-9.2434 0-12.775l6.3645-6.3875z" color="#000000" color-rendering="auto" image-rendering="auto" opacity=".1" shape-rendering="auto" solid-color="#000000" style="isolation:auto;mix-blend-mode:normal;text-decoration-color:#000000;text-decoration-line:none;text-decoration-style:solid;text-indent:0;text-transform:none;white-space:normal"/>
			<path d="m218.28 4.0831c3.71 3.7226 9.725 3.7226 13.435 0s3.71-9.758 0-13.481l-6.7175-6.7403-6.7175 6.7403c-3.71 3.7226-3.71 9.758 0 13.481z" color="#000000" fill="#fff" stroke="#2777ff" stroke-linejoin="round" stroke-width="1.0003"/>
		</g>
		<g id="slider-vert-scale-has-marks-above-active" transform="matrix(.99998 0 0 1.0008 7.8813 466.99)" stroke-linejoin="round">
			<path d="m261.71 5.0816c3.721-3.711 3.721-9.7277 0-13.439-3.721-3.711-9.754-3.711-13.475 0l-6.7375 6.7193 6.7375 6.7193c3.721 3.711 9.754 3.711 13.475-1e-6z" color="#000000" opacity=".1" stroke="#000" stroke-width="1.0002"/>
			<path d="m261.71 4.0925c3.7205-3.71 3.7205-9.725 0-13.435s-9.7526-3.71-13.473-2e-7l-6.7366 6.7175 6.7366 6.7175c3.7205 3.71 9.7526 3.71 13.473-5e-7z" color="#000000" fill="#fff" stroke="#2777ff"/>
		</g>
		<g id="slider-vert-scale-has-marks-below-active" transform="matrix(.99998 0 0 1.0008 7.8818 466.99)" stroke-linejoin="round">
			<path d="m278.29-8.3571c-3.721 3.711-3.721 9.7277 0 13.439 3.721 3.711 9.754 3.711 13.475 0l6.7375-6.7193-6.7375-6.7193c-3.721-3.711-9.754-3.711-13.475 0z" color="#000000" color-rendering="auto" image-rendering="auto" opacity=".1" shape-rendering="auto" solid-color="#000000" stroke="#000" stroke-width="1.0002" style="isolation:auto;mix-blend-mode:normal"/>
			<path d="m278.29-9.3425c-3.7205 3.71-3.7205 9.725 0 13.435s9.7526 3.71 13.473 0l6.7366-6.7175-6.7366-6.7175c-3.7205-3.71-9.7526-3.71-13.473 3e-7z" color="#000000" fill="#fff" stroke="#2777ff"/>
		</g>
		<g id="slider-horz-scale-has-marks-below-active-dark" transform="matrix(1.0003 0 0 1.0007 7.8225 486.87)">
			<path d="m201.72 170.66c-3.71-3.7184-9.725-3.7184-13.435 0s-3.71 9.7472 0 13.466l6.7175 6.7328 6.7175-6.7328c3.71-3.7184 3.71-9.7472 0-13.466z" color="#000000" fill="#0f1014" stroke="#2777ff" stroke-linejoin="round"/>
		</g>
		<g id="slider-horz-scale-has-marks-above-active-dark" transform="matrix(1.0003 0 0 .9996 7.8169 487.06)">
			<path d="m218.28 184.08c3.71 3.7226 9.725 3.7226 13.435 0s3.71-9.758 0-13.481l-6.7175-6.7403-6.7175 6.7403c-3.71 3.7226-3.71 9.758 0 13.481z" color="#000000" fill="#0f1014" stroke="#2777ff" stroke-linejoin="round" stroke-width="1.0003"/>
		</g>
		<g id="slider-vert-scale-has-marks-above-active-dark" transform="matrix(1.0001 0 0 1.0003 7.8432 486.94)">
			<path d="m261.71 184.09c3.7205-3.71 3.7205-9.725 0-13.435s-9.7526-3.71-13.473 0l-6.7366 6.7175 6.7366 6.7175c3.7205 3.71 9.7526 3.71 13.473 0z" color="#000000" fill="#0f1014" stroke="#2777ff" stroke-linejoin="round"/>
		</g>
		<g id="slider-vert-scale-has-marks-below-active-dark" transform="matrix(1.0001 0 0 1.0003 7.835 486.94)">
			<path d="m278.29 170.66c-3.7205 3.71-3.7205 9.725 0 13.435s9.7526 3.71 13.473 0l6.7366-6.7175-6.7366-6.7175c-3.7205-3.71-9.7526-3.71-13.473 0z" color="#000000" fill="#0f1014" stroke="#2777ff" stroke-linejoin="round"/>
		</g>
		<g id="text-select-end" transform="rotate(180 273.95 202.86)">
			<path d="m201.72-9.3362c-3.71-3.7184-9.725-3.7184-13.435 0s-4.2019 13.444 3.6239 16.029l12.624 4.1695-0.16117-6.7328c-0.1257-5.2512 1.0583-9.7472-2.6516-13.466z" color="#000000" color-rendering="auto" fill="#fff" image-rendering="auto" shape-rendering="auto" solid-color="#000000" stroke="#c2c2c2" stroke-linejoin="round" stroke-width="1.0005" style="isolation:auto;mix-blend-mode:normal"/>
			<path d="m195-10.5c-2.3086 1e-6 -4.6131 0.85911-6.375 2.625-1.8882 1.8925-2.4946 4.3124-2.3598 6.7866 0.12078-2.1382 0.72789-4.151 2.3598-5.7866 1.7619-1.7659 4.0664-2.625 6.375-2.625s4.6131 0.85911 6.375 2.625c1.6319 1.6357 2.5042 3.7368 2.625 5.875 0.13081-2.4698-0.7403-4.986-2.625-6.875-1.7619-1.7659-4.0664-2.625-6.375-2.625z" color="#000000" color-rendering="auto" fill="#ededec" image-rendering="auto" shape-rendering="auto" solid-color="#000000" style="isolation:auto;mix-blend-mode:normal"/>
			<path d="m186.22-1.1363c0.113 2.1497 2.0766 6.5869 6.5141 7.5414l11.237 3.3712 0.02773-12.194c-1e-3 -0.020511 1e-3 -0.041996 0-0.0625-0.01-0.15504-0.0445-0.3143-0.0625-0.46875l-0.84911 11.665-10.177-2.957c-5.4789-1.2801-6.6908-6.895-6.6908-6.895z" color="#000000" fill="#f9f9f9"/>
			<rect x="185" y="-12.638" width="20" height="24" color="#000000" color-rendering="auto" fill="none" image-rendering="auto" shape-rendering="auto" solid-color="#000000" style="isolation:auto;mix-blend-mode:normal;paint-order:normal"/>
		</g>
		<g shape-rendering="auto">
			<g id="text-select-end-active" transform="rotate(180 273.95 232.86)">
				<path d="m201.72-9.3362c-3.71-3.7184-9.725-3.7184-13.435 0s-4.2019 13.444 3.6239 16.029l12.624 4.1695-0.16117-6.7328c-0.1257-5.2512 1.0583-9.7472-2.6516-13.466z" color="#000000" color-rendering="auto" fill="#fff" image-rendering="auto" solid-color="#000000" stroke="#2777ff" stroke-linejoin="round" style="isolation:auto;mix-blend-mode:normal"/>
				<rect x="185" y="-12.638" width="20" height="24" color="#000000" color-rendering="auto" fill="none" image-rendering="auto" solid-color="#000000" style="isolation:auto;mix-blend-mode:normal;paint-order:normal"/>
			</g>
			<g id="text-select-end-hover" transform="rotate(180 273.95 217.86)">
				<path d="m201.72-9.3362c-3.71-3.7184-9.725-3.7184-13.435 0s-4.2019 13.444 3.6239 16.029l12.624 4.1695-0.16117-6.7328c-0.1257-5.2512 1.0583-9.7472-2.6516-13.466z" color="#000000" color-rendering="auto" fill="#fff" image-rendering="auto" solid-color="#000000" stroke="#c2c2c2" stroke-linejoin="round" style="isolation:auto;mix-blend-mode:normal"/>
				<rect x="185" y="-12.638" width="20" height="24" color="#000000" color-rendering="auto" fill="none" image-rendering="auto" solid-color="#000000" style="isolation:auto;mix-blend-mode:normal;paint-order:normal"/>
			</g>
			<g id="text-select-end-dark" transform="rotate(180 273.95 302.86)">
				<path d="m201.72-9.3362c-3.71-3.7184-9.725-3.7184-13.435 0s-4.2019 13.444 3.6239 16.029l12.624 4.1695-0.16117-6.7328c-0.1257-5.2512 1.0583-9.7472-2.6516-13.466z" color="#000000" color-rendering="auto" fill="url(#o)" image-rendering="auto" solid-color="#000000" stroke="#000" stroke-linejoin="round" stroke-width="1.0005" style="isolation:auto;mix-blend-mode:normal"/>
				<path d="m195-10.5c-2.3086 1e-6 -4.6131 0.85911-6.375 2.625-1.8882 1.8925-2.4946 4.3124-2.3598 6.7866 0.12078-2.1382 0.72789-4.151 2.3598-5.7866 1.7619-1.7659 4.0664-2.625 6.375-2.625s4.6131 0.85911 6.375 2.625c1.6319 1.6357 2.5042 3.7368 2.625 5.875 0.13081-2.4698-0.7403-4.986-2.625-6.875-1.7619-1.7659-4.0664-2.625-6.375-2.625z" color="#000000" color-rendering="auto" fill="#c4d6df" image-rendering="auto" opacity=".05" solid-color="#000000" style="isolation:auto;mix-blend-mode:normal"/>
				<path d="m186.22-1.1363c0.113 2.1497 2.0766 6.5869 6.5141 7.5414l11.237 3.3712 0.02773-12.194c-1e-3 -0.020511 1e-3 -0.041996 0-0.0625-0.01-0.15504-0.0445-0.3143-0.0625-0.46875l-0.84911 11.665-10.177-2.957c-5.4789-1.2801-6.6908-6.895-6.6908-6.895z" color="#000000" color-rendering="auto" fill="#fff" image-rendering="auto" opacity=".02" solid-color="#000000" style="isolation:auto;mix-blend-mode:normal"/>
				<rect x="185" y="-12.638" width="20" height="24" color="#000000" color-rendering="auto" fill="none" image-rendering="auto" solid-color="#000000" style="isolation:auto;mix-blend-mode:normal;paint-order:normal"/>
			</g>
			<g id="text-select-end-active-dark" transform="rotate(180 273.95 332.86)">
				<path d="m201.72-9.3362c-3.71-3.7184-9.725-3.7184-13.435 0s-4.2019 13.444 3.6239 16.029l12.624 4.1695-0.16117-6.7328c-0.1257-5.2512 1.0583-9.7472-2.6516-13.466z" color="#000000" color-rendering="auto" fill="#0f1014" image-rendering="auto" solid-color="#000000" stroke="#2777ff" stroke-linejoin="round" style="isolation:auto;mix-blend-mode:normal"/>
				<rect x="185" y="-12.638" width="20" height="24" color="#000000" color-rendering="auto" fill="none" image-rendering="auto" solid-color="#000000" style="isolation:auto;mix-blend-mode:normal;paint-order:normal"/>
			</g>
			<g id="text-select-end-hover-dark" transform="rotate(180 273.95 317.86)">
				<path d="m201.72-9.3362c-3.71-3.7184-9.725-3.7184-13.435 0s-4.2019 13.444 3.6239 16.029l12.624 4.1695-0.16117-6.7328c-0.1257-5.2512 1.0583-9.7472-2.6516-13.466z" color="#000000" color-rendering="auto" fill="url(#dark-hover)" image-rendering="auto" solid-color="#000000" stroke="#080909" stroke-linejoin="round" stroke-width="1.0005" style="isolation:auto;mix-blend-mode:normal"/>
				<rect x="185" y="-12.638" width="20" height="24" color="#000000" color-rendering="auto" fill="none" image-rendering="auto" solid-color="#000000" style="isolation:auto;mix-blend-mode:normal;paint-order:normal"/>
				<path d="m195-10.785c-2.3086 0-4.6131 0.85911-6.375 2.625-1.8882 1.8925-2.4946 4.3124-2.3598 6.7866 0.12078-2.1382 0.72789-4.151 2.3598-5.7866 1.7619-1.7659 4.0664-2.625 6.375-2.625s4.6131 0.85911 6.375 2.625c1.6319 1.6356 2.5042 3.7368 2.625 5.875 0.13081-2.4698-0.7403-4.986-2.625-6.875-1.7619-1.7659-4.0664-2.625-6.375-2.625z" color="#000000" color-rendering="auto" fill="#abcad3" image-rendering="auto" opacity=".05" solid-color="#000000" style="isolation:auto;mix-blend-mode:normal"/>
				<path d="m186.22-1.1363c0.113 2.1497 2.0766 6.5869 6.5141 7.5414l11.237 3.3712 0.0277-12.194c-1e-3 -0.0205 1e-3 -0.042 0-0.0625-0.01-0.15503-0.0445-0.3143-0.0625-0.46875l-0.84911 11.665-10.177-2.957c-5.4789-1.2801-6.6908-6.895-6.6908-6.895z" color="#000000" color-rendering="auto" fill="#fff" image-rendering="auto" opacity=".02" solid-color="#000000" style="isolation:auto;mix-blend-mode:normal"/>
			</g>
		</g>
		<g id="text-select-start" transform="matrix(1 0 0 -1 129.88 405.72)">
			<path d="m201.72-9.3362c-3.71-3.7184-9.725-3.7184-13.435 0s-4.2019 13.444 3.6239 16.029l12.624 4.1695-0.16117-6.7328c-0.1257-5.2512 1.0583-9.7472-2.6516-13.466z" color="#000000" color-rendering="auto" fill="#fff" image-rendering="auto" shape-rendering="auto" solid-color="#000000" stroke="#c2c2c2" stroke-linejoin="round" stroke-width="1.0005" style="isolation:auto;mix-blend-mode:normal"/>
			<path d="m195-10.5c-2.3086 1e-6 -4.6131 0.85911-6.375 2.625-1.8882 1.8925-2.4946 4.3124-2.3598 6.7866 0.12078-2.1382 0.72789-4.151 2.3598-5.7866 1.7619-1.7659 4.0664-2.625 6.375-2.625s4.6131 0.85911 6.375 2.625c1.6319 1.6357 2.5042 3.7368 2.625 5.875 0.13081-2.4698-0.7403-4.986-2.625-6.875-1.7619-1.7659-4.0664-2.625-6.375-2.625z" color="#000000" color-rendering="auto" fill="#ededec" image-rendering="auto" shape-rendering="auto" solid-color="#000000" style="isolation:auto;mix-blend-mode:normal"/>
			<path d="m186.22-1.1363c0.113 2.1497 2.0766 6.5869 6.5141 7.5414l11.237 3.3712 0.02773-12.194c-1e-3 -0.020511 1e-3 -0.041996 0-0.0625-0.01-0.15504-0.0445-0.3143-0.0625-0.46875l-0.84911 11.665-10.177-2.957c-5.4789-1.2801-6.6908-6.895-6.6908-6.895z" color="#000000" fill="#f9f9f9"/>
			<rect x="185" y="-12.638" width="20" height="24" color="#000000" color-rendering="auto" fill="none" image-rendering="auto" shape-rendering="auto" solid-color="#000000" style="isolation:auto;mix-blend-mode:normal;paint-order:normal"/>
		</g>
		<g shape-rendering="auto">
			<g id="text-select-start-active" transform="matrix(1 0 0 -1 129.88 465.72)">
				<path d="m201.72-9.3362c-3.71-3.7184-9.725-3.7184-13.435 0s-4.2019 13.444 3.6239 16.029l12.624 4.1695-0.16117-6.7328c-0.1257-5.2512 1.0583-9.7472-2.6516-13.466z" color="#000000" color-rendering="auto" fill="#fff" image-rendering="auto" solid-color="#000000" stroke="#2777ff" stroke-linejoin="round" style="isolation:auto;mix-blend-mode:normal"/>
				<rect x="185" y="-12.638" width="20" height="24" color="#000000" color-rendering="auto" fill="none" image-rendering="auto" solid-color="#000000" style="isolation:auto;mix-blend-mode:normal;paint-order:normal"/>
			</g>
			<g id="text-select-start-hover" transform="matrix(1 0 0 -1 129.88 435.72)">
				<path d="m201.72-9.3362c-3.71-3.7184-9.725-3.7184-13.435 0s-4.2019 13.444 3.6239 16.029l12.624 4.1695-0.16117-6.7328c-0.1257-5.2512 1.0583-9.7472-2.6516-13.466z" color="#000000" color-rendering="auto" fill="#fff" image-rendering="auto" solid-color="#000000" stroke="#c2c2c2" stroke-linejoin="round" style="isolation:auto;mix-blend-mode:normal"/>
				<rect x="185" y="-12.638" width="20" height="24" color="#000000" color-rendering="auto" fill="none" image-rendering="auto" solid-color="#000000" style="isolation:auto;mix-blend-mode:normal;paint-order:normal"/>
			</g>
			<g id="text-select-start-dark" transform="matrix(1 0 0 -1 129.88 605.72)">
				<path d="m201.72-9.3362c-3.71-3.7184-9.725-3.7184-13.435 0s-4.2019 13.444 3.6239 16.029l12.624 4.1695-0.16117-6.7328c-0.1257-5.2512 1.0583-9.7472-2.6516-13.466z" color="#000000" color-rendering="auto" fill="url(#k)" image-rendering="auto" solid-color="#000000" stroke="#000" stroke-linejoin="round" stroke-width="1.0005" style="isolation:auto;mix-blend-mode:normal"/>
				<path d="m195-10.5c-2.3086 1e-6 -4.6131 0.85911-6.375 2.625-1.8882 1.8925-2.4946 4.3124-2.3598 6.7866 0.12078-2.1382 0.72789-4.151 2.3598-5.7866 1.7619-1.7659 4.0664-2.625 6.375-2.625s4.6131 0.85911 6.375 2.625c1.6319 1.6357 2.5042 3.7368 2.625 5.875 0.13081-2.4698-0.7403-4.986-2.625-6.875-1.7619-1.7659-4.0664-2.625-6.375-2.625z" color="#000000" color-rendering="auto" fill="#c4d6df" image-rendering="auto" opacity=".05" solid-color="#000000" style="isolation:auto;mix-blend-mode:normal"/>
				<path d="m186.22-1.1363c0.113 2.1497 2.0766 6.5869 6.5141 7.5414l11.237 3.3712 0.02773-12.194c-1e-3 -0.020511 1e-3 -0.041996 0-0.0625-0.01-0.15504-0.0445-0.3143-0.0625-0.46875l-0.84911 11.665-10.177-2.957c-5.4789-1.2801-6.6908-6.895-6.6908-6.895z" color="#000000" color-rendering="auto" fill="#fff" image-rendering="auto" opacity=".02" solid-color="#000000" style="isolation:auto;mix-blend-mode:normal"/>
				<rect x="185" y="-12.638" width="20" height="24" color="#000000" color-rendering="auto" fill="none" image-rendering="auto" solid-color="#000000" style="isolation:auto;mix-blend-mode:normal;paint-order:normal"/>
			</g>
			<g id="text-select-start-active-dark" transform="matrix(1 0 0 -1 129.88 665.72)">
				<path d="m201.72-9.3362c-3.71-3.7184-9.725-3.7184-13.435 0s-4.2019 13.444 3.6239 16.029l12.624 4.1695-0.16117-6.7328c-0.1257-5.2512 1.0583-9.7472-2.6516-13.466z" color="#000000" color-rendering="auto" fill="#0f1014" image-rendering="auto" solid-color="#000000" stroke="#2777ff" stroke-linejoin="round" style="isolation:auto;mix-blend-mode:normal"/>
				<rect x="185" y="-12.638" width="20" height="24" color="#000000" color-rendering="auto" fill="none" image-rendering="auto" solid-color="#000000" style="isolation:auto;mix-blend-mode:normal;paint-order:normal"/>
			</g>
			<g id="text-select-start-hover-dark" transform="matrix(1 0 0 -1 129.88 635.72)">
				<path d="m201.72-9.3362c-3.71-3.7184-9.725-3.7184-13.435 0s-4.2019 13.444 3.6239 16.029l12.624 4.1695-0.16117-6.7328c-0.1257-5.2512 1.0583-9.7472-2.6516-13.466z" color="#000000" color-rendering="auto" fill="url(#dark-hover)" image-rendering="auto" solid-color="#000000" stroke="#000" stroke-linejoin="round" stroke-width="1.0005" style="isolation:auto;mix-blend-mode:normal"/>
				<rect x="185" y="-12.638" width="20" height="24" color="#000000" color-rendering="auto" fill="none" image-rendering="auto" solid-color="#000000" style="isolation:auto;mix-blend-mode:normal;paint-order:normal"/>
				<path d="m195-10.785c-2.3086 0-4.6131 0.85911-6.375 2.625-1.8882 1.8925-2.4946 4.3124-2.3598 6.7866 0.12078-2.1382 0.72789-4.151 2.3598-5.7866 1.7619-1.7659 4.0664-2.625 6.375-2.625s4.6131 0.85911 6.375 2.625c1.6319 1.6356 2.5042 3.7368 2.625 5.875 0.13081-2.4698-0.7403-4.986-2.625-6.875-1.7619-1.7659-4.0664-2.625-6.375-2.625z" color="#000000" color-rendering="auto" fill="#abcad3" image-rendering="auto" opacity=".05" solid-color="#000000" style="isolation:auto;mix-blend-mode:normal"/>
				<path d="m186.22-1.1363c0.113 2.1497 2.0766 6.5869 6.5141 7.5414l11.237 3.3712 0.0277-12.194c-1e-3 -0.0205 1e-3 -0.042 0-0.0625-0.01-0.15503-0.0445-0.3143-0.0625-0.46875l-0.84911 11.665-10.177-2.957c-5.4789-1.2801-6.6908-6.895-6.6908-6.895z" color="#000000" color-rendering="auto" fill="#fff" image-rendering="auto" opacity=".02" solid-color="#000000" style="isolation:auto;mix-blend-mode:normal"/>
			</g>
		</g>
	</g>
	<g id="kali-headerbar-logo-dark" transform="matrix(-1 0 0 1 425.84 -70.814)" clip-path="url(#b)">
		<path d="m218.7 739.85s36.025 14.086 86.769 60.645c51.714 47.449 73.467 90.487 73.467 90.487s-66.659-92.897-167.3-143.67zm-156.07-6.3553-4.4023-2.4298s40.85-19.347 97.877-11.328c-33.342-1.7713-64.794 1.8598-93.475 13.758zm-13.594 9.6256c-0.12958-1.5387-4.759 2.4592-7.4688 3.7793-0.27168 0.39018-0.51375 0.59245 0.57463 0.85446 0.28811-0.39693 0.4917-0.45566 0.4917-0.45566s3.0652-0.30002 4.2747-0.96606c1.21-0.66578 2.1712-2.3731 2.1279-3.212zm-131.71 121.57s24.267-66.012 130.77-33.827c13.499 4.0794 30.138 10.155 46.312 17.703 79.362 38.57 126.03-53.225 68.068-86.193-23.972-13.773-60.071-14.309-95.552-14.428-1.5903 3.6663-3.2494 6.809-7.019 8.662-3.7689 1.8525-14.412 0.80539-18.112 1.1086-3.7007 0.30383-15.827 1.8542-25.048 6.614-0.15058-2.9042-7.3448-14.518-7.3448-14.518s2.4571 1.2202 9.2464 1.7747c6.79 0.55485 16.712-2.7561 17.052-3.0575 0.33944-0.30205 0.72594-0.84493-0.49698-1.7491-0.61951-1.3443 3.0201-3.0606 4.5271-3.6037 1.5067-0.54409 13.838-8.9804 14.126-9.1746 0.28869-0.19401 0.46966-0.43788 1.1072-0.53397 1.74 0.22405 7.821 4.5303 7.821 4.5303s12.566-0.21815 21.164-9.3766c-0.94118 1.8695-0.11003 4.7838-3.9046 8.3119 6.3815 0.24875 12.758-1.444 20.824-9.2413-0.38938 6.407-4.1485 8.831-4.1485 8.831s14.182 2.3861 21.618-8.233c-0.23665 6.2239-3.9043 8.3113-3.9043 8.3113s25.446-1.063 59.478 14.735c23.715 8.5946 47.235-29.175 48.293-36.9 0 0 40.911-1.8779 109.05 20.811 68.141 22.689 118.03 54.042 118.03 54.042s-111.75-59.194-220.76-65.139c-9.6555 12.463-29.917 31.256-40.2 40.037 9.7466 16.761 21.616 33.793 8.5152 68.268-13.102 34.474-55.472 50.31-91.382 34.542-34.539-14.034-57.94-24.716-93.033-23.343-33.932 2.2403-77.335 37.247-98.694 77.035 11.865-31.392 53.82-91.174 116.14-86.037-80.212-21.847-112.55 30.036-112.55 30.036zm305.46-128.99 6.708-7.3496s47.678 12.858 104.87 44.858 107.2 80.774 107.2 80.774-107.79-88.178-218.78-118.28" opacity=".3"/>
		<path d="m224.09 714.4c-1.2518 7e-3 -1.8906 0.0371-1.8906 0.0371-1.0574 7.7246-24.578 45.493-48.293 36.898-28.738-13.34-51.159-14.64-57.5-14.727-0.98587 1.4187-1.9785 1.9922-1.9785 1.9922s25.447-1.0635 59.479 14.734c23.715 8.5946 47.236-29.174 48.293-36.898 0 0 40.911-1.8784 109.05 20.811 40.019 13.325 73.64 29.597 94.66 40.793 14.627 6.6579 23.373 11.25 23.373 11.25s-49.892-31.354-118.03-54.043c-59.622-19.853-98.398-20.897-107.16-20.848zm-98.193 3.4062c-40.701 0.48854-67.668 13.26-67.668 13.26l2.0293 1.1211c6.8091-2.8316 30.511-11.615 63.713-12.336 10.489-0.68071 21.208-0.69376 32.135-0.11328-10.693-1.5035-20.817-2.0444-30.209-1.9316zm-25.033 9.8848c-7.3358 7.0917-13.274 9.1276-19.09 9.252-0.43557 0.63802-0.99454 1.3024-1.7344 1.9902 6.2997 0.24557 12.598-1.4134 20.518-8.957 0.14731-0.69787 0.25636-1.4578 0.30664-2.2852zm17.469 0.59961c-5.8749 8.389-15.856 8.6559-19.832 8.4004-0.93246 1.2614-1.7852 1.832-1.7852 1.832s13.818 2.3167 21.326-7.8438c0.15068-0.72064 0.25754-1.5083 0.29102-2.3887zm111.16 0.0605-6.707 7.3496c0.48532 0.13164 0.9699 0.27241 1.4551 0.40625l5.252-5.7559s47.677 12.859 104.87 44.859c39.113 21.885 74.844 51.596 93.539 68.205 8.623 6.4834 13.662 10.568 13.662 10.568 0-1e-5 -50.009-48.773-107.2-80.773-57.192-32-104.87-44.859-104.87-44.859zm-145.55 0.26953c-8.5981 9.1585-21.164 9.377-21.164 9.377s-6.0803-4.3052-7.8203-4.5293c-0.63755 0.0961-0.81873 0.33919-1.1074 0.5332-0.28824 0.19424-12.62 8.6297-14.127 9.1738-1.507 0.54314-5.1469 2.2592-4.5273 3.6035 0.28485 0.21059 0.47432 0.4013 0.60547 0.57422 1.0119-0.94028 2.9235-1.8179 3.9219-2.1777 1.5067-0.54409 13.839-8.9796 14.127-9.1738 0.28869-0.19401 0.46987-0.43711 1.1074-0.5332 1.74 0.22405 7.8203 4.5293 7.8203 4.5293s11.909-0.20994 20.473-8.6719c0.21606-1.0467 0.31714-1.9617 0.69141-2.7051zm134.76 11.23-7.0664 7.459c0.42724 0.21555 0.84937 0.43723 1.2754 0.65429l5.791-6.1133s36.025 14.087 86.77 60.646c38.427 35.258 60.284 68.043 68.992 82.582 2.8346 3.6571 4.4746 5.9043 4.4746 5.9043 0-1e-5 -21.753-43.038-73.467-90.486-50.744-46.56-86.77-60.646-86.77-60.646zm-170.17 4.9356c-0.03072 5e-3 -0.07038 0.0216-0.10352 0.0293-0.38515 0.60651-0.92223 1.1889-1.5195 1.5176-0.52571 0.28951-1.3979 0.49768-2.2207 0.6543-1.1001 0.73635-2.2089 1.4707-3.1191 1.9141-0.27167 0.39018-0.51416 0.59151 0.57422 0.85352 0.28811-0.39693 0.49219-0.45508 0.49219-0.45508s3.064-0.30076 4.2734-0.9668c1.21-0.66578 2.1722-2.372 2.1289-3.2109-0.0243-0.28851-0.20748-0.38258-0.50586-0.33594zm-13.342 3.9629c-2.0956 0.79723-10.534 3.3273-16.547 2.8359-6.7893-0.55448-9.2461-1.7734-9.2461-1.7734s0.6495 1.0678 1.5 2.5039c1.3732 0.40346 3.7332 0.9418 7.7461 1.2695 6.79 0.55485 16.714-2.7553 17.053-3.0566 0.33945-0.30205 0.72487-0.84587-0.49805-1.75-0.0044-0.01-0.0038-0.0196-0.0078-0.0293zm153.91 16.764c-0.24243 0.20856-0.54292 0.47532-0.77539 0.67383 6.5321 11.233 14.007 22.597 14.291 39.242 0.2991-17.08-6.9183-28.66-13.516-39.916zm-0.76367 39.926c-0.78625 35.003-39.727 69.469-93.928 43.127-16.173-7.5478-32.814-13.624-46.312-17.703-106.5-32.185-130.77 33.826-130.77 33.826s1.0454-1.6252 3.0723-4.0918c9.2124-15.556 41.542-53.77 127.7-27.734 13.499 4.0794 30.139 10.155 46.312 17.703 55.234 26.843 94.617-9.458 93.928-45.127zm-167.93 28.934c-57.094 1.2388-95.42 56.542-106.67 86.316 1.074-2.0007 2.2189-3.9841 3.4004-5.957 15.257-32.507 55.354-82.811 112.74-78.08-3.2364-0.88148-6.3873-1.6296-9.4688-2.2793z" opacity=".2"/>
	</g>
	<g id="kali-headerbar-logo" transform="matrix(-1 0 0 1 425.84 -545.81)" clip-path="url(#b)">
		<path d="m218.7 739.85s36.025 14.086 86.769 60.645c51.714 47.449 73.467 90.487 73.467 90.487s-66.659-92.897-167.3-143.67zm-156.07-6.3553-4.4023-2.4298s40.85-19.347 97.877-11.328c-33.342-1.7713-64.794 1.8598-93.475 13.758zm-13.594 9.6256c-0.12958-1.5387-4.759 2.4592-7.4688 3.7793-0.27168 0.39018-0.51375 0.59245 0.57463 0.85446 0.28811-0.39693 0.4917-0.45566 0.4917-0.45566s3.0652-0.30002 4.2747-0.96606c1.21-0.66578 2.1712-2.3731 2.1279-3.212zm-131.71 121.57s24.267-66.012 130.77-33.827c13.499 4.0794 30.138 10.155 46.312 17.703 79.362 38.57 126.03-53.225 68.068-86.193-23.972-13.773-60.071-14.309-95.552-14.428-1.5903 3.6663-3.2494 6.809-7.019 8.662-3.7689 1.8525-14.412 0.80539-18.112 1.1086-3.7007 0.30383-15.827 1.8542-25.048 6.614-0.15058-2.9042-7.3448-14.518-7.3448-14.518s2.4571 1.2202 9.2464 1.7747c6.79 0.55485 16.712-2.7561 17.052-3.0575 0.33944-0.30205 0.72594-0.84493-0.49698-1.7491-0.61951-1.3443 3.0201-3.0606 4.5271-3.6037 1.5067-0.54409 13.838-8.9804 14.126-9.1746 0.28869-0.19401 0.46966-0.43788 1.1072-0.53397 1.74 0.22405 7.821 4.5303 7.821 4.5303s12.566-0.21815 21.164-9.3766c-0.94118 1.8695-0.11003 4.7838-3.9046 8.3119 6.3815 0.24875 12.758-1.444 20.824-9.2413-0.38938 6.407-4.1485 8.831-4.1485 8.831s14.182 2.3861 21.618-8.233c-0.23665 6.2239-3.9043 8.3113-3.9043 8.3113s25.446-1.063 59.478 14.735c23.715 8.5946 47.235-29.175 48.293-36.9 0 0 40.911-1.8779 109.05 20.811 68.141 22.689 118.03 54.042 118.03 54.042s-111.75-59.194-220.76-65.139c-9.6555 12.463-29.917 31.256-40.2 40.037 9.7466 16.761 21.616 33.793 8.5152 68.268-13.102 34.474-55.472 50.31-91.382 34.542-34.539-14.034-57.94-24.716-93.033-23.343-33.932 2.2403-77.335 37.247-98.694 77.035 11.865-31.392 53.82-91.174 116.14-86.037-80.212-21.847-112.55 30.036-112.55 30.036zm305.46-128.99 6.708-7.3496s47.678 12.858 104.87 44.858 107.2 80.774 107.2 80.774-107.79-88.178-218.78-118.28" opacity=".06"/>
		<path d="m224.09 714.4c-1.2518 7e-3 -1.8906 0.0371-1.8906 0.0371-1.0574 7.7246-24.578 45.493-48.293 36.898-28.738-13.34-51.159-14.64-57.5-14.727-0.98587 1.4187-1.9785 1.9922-1.9785 1.9922s25.447-1.0635 59.479 14.734c23.715 8.5946 47.236-29.174 48.293-36.898 0 0 40.911-1.8784 109.05 20.811 40.019 13.325 73.64 29.597 94.66 40.793 14.627 6.6579 23.373 11.25 23.373 11.25s-49.892-31.354-118.03-54.043c-59.622-19.853-98.398-20.897-107.16-20.848zm-98.193 3.4062c-40.701 0.48854-67.668 13.26-67.668 13.26l2.0293 1.1211c6.8091-2.8316 30.511-11.615 63.713-12.336 10.489-0.68071 21.208-0.69376 32.135-0.11328-10.693-1.5035-20.817-2.0444-30.209-1.9316zm-25.033 9.8848c-7.3358 7.0917-13.274 9.1276-19.09 9.252-0.43557 0.63802-0.99454 1.3024-1.7344 1.9902 6.2997 0.24557 12.598-1.4134 20.518-8.957 0.14731-0.69787 0.25636-1.4578 0.30664-2.2852zm17.469 0.59961c-5.8749 8.389-15.856 8.6559-19.832 8.4004-0.93246 1.2614-1.7852 1.832-1.7852 1.832s13.818 2.3167 21.326-7.8438c0.15068-0.72064 0.25754-1.5083 0.29102-2.3887zm111.16 0.0605-6.707 7.3496c0.48532 0.13164 0.9699 0.27241 1.4551 0.40625l5.252-5.7559s47.677 12.859 104.87 44.859c39.113 21.885 74.844 51.596 93.539 68.205 8.623 6.4834 13.662 10.568 13.662 10.568 0-1e-5 -50.009-48.773-107.2-80.773-57.192-32-104.87-44.859-104.87-44.859zm-145.55 0.26953c-8.5981 9.1585-21.164 9.377-21.164 9.377s-6.0803-4.3052-7.8203-4.5293c-0.63755 0.0961-0.81873 0.33919-1.1074 0.5332-0.28824 0.19424-12.62 8.6297-14.127 9.1738-1.507 0.54314-5.1469 2.2592-4.5273 3.6035 0.28485 0.21059 0.47432 0.4013 0.60547 0.57422 1.0119-0.94028 2.9235-1.8179 3.9219-2.1777 1.5067-0.54409 13.839-8.9796 14.127-9.1738 0.28869-0.19401 0.46987-0.43711 1.1074-0.5332 1.74 0.22405 7.8203 4.5293 7.8203 4.5293s11.909-0.20994 20.473-8.6719c0.21606-1.0467 0.31714-1.9617 0.69141-2.7051zm134.76 11.23-7.0664 7.459c0.42724 0.21555 0.84937 0.43723 1.2754 0.65429l5.791-6.1133s36.025 14.087 86.77 60.646c38.427 35.258 60.284 68.043 68.992 82.582 2.8346 3.6571 4.4746 5.9043 4.4746 5.9043 0-1e-5 -21.753-43.038-73.467-90.486-50.744-46.56-86.77-60.646-86.77-60.646zm-170.17 4.9356c-0.03072 5e-3 -0.07038 0.0216-0.10352 0.0293-0.38515 0.60651-0.92223 1.1889-1.5195 1.5176-0.52571 0.28951-1.3979 0.49768-2.2207 0.6543-1.1001 0.73635-2.2089 1.4707-3.1191 1.9141-0.27167 0.39018-0.51416 0.59151 0.57422 0.85352 0.28811-0.39693 0.49219-0.45508 0.49219-0.45508s3.064-0.30076 4.2734-0.9668c1.21-0.66578 2.1722-2.372 2.1289-3.2109-0.0243-0.28851-0.20748-0.38258-0.50586-0.33594zm-13.342 3.9629c-2.0956 0.79723-10.534 3.3273-16.547 2.8359-6.7893-0.55448-9.2461-1.7734-9.2461-1.7734s0.6495 1.0678 1.5 2.5039c1.3732 0.40346 3.7332 0.9418 7.7461 1.2695 6.79 0.55485 16.714-2.7553 17.053-3.0566 0.33945-0.30205 0.72487-0.84587-0.49805-1.75-0.0044-0.01-0.0038-0.0196-0.0078-0.0293zm153.91 16.764c-0.24243 0.20856-0.54292 0.47532-0.77539 0.67383 6.5321 11.233 14.007 22.597 14.291 39.242 0.2991-17.08-6.9183-28.66-13.516-39.916zm-0.76367 39.926c-0.78625 35.003-39.727 69.469-93.928 43.127-16.173-7.5478-32.814-13.624-46.312-17.703-106.5-32.185-130.77 33.826-130.77 33.826s1.0454-1.6252 3.0723-4.0918c9.2124-15.556 41.542-53.77 127.7-27.734 13.499 4.0794 30.139 10.155 46.312 17.703 55.234 26.843 94.617-9.458 93.928-45.127zm-167.93 28.934c-57.094 1.2388-95.42 56.542-106.67 86.316 1.074-2.0007 2.2189-3.9841 3.4004-5.957 15.257-32.507 55.354-82.811 112.74-78.08-3.2364-0.88148-6.3873-1.6296-9.4688-2.2793z" opacity=".04"/>
	</g>
</svg>
