<svg width="640" height="480" version="1.1" viewBox="0 0 169.33 127" xmlns="http://www.w3.org/2000/svg" xmlns:xlink="http://www.w3.org/1999/xlink"><defs><filter id="c" x="-.015693" y="-.021102" width="1.0314" height="1.0422" style="color-interpolation-filters:sRGB"><feGaussianBlur stdDeviation="8.0153465"/></filter><filter id="e" style="color-interpolation-filters:sRGB"><feGaussianBlur stdDeviation="3"/></filter><clipPath id="g"><rect x="20.028" y="47.12" width="129.49" height="56.495" rx="1.2769" ry=".98475" style="opacity:.2;paint-order:normal;stroke-width:.42381"/></clipPath><filter id="f" x="-.027155" y="-.053392" width="1.0543" height="1.1068" style="color-interpolation-filters:sRGB"><feGaussianBlur stdDeviation="1.4197901"/></filter><radialGradient id="a" cx="455.5" cy="-321.35" r="508" gradientTransform="matrix(.35218 .0039207 0 .3516 288.4 357.19)" gradientUnits="userSpaceOnUse"><stop stop-color="#23bac2" offset="0"/><stop stop-color="#3b6ab9" offset="1"/></radialGradient><filter id="d" x="-.025853" y="-.059257" width="1.0517" height="1.1185" style="color-interpolation-filters:sRGB"><feGaussianBlur stdDeviation="1.3948945"/></filter></defs><g id="b" transform="matrix(.44498 0 0 .44498 -56.507 .0025851)"><path d="m127 0h381v285.75h-381z" style="fill:url(#a);paint-order:normal;stroke-width:.4328"/><path transform="matrix(.1907 0 0 .19058 -190.53 -68.832)" d="m2719 1208.5c-89.905 0.104-149.3 7.3646-149.5 7.3887-3e-4 0-0.1113 0.01-0.1113 0.01l0.25 2.9902s328.16-15.668 591.1 90.531c9.0967 40.059 35.27 104.92 49.814 137.19-20.448 14.099-42.279 28-59.994 50.19-17.997 22.543-31.643 53.583-35.307 101.69-7.3587 96.658 75.664 181.55 178.54 184.19 96.954 5.1644 163.58 5.8866 244.46 47.805 38.332 21.195 73.475 64.317 99.738 116.8 26.264 52.488 43.669 114.31 46.801 172.78l2.9961 0.039v-0.1992c3.3854-43.837-3.1194-112.49-29.586-177.5-24.86-61.066-67.747-118.56-136.28-149.12 96.821 20.36 150.98 66.106 180.63 107.91 31.141 43.897 35.766 83.01 35.766 83.01l2.9824-0.045s3.9971-46.147-28.104-97.404-100.28-107.64-243.91-128.71c-36.4-5.3408-82.402-9.4487-128.96-9.5664h-0.026c-114.29 1.5111-172.99-64.144-182.07-131.74-4.537-33.796 3.3933-68.084 23.111-94.725 19.718-26.64 51.196-45.694 94.09-49.045h0.01c70.883-5.8487 156.12 32.412 239.6 71.279-0.2456 10.066 0.3263 19.508 7.2266 28.133 3.8348 4.7931 12.166 9.1336 20.678 13.154 8.5116 4.0206 17.238 7.5995 21.207 9.8769 8.256 4.7391 35.052 21.825 51.268 42.932l1.4102 1.8379 1.0996-2.043c0.6257-1.1703 3.1136-3.7343 6.3633-6.4531s7.2883-5.7534 11.221-8.584c7.8648-5.6613 15.295-10.498 15.295-10.498l4.4082-2.8711-5.2559 0.1114s-1.5686 0.047-5.3378-0.6719c-3.7693-0.7195-9.6275-2.2063-17.865-5.2852-8.0259-2.9993-17.049-9.1773-24.049-14.734-3.4998-2.7786-6.5071-5.406-8.6523-7.3907-1.0727-0.9923-1.9265-1.8236-2.5176-2.4277-0.2956-0.302-0.5272-0.5437-0.6719-0.709-0.052-0.059-0.083-0.1177-0.1133-0.1699-0.089-0.2485-0.1081-0.3943-0.078-0.4512 0.038-0.07 0.4295-0.5549 2.1562-0.9004l0.375-0.072 0.2969-0.252c1.257-1.0582 1.4343-2.7785 1.1133-4.2148-0.3209-1.4364-1.0493-2.8683-1.9336-4.2969-1.7686-2.8573-4.2065-5.639-5.7656-7.1973-0.1618-0.1621-0.8404-1.0299-1.6465-2.207s-1.8075-2.7191-2.9375-4.4961c-2.2601-3.554-5.0159-8.0393-7.6914-12.459-5.351-8.8393-10.324-17.298-10.631-17.812-0.3152-0.5259-0.8-1.8439-2.4726-2.9609l-0.1778-0.1172-0.1992-0.061c-1.5613-0.5021-3.5641-0.4726-6.0293-0.3457-2.4651 0.1269-5.2911 0.425-7.9726 0.7675-5.0479 0.6448-9.0506 1.3614-9.5684 1.4532-0.5828-0.2903-28.606-14.316-38.406-44.424l-2.9239 0.502c0.1089 4.0222-3.745 10.322-0.7754 20.973-13.758-6.5114-25.576-17.213-35.174-42.469l-1.3672-3.6016-1.4238 3.5801c-3.1916 8.0265-3.2126 14.689-2.3984 19.34 0.456 2.6055 0.8486 2.8892 1.4082 4.1563-6.7931-2.3256-33.078-12.881-37.979-41.131l-0.8632-5.0136-1.9942 4.6875c-3.2788 7.7301-3.3075 14.049-2.4648 18.426 0.3958 2.0558 0.7047 2.0786 1.2324 3.2559-8.2693-4.0356-63.332-29.363-153.74-29.801-15.918-1.4623-28.65-9.5189-38.844-21.238-10.196-11.721-17.782-27.106-23.15-42.947s-8.5295-32.134-9.9649-45.635c-1.4353-13.501-1.0459-24.384 0.295-28.672l0.3691-1.1875-1.0996-0.5839s-94.664-49.857-280.58-71.848c-69.714-8.2481-134.72-10.775-188.75-10.713zm243.8 93.148c-32.231-0.066-67.418 0.9267-104.69 3.5762-170.32 12.106-341.97 71.605-342.34 71.73-3e-4 1e-4 -0.125 0.037-0.125 0.037l0.8555 2.8711s351.52-88.378 645.95-36.533l0.2578-1.4766 1.4336-0.4414-7.9433-25.623-0.9004-0.1621s-71.317-12.665-178.86-13.887c-4.4811-0.051-9.0265-0.082-13.631-0.092zm194.6 52.75c-2.2974-0.01-4.967 0-8 0.057-36.396 0.6335-125.25 6.924-253.75 47.133-174.64 54.645-273.8 132.17-273.8 132.17l1.6543 2.4942s259.73-144.96 552.67-153.2l2.0156-0.061-9.3535-28.272-1.0039-0.066s-3.5472-0.2352-10.44-0.2637zm180.57 22.225-1.004 2.8203c80.394 32.679 150.29 75.943 204.52 135.53l2.6055 2.8711v-2.4726l14.586-0.9532-1.8594-2.2578s-75.116-91.106-218.7-135.49c-0.01 0-0.016-0.01-0.023-0.01-0.044-0.014-0.081-0.029-0.125-0.043zm227.28 176.59c0.7743 0.7973 1.8804 2.3643 3.0781 4.2734 1.833 2.9217 3.901 6.2209 5.9141 9.2266-0.5861-0.3594-1.2272-0.7295-2.6426-1.7188-1.9375-1.354-4.1418-3.146-4.9395-4.2441h-0.01c-0.8375-1.1521-1.4256-2.9571-1.6308-4.6367-0.1607-1.3151 0.058-2.2104 0.2285-2.9004z" dominant-baseline="auto" style="color-rendering:auto;color:#000000;dominant-baseline:auto;fill:#000919;filter:url(#c);font-feature-settings:normal;font-variant-alternates:normal;font-variant-caps:normal;font-variant-ligatures:normal;font-variant-numeric:normal;font-variant-position:normal;image-rendering:auto;isolation:auto;mix-blend-mode:normal;opacity:.3;shape-padding:0;shape-rendering:auto;solid-color:#000000;text-decoration-color:#000000;text-decoration-line:none;text-decoration-style:solid;text-indent:0;text-orientation:mixed;text-transform:none;white-space:normal"/><g transform="matrix(.4999 0 0 .49961 15.203 4.1653)" style="fill:#fff"><path d="m796.88 371.23s-38.338-2.551-103.62 17.878c-66.534 20.817-104.27 50.326-104.27 50.326s99.165-55.367 211.1-58.513zm143 60.2 4.9842-0.32513s-28.556-34.647-83.213-51.522c30.725 12.489 57.469 29.038 78.229 51.848zm8.1568 14.395c0.7663-1.3286 3.2399 4.2209 5.1188 6.5522 0.0796 0.46554 0.21173 0.74962-0.87749 0.52554-0.0915-0.47857-0.24966-0.61734-0.24966-0.61734s-2.629-1.5643-3.4352-2.674c-0.80667-1.1096-0.94983-3.0505-0.55659-3.7865zm67.076 164.92s6.0619-69.597-103.28-85.641c-13.859-2.0334-31.385-3.5986-49.114-3.6433-87.64 1.1587-90.833-101.08-24.794-106.24 27.369-2.2582 60.051 12.506 91.999 27.384-0.11864 3.9678 0.0455 7.4941 2.6523 10.752 2.606 3.2573 12.617 6.8109 15.816 8.6463 3.1987 1.8361 13.446 8.3514 19.726 16.525 1.3618-2.5474 12.735-9.9504 12.735-9.9504s-2.7246 0.0594-9.0628-2.3096c-6.3389-2.3688-13.861-9.5362-14.039-9.9504-0.17764-0.41493-0.29585-1.0662 1.1855-1.3627 1.1248-0.94693-1.4226-4.0272-2.5481-5.1519-1.1248-1.1256-8.6485-13.918-8.8257-14.215-0.17762-0.29621-0.23727-0.592-0.76988-0.94769-1.659-0.53349-8.9449 0.7699-8.9449 0.7699s-11.205-5.5034-15.068-17.369c0.0562 2.0783-1.9215 4.3474 0 9.122-5.8423-2.4715-10.861-6.6867-14.819-17.103-2.3559 5.9248 0 9.6916 0 9.6916s-13.758-3.8443-15.958-16.532c-2.4159 5.6955 0 9.1212 0 9.1212s-22.429-11.703-59.698-11.873c-24.951-2.2886-30.145-46.18-27.834-53.571 0 0-35.988-18.967-106.83-27.346-70.845-8.3804-128.94-1.2629-128.94-1.2629s125.47-6.0216 225.99 34.673c3.4171 15.283 13.696 40.737 19.232 52.974-15.842 10.953-33.706 21.252-36.488 57.78-2.781 36.528 28.625 68.66 67.57 69.65 36.98 1.9698 62.53 2.2496 93.5 18.305 29.561 16.344 53.798 66.149 56.196 110.94 2.5907-33.234-9.8811-104.7-68.082-126.4 81.343 14.235 88.5 74.538 88.5 74.538zm-220.15-244.97-2.9269-9.4408s-48.296-8.5762-113.23-3.9606c-64.934 4.6155-130.49 27.346-130.49 27.346s134.15-33.755 246.65-13.944" style="stroke-width:1.4346"/></g></g><rect x="20.028" y="48.708" width="129.49" height="56.495" rx="1.2769" ry=".98475" style="filter:url(#d);opacity:.2;paint-order:normal;stroke-width:.42381"/><use transform="translate(7.5664e-6 -3.5003e-6)" width="100%" height="100%" clip-path="url(#g)" style="filter:url(#e)" xlink:href="#b"/><path transform="matrix(.44498 0 0 .44498 .0050489 70.643)" d="m250.2-139.64c-0.46662-0.12493-0.93212-0.14751-1.4142-0.14751h-116.9c-1.7546 0.0121-3.2949 1.1215-3.8779 2.7712-0.19055 0.53636-0.24624 1.0792-0.24624 1.6417v55.296c0.0653 2.3041 1.8675 4.101 4.1508 4.1065 4.7856 6e-3 14.641-0.018 14.641-0.018l-0.018-4.2793h-14.374c-0.0764-0.45984-0.0572-54.574 0.018-54.826 0.44031-0.0614 116.31-0.0392 116.57 0.0211 0.0705 0.41737 0.0496 54.539-0.0271 54.822h-96.907v4.2798s0.37826 0 0.55135 6e-3h96.773c1.7355-0.018 3.2731-1.1059 3.8647-2.742 0.19054-0.52119 0.24533-1.0585 0.24533-1.6079v-55.401c-0.0362-1.8301-1.2821-3.4377-3.0441-3.9244zm-98.384 47.535v-11.067c0-0.24955 0.0705-0.42493 0.27394-0.58321 0.85469-0.67588 1.698-1.371 2.5413-2.061 0.084-0.0626 0.16587-0.11799 0.27092-0.19446 0.091 0.1177 0.16767 0.21373 0.23811 0.3196 1.4338 2.0685 2.8686 4.1348 4.3017 6.2002 1.7582 2.5439 3.5193 5.0763 5.2739 7.6084 0.0972 0.1469 0.18664 0.25858 0.40293 0.25858 1.8475-6e-3 3.6928-6e-3 5.5382-6e-3 0.0611 0 0.12402-0.0211 0.22125-0.0421-4.0856-5.95-8.1545-11.859-12.236-17.804 0.82107-0.95314 1.6154-1.8704 2.4088-2.8104 0.79545-0.92041 1.5882-1.8439 2.3824-2.7708 0.79299-0.92441 1.5802-1.8503 2.3754-2.7757 0.79341-0.92745 1.5882-1.8529 2.3725-2.7778 0.78985-0.91789 1.574-1.8363 2.4112-2.8266h-0.46546c-1.6719 0-3.343 9e-3 -5.0151-6e-3 -0.30731 0-0.50132 0.0891-0.70413 0.32761-4.1074 4.8641-8.2246 9.729-12.341 14.588-0.0548 0.062-0.12583 0.118-0.24413 0.22728v-12.1c0-1.0015 0.018-2.0061 0-3.008h-5.1656v31.729c0.41008 0.0719 4.897 0.0575 5.1736-0.018v-0.40388zm27.58 0.45921c0.0416-0.12011 0.0892-0.22336 0.12554-0.33519 0.83471-2.3716 1.6704-4.7391 2.5075-7.1126 0.13906-0.38151 0.27754-0.76511 0.40355-1.1482 0.0497-0.15985 0.13154-0.24353 0.30012-0.22336 0.0548 6e-3 0.1183 0 0.17369 0h11.784c1.0652 2.9511 2.1231 5.881 3.1769 8.8113h5.5164c-3.9794-10.662-7.9419-21.282-11.897-31.897h-5.6405c-0.0362 0.0695-0.0629 0.1201-0.0774 0.16797-3.9273 10.532-7.8505 21.067-11.776 31.598-0.0181 0.0181-0.0181 0.0496-0.0181 0.0704v0.0331c0 0.0151 0.0181 0.0211 0.0211 0.0361h5.391zm4.7688-13.669c1.0863-3.1456 2.1882-6.2775 3.2468-9.4315 0.42478-1.2676 0.74492-2.5752 1.1065-3.8682 0.0312-0.0978 0.0497-0.19596 0.091-0.34371 0.0547 0.0834 0.0972 0.13426 0.11228 0.18905 0.86288 3.2219 2.0425 6.348 3.1136 9.5084 0.44495 1.315 0.90578 2.6221 1.3587 3.9379 0.0343 0.11771 0.0683 0.23541 0.11048 0.3811h-9.2557c0.0416-0.13726 0.0768-0.25497 0.11619-0.37303zm27.931-15.647c0-0.82161 0.0301-1.6357-0.0211-2.4496h-5.1016c-0.0861 0.39672-0.0653 31.506 0.0181 31.766h18.582v-4.42h-8.9636c-0.7535 0-1.5129 6e-3 -2.2633 0-0.73944-6e-3 -1.4758 0.0271-2.2428-0.018v-24.875zm22.183-2.254c0-0.0494 0-0.0903-0.018-0.14117 0-0.0151-0.0211-0.0181-0.0211-0.0271 0-6e-3 -0.0211-0.018-0.0211-0.018h-5.1188v31.748h5.1462c0.0211-0.0533 0.0301-0.0819 0.0301-0.11739v-31.445z" style="clip-rule:evenodd;fill-rule:evenodd;filter:url(#f);opacity:.31;stroke-width:.50419"/><path d="m111.34 8.5066c-0.20764-0.055586-0.41476-0.065632-0.62926-0.065632h-52.018c-0.78076 0.00538-1.4662 0.49904-1.7256 1.2331-0.0848 0.23867-0.10957 0.48022-0.10957 0.73052v24.605c0.02905 1.0253 0.831 1.8248 1.847 1.8273 2.1295 0.0028 6.5148-8e-3 6.5148-8e-3l-8e-3 -1.9042h-6.3964c-0.034-0.20462-0.02544-24.284 8e-3 -24.397 0.19593-0.02732 51.758-0.01745 51.87 0.0094 0.0315 0.18572 0.022 24.269-0.012 24.395h-43.122v1.9044s0.16832 0 0.24534 0.0028h43.062c0.77227-8e-3 1.4565-0.49209 1.7197-1.2201 0.0848-0.23192 0.10917-0.47099 0.10917-0.71546v-24.652c-0.0161-0.81438-0.5705-1.5297-1.3546-1.7463zm-43.779 21.152v-4.9247c0-0.11104 0.03137-0.18908 0.1219-0.25951 0.38032-0.30076 0.7556-0.61006 1.1308-0.9171 0.03738-0.02786 0.0738-0.05251 0.12056-0.08652 0.04049 0.05236 0.07461 0.0951 0.10595 0.14221 0.63803 0.92045 1.2765 1.8399 1.9142 2.7589 0.78237 1.132 1.566 2.2588 2.3468 3.3856 0.04326 0.06536 0.08305 0.11506 0.1793 0.11506 0.82209-0.0027 1.6432-0.0027 2.4644-0.0027 0.02719 0 0.05519-0.0094 0.09845-0.01875-1.818-2.6476-3.6286-5.2771-5.4446-7.9223 0.36536-0.42413 0.71883-0.83231 1.0719-1.2506 0.35396-0.40956 0.7067-0.82048 1.0601-1.2329 0.35286-0.41134 0.70316-0.82335 1.057-1.2351 0.35305-0.4127 0.7067-0.82449 1.0557-1.2361 0.35147-0.40844 0.70042-0.81712 1.0729-1.2578h-0.20712c-0.74395 0-1.4875 4e-3 -2.2316-0.0027-0.13675 0-0.22308 0.03964-0.31332 0.14578-1.8277 2.1644-3.6598 4.3292-5.4917 6.4912-0.02438 0.0276-0.05599 0.05252-0.10863 0.10114v-5.3844c0-0.44566 8e-3 -0.89268 0-1.3385h-2.2986v14.119c0.18248 0.03201 2.1791 0.02558 2.3021-0.0081v-0.17971zm12.273 0.20434c0.01851-0.05344 0.03969-0.09939 0.05587-0.14915 0.37143-1.0553 0.74327-2.1088 1.1158-3.165 0.06188-0.16977 0.1235-0.34046 0.17957-0.51092 0.02211-0.07112 0.05853-0.10837 0.13355-0.09939 0.02438 0.0027 0.05264 0 0.07729 0h5.2435c0.47398 1.3132 0.94474 2.6169 1.4137 3.9209h2.4547c-1.7707-4.7442-3.534-9.4702-5.2939-14.194h-2.5099c-0.0161 0.03093-0.02799 0.05344-0.03444 0.07475-1.7476 4.6863-3.4933 9.3745-5.2403 14.06-0.0081 0.0081-0.0081 0.0221-0.0081 0.03134v0.01472c0 0.0068 0.0081 0.0094 0.0094 0.01608h2.3989zm2.122-6.0823c0.48339-1.3997 0.97368-2.7933 1.4448-4.1968 0.18902-0.56407 0.33148-1.1459 0.49238-1.7213 0.01388-0.04353 0.02211-0.0872 0.04049-0.15294 0.02433 0.03711 0.04326 0.05973 0.04996 0.08411 0.38396 1.4337 0.90886 2.8247 1.3855 4.2311 0.198 0.58516 0.40306 1.1668 0.6046 1.7523 0.01526 0.05237 0.03038 0.10475 0.04915 0.16958h-4.1186c0.01851-0.06108 0.03417-0.11346 0.05171-0.16599zm12.429-6.9626c0-0.3656 0.01344-0.72786-0.0093-1.09h-2.2701c-0.03831 0.17653-0.02905 14.02 0.0081 14.135h8.2684v-1.9668h-3.9886c-0.33529 0-0.67322 0.0027-1.0071 0-0.32903-0.0027-0.65668 0.01207-0.99799-0.0081v-11.069zm9.8708-1.003c0-0.02198 0-0.04018-8e-3 -0.06283 0-0.0068-9e-3 -0.0081-9e-3 -0.01206 0-0.0027-9e-3 -8e-3 -9e-3 -8e-3h-2.2778v14.127h2.29c9e-3 -0.0237 0.0134-0.03643 0.0134-0.05224v-13.992z" style="clip-rule:evenodd;fill-rule:evenodd;fill:#fff;stroke-width:.22436"/><rect x="20.028" y="47.12" width="129.49" height="56.495" rx="1.2769" ry=".98475" style="opacity:.2;paint-order:normal;stroke-width:.42381"/></svg>
