<svg width="1920" height="1080" version="1.1" viewBox="0 0 508 285.75" xmlns="http://www.w3.org/2000/svg" xmlns:xlink="http://www.w3.org/1999/xlink"><defs><filter id="c" x="-.015693" y="-.021102" width="1.0314" height="1.0422" style="color-interpolation-filters:sRGB"><feGaussianBlur stdDeviation="8.0153465"/></filter><filter id="d" style="color-interpolation-filters:sRGB"><feGaussianBlur stdDeviation="3"/></filter><clipPath id="e"><rect x="119.84" y="66.981" width="268.32" height="151.79" rx="2.6458" ry="2.6458" style="opacity:.2;paint-order:normal"/></clipPath><filter id="b" x="-.028183" y="-.049819" width="1.0564" height="1.0996" style="color-interpolation-filters:sRGB"><feGaussianBlur stdDeviation="3.1507719"/></filter><radialGradient id="f" cx="630.9" cy="-320.52" r="508" gradientTransform="matrix(-.47781 0 1.5034e-5 -.47727 730.01 32.127)" gradientUnits="userSpaceOnUse"><stop stop-color="#23bac2" offset="0"/><stop stop-color="#3b6ab9" offset="1"/></radialGradient></defs><g id="a"><path d="m-5.4095e-7 0h508v285.75h-508z" style="fill:url(#f);paint-order:normal;stroke-width:.49975"/><path transform="matrix(.1907 0 0 .19058 -209.16 -121.98)" d="m2719 1208.5c-89.905 0.104-149.3 7.3646-149.5 7.3887-3e-4 0-0.1113 0.01-0.1113 0.01l0.25 2.9902s328.16-15.668 591.1 90.531c9.0967 40.059 35.27 104.92 49.814 137.19-20.448 14.099-42.279 28-59.994 50.19-17.997 22.543-31.643 53.583-35.307 101.69-7.3587 96.658 75.664 181.55 178.54 184.19 96.954 5.1644 163.58 5.8866 244.46 47.805 38.332 21.195 73.475 64.317 99.738 116.8 26.264 52.488 43.669 114.31 46.801 172.78l2.9961 0.039v-0.1992c3.3854-43.837-3.1194-112.49-29.586-177.5-24.86-61.066-67.747-118.56-136.28-149.12 96.821 20.36 150.98 66.106 180.63 107.91 31.141 43.897 35.766 83.01 35.766 83.01l2.9824-0.045s3.9971-46.147-28.104-97.404-100.28-107.64-243.91-128.71c-36.4-5.3408-82.402-9.4487-128.96-9.5664h-0.026c-114.29 1.5111-172.99-64.144-182.07-131.74-4.537-33.796 3.3933-68.084 23.111-94.725 19.718-26.64 51.196-45.694 94.09-49.045h0.01c70.883-5.8487 156.12 32.412 239.6 71.279-0.2456 10.066 0.3263 19.508 7.2266 28.133 3.8348 4.7931 12.166 9.1336 20.678 13.154 8.5116 4.0206 17.238 7.5995 21.207 9.8769 8.256 4.7391 35.052 21.825 51.268 42.932l1.4102 1.8379 1.0996-2.043c0.6257-1.1703 3.1136-3.7343 6.3633-6.4531s7.2883-5.7534 11.221-8.584c7.8648-5.6613 15.295-10.498 15.295-10.498l4.4082-2.8711-5.2559 0.1114s-1.5686 0.047-5.3378-0.6719c-3.7693-0.7195-9.6275-2.2063-17.865-5.2852-8.0259-2.9993-17.049-9.1773-24.049-14.734-3.4998-2.7786-6.5071-5.406-8.6523-7.3907-1.0727-0.9923-1.9265-1.8236-2.5176-2.4277-0.2956-0.302-0.5272-0.5437-0.6719-0.709-0.052-0.059-0.083-0.1177-0.1133-0.1699-0.089-0.2485-0.1081-0.3943-0.078-0.4512 0.038-0.07 0.4295-0.5549 2.1562-0.9004l0.375-0.072 0.2969-0.252c1.257-1.0582 1.4343-2.7785 1.1133-4.2148-0.3209-1.4364-1.0493-2.8683-1.9336-4.2969-1.7686-2.8573-4.2065-5.639-5.7656-7.1973-0.1618-0.1621-0.8404-1.0299-1.6465-2.207s-1.8075-2.7191-2.9375-4.4961c-2.2601-3.554-5.0159-8.0393-7.6914-12.459-5.351-8.8393-10.324-17.298-10.631-17.812-0.3152-0.5259-0.8-1.8439-2.4726-2.9609l-0.1778-0.1172-0.1992-0.061c-1.5613-0.5021-3.5641-0.4726-6.0293-0.3457-2.4651 0.1269-5.2911 0.425-7.9726 0.7675-5.0479 0.6448-9.0506 1.3614-9.5684 1.4532-0.5828-0.2903-28.606-14.316-38.406-44.424l-2.9239 0.502c0.1089 4.0222-3.745 10.322-0.7754 20.973-13.758-6.5114-25.576-17.213-35.174-42.469l-1.3672-3.6016-1.4238 3.5801c-3.1916 8.0265-3.2126 14.689-2.3984 19.34 0.456 2.6055 0.8486 2.8892 1.4082 4.1563-6.7931-2.3256-33.078-12.881-37.979-41.131l-0.8632-5.0136-1.9942 4.6875c-3.2788 7.7301-3.3075 14.049-2.4648 18.426 0.3958 2.0558 0.7047 2.0786 1.2324 3.2559-8.2693-4.0356-63.332-29.363-153.74-29.801-15.918-1.4623-28.65-9.5189-38.844-21.238-10.196-11.721-17.782-27.106-23.15-42.947s-8.5295-32.134-9.9649-45.635c-1.4353-13.501-1.0459-24.384 0.295-28.672l0.3691-1.1875-1.0996-0.5839s-94.664-49.857-280.58-71.848c-69.714-8.2481-134.72-10.775-188.75-10.713zm243.8 93.148c-32.231-0.066-67.418 0.9267-104.69 3.5762-170.32 12.106-341.97 71.605-342.34 71.73-3e-4 1e-4 -0.125 0.037-0.125 0.037l0.8555 2.8711s351.52-88.378 645.95-36.533l0.2578-1.4766 1.4336-0.4414-7.9433-25.623-0.9004-0.1621s-71.317-12.665-178.86-13.887c-4.4811-0.051-9.0265-0.082-13.631-0.092zm194.6 52.75c-2.2974-0.01-4.967 0-8 0.057-36.396 0.6335-125.25 6.924-253.75 47.133-174.64 54.645-273.8 132.17-273.8 132.17l1.6543 2.4942s259.73-144.96 552.67-153.2l2.0156-0.061-9.3535-28.272-1.0039-0.066s-3.5472-0.2352-10.44-0.2637zm180.57 22.225-1.004 2.8203c80.394 32.679 150.29 75.943 204.52 135.53l2.6055 2.8711v-2.4726l14.586-0.9532-1.8594-2.2578s-75.116-91.106-218.7-135.49c-0.01 0-0.016-0.01-0.023-0.01-0.044-0.014-0.081-0.029-0.125-0.043zm-103.39 166.07c-3.0567 0.023-5.7384 1.9545-6.7539 4.83-0.3322 0.9352-0.4297 1.8809-0.4297 2.8614v96.379c0.1134 4.0158 3.2532 7.1485 7.2305 7.1582 8.3364 0.011 25.504-0.033 25.504-0.033l-0.033-7.459h-25.041c-0.1334-0.8013-0.098-95.121 0.035-95.56 0.7671-0.1074 202.62-0.068 203.06 0.039 0.1224 0.7274 0.088 95.06-0.045 95.555h-168.81v7.4609s0.6594 0 0.9609 0.01h168.58c3.0234-0.034 5.7022-1.9275 6.7324-4.7793 0.3323-0.9084 0.4278-1.8451 0.4278-2.8027v-96.562c-0.063-3.19-2.2352-5.9931-5.3047-6.8418-0.8128-0.2177-1.6231-0.2558-2.4629-0.2558zm330.67 10.516c0.7743 0.7973 1.8804 2.3643 3.0781 4.2734 1.833 2.9217 3.901 6.2209 5.9141 9.2266-0.5861-0.3594-1.2272-0.7295-2.6426-1.7188-1.9375-1.354-4.1418-3.146-4.9395-4.2441h-0.01c-0.8375-1.1521-1.4256-2.9571-1.6308-4.6367-0.1607-1.3151 0.058-2.2104 0.2285-2.9004zm-236.67 17.787c-0.063 0.121-0.1095 0.2094-0.1348 0.293-6.8414 18.356-13.675 36.72-20.514 55.074-0.034 0.034-0.035 0.087-0.035 0.123v0.057c0 0.023 0.035 0.038 0.039 0.062h9.4097c0.072-0.209 0.1552-0.389 0.2188-0.584 1.454-4.1336 2.9089-8.2594 4.3671-12.396 0.2427-0.665 0.4837-1.3342 0.7032-2.0019 0.086-0.2786 0.2297-0.4239 0.5234-0.3887 0.096 0.011 0.2064 0 0.3027 0h20.525c1.8556 5.1439 3.6997 10.25 5.5352 15.357h9.6094c-6.932-18.583-13.835-37.094-20.725-55.596zm-36.119 0.1836c-0.5353 0-0.8732 0.1566-1.2265 0.5723-7.155 8.478-14.326 16.957-21.498 25.426-0.096 0.1078-0.2195 0.2059-0.4258 0.3965v-21.092c0-1.7457 0.034-3.4976 0-5.2441h-8.998v55.305c0.7143 0.1255 8.5302 0.1013 9.0117-0.033v-0.7051h-0.025v-19.291c0-0.4349 0.122-0.7397 0.4766-1.0156 1.4889-1.1781 2.9589-2.391 4.4277-3.5937 0.1463-0.1093 0.2876-0.2061 0.4707-0.3399 0.1588 0.2052 0.2934 0.3742 0.416 0.5586 2.4977 3.6056 4.9976 7.2064 7.4942 10.807 3.0628 4.434 6.129 8.8479 9.1855 13.262 0.1697 0.2558 0.3267 0.4511 0.7032 0.4511 3.2183-0.011 6.4318-0.012 9.6464-0.012 0.1066 0 0.217-0.039 0.3868-0.074-7.117-10.371-14.205-20.67-21.314-31.031 1.4303-1.6614 2.8134-3.262 4.1953-4.9004 1.3857-1.6043 2.7667-3.2125 4.1504-4.8282 1.3814-1.6112 2.7533-3.2248 4.1387-4.8378 1.3821-1.6167 2.7667-3.2298 4.1328-4.8418 1.3759-1.6 2.7408-3.2014 4.1992-4.9278h-0.8105c-2.9124 0-5.8233 0.015-8.7364-0.012zm72.918 0.059c-0.15 0.6914-0.1122 54.917 0.035 55.367h32.367v-7.7031h-15.613c-1.3126 0-2.6362 0.011-3.9434 0-1.2881-0.011-2.5701 0.049-3.9062-0.033v-43.359h-0.012c0-1.4321 0.05-2.8526-0.039-4.2715zm38.545 0.016v55.338h8.9649c0.034-0.093 0.051-0.1415 0.051-0.2031v-54.807h0.01c0-0.086 8e-4 -0.1573-0.033-0.2461 0-0.023-0.033-0.034-0.033-0.047 0-0.011-0.039-0.033-0.039-0.033zm-70.529 7.7481c0.096 0.1451 0.1693 0.2325 0.1953 0.3281 1.5032 5.6157 3.5596 11.066 5.4258 16.574 0.7751 2.2921 1.5762 4.5694 2.3653 6.8633 0.06 0.2048 0.12 0.4101 0.1933 0.6641h-16.123c0.072-0.2393 0.1339-0.4448 0.2031-0.6504 1.8924-5.4831 3.8121-10.942 5.6563-16.44 0.7399-2.2095 1.2978-4.4887 1.9277-6.7422 0.054-0.1704 0.086-0.3406 0.1582-0.5976zm-70.541 81.451c-1.7088 0-3.0265 0.5024-3.9453 1.5039-0.9226 1.0034-1.3848 2.436-1.3848 4.3047s0.4598 3.3085 1.377 4.3243c0.9155 1.0147 2.2269 1.5214 3.9355 1.5214 1.6916 0 2.9953-0.5095 3.916-1.5312 0.9225-1.0235 1.3829-2.453 1.3829-4.2988 0-1.8476-0.4584-3.2824-1.3809-4.2989-0.9191-1.0174-2.2185-1.5254-3.9004-1.5254zm56.908 0.016c-1.13 0-2.0321 0.2728-2.7031 0.8125-0.6714 0.542-1.0078 1.2877-1.0078 2.2304 0 0.7556 0.2117 1.399 0.6367 1.9375 0.4219 0.5368 1.1504 1.0116 2.1855 1.4297 0.9976 0.4033 1.66 0.7508 1.9805 1.0469 0.319 0.2963 0.4805 0.6562 0.4805 1.0762 0 0.47-0.173 0.8447-0.5215 1.125-0.347 0.2774-0.8935 0.416-1.627 0.416-0.4974 0-1.0394-0.07-1.6191-0.209-0.5825-0.1398-1.1289-0.3293-1.6445-0.5723v1.75c0.8154 0.3971 1.8622 0.5957 3.1406 0.5957 1.2817 0 2.2865-0.2858 3.0156-0.8593 0.7275-0.5711 1.0918-1.3632 1.0918-2.3692 0-0.5148-0.092-0.9541-0.2715-1.3301-0.1786-0.3791-0.4636-0.7173-0.8496-1.0175-0.3902-0.2991-0.9983-0.6237-1.8242-0.9668-0.7416-0.3043-1.2534-0.5512-1.5352-0.7383-0.2857-0.1856-0.4891-0.3814-0.6113-0.5879-0.1263-0.2109-0.1875-0.4635-0.1875-0.7578 0-0.4279 0.1552-0.7738 0.4648-1.0313 0.3088-0.2642 0.7634-0.3925 1.3633-0.3925 0.7874 0 1.6869 0.2102 2.6953 0.6347l0.584-1.5078c-1.0689-0.4761-2.1487-0.7148-3.2344-0.7148zm44.322 0c-1.1306 0-2.0288 0.2728-2.6992 0.8125-0.6711 0.542-1.0098 1.2877-1.0098 2.2304 0 0.7556 0.2122 1.399 0.6367 1.9375 0.4217 0.5368 1.1497 1.0116 2.1856 1.4297 1.0004 0.4033 1.6597 0.7508 1.9804 1.0469 0.319 0.2963 0.4785 0.6562 0.4785 1.0762 0 0.47-0.174 0.8447-0.5214 1.125-0.3478 0.2774-0.8907 0.416-1.625 0.416-0.4971 0-1.0409-0.07-1.6172-0.209-0.5862-0.1398-1.1311-0.3293-1.6504-0.5723v1.75c0.8188 0.3971 1.8665 0.5957 3.1465 0.5957 1.2801 0 2.2859-0.2858 3.0136-0.8593 0.7264-0.5711 1.0899-1.3632 1.0899-2.3692 0-0.5148-0.093-0.9541-0.2715-1.3301-0.1829-0.3795-0.4667-0.717-0.8516-1.0175-0.3883-0.2994-0.9979-0.6234-1.83-0.9668-0.7329-0.3043-1.25-0.5512-1.5313-0.7383-0.2823-0.1856-0.487-0.3814-0.6094-0.5879-0.1224-0.2109-0.1875-0.4635-0.1875-0.7578 0-0.4279 0.1539-0.7738 0.4649-1.0313 0.3088-0.2642 0.7669-0.3925 1.3633-0.3925 0.7908 0 1.6893 0.2102 2.6972 0.6347l0.584-1.5078c-1.0699-0.4761-2.1521-0.7148-3.2363-0.7148zm22.453 0c-1.0997 0-2.0605 0.2351-2.875 0.705-0.8135 0.4692-1.4377 1.1444-1.8691 2.0274-0.4314 0.8855-0.6465 1.9152-0.6465 3.0898 0 1.8704 0.445 3.307 1.334 4.3086 0.8875 1.0068 2.1602 1.5078 3.8164 1.5078 1.1228 0 2.1332-0.1692 3.0215-0.5019v-1.5899c-0.4833 0.1539-0.9549 0.2744-1.4043 0.3731-0.4473 0.094-0.9139 0.1406-1.3926 0.1406-1.1076 0-1.9571-0.3569-2.5449-1.0703-0.585-0.7108-0.877-1.7667-0.877-3.1504 0-1.3301 0.3049-2.3647 0.9141-3.1211 0.609-0.7556 1.4436-1.1308 2.5058-1.1308 0.468 0 0.9175 0.065 1.3457 0.205 0.4253 0.1361 0.8277 0.2956 1.211 0.4766l0.666-1.5391c-0.9796-0.4867-2.0525-0.7304-3.2051-0.7304zm-146.62 0.1621 3.7539 6.9941v4.3281h1.8594v-4.3906l3.7715-6.9316h-2.0137l-2.6777 5.1679-2.6797-5.1679zm32.238 0v11.322h1.8379v-4.6484h4.2656v-1.5703h-4.2656v-3.5371h4.5488v-1.5664zm10.025 0v11.322h1.8359v-4.6484h4.2656v-1.5703h-4.2656v-3.5371h4.5528v-1.5664zm10.025 0v11.322h6.4043v-1.5722h-4.5508v-3.5528h4.2637v-1.5488h-4.2637v-3.084h4.5508v-1.5644zm10.436 0v11.322h1.6797v-5.8828c0-0.796-0.039-1.6725-0.1094-2.6328l-0.037-0.5019h0.055l5.5703 9.0195h2.2637v-11.322h-1.6914v5.9336c0 0.4164 1e-4 0.9965 0.051 1.7442 0.034 0.7477 0.055 1.1791 0.057 1.2968h-0.043l-5.5546-8.9765zm24.311 0v11.32h1.8515v-11.32zm4.9277 0 3.9473 11.32h1.9531l3.9648-11.32h-1.9218l-2.3555 7.0058c-0.09 0.2495-0.2032 0.6336-0.3457 1.1485-0.1368 0.5148-0.2425 0.9721-0.3086 1.3613-0.047-0.257-0.1328-0.65-0.2715-1.1797-0.1425-0.5298-0.2695-0.9604-0.3984-1.2969l-2.3614-7.039zm12.951 0v11.32h6.3984v-1.5703h-4.5527v-3.5528h4.2695v-1.5507h-4.2695v-3.0821h4.5527v-1.5644zm26.443 0v11.32h6.4024v-1.5703h-4.5528v-3.5528h4.2657v-1.5507h-4.2657v-3.0821h4.5528v-1.5644zm21.973 0v7.2949c0 1.2976 0.3885 2.322 1.168 3.0644 0.7809 0.7451 1.8694 1.1172 3.2734 1.1172 0.9445 0 1.7584-0.1687 2.4375-0.5058 0.6773-0.3368 1.1953-0.8226 1.5547-1.4473 0.3602-0.6264 0.539-1.3598 0.539-2.1953v-7.3281h-1.8476v7.1465c0 1.8326-0.8706 2.75-2.6172 2.75-0.8967 0-1.5681-0.2252-2-0.668-0.434-0.4419-0.6484-1.1288-0.6484-2.0645v-7.164zm13.453 0v11.322h1.8496v-4.5214h1.8281l2.7051 4.5214h2.1094l-3.1953-5.0097c1.468-0.5992 2.1972-1.6001 2.1973-3.0137 0-1.1034-0.3504-1.9276-1.0489-2.4785-0.704-0.5447-1.7851-0.8203-3.2461-0.8203zm11.719 0v11.32h1.8515v-11.32zm5.1601 0v1.5898h3.3242v9.7305h1.8496v-9.7305h3.332v-1.5898zm10.33 0 3.7578 6.9941v4.3281h1.8574v-4.3906l3.7715-6.9316h-2.0137l-2.6777 5.1679-2.6797-5.1679zm-204.55 0v11.32h4.086c1.2641 0 2.2532-0.2832 2.9648-0.8613 0.7089-0.5772 1.0625-1.3731 1.0625-2.3887 0-0.7555-0.1907-1.353-0.5625-1.7949-0.3753-0.4436-0.9569-0.7376-1.75-0.8887v-0.076c0.6394-0.1119 1.1309-0.3886 1.4726-0.8262 0.3373-0.4383 0.5059-0.9888 0.5059-1.6504 0-0.9804-0.3438-1.699-1.0391-2.1523-0.6933-0.4534-1.8223-0.6817-3.3789-0.6817zm33.5 1.4121c1.1 0 1.9226 0.3545 2.4805 1.0743 0.5515 0.7168 0.832 1.772 0.832 3.1601 0 1.4083-0.2796 2.469-0.8379 3.1797-0.5642 0.7134-1.3905 1.0703-2.4922 1.0703-1.1035 0-1.937-0.3597-2.5019-1.0801-0.5595-0.7195-0.8418-1.7774-0.8418-3.1699 0-1.3881 0.2821-2.4424 0.8496-3.1601 0.5631-0.7187 1.4023-1.0743 2.5117-1.0743zm-31.65 0.1348h1.6016c0.8381 0 1.4467 0.1174 1.8359 0.3574 0.3822 0.237 0.5723 0.6247 0.5723 1.1563 0 0.5877-0.1775 1.0003-0.5332 1.248-0.3542 0.2427-0.9224 0.3692-1.6953 0.3692h-1.7813zm177.34 0.016h1.2227c0.8424 0 1.4729 0.1405 1.8886 0.418 0.4217 0.2801 0.627 0.7385 0.627 1.3789 0 0.6299-0.1905 1.107-0.5781 1.4277-0.3849 0.3183-1.0122 0.4786-1.875 0.4785h-1.2852zm-177.34 4.6153h1.8731c0.8214 0 1.4342 0.1423 1.832 0.4277 0.4061 0.2801 0.6055 0.7209 0.6055 1.3086 0 0.6405-0.1919 1.1075-0.5899 1.4062-0.3971 0.2967-0.9773 0.4453-1.7539 0.4453h-1.9668z" dominant-baseline="auto" style="color-rendering:auto;color:#000000;dominant-baseline:auto;fill:#000919;filter:url(#c);font-feature-settings:normal;font-variant-alternates:normal;font-variant-caps:normal;font-variant-ligatures:normal;font-variant-numeric:normal;font-variant-position:normal;image-rendering:auto;isolation:auto;mix-blend-mode:normal;opacity:.3;shape-padding:0;shape-rendering:auto;solid-color:#000000;text-decoration-color:#000000;text-decoration-line:none;text-decoration-style:solid;text-indent:0;text-orientation:mixed;text-transform:none;white-space:normal"/><g transform="matrix(.4999 0 0 .49961 15.203 4.1653)" style="fill:#fff"><path d="m863.75 336.11c-0.31009-0.0831-0.61942-0.098-0.93975-0.098h-77.684c-1.166 9e-3 -2.1896 0.74571-2.577 1.8426-0.12667 0.35664-0.16354 0.71759-0.16354 1.0916v36.767c0.0433 1.532 1.241 2.7268 2.7583 2.7305 3.1802 4e-3 9.7292-0.0129 9.7292-0.0129l-0.0129-2.8454h-9.5523c-0.0509-0.30566-0.0379-36.287 0.0129-36.455 0.2926-0.0409 77.295-0.0261 77.463 0.0146 0.0468 0.2775 0.033 36.264-0.0178 36.452h-64.398v2.8457s0.25136 0 0.36638 4e-3h64.309c1.1533-0.0129 2.1751-0.73532 2.5682-1.8232 0.12667-0.34655 0.16293-0.70379 0.16293-1.0691v-36.837c-0.0241-1.2169-0.852-2.2858-2.0229-2.6094zm-65.379 31.607v-7.3588c0-0.16591 0.0468-0.28254 0.18198-0.38778 0.56798-0.44942 1.1284-0.91159 1.6888-1.3704 0.0558-0.0416 0.11017-0.0785 0.18-0.1294 0.0605 0.0783 0.11146 0.14217 0.15823 0.2125 0.95282 1.3754 1.9063 2.7493 2.8586 4.1226 1.1684 1.6915 2.3387 3.3753 3.5047 5.059 0.0647 0.0976 0.1241 0.17194 0.26776 0.17194 1.2277-4e-3 2.454-4e-3 3.6803-4e-3 0.0406 0 0.0824-0.0146 0.14709-0.0281-2.715-3.9563-5.4189-7.8854-8.131-11.838 0.54563-0.63376 1.0735-1.2437 1.6007-1.8687 0.52862-0.61198 1.0554-1.226 1.5832-1.8423 0.52697-0.61467 1.0501-1.2303 1.5785-1.8456 0.52724-0.61668 1.0554-1.232 1.5766-1.847 0.52489-0.61032 1.046-1.221 1.6023-1.8795h-0.30932c-1.111 0-2.2215 6e-3 -3.3327-4e-3 -0.20421 0-0.33313 0.0592-0.46791 0.21784-2.7295 3.2342-5.4655 6.469-8.2013 9.6995-0.0364 0.0412-0.0836 0.0785-0.16231 0.15115v-8.0458c0-0.66594 0.0129-1.3339 0-2.0001h-3.4327v21.097c0.2725 0.0479 3.2542 0.0383 3.438-0.0129v-0.26846zm18.328 0.30533c0.0275-0.0798 0.0592-0.14847 0.0835-0.22287 0.5547-1.5769 1.11-3.1511 1.6663-4.7293 0.0925-0.25369 0.18446-0.50875 0.26817-0.76346 0.033-0.10631 0.0874-0.16187 0.19939-0.14847 0.0364 4e-3 0.0786 0 0.11534 0h7.8306c0.70785 1.9622 1.4109 3.9104 2.1112 5.8588h3.6658c-2.6444-7.0891-5.2776-14.151-7.9058-21.209h-3.7483c-0.0241 0.0462-0.0419 0.0798-0.0515 0.11161-2.6098 7.0026-5.2169 14.008-7.8258 21.01-0.0129 0.0129-0.0129 0.0331-0.0129 0.0469v0.0221c0 9e-3 0.0129 0.0146 0.0144 0.024h3.5825zm3.169-9.0885c0.72189-2.0916 1.4541-4.174 2.1576-6.2712 0.28227-0.84288 0.49502-1.7123 0.73531-2.572 0.0207-0.065 0.033-0.13041 0.0605-0.22855 0.0364 0.0554 0.0647 0.0892 0.0747 0.12567 0.57342 2.1423 1.3573 4.2209 2.0691 6.3223 0.29569 0.8744 0.60192 1.7435 0.90291 2.6184 0.0228 0.0782 0.0455 0.15651 0.0734 0.25338h-6.1507c0.0275-0.0912 0.0509-0.16959 0.0773-0.24802zm18.561-10.404c0-0.5463 0.0192-1.0876-0.0151-1.6288h-3.3902c-0.0572 0.26377-0.0433 20.949 0.0129 21.122h12.348v-2.9389h-5.9566c-0.50073 0-1.0054 4e-3 -1.504 0-0.49138-4e-3 -0.9807 0.0185-1.4904-0.0129v-16.54zm14.741-1.4987c0-0.0328 0-0.06-0.0129-0.0938 0-9e-3 -0.0129-0.0129-0.0129-0.0178 0-4e-3 -0.0143-0.0129-0.0143-0.0129h-3.4017v21.11h3.4198c0.0129-0.0354 0.0192-0.0545 0.0192-0.078v-20.908z" style="clip-rule:evenodd;fill-rule:evenodd;stroke-width:.33515"/><path d="m785.34 383.06v-0.0291c0.24392-0.0426 0.43128-0.14847 0.56164-0.31538 0.12869-0.16722 0.19341-0.37703 0.19341-0.62939 0-0.37403-0.13169-0.64851-0.39686-0.82145-0.26451-0.17294-0.6952-0.26006-1.289-0.26006h-1.2819v4.319h1.5588c0.48223 0 0.85894-0.1086 1.1304-0.32911 0.27043-0.22018 0.40549-0.52383 0.40549-0.91126 0-0.28822-0.0722-0.51546-0.21407-0.68404-0.14318-0.16924-0.36535-0.28152-0.66793-0.33916zm-1.5069-1.4653h0.61065c0.31972 0 0.55168 0.0452 0.70015 0.13672 0.14578 0.0904 0.21853 0.23794 0.21853 0.44072 0 0.22422-0.0674 0.38207-0.20318 0.47658-0.13514 0.0925-0.35193 0.14073-0.64679 0.14073h-0.67936zm1.4189 2.9653c-0.1515 0.11319-0.37293 0.17026-0.66917 0.17026h-0.74977v-1.3688h0.71419c0.31337 0 0.54733 0.0544 0.69909 0.16321 0.15494 0.10688 0.23087 0.27483 0.23087 0.49904 0 0.24433-0.0734 0.42228-0.22521 0.53624zm3.6932-1.5845-1.0224-1.9713h-0.76754l1.4318 2.6681v1.6509h0.70922v-1.675l1.4388-2.644h-0.76849zm6.9611-2.039c-0.6519 0-1.1546 0.19136-1.5052 0.57344-0.35194 0.38273-0.52821 0.92936-0.52821 1.6422 0 0.71286 0.17565 1.2625 0.52553 1.6499 0.34925 0.3871 0.84924 0.58014 1.501 0.58014 0.64528 0 1.1426-0.19438 1.4938-0.58416 0.35186-0.39044 0.52779-0.93573 0.52779-1.6399 0-0.70482-0.17449-1.2518-0.52643-1.6395-0.35062-0.38812-0.84687-0.58216-1.4884-0.58216zm0.94415 3.4353c-0.21523 0.27215-0.53061 0.40853-0.95089 0.40853-0.42097 0-0.73895-0.13743-0.95447-0.41223-0.21344-0.27448-0.32075-0.67799-0.32075-1.2092 0-0.52953 0.10774-0.93139 0.32419-1.2052 0.21482-0.27415 0.53453-0.41022 0.95777-0.41022 0.41961 0 0.73401 0.13571 0.94684 0.41022 0.21041 0.27348 0.31668 0.67567 0.31668 1.2052 0 0.53724-0.10644 0.94175-0.31937 1.2129zm2.6021 0.95147h0.70146v-1.7729h1.6271v-0.59891h-1.6271v-1.35h1.7357v-0.5969h-2.4368v4.3187zm3.8246 0h0.70091v-1.7729h1.6268v-0.59891h-1.6268v-1.35h1.7367v-0.5969h-2.4371v4.3187zm3.8251 0h2.4426v-0.59956h-1.736v-1.3554h1.6271v-0.59119h-1.6271v-1.176h1.736v-0.59689h-2.4426zm6.9316-2.0551c0 0.15885 0 0.3804 0.0194 0.66559 0.0129 0.28523 0.0207 0.45012 0.0214 0.49503h-0.0165l-2.1188-3.4242h-0.85604v4.319h0.64081v-2.2444c0-0.30367-0.0151-0.63813-0.042-1.0044l-0.0143-0.19138h0.0214l2.1251 3.4406h0.86341v-4.319h-0.64577v2.2632zm4.4544-0.0129c-0.14881-0.1142-0.38139-0.23762-0.69677-0.36865-0.28289-0.11606-0.47797-0.21049-0.58548-0.28187-0.10903-0.0707-0.18632-0.14579-0.23298-0.22456-0.0482-0.0805-0.0722-0.17661-0.0722-0.28889 0-0.16321 0.0593-0.29527 0.17738-0.39346 0.11778-0.10086 0.29122-0.14981 0.52008-0.14981 0.30038 0 0.64384 0.0801 1.0285 0.24198l0.22287-0.57479c-0.40775-0.18163-0.82011-0.27247-1.2343-0.27247-0.43108 0-0.77523 0.10386-1.0312 0.30969-0.2561 0.20678-0.38407 0.49097-0.38407 0.85058 0 0.28823 0.0811 0.5339 0.24318 0.73934 0.16093 0.20477 0.4388 0.38609 0.83368 0.54562 0.38055 0.15385 0.63303 0.28656 0.75528 0.39951 0.12166 0.11304 0.18309 0.24968 0.18309 0.40988 0 0.17929-0.0661 0.32241-0.19914 0.42932-0.13241 0.10587-0.34016 0.15886-0.61995 0.15886-0.18977 0-0.39722-0.0265-0.61837-0.0795-0.22219-0.0534-0.43006-0.1261-0.62677-0.21885v0.66762c0.31105 0.15148 0.71047 0.22755 1.1981 0.22755 0.48897 0 0.87174-0.10931 1.1499-0.3281 0.27752-0.21785 0.41663-0.51949 0.41663-0.90323 0-0.19639-0.0352-0.36464-0.10386-0.50807-0.0681-0.1448-0.17731-0.27315-0.32475-0.38778zm1.8686 2.0678h0.70642v-4.319h-0.70642zm4.0117-1.6459c-0.0344 0.0951-0.0773 0.24163-0.1317 0.43803-0.0522 0.1964-0.0925 0.37067-0.11778 0.51915-0.0179-0.098-0.0509-0.24768-0.10386-0.44977-0.0544-0.2021-0.10258-0.36699-0.15171-0.49536l-0.90092-2.6851h-0.72595l1.5062 4.319h0.74503l1.5126-4.319h-0.73331zm2.809 1.6459h2.4411v-0.59958h-1.737v-1.3553h1.6288v-0.5912h-1.6288v-1.176h1.737v-0.59691h-2.4411zm8.2185-2.0678c-0.14813-0.1142-0.38105-0.23762-0.6985-0.36865-0.27959-0.11606-0.47651-0.21049-0.58381-0.28187-0.10774-0.0707-0.18633-0.14579-0.233-0.22456-0.0468-0.0805-0.0709-0.17661-0.0709-0.28889 0-0.16321 0.0585-0.29527 0.17718-0.39346 0.11778-0.10086 0.29204-0.14981 0.51952-0.14981 0.3017 0 0.64447 0.0801 1.029 0.24198l0.22279-0.57479c-0.40816-0.18163-0.82045-0.27247-1.2341-0.27247-0.43128 0-0.77441 0.10386-1.0302 0.30969-0.25598 0.20678-0.38469 0.49097-0.38469 0.85058 0 0.28823 0.0811 0.5339 0.24296 0.73934 0.16086 0.20477 0.43804 0.38609 0.8332 0.54562 0.38166 0.15385 0.63338 0.28656 0.75575 0.39951 0.12165 0.11304 0.18262 0.24968 0.18262 0.40988 0 0.17929-0.0661 0.32241-0.19872 0.42932-0.1327 0.10587-0.33988 0.15886-0.62002 0.15886-0.18962 0-0.39715-0.0265-0.617-0.0795-0.22363-0.0534-0.43136-0.1261-0.62945-0.21885v0.66762c0.31236 0.15148 0.71151 0.22755 1.1998 0.22755 0.48835 0 0.87235-0.10931 1.1499-0.3281 0.27711-0.21785 0.41602-0.51949 0.41602-0.90323 0-0.19639-0.0357-0.36464-0.10386-0.50807-0.0697-0.1448-0.17799-0.27315-0.32481-0.38778zm1.8687 2.0678h2.4426v-0.59958h-1.7364v-1.3553h1.6271v-0.5912h-1.6271v-1.176h1.7364v-0.59691h-2.4426zm5.8179-3.7747c0.17854 0 0.34978 0.0251 0.51313 0.0785 0.16224 0.0519 0.316 0.11262 0.4622 0.18164l0.25398-0.5875c-0.37369-0.18568-0.78295-0.27818-1.2226-0.27818-0.41952 0-0.78625 0.0895-1.097 0.2688-0.31035 0.17896-0.54796 0.43669-0.71252 0.77352-0.16458 0.33782-0.24697 0.73061-0.24697 1.1787 0 0.71351 0.16994 1.2611 0.50907 1.6432 0.33858 0.38407 0.8241 0.57545 1.4558 0.57545 0.42833 0 0.81337-0.0644 1.1522-0.19138v-0.60694c-0.18433 0.0587-0.3637 0.10487-0.53515 0.14246-0.17063 0.0359-0.34905 0.0537-0.53164 0.0537-0.42255 0-0.74634-0.13643-0.97058-0.40853-0.22316-0.27115-0.3348-0.67333-0.3348-1.2012 0-0.5074 0.11649-0.9022 0.3489-1.1908 0.2323-0.28823 0.55066-0.43133 0.95586-0.43133zm5.2816 2.1822c0 0.69912-0.33216 1.0494-0.99845 1.0494-0.34208 0-0.59764-0.0858-0.76236-0.25473-0.1656-0.16856-0.24806-0.43099-0.24806-0.78791v-2.7332h-0.7082v2.7834c0 0.49501 0.14841 0.88578 0.44574 1.169 0.29791 0.28421 0.71316 0.42563 1.2487 0.42563 0.36031 0 0.67067-0.0644 0.92975-0.19304 0.25838-0.1284 0.45607-0.31336 0.59317-0.55165 0.13744-0.23896 0.20547-0.51881 0.20547-0.83753v-2.7955h-0.70517v2.726zm5.2742-1.4679c0-0.42094-0.13399-0.73498-0.40039-0.94512-0.26857-0.20779-0.68114-0.31303-1.2385-0.31303h-1.2202v4.319h0.70578v-1.7247h0.69682l1.0325 1.7247h0.80477l-1.2196-1.9113c0.56001-0.22856 0.83884-0.61029 0.83884-1.1495zm-1.663 0.7514h-0.49035v-1.4126h0.46592c0.32136 0 0.56227 0.0534 0.72086 0.15919 0.16086 0.10688 0.2389 0.28186 0.2389 0.52617 0 0.24031-0.0722 0.42196-0.22011 0.5443-0.14682 0.12137-0.38608 0.18299-0.71522 0.18299zm3.2743 2.3091h0.70607v-4.319h-0.70607zm1.969-3.7125h1.2685v3.7125h0.70509v-3.7125h1.2709v-0.60662h-3.2449v0.60662zm6.7525-0.60628-1.0214 1.9713-1.0223-1.9713h-0.76884l1.4333 2.6681v1.6509h0.7089v-1.675l1.4389-2.644z" style="clip-rule:evenodd;fill-rule:evenodd;stroke-width:.33515"/><path d="m759.63 264.86s-38.338-2.551-103.62 17.878c-66.534 20.817-104.27 50.326-104.27 50.326s99.165-55.367 211.1-58.513zm143 60.2 4.9842-0.32513s-28.556-34.647-83.213-51.522c30.725 12.489 57.469 29.038 78.229 51.848zm8.1568 14.395c0.7663-1.3286 3.2399 4.2209 5.1188 6.5522 0.0796 0.46554 0.21173 0.74962-0.87749 0.52554-0.0915-0.47857-0.24966-0.61734-0.24966-0.61734s-2.629-1.5643-3.4352-2.674c-0.80667-1.1096-0.94983-3.0505-0.55659-3.7865zm67.076 164.92s6.0619-69.597-103.28-85.641c-13.859-2.0334-31.385-3.5986-49.114-3.6433-87.64 1.1587-90.833-101.08-24.794-106.24 27.369-2.2582 60.051 12.506 91.999 27.384-0.11864 3.9678 0.0455 7.4941 2.6523 10.752 2.606 3.2573 12.617 6.8109 15.816 8.6463 3.1987 1.8361 13.446 8.3514 19.726 16.525 1.3618-2.5474 12.735-9.9504 12.735-9.9504s-2.7246 0.0594-9.0628-2.3096c-6.3389-2.3688-13.861-9.5362-14.039-9.9504-0.17764-0.41493-0.29585-1.0662 1.1855-1.3627 1.1248-0.94693-1.4226-4.0272-2.5481-5.1519-1.1248-1.1256-8.6485-13.918-8.8257-14.215-0.17762-0.29621-0.23727-0.592-0.76988-0.94769-1.659-0.53349-8.9449 0.7699-8.9449 0.7699s-11.205-5.5034-15.068-17.369c0.0562 2.0783-1.9215 4.3474 0 9.122-5.8423-2.4715-10.861-6.6867-14.819-17.103-2.3559 5.9248 0 9.6916 0 9.6916s-13.758-3.8443-15.958-16.532c-2.4159 5.6955 0 9.1212 0 9.1212s-22.429-11.703-59.698-11.873c-24.951-2.2886-30.145-46.18-27.834-53.571 0 0-35.988-18.967-106.83-27.346-70.845-8.3804-128.94-1.2629-128.94-1.2629s125.47-6.0216 225.99 34.673c3.4171 15.283 13.696 40.737 19.232 52.974-15.842 10.953-33.706 21.252-36.488 57.78-2.781 36.528 28.625 68.66 67.57 69.65 36.98 1.9698 62.53 2.2496 93.5 18.305 29.561 16.344 53.798 66.149 56.196 110.94 2.5907-33.234-9.8811-104.7-68.082-126.4 81.343 14.235 88.5 74.538 88.5 74.538zm-220.15-244.97-2.9269-9.4408s-48.296-8.5762-113.23-3.9606c-64.934 4.6155-130.49 27.346-130.49 27.346s134.15-33.755 246.65-13.944" style="stroke-width:1.4346"/></g></g><rect x="119.84" y="69.627" width="268.32" height="151.79" rx="2.6458" ry="2.6458" style="filter:url(#b);opacity:.2;paint-order:normal"/><use transform="translate(1.5259e-5 -7.6294e-6)" width="100%" height="100%" clip-path="url(#e)" style="filter:url(#d)" xlink:href="#a"/><rect x="119.84" y="66.981" width="268.32" height="151.79" rx="2.6458" ry="2.6458" style="opacity:.1;paint-order:normal"/></svg>
