<svg width="64" height="64" version="1.1" viewBox="0 0 16.934 16.934" xmlns="http://www.w3.org/2000/svg">
	<rect x="-7.6294e-9" y="-7.6294e-9" width="16.934" height="16.934" style="fill:#5e95f3;paint-order:stroke fill markers"/>
	<path d="m11.619 5.5596c-0.32627-0.1036-0.73494-0.2159-1.0131-0.2159-0.3146 0-0.45426-0.0328-0.72435-0.17-0.23838-0.1212-0.36949-0.22832-0.44946-0.37595-0.079959-0.1476-0.11364-0.35341-0.11364-0.67797v-0.59487l-0.51546-0.20242c-1.4973-0.58777-3.0268-0.78481-5.8958-0.76693-0.4075 2e-3 -0.71337 4e-3 -0.92901 6e-3 -0.21562 2e-3 -0.33346 4e-3 -0.39386 0.01-0.00756 5.4e-4 -0.01424 0.0016-0.023548 4e-3 -0.00476 0.00106-0.00984 0.00158-0.01858 4e-3 -0.00874 2e-3 -0.020744 0.0016-0.048999 0.029-0.01412 0.014-0.034768 0.041602-0.0372 0.080201-0.00264 0.038402 0.01576 0.071601 0.029686 0.087601 0.027782 0.032 0.040906 0.0312 0.049796 0.0346 0.01778 6e-3 0.023496 6e-3 0.030958 8e-3 0.029686 6e-3 0.062257 8e-3 0.11563 0.012 0.10676 8e-3 0.28022 0.018 0.51211 0.0324 2.7465 0.1646 4.4522 0.42699 5.8723 0.89825l0.1258 0.0418-0.53197 0.0204c-2.4584 0.094604-4.3054 0.27001-5.9135 0.56263-0.48672 0.088601-0.77619 0.1438-0.94514 0.1844-0.084467 0.0204-0.13609 0.034-0.18382 0.058601-0.023866 0.012-0.055547 0.0248-0.078783 0.079001-0.01158 0.027-0.0135 0.065601-0.00424 0.093601 0.00904 0.028 0.023654 0.045402 0.035506 0.057201 0.029528 0.0296 0.045721 0.0296 0.056489 0.0324 0.0108 4e-3 0.01752 4e-3 0.0236 4e-3 0.01222 0.00158 0.02159 0.00158 0.032068 0.00158 0.021008 2e-4 0.045352-5.199e-4 0.075471-2e-3 0.060189-4e-3 0.14201-0.01 0.2415-0.02 0.19897-0.020002 0.4676-0.049603 0.75952-0.087003 1.5312-0.1954 2.9677-0.32452 4.1792-0.37589 0.55351-0.0234 1.3102-0.02 1.9256 2e-3 0.06734 2e-3 0.10578 6e-3 0.1693 0.01-1.2859 0.21037-3.3727 0.88924-4.6855 1.5384-0.37969 0.1878-0.75223 0.39747-1.025 0.57049-0.13641 0.086601-0.24732 0.1632-0.32545 0.2271-0.039052 0.032-0.069613 0.059401-0.095573 0.092601-0.01296 0.016-0.0263 0.034-0.03556 0.066601-0.00926 0.0326-0.00318 0.098201 0.033814 0.1354 0.044874 0.044799 0.074651 0.0362 0.089281 0.0362 0.01466-8e-5 0.02212-0.0016 0.029052-4e-3 0.01382-2e-3 0.023548-6e-3 0.034872-0.01 0.022596-8e-3 0.049001-0.018 0.082001-0.0308 0.065935-0.0266 0.15635-0.065999 0.26653-0.1154 0.22035-0.099003 0.5188-0.23903 0.84364-0.39655 1.8962-0.84743 3.5006-1.4599 5.7723-1.5549 0.0326 0.068601 0.07246 0.1574 0.11568 0.25976l0.19768 0.45305c-1.888 1.1937-1.2945 3.9427 0.78903 4.2913 0.27416 0.044799 0.58631 0.071601 0.94536 0.085801 1.0921 0.0434 1.4853 0.1502 2.2109 0.60009 0.54496 0.33784 1.0185 0.83373 1.3917 1.4619 0.14784 0.24888 0.32777 0.65723 0.46733 1.0386 0.06978 0.1906 0.1299 0.37529 0.17208 0.53013 0.04218 0.1548 0.06504 0.28452 0.0652 0.34163 1.9e-4 0.0704 0.0088 0.1344 0.02758 0.1908 0.0094 0.0282 0.02058 0.055 0.04222 0.0828 0.02158 0.0278 0.06346 0.0638 0.12334 0.0638 0.03968 0 0.08016-0.0216 0.10148-0.0436 0.02132-0.0222 0.03054-0.0426 0.03736-0.061 0.0138-0.0366 0.0176-0.0694 0.02026-0.1072 0.0054-0.0756 0.0011-0.1696-0.0094-0.28092-0.02154-0.22278-0.07116-0.51141-0.14218-0.79653-0.23937-0.96081-0.86869-1.9542-1.6549-2.6311 1.0226 0.33934 1.8506 1.1058 2.1544 1.9988 0.0158 0.0462 0.03386 0.085 0.06766 0.1212 0.0168 0.018 0.03836 0.0386 0.07926 0.0494 0.0409 0.01 0.104-6e-3 0.1349-0.0364 0.06172-0.0618 0.05022-0.1138 0.0472-0.1588-0.0032-0.045-0.0126-0.0918-0.02652-0.1448-0.02778-0.1062-0.07394-0.23526-0.13112-0.3734-0.11434-0.27631-0.26996-0.5838-0.41692-0.78342-0.54658-0.74249-1.7032-1.3532-3.0057-1.6209-0.31065-0.063801-1.0149-0.1714-1.5971-0.1714-0.04238 0-0.61059-0.047799-0.81628-0.065601-2.0719-0.18101-1.9327-3.1561 0.1849-3.1561 0.30103 0 0.48723 0.014 0.76594 0.093801 0.27872 0.080201 0.6508 0.23038 1.2941 0.50325 0.2806 0.119 0.43888 0.1934 0.51935 0.2485 0.08048 0.055201 0.08764 0.074001 0.11148 0.1542 0.029 0.097601 0.03498 0.23602 0.11904 0.31454 0.08408 0.078601 0.43739 0.1982 0.59404 0.28516 0.26711 0.1564 0.40256 0.2508 0.63573 0.55563 0.24825-0.32034 0.35317-0.32968 0.6474-0.42773-0.43876-0.048999-1.0209-0.49457-0.72394-0.54175-0.26825-0.24048-0.32923-0.66313-0.45974-0.73581-0.03032-0.026-0.06446-0.044402-0.09974-0.059201l-0.53767-0.054401c-0.57781-0.34176-1.4165-0.75999-1.8393-0.89555zm2.4014 0.85869c0-0.044402-0.013-0.061601-0.02222-0.078001-0.0092-0.016-0.019-0.0296-0.02974-0.043402-0.02174-0.0276-0.04858-0.056401-0.0812-0.089201-0.73717-0.70013-1.6508-1.2387-2.596-1.571-0.07-0.0244-0.12714-0.041799-0.17828-0.050401-0.02556-4e-3 -0.0482-8e-3 -0.08474-2e-3 -0.0182 4e-3 -0.04286 0.01-0.0694 0.0324-0.02656 0.023-0.04566 0.067201-0.04566 0.1002 0 0.0448 0.0154 0.061201 0.02318 0.072001 0.0076 0.01 0.013 0.016 0.0176 0.0202 0.0092 8e-3 0.0152 0.014 0.02186 0.018 0.0132 0.01 0.02698 0.018 0.04414 0.0288 0.03424 0.0208 0.08048 0.046801 0.13722 0.077801 0.73605 0.35243 1.3173 0.58833 1.9043 1.0711 0.20076 0.1468 0.25176 0.3053 0.48301 0.34082z" style="color-rendering:auto;color:#000000;dominant-baseline:auto;fill:#fff;font-feature-settings:normal;font-variant-alternates:normal;font-variant-caps:normal;font-variant-ligatures:normal;font-variant-numeric:normal;font-variant-position:normal;image-rendering:auto;isolation:auto;mix-blend-mode:normal;shape-padding:0;shape-rendering:auto;solid-color:#000000;stroke-width:.024226;text-decoration-color:#000000;text-decoration-line:none;text-decoration-style:solid;text-indent:0;text-orientation:mixed;text-transform:none;white-space:normal"/>
</svg>
