<svg width="512" height="512" version="1.1" viewBox="0 0 135.47 135.47" xmlns="http://www.w3.org/2000/svg">
	<g transform="matrix(1.1378 0 0 1.1378 -9.3323 -193.13)">
		<circle cx="67.733" cy="229.27" r="59.531" style="fill:#5e95f3;paint-order:fill markers stroke"/>
		<path d="m34.342 182.71-1.1816 0.83203c-1.0939 0.76925-2.1616 1.5748-3.2012 2.416l-1.9785 1.6016 2.5039 1.8789c0.94522 0.70933 5.2771 4.1799 8.6348 7.2148 0.64383 0.58197 1.4032 1.4504 2.084 2.0859-0.17328 0.31157-0.39491 0.68123-0.41016 0.77735-0.0231 0.1459-0.0217 0.16541-0.0234 0.18164-0.08 0.75544 2e-3 1.1388 0.0781 1.9492 0.0761 0.81046 0.19267 1.8126 0.3418 2.8867 0.0613 0.44165 0.0833 0.63438 0.13477 1.0078-4.3697-3.1092-8.0553-6.3078-11.146-9.8848l-0.01-0.0117c-0.16804-0.20133-0.49631-0.58797-0.56054-0.66601-1.0583-1.2857-1.9917-2.3704-2.7774-3.2344l-1.4183-1.7214c-6.1156 6.3797-10.113 12.663-13.156 20.227l1.9531 1.0059 32.535 16.709c0.70293 0.36329 0.99746 0.57312 1.4531 1.1191 0.0162 0.0194-0.0156-0.12993-4e-3 0.0898 0.0117 0.21977-0.0343 0.73848-0.0898 1.4629v8e-3c-0.0981 1.3614-0.0266 2.6752 0.0215 3.832l2e-3 0.0508 4e-3 0.0508c0.33304 3.5692 1.4688 6.7543 3.6289 8.8828 1.8276 1.8008 5.0794 3.7566 11.619 7.3359 3.1159 1.7054 7.0799 4.0391 8.5742 5.0312 3.6818 2.4444 7.5489 5.5672 11.088 8.9121 4e-3 4e-3 -4e-3 -3e-3 2e-3 2e-3l0.0117 0.0117c2.7e-4 2.7e-4 2e-3 -2.6e-4 2e-3 0l0.01 0.0117c2.4211 2.301 4.8625 4.8782 6.8262 7.2519 0.86883 1.0543 1.6023 1.8916 2.2031 2.5059 0.30064 0.30742 0.55905 0.55557 0.85156 0.78517 0.14626 0.1148 0.29532 0.22734 0.54297 0.35351 0.24765 0.12615 0.61731 0.41723 1.5215 0.18945l0.0137-4e-3 0.0156-4e-3c0.68826-0.18451 0.54618-0.22097 0.69921-0.30859 0.15304-0.0876 0.32166-0.19087 0.52344-0.31641 0.40356-0.25107 0.93003-0.59027 1.5586-1.002 1.2571-0.82338 2.9178-1.9343 4.707-3.1484 4.3983-2.9846 6.66-4.5206 7.8945-5.4473 0.61728-0.46334 0.96937-0.68471 1.4004-1.2871 0.21551-0.3012 0.50057-0.86365 0.44141-1.5352-0.0591-0.67061-0.39953-1.0905-0.5254-1.2422-0.37865-0.45647-0.5769-0.50169-0.75584-0.59569-0.17897-0.094-0.33211-0.15748-0.4922-0.21875-0.32018-0.12255-0.66065-0.22673-1.0332-0.32617l-4e-3 -2e-3h-2e-3c-0.32145-0.085-0.65161-0.16388-0.95703-0.2246h-2e-3c-3.4215-0.67696-8.48-2.8298-12.348-5.3359-1.4325-0.92822-3.3708-2.4165-5.1973-3.9492-1e-3 -1e-3 -3e-3 -1e-3 -4e-3 -2e-3 -1.8785-1.631-3.5957-3.0409-5.0156-4.7715 0.23508-0.31103 0.50178-0.57927 0.67774-0.97461 0.31529-0.7084 0.42791-1.587 0.30664-2.3789-0.24255-1.5838-1.0454-2.9045-2.3301-5.0606-3.3006-5.5392-6.5864-11.23-7.8965-13.67v-2e-3c-1.1168-2.0796-1.8568-3.4017-2.5723-4.4043-0.5719-0.80146-1.1818-1.3678-1.7051-1.7559-0.54894-0.40704-1.1136-0.83795-2.2129-0.96875-0.43639-0.0519-0.84323 0.0381-1.2812 0.0293 0.18362-0.47773 0.28827-0.97667 0.21484-1.2949-0.19621-0.851-0.36184-0.82985-0.52539-1.0547-0.16354-0.22483-0.34709-0.45343-0.57031-0.7168-0.44644-0.52673-1.0413-1.1809-1.7637-1.9531-1.4449-1.5442-3.3965-3.5467-5.5568-5.7068-4.3205-4.3202-9.4533-9.2575-12.953-12.357-2.5702-2.2765-5.2789-4.5772-7.4277-6.3711-2.1489-1.7939-3.6006-2.9788-4.0996-3.3555-0.28023-0.21154-0.47547-0.35646-0.73828-0.55469zm38.285 52.301c0.46687 0.65002 1.0084 1.3407 1.375 1.8828 0.41565 0.61585 0.70686 1.0899 1.0625 1.6426-1.6479-0.73463-2.4235-1.4167-2.5527-1.9316-0.0442-0.17605 0.0296-0.93067 0.11524-1.5938z" style="color-rendering:auto;color:#000000;dominant-baseline:auto;font-feature-settings:normal;font-variant-alternates:normal;font-variant-caps:normal;font-variant-ligatures:normal;font-variant-numeric:normal;font-variant-position:normal;image-rendering:auto;isolation:auto;mix-blend-mode:normal;opacity:.3;paint-order:normal;shape-padding:0;shape-rendering:auto;solid-color:#000000;text-decoration-color:#000000;text-decoration-line:none;text-decoration-style:solid;text-indent:0;text-orientation:mixed;text-transform:none;white-space:normal"/>
		<path d="m34.342 180.06-1.1816 0.83203c-1.0939 0.76925-2.1616 1.5748-3.2012 2.416l-1.9785 1.6016 2.5039 1.8789c0.94522 0.70933 5.2771 4.1799 8.6348 7.2148 0.64384 0.58197 1.4032 1.4504 2.084 2.0859-0.17328 0.31157-0.39491 0.68123-0.41016 0.77735-0.02314 0.1459-0.02172 0.16541-0.02344 0.18164-0.07998 0.75544 2e-3 1.1388 0.07813 1.9492 0.0761 0.81046 0.19267 1.8126 0.3418 2.8867 0.06131 0.44165 0.08326 0.63438 0.13477 1.0078-4.3697-3.1092-8.0553-6.3078-11.146-9.8848l-0.0098-0.0117c-0.16805-0.20133-0.49631-0.58797-0.56055-0.66601-1.0583-1.2857-1.9917-2.3704-2.7773-3.2344l-1.4183-1.7214c-6.1156 6.3797-10.113 12.663-13.156 20.227l1.9531 1.0059 32.535 16.709c0.70293 0.36329 0.99746 0.57312 1.4531 1.1191 0.01618 0.0194-0.01561-0.12993-0.0039 0.0898 0.01171 0.21977-0.03433 0.73848-0.08984 1.4629v8e-3c-0.09808 1.3614-0.0266 2.6752 0.02148 3.832l2e-3 0.0508 0.0039 0.0508c0.33305 3.5692 1.4688 6.7543 3.6289 8.8828 1.8276 1.8008 5.0794 3.7566 11.619 7.3359 3.1159 1.7054 7.0799 4.0391 8.5742 5.0312 3.6818 2.4444 7.5489 5.5672 11.088 8.9121 0.0039 4e-3 -0.0035-3e-3 2e-3 2e-3l0.01172 0.0117c3.57e-4 3.4e-4 0.0016-3.4e-4 2e-3 0l0.0098 0.0117c2.4211 2.301 4.8625 4.8782 6.8262 7.252 0.86883 1.0543 1.6023 1.8916 2.2031 2.5059 0.30064 0.30741 0.55905 0.55556 0.85156 0.78516 0.14626 0.1148 0.29532 0.22735 0.54297 0.35351s0.61731 0.41723 1.5215 0.18945l0.01367-4e-3 0.01563-4e-3c0.68827-0.18451 0.54618-0.22097 0.69922-0.30859 0.15304-0.0876 0.32166-0.19087 0.52344-0.31641 0.40356-0.25107 0.93003-0.59026 1.5586-1.002 1.2571-0.82338 2.9178-1.9343 4.707-3.1484 4.3983-2.9846 6.66-4.5206 7.8945-5.4473 0.61728-0.46335 0.96937-0.68471 1.4004-1.2871 0.21551-0.3012 0.50057-0.86365 0.4414-1.5352-0.0591-0.67061-0.39952-1.0905-0.52539-1.2422-0.37866-0.45647-0.5769-0.50169-0.75585-0.5957-0.17896-0.094-0.3321-0.15748-0.49219-0.21875-0.32018-0.12255-0.66065-0.22672-1.0332-0.32617l-4e-3 -2e-3h-2e-3c-0.32145-0.085-0.65161-0.16388-0.95703-0.2246h-2e-3c-3.4215-0.67696-8.48-2.8298-12.348-5.3359-1.4325-0.92822-3.3708-2.4165-5.1973-3.9492-0.0012-1e-3 -0.0027-9.5e-4 -0.0039-2e-3 -1.8785-1.631-3.5957-3.0409-5.0156-4.7715 0.23508-0.31103 0.50178-0.57927 0.67773-0.97461 0.3153-0.7084 0.42791-1.587 0.30664-2.3789-0.24254-1.5838-1.0454-2.9045-2.3301-5.0606-3.3006-5.5392-6.5863-11.23-7.8965-13.67v-2e-3c-1.1168-2.0796-1.8568-3.4017-2.5723-4.4043-0.5719-0.80146-1.1818-1.3678-1.7051-1.7559-0.54894-0.40704-1.1136-0.83795-2.2129-0.96875-0.43639-0.0519-0.84323 0.0381-1.2812 0.0293 0.18362-0.47773 0.28827-0.97667 0.21484-1.2949-0.19621-0.851-0.36185-0.82985-0.52539-1.0547s-0.34709-0.45343-0.57031-0.7168c-0.44644-0.52673-1.0413-1.1809-1.7637-1.9531-1.4447-1.5445-3.3964-3.5469-5.5566-5.707-4.3205-4.3202-9.4533-9.2575-12.953-12.357-2.5702-2.2765-5.2789-4.5772-7.4277-6.3711-2.1489-1.7939-3.6007-2.9788-4.0996-3.3555-0.28023-0.21154-0.47547-0.35646-0.73828-0.55469zm38.285 52.301c0.46687 0.65002 1.0084 1.3407 1.375 1.8828 0.41565 0.61585 0.70686 1.0899 1.0625 1.6426-1.6479-0.73463-2.4235-1.4167-2.5527-1.9316-0.04419-0.17605 0.02963-0.93067 0.11523-1.5938z" style="color-rendering:auto;color:#000000;dominant-baseline:auto;font-feature-settings:normal;font-variant-alternates:normal;font-variant-caps:normal;font-variant-ligatures:normal;font-variant-numeric:normal;font-variant-position:normal;image-rendering:auto;isolation:auto;mix-blend-mode:normal;paint-order:normal;shape-padding:0;shape-rendering:auto;solid-color:#000000;text-decoration-color:#000000;text-decoration-line:none;text-decoration-style:solid;text-indent:0;text-orientation:mixed;text-transform:none;white-space:normal"/>
		<path transform="matrix(.26458 0 0 .26458 0 161.53)" d="m129.64 79.303a217.5 217.5 0 0 0-11.695 8.8281l1.7695 1.3281c4.0902 3.0695 20.212 15.996 33.162 27.701 18.442 16.67 41.246 39.482 59.438 59.459 17.676 19.411 20.207 21.002 33.49 21.018 6.77 0.0113 8.4311-0.28121 8.168-1.4219-0.88889-3.8553-52.449-55.412-78.43-78.424-19.266-17.064-40.794-34.639-43.119-36.395-1.0429-0.78729-1.7742-1.3327-2.7832-2.0938zm-33.791 29.918a217.5 217.5 0 0 0-6.7852 7.4219c0.09941 0.75995 0.18213 1.4657 0.29102 2.25 0.45691 3.2914 0.81732 5.9218 1.1289 8.2656-2.1356-1.3206-4.2794-2.628-6.4277-3.9277a217.5 217.5 0 0 0-28.078 47.424l1.1465 0.58984 122.97 63.152c3.1716 1.638 5.4766 3.2818 7.8281 6.0996 2.3516 2.8178 1.7597 6.0944 1.3652 11.242-0.32526 4.515-0.0899 9.2131 0.0937 13.631 1.1432 12.251 5.1934 22.706 11.508 28.928 5.4578 5.3777 17.67 13.033 42.254 26.488 11.943 6.5367 26.772 15.242 32.953 19.346 14.369 9.5399 29.288 21.601 42.967 34.535 0.0193 0.0189 0.0393 0.0396 0.0547 0.0547 9.3507 8.8869 18.748 18.802 26.414 28.068 6.4074 7.7761 10.773 12.24 11.734 11.998 1.0249-0.27477 12.557-7.8672 26.033-17.012 33.24-22.556 34.476-23.482 33.25-24.959-0.39689-0.47849-2.3454-1.2022-4.7852-1.8535-1.081-0.28573-2.2221-0.55529-3.1621-0.74219-14.415-2.852-33.866-11.23-49.293-21.227-5.8754-3.8071-13.333-9.5495-20.404-15.484-7.1768-6.2353-14.399-11.949-20.533-19.609l-3.2168-4.0606 2.041-2.2441c6.0725-6.6721 5.5924-9.8049-3.9551-25.828-12.51-20.995-24.889-42.429-30.008-51.961-4.1861-7.7946-6.9419-12.649-9.2188-15.84-1.7423-2.4416-3.2618-3.8257-4.8086-4.9727-1.3676-1.0141-3.2753-2.0554-4.7793-2.2344-11.423-1.3589-28.294 3.1739-37.201-1.2344-2.9024-1.4364-5.5398-3.8689-7.5527-5.8027-5.7706-5.5737-11.307-12.35-15.756-17.553-9.7648-11.419-20.59-24.209-24.057-28.42-9.3188-11.322-16.201-18.669-17.887-19.121-0.40286-0.1081-0.37017-0.13454-0.42578 0.39062-0.17473 1.6503 0.45878 8.5373 1.5586 16.459 1.4562 10.49 2.2288 15.871 1.9707 18.031-0.0765 0.6401-0.0846 0.78942-0.4746 0.98437-1.0867 0.54323-3.3208-1.2109-7.6875-4.1816-19.465-13.243-35.216-27.021-48.621-42.551-0.56657-0.67949-1.7904-2.1224-2.1816-2.5977-3.9372-4.7834-7.4005-8.7991-10.26-11.943zm177.02 145.05c0.40384-0.0151 0.81219 0.13336 1.3477 0.35937 4.3085 5.3122 8.6069 11.436 11.684 15.986 6.0634 8.9839 10.976 17.092 11.076 18.01 0.13892 1.272-0.33748 1.4076-0.53711 1.6328-1.5306 1.7263-6.0307 1.5867-12.174-0.63086-10.449-3.7719-16.029-8.2656-17.488-14.078-1.5473-6.1648 1.4437-17.886 4.7676-20.664 0.52105-0.42357 0.92039-0.60079 1.3242-0.61523z" style="fill:#fff;paint-order:fill markers stroke"/>
	</g>
</svg>
