<?xml version="1.0" encoding="UTF-8" standalone="no"?>
<svg
   width="1024"
   height="768"
   version="1.1"
   viewBox="0 0 270.928 203.2"
   id="svg43"
   sodipodi:docname="syslinux.svg"
   inkscape:version="1.2.2 (b0a8486541, 2022-12-01)"
   xmlns:inkscape="http://www.inkscape.org/namespaces/inkscape"
   xmlns:sodipodi="http://sodipodi.sourceforge.net/DTD/sodipodi-0.dtd"
   xmlns:xlink="http://www.w3.org/1999/xlink"
   xmlns="http://www.w3.org/2000/svg"
   xmlns:svg="http://www.w3.org/2000/svg">
  <sodipodi:namedview
     id="namedview45"
     pagecolor="#ffffff"
     bordercolor="#111111"
     borderopacity="1"
     inkscape:pageshadow="0"
     inkscape:pageopacity="0"
     inkscape:pagecheckerboard="1"
     showgrid="false"
     inkscape:zoom="0.809375"
     inkscape:cx="113.66795"
     inkscape:cy="-133.43629"
     inkscape:window-width="3840"
     inkscape:window-height="2089"
     inkscape:window-x="0"
     inkscape:window-y="0"
     inkscape:window-maximized="1"
     inkscape:current-layer="b"
     borderlayer="true"
     width="1024px"
     inkscape:showpageshadow="0"
     inkscape:deskcolor="#d1d1d1" />
  <defs
     id="defs22">
    <filter
       id="c"
       x="-0.01569312"
       y="-0.021101909"
       width="1.0313862"
       height="1.0422038"
       style="color-interpolation-filters:sRGB">
      <feGaussianBlur
         stdDeviation="8.0153465"
         id="feGaussianBlur2" />
    </filter>
    <filter
       id="e"
       style="color-interpolation-filters:sRGB"
       x="-0.031379894"
       y="-0.046561824"
       width="1.0627979"
       height="1.0702187">
      <feGaussianBlur
         stdDeviation="3"
         id="feGaussianBlur5" />
    </filter>
    <clipPath
       id="g">
      <rect
         x="33.155342"
         y="74.822571"
         width="207.1841"
         height="90.392036"
         rx="2.043041"
         ry="1.5756006"
         style="opacity:0.2;stroke-width:0.678096;paint-order:normal"
         id="rect8" />
    </clipPath>
    <filter
       id="f"
       x="-0.027153945"
       y="-0.05339146"
       width="1.0543079"
       height="1.1067829"
       style="color-interpolation-filters:sRGB">
      <feGaussianBlur
         stdDeviation="1.4197901"
         id="feGaussianBlur11" />
    </filter>
    <radialGradient
       id="a"
       cx="455.5"
       cy="-321.35001"
       r="508"
       gradientTransform="matrix(0.35218,0.0039207,0,0.3516,288.4,357.19)"
       gradientUnits="userSpaceOnUse">
      <stop
         stop-color="#23bac2"
         offset="0"
         id="stop14" />
      <stop
         stop-color="#3b6ab9"
         offset="1"
         id="stop16" />
    </radialGradient>
    <filter
       id="d"
       x="-0.025853319"
       y="-0.059257395"
       width="1.0517066"
       height="1.1185148"
       style="color-interpolation-filters:sRGB">
      <feGaussianBlur
         stdDeviation="1.3948944"
         id="feGaussianBlur19" />
    </filter>
    <radialGradient
       id="a-3-3"
       cx="509.19199"
       cy="277.0477"
       r="508"
       gradientTransform="matrix(1.4993723,0,0,1.2986325,-1270.0953,-84.837182)"
       gradientUnits="userSpaceOnUse"
       fx="509.19199"
       fy="277.0477">
      <stop
         stop-color="#316fd8"
         offset="0"
         id="stop2-6-6"
         style="stop-color:#2777ff;stop-opacity:1" />
      <stop
         stop-color="#23bac2"
         offset="1"
         id="stop4-7-7"
         style="stop-color:#622e78;stop-opacity:1" />
    </radialGradient>
    <filter
       style="color-interpolation-filters:sRGB"
       inkscape:label="Drop Shadow"
       id="filter8072"
       x="-0.014541548"
       y="-0.023630595"
       width="1.0290831"
       height="1.043187">
      <feFlood
         flood-opacity="1"
         flood-color="rgb(0,0,0)"
         result="flood"
         id="feFlood8062" />
      <feComposite
         in="flood"
         in2="SourceGraphic"
         operator="out"
         result="composite1"
         id="feComposite8064" />
      <feGaussianBlur
         in="composite1"
         stdDeviation="4"
         result="blur"
         id="feGaussianBlur8066" />
      <feOffset
         dx="0"
         dy="-2"
         result="offset"
         id="feOffset8068" />
      <feComposite
         in="offset"
         in2="SourceGraphic"
         operator="atop"
         result="composite2"
         id="feComposite8070" />
    </filter>
    <linearGradient
       id="a-3"
       x1="662.87"
       x2="662.87"
       y1="6.4966998"
       y2="6.4857001"
       gradientTransform="matrix(0.83977,0,0,0.83977,81.4,276.3)"
       gradientUnits="userSpaceOnUse">
      <stop
         stop-color="#153873"
         offset="0"
         id="stop3752"
         style="stop-color:#000000;stop-opacity:1;" />
      <stop
         stop-color="#367bf0"
         offset="1"
         id="stop3754"
         style="stop-color:#ffffff;stop-opacity:1;" />
    </linearGradient>
    <filter
       id="m"
       x="-0.27148741"
       y="-0.19841274"
       width="1.5429748"
       height="1.3968255"
       style="color-interpolation-filters:sRGB">
      <feGaussianBlur
         stdDeviation="0.98694082"
         id="feGaussianBlur4689" />
    </filter>
    <radialGradient
       id="q"
       cx="593.09998"
       cy="261.72"
       r="23.186001"
       gradientTransform="matrix(1.2757,0,0,1.2757,-324.78889,-258.97225)"
       gradientUnits="userSpaceOnUse">
      <stop
         stop-color="#fff"
         stop-opacity=".4"
         style="stop-color:#f8de68;stop-opacity:1"
         offset="0"
         id="stop4673" />
      <stop
         stop-color="#fff"
         stop-opacity="0"
         style="stop-color:#678bc8;stop-opacity:0"
         offset="1"
         id="stop4675" />
    </radialGradient>
    <filter
       id="p"
       x="-0.041045689"
       y="-0.026859322"
       width="1.0820914"
       height="1.0537186"
       color-interpolation-filters="sRGB">
      <feGaussianBlur
         stdDeviation="1.5070609"
         id="feGaussianBlur4678" />
    </filter>
    <filter
       id="o"
       x="-0.083748424"
       y="-0.096701333"
       width="1.1674968"
       height="1.1934027"
       color-interpolation-filters="sRGB">
      <feGaussianBlur
         stdDeviation="2.1777382"
         id="feGaussianBlur4670" />
    </filter>
    <filter
       id="l"
       x="-0.737341"
       y="-0.53887525"
       width="2.474682"
       height="2.0777505"
       style="color-interpolation-filters:sRGB">
      <feGaussianBlur
         stdDeviation="2.6804628"
         id="feGaussianBlur4692" />
    </filter>
    <filter
       style="color-interpolation-filters:sRGB"
       inkscape:label="Drop Shadow"
       id="filter8072-7"
       x="-0.014541548"
       y="-0.023630595"
       width="1.0290831"
       height="1.043187">
      <feFlood
         flood-opacity="1"
         flood-color="rgb(0,0,0)"
         result="flood"
         id="feFlood8062-5" />
      <feComposite
         in="flood"
         in2="SourceGraphic"
         operator="out"
         result="composite1"
         id="feComposite8064-3" />
      <feGaussianBlur
         in="composite1"
         stdDeviation="4"
         result="blur"
         id="feGaussianBlur8066-5" />
      <feOffset
         dx="0"
         dy="-2"
         result="offset"
         id="feOffset8068-6" />
      <feComposite
         in="offset"
         in2="SourceGraphic"
         operator="atop"
         result="composite2"
         id="feComposite8070-2" />
    </filter>
    <filter
       inkscape:collect="always"
       style="color-interpolation-filters:sRGB"
       id="filter3748"
       x="-0.0040810521"
       y="-0.00548481"
       width="1.0081621"
       height="1.0109696">
      <feGaussianBlur
         inkscape:collect="always"
         stdDeviation="1.1248765"
         id="feGaussianBlur3746" />
    </filter>
    <linearGradient
       inkscape:collect="always"
       xlink:href="#linearGradient4645"
       id="linearGradient4647"
       x1="439.51715"
       y1="268.41104"
       x2="439.51715"
       y2="287.2048"
       gradientUnits="userSpaceOnUse" />
    <linearGradient
       inkscape:collect="always"
       id="linearGradient4645">
      <stop
         style="stop-color:#000000;stop-opacity:1;"
         offset="0"
         id="stop4641" />
      <stop
         style="stop-color:#8d8d8d;stop-opacity:1;"
         offset="1"
         id="stop4643" />
    </linearGradient>
    <filter
       id="m-2"
       x="-0.27148741"
       y="-0.19841274"
       width="1.5429748"
       height="1.3968255"
       style="color-interpolation-filters:sRGB">
      <feGaussianBlur
         stdDeviation="0.98694082"
         id="feGaussianBlur4689-7" />
    </filter>
    <radialGradient
       id="q-0"
       cx="593.09998"
       cy="261.72"
       r="23.186001"
       gradientTransform="matrix(1.0893149,0,0,1.0893149,-187.83723,-220.2635)"
       gradientUnits="userSpaceOnUse">
      <stop
         stop-color="#fff"
         stop-opacity=".4"
         style="stop-color:#f8de68;stop-opacity:1"
         offset="0"
         id="stop4673-9" />
      <stop
         stop-color="#fff"
         stop-opacity="0"
         style="stop-color:#678bc8;stop-opacity:0"
         offset="1"
         id="stop4675-3" />
    </radialGradient>
    <filter
       id="p-6"
       x="-0.041045689"
       y="-0.026859322"
       width="1.0820914"
       height="1.0537186"
       color-interpolation-filters="sRGB">
      <feGaussianBlur
         stdDeviation="1.5070609"
         id="feGaussianBlur4678-0" />
    </filter>
    <filter
       id="o-6"
       x="-0.083748424"
       y="-0.096701333"
       width="1.1674968"
       height="1.1934027"
       color-interpolation-filters="sRGB">
      <feGaussianBlur
         stdDeviation="2.1777382"
         id="feGaussianBlur4670-2" />
    </filter>
    <filter
       id="l-6"
       x="-0.737341"
       y="-0.53887525"
       width="2.474682"
       height="2.0777505"
       style="color-interpolation-filters:sRGB">
      <feGaussianBlur
         stdDeviation="2.6804628"
         id="feGaussianBlur4692-1" />
    </filter>
    <linearGradient
       inkscape:collect="always"
       xlink:href="#linearGradient9439"
       id="linearGradient9427"
       x1="243.42949"
       y1="148.60545"
       x2="243.42949"
       y2="279.02094"
       gradientUnits="userSpaceOnUse"
       gradientTransform="matrix(0.85389579,0,0,1.0117003,98.805301,2.0504188)" />
    <linearGradient
       inkscape:collect="always"
       id="linearGradient9439">
      <stop
         style="stop-color:#ffffff;stop-opacity:1;"
         offset="0"
         id="stop9437" />
      <stop
         style="stop-color:#000000;stop-opacity:0.99998647;"
         offset="1"
         id="stop9435" />
    </linearGradient>
    <filter
       style="color-interpolation-filters:sRGB"
       inkscape:label="Drop Shadow"
       id="filter7676"
       x="-0.035778174"
       y="-0.063245276"
       width="1.0715563"
       height="1.1264906">
      <feFlood
         flood-opacity="1"
         flood-color="rgb(255,255,255)"
         result="flood"
         id="feFlood7666" />
      <feComposite
         in="flood"
         in2="SourceGraphic"
         operator="out"
         result="composite1"
         id="feComposite7668" />
      <feGaussianBlur
         in="composite1"
         stdDeviation="3.9999999"
         result="blur"
         id="feGaussianBlur7670" />
      <feOffset
         dx="0"
         dy="0"
         result="offset"
         id="feOffset7672" />
      <feComposite
         in="offset"
         in2="SourceGraphic"
         operator="atop"
         result="composite2"
         id="feComposite7674" />
    </filter>
    <linearGradient
       inkscape:collect="always"
       xlink:href="#linearGradient7682"
       id="linearGradient7684"
       x1="335.75949"
       y1="93.460846"
       x2="252.9608"
       y2="236.87238"
       gradientUnits="userSpaceOnUse" />
    <linearGradient
       inkscape:collect="always"
       id="linearGradient7682">
      <stop
         style="stop-color:#000000;stop-opacity:1;"
         offset="0"
         id="stop7678" />
      <stop
         style="stop-color:#949494;stop-opacity:1;"
         offset="1"
         id="stop7680" />
    </linearGradient>
    <filter
       style="color-interpolation-filters:sRGB"
       inkscape:label="Drop Shadow"
       id="filter7676-8"
       x="-0.035778174"
       y="-0.063245276"
       width="1.0715563"
       height="1.1264906">
      <feFlood
         flood-opacity="1"
         flood-color="rgb(255,255,255)"
         result="flood"
         id="feFlood7666-7" />
      <feComposite
         in="flood"
         in2="SourceGraphic"
         operator="out"
         result="composite1"
         id="feComposite7668-9" />
      <feGaussianBlur
         in="composite1"
         stdDeviation="3.9999999"
         result="blur"
         id="feGaussianBlur7670-2" />
      <feOffset
         dx="0"
         dy="0"
         result="offset"
         id="feOffset7672-0" />
      <feComposite
         in="offset"
         in2="SourceGraphic"
         operator="atop"
         result="composite2"
         id="feComposite7674-2" />
    </filter>
    <clipPath
       clipPathUnits="userSpaceOnUse"
       id="clipPath1026">
      <path
         id="path1028"
         style="mix-blend-mode:darken;fill:#000000;fill-opacity:1;stroke:none;stroke-width:2.25926;stroke-linecap:round;stroke-linejoin:round;stroke-miterlimit:16.8;stroke-dasharray:none;stroke-opacity:1;paint-order:normal"
         d="m 216.9928,264.01264 v -16.83639 h 197.40406 v 16.83639 z" />
    </clipPath>
    <filter
       inkscape:collect="always"
       style="color-interpolation-filters:sRGB"
       id="filter1049"
       x="-0.030176811"
       y="-0.17160962"
       width="1.0606743"
       height="1.3562339">
      <feGaussianBlur
         inkscape:collect="always"
         stdDeviation="3.9976163"
         id="feGaussianBlur1051" />
    </filter>
  </defs>
  <g
     id="b"
     transform="matrix(0.71196829,0,0,0.71196829,-89.300709,-0.56532012)"
     style="stroke-width:0.625">
    <rect
       style="fill:#000000;fill-opacity:1;stroke-width:10.5384;stroke-linecap:round;stroke-linejoin:round;stroke-miterlimit:16.8"
       id="rect971"
       width="433.77905"
       height="331.8121"
       x="89.498634"
       y="0.87181431" />
    <path
       d="m 216.35353,-33.057148 c 0,0 -54.2136,-3.607339 -146.534169,25.2800831 C -24.263506,21.661437 -77.622551,63.38773 -77.622551,63.38773 c 0,0 140.227199,-78.294537 298.504531,-82.743337 z m 202.21315,85.12698 7.04798,-0.459886 c 0,0 -40.37992,-48.9930177 -117.6701,-72.85831 43.44701,17.6608784 81.26222,41.061105 110.61991,73.314866 z m 11.53447,20.356169 c 1.0835,-1.878872 4.58161,5.968714 7.238,9.265476 0.12039,0.65834 0.29896,1.060035 -1.24002,0.743209 -0.14043,-0.676781 -0.35313,-0.873027 -0.35313,-0.873027 0,0 -3.71763,-2.21202 -4.85751,-3.781135 -1.13967,-1.569065 -1.34233,-4.313701 -0.78655,-5.354482 z M 524.9539,305.64269 c 0,0 8.5721,-98.41503 -146.05102,-121.10494 -19.59753,-2.87544 -44.38124,-5.08853 -69.45005,-5.15192 C 185.5237,181.02433 181.0059,36.451075 274.39132,29.151443 c 38.70167,-3.193381 84.91463,17.684213 130.09264,38.723087 -0.16046,5.610887 0.0602,10.596954 3.75052,15.204471 3.68511,4.606041 17.84127,9.631282 22.36489,12.226744 4.5234,2.596393 19.01425,11.809485 27.89413,23.367855 1.92624,-3.60224 18.00821,-14.0705 18.00821,-14.0705 0,0 -3.85264,0.0843 -12.81562,-3.26595 -8.96397,-3.349747 -19.60054,-13.484934 -19.85235,-14.070479 -0.25082,-0.586699 -0.41735,-1.507679 1.67742,-1.92683 1.59113,-1.339129 -2.01151,-5.69479 -3.60325,-7.285317 -1.59114,-1.591531 -12.22932,-19.68138 -12.47994,-20.100796 -0.2508,-0.419154 -0.33508,-0.837106 -1.08951,-1.340131 -2.34599,-0.754438 -12.64889,1.088719 -12.64889,1.088719 0,0 -15.84521,-7.782211 -21.30686,-24.560737 0.0803,2.938857 -2.71718,6.147608 0,12.899369 -8.2617,-3.494895 -15.35803,-9.455539 -20.95511,-24.185406 -3.33138,8.377858 0,13.704734 0,13.704734 0,0 -19.45469,-5.436231 -22.56714,-23.377935 -3.41624,8.054011 0,12.898305 0,12.898305 0,0 -31.7161,-16.5486619 -84.41562,-16.7886181 -35.28244,-3.2363194 -42.62778,-65.3038349 -39.35922,-75.7516009 0,0 -50.89026,-26.820721 -151.067823,-38.670027 -100.177568,-11.85034 -182.336897,-1.78577 -182.336897,-1.78577 0,0 177.426223,-8.51481 319.56459,49.030189 4.83203,21.611706 19.3678,57.6060556 27.19671,74.907513 -22.4016,15.488496 -47.66325,30.052727 -51.59695,81.70811 -3.93253,51.653268 40.47699,97.087758 95.54819,98.489298 52.293,2.78551 88.42377,3.1811 132.21611,25.88529 41.8013,23.11305 76.07547,93.54154 79.46783,156.88111 3.66365,-46.99583 -13.97276,-148.05782 -96.27014,-178.74283 115.02615,20.12947 125.14487,105.40145 125.14487,105.40145 z M 213.64439,-40.774048 209.50561,-54.124153 c 0,0 -68.29271,-12.127476 -160.114265,-5.600802 -91.821363,6.526654 -184.529375,38.668933 -184.529375,38.668933 0,0 189.69486,-47.731642 348.7792,-19.718568"
       style="fill:#3a3a3a;fill-opacity:1;stroke-width:5.30881;paint-order:stroke fill markers;filter:url(#filter8072-7)"
       id="path6"
       transform="matrix(0.85389579,0,0,0.85389579,89.498632,0.87181429)" />
    <path
       id="path3744"
       style="color:#000000;opacity:0.228561;fill:#ffffff;fill-opacity:1;stroke-linecap:round;stroke-linejoin:round;-inkscape-stroke:none;paint-order:stroke fill markers;filter:url(#filter3748)"
       d="m -25.706958,-112.03554 c -48.503896,0.056 -80.557932,3.97777 -80.644692,3.98839 l -0.0486,0.004 a 0.66160892,0.66160892 0 0 0 0.11317,1.31826 c 0,0 177.097825,-8.46278 318.98828,48.871434 4.88999,21.594035 19.07452,56.7732935 26.92187,74.175317 -11.05921,7.628518 -22.85824,15.128692 -32.42179,27.107907 -9.68993,12.137517 -17.04127,28.849243 -19.0159,54.779085 -3.96336,52.058307 40.76604,97.790627 96.19155,99.201187 h -0.0196 c 52.30091,2.78592 88.27801,3.17365 131.93562,25.80462 20.71718,11.45661 39.68714,34.73984 53.86338,63.07057 14.17707,28.33242 23.56943,61.70163 25.25995,93.26563 a 0.66152446,0.66152446 0 0 0 1.32033,0.0155 c 1.84107,-23.61649 -1.65979,-60.6975 -15.94528,-95.78899 -13.44039,-33.01554 -36.47236,-64.26962 -73.59189,-80.69533 52.41909,10.96372 81.7344,35.70988 97.77543,58.32202 16.81823,23.70772 19.32027,44.84791 19.32027,44.84791 a 0.66152446,0.66152446 0 0 0 1.15807,0.35502 l 0.002,-0.002 a 0.66152446,0.66152446 0 0 0 0.15813,-0.37724 c 0,0 2.15168,-24.83942 -15.14068,-52.45106 -17.29238,-27.61165 -54.0256,-58.00014 -131.47466,-69.36528 -19.62852,-2.87998 -44.43646,-5.09486 -69.54305,-5.15834 a 0.66152446,0.66152446 0 0 0 -0.0114,0 c -61.70718,0.81585 -93.45468,-34.65885 -98.35937,-71.19152 -2.45233,-18.266335 1.83083,-36.799898 12.49226,-51.204628 10.66143,-14.404731 27.69041,-24.706109 50.86718,-26.517762 a 0.66152446,0.66152446 0 0 0 0.002,0 c 38.31469,-3.161449 84.32585,17.514406 129.37712,38.490158 -0.13434,5.466122 0.17125,10.540315 3.8964,15.19132 2.02736,2.534011 6.51505,4.886158 11.10165,7.0528 4.58661,2.166641 9.28613,4.092829 11.44943,5.334041 4.46645,2.563701 18.92757,11.779721 27.69909,23.197041 a 0.66152446,0.66152446 0 0 0 1.10742,-0.0894 c 0.3639,-0.68053 1.71085,-2.05332 3.46852,-3.52382 1.75768,-1.4705 3.93765,-3.11032 6.06062,-4.63848 4.24593,-3.0563 8.25789,-5.6658 8.25789,-5.6658 a 0.66152446,0.66152446 0 0 0 -0.37672,-1.21698 c 0,0 -0.86592,0.0245 -2.90835,-0.36535 -2.04242,-0.38986 -5.20974,-1.19566 -9.66039,-2.85926 -4.35743,-1.628337 -9.23142,-4.965713 -13.01368,-7.968509 -1.89113,-1.501399 -3.51355,-2.919301 -4.67362,-3.992521 -0.58004,-0.53661 -1.046,-0.987816 -1.36735,-1.316199 -0.16068,-0.164191 -0.28385,-0.298225 -0.36484,-0.390674 -0.0286,-0.03264 -0.0458,-0.06218 -0.0636,-0.09043 -0.0723,-0.186083 -0.10351,-0.321647 -0.0579,-0.407727 0.051,-0.09611 0.31133,-0.371613 1.26401,-0.562239 a 0.66152446,0.66152446 0 0 0 0.29662,-0.142627 c 0.62703,-0.527719 0.71775,-1.382188 0.55087,-2.129069 -0.16688,-0.746882 -0.55152,-1.510439 -1.02371,-2.273246 -0.94437,-1.525614 -2.25682,-3.025357 -3.08973,-3.857646 -0.10769,-0.107715 -0.46787,-0.571428 -0.90434,-1.208712 -0.43646,-0.637283 -0.97945,-1.47043 -1.58957,-2.429826 -1.22024,-1.918793 -2.70715,-4.340024 -4.15065,-6.724654 -2.887,-4.769259 -5.57466,-9.341003 -5.73402,-9.607682 a 0.66152446,0.66152446 0 0 0 0,-5.17e-4 0.66152446,0.66152446 0 0 0 0,-5.17e-4 0.66152446,0.66152446 0 0 0 0,-5.16e-4 c -0.18485,-0.308932 -0.41518,-0.966584 -1.29139,-1.55081 a 0.66152446,0.66152446 0 0 0 -0.16382,-0.07855 c -0.79556,-0.255839 -1.87981,-0.247451 -3.20342,-0.179318 -1.32361,0.06813 -2.84271,0.229424 -4.28707,0.413929 -2.76,0.352564 -5.01822,0.75639 -5.23431,0.794783 -0.49353,-0.246936 -15.52809,-7.866858 -20.80442,-24.07605 a 0.66152446,0.66152446 0 0 0 -1.29139,0.222726 c 0.0629,2.300532 -2.1165,5.696092 -0.33951,11.603426 -7.57628,-3.51076 -14.07979,-9.314665 -19.33422,-23.142773 a 0.66152446,0.66152446 0 0 0 -1.23404,-0.0098 c -1.71145,4.303996 -1.72021,7.866627 -1.28519,10.351823 0.18389,1.050495 0.45482,1.805472 0.7028,2.457214 -3.43687,-1.154967 -18.02673,-6.834107 -20.71863,-22.351607 a 0.66152446,0.66152446 0 0 0 -1.25987,-0.144694 c -1.75768,4.143856 -1.77194,7.518952 -1.3224,9.853662 0.16545,0.859268 0.40801,1.42553 0.6351,1.999878 C 345.52168,22.319419 315.66397,8.3975408 266.5057,8.1617757 257.87454,7.3700735 250.96704,2.9977702 245.4491,-3.346049 c -5.51793,-6.3438183 -9.6133,-14.658709 -12.51345,-23.21667 -2.90014,-8.557962 -4.60772,-17.355271 -5.38313,-24.648108 -0.7754,-7.292839 -0.57601,-13.155087 0.16433,-15.521534 a 0.66152446,0.66152446 0 0 0 -0.32246,-0.783414 c 0,0 -51.03174,-26.882448 -151.298776,-38.742335 -37.598496,-4.44766 -72.6608145,-5.81106 -101.802572,-5.77743 z m 0.01964,1.32447 c 29.0911618,-0.0329 64.092342,1.32752 101.626872,5.76761 99.053856,11.716389 149.407646,37.875104 150.445076,38.417805 -0.78012,2.986323 -0.89614,8.419846 -0.14831,15.453321 0.78514,7.38436 2.50724,16.263968 5.44515,24.933361 2.9379,8.669395 7.08942,17.1315999 12.76976,23.6621216 5.68033,6.5305219 12.92351,11.1309554 21.93354,11.9574097 a 0.66152446,0.66152446 0 0 0 0.0568,0.0015 c 52.56215,0.239331 84.11321,16.7152587 84.11321,16.7152587 a 0.66152446,0.66152446 0 0 0 0.84543,-0.968933 c 0,0 -0.76751,-1.070968 -1.17203,-3.1719 -0.32173,-1.670981 -0.14724,-4.116011 0.67025,-6.949446 4.41294,16.447937 22.35161,21.619352 22.35161,21.619352 a 0.66152446,0.66152446 0 0 0 0.73793,-0.988054 c 0,0 -0.76024,-1.199958 -1.15806,-3.472656 -0.33602,-1.919621 -0.17678,-4.699483 0.7891,-7.929748 5.52937,13.454455 12.49543,19.455022 20.50572,22.843566 a 0.66152446,0.66152446 0 0 0 0.87126,-0.855244 c -1.97504,-4.907693 -0.90787,-7.689064 -0.29093,-10.195761 6.18656,15.450016 20.69331,22.697323 20.69331,22.697323 a 0.66152446,0.66152446 0 0 0 0.40824,0.05684 c 0,0 2.56288,-0.458213 5.41207,-0.822172 1.4246,-0.18198 2.91936,-0.339354 4.18735,-0.404626 1.21901,-0.06275 2.21057,0.0016 2.62516,0.113688 0.50694,0.365078 0.5346,0.559096 0.82992,1.052649 h -0.002 c 0.0913,0.152737 2.84771,4.834984 5.74022,9.613366 1.44626,2.389192 2.93433,4.816205 4.16409,6.749976 0.61488,0.966886 1.16456,1.810314 1.6154,2.468583 0.45084,0.658269 0.77032,1.106132 1.0604,1.396297 0.75882,0.758236 2.04351,2.232725 2.9006,3.617351 0.42855,0.692312 0.74646,1.368867 0.85732,1.865002 0.10484,0.4693 0.0423,0.645541 -0.10542,0.785482 -0.94282,0.236267 -1.58973,0.588521 -1.88258,1.140499 -0.32672,0.615836 -0.13825,1.238108 0.0155,1.597835 a 0.66152446,0.66152446 0 0 0 0.002,0 c 0.11426,0.265687 0.16858,0.270243 0.27544,0.392224 0.10686,0.121981 0.24422,0.269928 0.41599,0.445451 0.34354,0.351047 0.82126,0.812914 1.41387,1.361157 1.18523,1.096488 2.83012,2.532812 4.7501,4.057117 3.83995,3.048609 8.7663,6.452255 13.37283,8.173655 4.51229,1.68664 7.75021,2.51417 9.87484,2.91972 0.90929,0.17357 0.84398,0.11324 1.36375,0.1664 -1.06516,0.70069 -3.32825,2.16481 -6.85953,4.70669 -2.13829,1.53919 -4.33921,3.19196 -6.13865,4.69739 -1.45405,1.21647 -2.5135,2.26009 -3.23081,3.21892 -9.01747,-11.39369 -23.04051,-20.353159 -27.53682,-22.933996 -2.36031,-1.354244 -6.99933,-3.238337 -11.54296,-5.384684 -4.54365,-2.146346 -8.9752,-4.609741 -10.63295,-6.681763 a 0.66152446,0.66152446 0 0 0 -0.002,0 c -3.5528,-4.435814 -3.76511,-9.190896 -3.60547,-14.773258 a 0.66152446,0.66152446 0 0 0 -0.38085,-0.617017 C 359.58092,46.76359 313.31785,25.805082 274.33778,29.021435 c -23.51484,1.838593 -40.94123,12.346444 -51.82423,27.050545 -10.88331,14.704514 -15.23538,33.581783 -12.74031,52.16633 4.98986,37.16709 37.46303,73.15634 99.67816,72.3377 25.03093,0.0633 49.78898,2.2735 69.35545,5.14439 77.17375,11.32473 113.4672,41.48984 130.54449,68.75808 11.83367,18.89545 14.26354,35.8434 14.75,44.81018 -1.9795,-8.08999 -6.60342,-22.51976 -18.04644,-38.65035 -16.99759,-23.96055 -48.46712,-50.42576 -106.13306,-60.51724 a 0.66152446,0.66152446 0 0 0 -0.34571,1.27124 c 40.94037,15.26484 65.79731,48.02528 79.9884,82.88487 12.13601,29.81142 16.40321,61.08247 16.25585,84.1561 -3.04907,-28.38962 -11.86724,-57.52853 -24.48274,-82.74017 -14.25837,-28.49486 -33.32546,-51.98137 -54.40805,-63.63849 a 0.66152446,0.66152446 0 0 0 -0.0155,-0.008 C 372.99261,199.27546 336.70766,198.8726 284.4276,196.08778 a 0.66152446,0.66152446 0 0 0 -0.0176,0 c -54.71669,-1.39252 -98.80804,-46.52947 -94.90635,-97.777501 1.95906,-25.725438 9.20597,-42.124062 18.73064,-54.054582 9.52468,-11.930519 21.36739,-19.404877 32.58406,-27.160099 a 0.66152446,0.66152446 0 0 0 0.22634,-0.816488 c -7.81361,-17.26766073 -22.34938,-53.290794 -27.1539,-74.779415 a 0.66152446,0.66152446 0 0 0 -0.39687,-0.468705 c -116.06446,-46.98892 -253.903133,-49.91484 -301.427601,-49.41765 14.122472,-1.08059 35.407266,-2.29404 62.24633,-2.32441 z m 123.949023,48.947915 c -15.281716,0.114793 -31.68626,0.68255 -48.917944,1.907377 -91.942971,6.535299 -184.699321,38.703064 -184.699321,38.703064 a 0.66152446,0.66152446 0 0 0 0.37879,1.267623 c 0,0 189.635122,-47.684062 348.5043,-19.708874 a 0.66145831,0.66145831 0 0 0 0.154,-0.03514 0.66145831,0.66145831 0 0 0 0.15813,0.0155 0.66145831,0.66145831 0 0 0 0.15451,-0.08372 0.66145831,0.66145831 0 0 0 0.0351,-0.01964 0.66145831,0.66145831 0 0 0 0.25373,-0.398426 0.66145831,0.66145831 0 0 0 0.0103,-0.0155 0.66145831,0.66145831 0 0 0 -0.002,-0.01395 0.66145831,0.66145831 0 0 0 -0.0155,-0.296623 l -4.13877,-13.349573 a 0.66152446,0.66152446 0 0 0 -0.51573,-0.455269 c 0,0 -38.46131,-6.829432 -96.46284,-7.488432 h -5.2e-4 c -4.83346,-0.05492 -9.80234,-0.06669 -14.896245,-0.02842 z m 0.0036,1.322917 c 5.084105,-0.03836 10.043365,-0.02675 14.867315,0.02791 57.25771,0.64869 95.04004,7.265312 95.86339,7.410401 l 3.7052,11.951208 c -134.056646,-23.308285 -287.951989,6.545831 -333.48041,16.597437 28.43324,-8.884749 98.892931,-29.012487 170.216477,-34.082158 17.201332,-1.22267 33.575688,-1.789727 48.828028,-1.904793 z M 206.4587,-33.298742 C 186.83576,-32.957395 138.9254,-29.564673 69.621058,-7.8791056 -24.563586,21.591247 -78.029346,63.396132 -78.029346,63.396131 a 0.66152446,0.66152446 0 0 0 0.728638,1.098124 c 0,0 140.130813,-78.217613 298.200918,-82.660588 a 0.66152446,0.66152446 0 0 0 0.60978,-0.86713 l -4.52737,-13.70304 a 0.66152446,0.66152446 0 0 0 -0.58601,-0.451135 c 0,0 -3.39639,-0.224887 -9.93738,-0.111104 z m -0.0367,1.318265 c 6.22108,-0.107591 9.16582,0.08947 9.45109,0.107487 l 4.10931,12.43335 C 84.105447,-15.382424 -37.645723,42.559241 -69.378711,58.861007 -52.732287,47.254214 -5.1565584,16.904753 70.017432,-6.6171671 139.19366,-28.262646 186.89486,-31.642758 206.42203,-31.980477 Z m 101.71832,10.628809 a 0.66163677,0.66163677 0 0 0 -0.44493,1.245919 c 43.38214,17.6345086 81.10636,40.984071 110.38086,73.146439 l -0.0589,-0.07596 a 0.66152446,0.66152446 0 0 0 0.59221,0.295073 l 7.04868,-0.460954 a 0.66152446,0.66152446 0 0 0 0.46663,-1.080038 c 0,0 -40.51272,-49.1491017 -117.98453,-73.070475 z m 16.73438,7.234184 c 63.6717,24.288434 97.08259,63.055153 99.30092,65.687463 l -5.34748,0.34985 C 393.25421,23.900567 361.3112,2.571767 324.87474,-14.117484 Z m 105.5114,86.135311 c -0.12379,0.01477 -0.24806,0.05005 -0.3607,0.109037 -0.22527,0.117973 -0.38631,0.304219 -0.49816,0.498161 a 0.66152446,0.66152446 0 0 0 0,0.03514 l -0.01,-0.01602 c -0.40742,0.762973 -0.44896,1.771907 -0.31471,2.871143 0.13426,1.099236 0.48368,2.265962 1.15033,3.183785 0.68404,0.941623 1.91794,1.866417 3.0117,2.630847 1.02985,0.719756 1.82215,1.19122 1.92392,1.25212 -9.8e-4,0.002 -0.0152,-0.02003 -0.004,0.0021 0.0379,0.07166 0.10658,0.22787 0.16588,0.513664 a 0.66152446,0.66152446 0 0 0 0.51366,0.513663 c 0.40931,0.08426 0.7208,0.129941 1.00563,0.125057 0.28483,-0.0049 0.60893,-0.0619 0.85576,-0.328145 0.24684,-0.266241 0.26158,-0.595751 0.24598,-0.798918 -0.0156,-0.203167 -0.0552,-0.360149 -0.0822,-0.507979 a 0.66152446,0.66152446 0 0 0 -0.13642,-0.295073 c -1.25632,-1.559169 -2.80356,-4.346396 -4.16202,-6.511747 -0.67924,-1.082675 -1.30186,-2.006899 -1.90841,-2.614827 -0.30316,-0.303849 -0.59525,-0.559048 -1.0387,-0.648539 h -5.2e-4 c -0.11081,-0.02227 -0.23398,-0.02818 -0.3576,-0.01344 z m 0.28164,1.454691 c 0.0679,0.04531 0.0718,0.03234 0.17983,0.14056 0.43709,0.438084 1.06012,1.328415 1.7229,2.384867 1.11068,1.77041 2.36341,3.859496 3.56412,5.562452 a 0.66152446,0.66152446 0 0 0 -0.0506,-0.03721 c 0,0 -0.91112,-0.543588 -1.96112,-1.277442 -1.05002,-0.733855 -2.24322,-1.696401 -2.69906,-2.323889 -0.47302,-0.651239 -0.79543,-1.64278 -0.90848,-2.568319 -0.10192,-0.834514 0.0232,-1.52795 0.15245,-1.881022 z m 5.85546,8.693526 c 0.044,0.05832 0.0875,0.150224 0.13125,0.206706 -0.0196,-0.0021 -0.0429,-0.007 -0.0646,-0.0098 -0.023,-0.06347 -0.043,-0.143105 -0.0667,-0.196888 z"
       transform="matrix(0.85389579,0,0,0.85389579,89.498632,0.87181429)" />
    <path
       d="m 429.33211,70.877752 c 1.2431,-2.1555 5.2564,6.8477 8.3036,10.63 0.12794,0.7552 0.34109,1.2161 -1.4234,0.85252 -0.14567,-0.77641 -0.40189,-1.0015 -0.40189,-1.0015 0,0 -4.2656,-2.5378 -5.5726,-4.338 -1.3088,-1.8001 -1.541,-4.949 -0.90327,-6.143 z"
       style="fill:#ffffff;stroke-width:6.0907;paint-order:stroke fill markers;filter:url(#m-2)"
       id="path4730"
       transform="matrix(0.85389579,0,0,0.85389579,89.498632,0.87181429)" />
    <circle
       cx="458.25531"
       cy="64.860855"
       r="25.257383"
       fill="url(#d)"
       opacity="0.5"
       style="fill:url(#q-0);stroke-width:2.43258"
       id="circle4734" />
    <path
       transform="matrix(0.00797058,-0.66000484,0.87978523,0.36331035,223.84739,363.22359)"
       d="m 609.95,289.88 -15.602,-22.343 -31.767,45.566 29.676,-46.921 -29.113,-3.3253 27.151,-2.3403 -11.549,-24.684 17.565,23.328 54.39,-80.72 -52.299,82.076 27.151,2.3403 -27.151,2.3403 z"
       fill="#fff"
       filter="url(#e)"
       opacity="0.2"
       style="fill:#fae895;filter:url(#p-6)"
       id="path4736" />
    <path
       transform="matrix(0.09577295,0.39363742,-0.6822115,0.11422564,580.58444,-198.22445)"
       d="m 609.95,289.88 -15.602,-22.343 -15.602,22.343 11.549,-24.684 -27.151,-2.3403 27.151,-2.3403 -11.549,-24.684 15.602,22.343 15.602,-22.343 -11.549,24.684 27.151,2.3403 -27.151,2.3403 z"
       fill="#fff"
       filter="url(#f)"
       opacity="0.3"
       style="fill:#ffd86e;filter:url(#o-6)"
       id="path4738" />
    <path
       d="m 429.33211,70.877752 c 1.2431,-2.1555 5.2564,6.8477 8.3036,10.63 0.12794,0.7552 0.34109,1.2161 -1.4234,0.85252 -0.14567,-0.77641 -0.40189,-1.0015 -0.40189,-1.0015 0,0 -4.2656,-2.5378 -5.5726,-4.338 -1.3088,-1.8001 -1.541,-4.949 -0.90327,-6.143 z"
       style="fill:#ffffff;stroke-width:6.0907;paint-order:stroke fill markers;filter:url(#l-6)"
       id="path4740"
       transform="matrix(0.85389579,0,0,0.85389579,89.498632,0.87181429)" />
    <g
       id="g1036"
       transform="translate(0,-176.82775)">
      <g
         stroke="#000000"
         id="g3776"
         transform="matrix(0.52201997,0,0,0.52201997,50.232915,103.34466)">
        <path
           id="path1042"
           style="color:#000000;mix-blend-mode:normal;fill:#000000;fill-opacity:1;-inkscape-stroke:none;paint-order:stroke fill markers;filter:url(#filter1049)"
           d="m 344.89995,256.22095 v 3.55808 50.01326 h 22.56506 3.07421 16.41943 l 1.7686,4.15734 0.80227,-4.15734 h 16.74617 3.13261 16.82404 7.17176 22.77502 4.28248 20.94105 v -53.57134 h -25.22353 v 3.55808 31.81271 h -5.2238 v -35.3694 l -24.72298,-0.001 v 3.55808 12.86969 l -3.17154,-16.42777 h -28.98462 -1.45576 -22.0812 -1.89096 z m 147.9208,0 v 3.55808 50.01326 h 29.94539 4.28248 18.87072 2.07033 20.31259 0.14878 20.77559 v -6.84502 c 4.80842,5.76076 12.55828,8.00736 19.72861,7.87949 5.60678,0.0998 11.47146,-1.40209 16.1038,-4.75105 l -0.96912,3.71658 h 23.97494 0.88014 23.97494 l -7.27744,-27.93624 7.54857,-25.6351 h -24.63678 -0.0987 -15.6241 -1.41406 -7.6014 -12.37887 -5.61868 -12.37887 -4.21296 -2.73495 -19.48251 v 1.65599 l -0.73414,-1.65599 h -18.28536 -2.07033 -23.1532 v 3.55808 31.81271 h -5.2238 v -35.3694 z m -101.23063,5.33364 -5.43514,28.16565 -3.67069,-8.62197 z" />
        <path
           d="m 348.46,259.78 v 46.454 h 18.52 v -9.5381 l 3.0772,9.5381 h 36.06 l 0.20011,-2.5486 c 0,0 0.2385,-3.0551 0.42249,-5.4034 0.36303,-0.0326 0.72237,-0.0717 1.1014,-0.0776 0.37924,0.006 0.73808,0.0451 1.1013,0.0776 0.18416,2.3483 0.42357,5.4034 0.42357,5.4034 l 0.20004,2.5486 h 19.526 l -8.9686,-46.454 h -24.564 l -0.43282,2.2414 -7.6866,39.813 -8.8512,-20.802 9.9025,-21.252 h -17.485 l -4.0265,9.5157 v -9.5157 z m 81.332,0 v 46.454 h 27.11 v -11.083 h -9.5065 v -35.37 z m 29.947,0 v 46.454 h 18.104 V 259.78 Z m 36.641,0 v 46.454 h 27.11 v -11.083 h -9.5065 v -35.37 z m 29.946,0 v 46.454 h 18.105 V 259.78 Z m 23.153,0 v 46.454 h 15.413 v -13.329 l 5.7514,13.329 h 15.024 V 259.78 h -15.098 v 14.901 l -6.6098,-14.901 z m 40.573,0 v 38.028 l 0.36228,0.63588 c 3.5956,6.3167 11.216,8.9752 18.54,8.8288 7.3249,0.14654 14.946,-2.512 18.541,-8.8288 l 0.36236,-0.63588 V 259.78 h -18.479 v 36.343 c -0.35623,0.40088 -0.6394,0.56207 -0.75126,0.56341 -0.11177,-0.002 -0.39435,-0.16222 -0.75024,-0.56238 v -36.344 h -14.438 z m 38.524,0 1.0452,3.5468 5.4392,18.471 -6.3648,24.436 h 17.478 l 2.3312,-9.2319 2.3312,9.2319 h 17.478 l -6.3648,-24.436 6.4843,-22.018 h -17.427 l -2.5017,7.3845 -2.5017,-7.3845 h -13.171 z m -221.26,21.908 c 0.50185,2.7894 0.83515,4.6425 1.0666,5.9291 -0.26629,0.0569 -0.89628,0.26949 -1.0666,0.27864 -0.1703,-0.009 -0.80029,-0.22172 -1.0667,-0.27864 0.23153,-1.2865 0.56483,-3.1396 1.0667,-5.9291 z"
           color="#000000"
           color-rendering="auto"
           dominant-baseline="auto"
           fill="#ffffff"
           image-rendering="auto"
           shape-rendering="auto"
           solid-color="#000000"
           stroke-width="0.96786"
           style="font-variant-ligatures:normal;font-variant-position:normal;font-variant-caps:normal;font-variant-numeric:normal;font-variant-alternates:normal;font-feature-settings:normal;text-indent:0;text-decoration-line:none;text-decoration-style:solid;text-decoration-color:#000000;text-transform:none;text-orientation:mixed;white-space:normal;shape-padding:0;isolation:auto;mix-blend-mode:normal;paint-order:stroke fill markers"
           id="path3772" />
        <path
           d="m 350.94,262.51 v 40.981 h 13.008 v -18.253 c 0,-1.0678 1.6071,-1.1528 1.8751,-0.32152 l 5.9926,18.574 h 13.078 l -9.5809,-22.519 8.6016,-18.462 h -11.329 l -7.1327,16.856 c -0.29207,0.6902 -1.5041,0.67207 -1.5041,-0.0881 v -16.768 z m 46.683,0 -7.912,40.981 h 13.638 c 0,0 0.36933,-4.7099 0.55391,-7.0648 0.0336,-0.42783 0.81004,-0.71626 1.6567,-0.83078 0.68516,-0.0927 1.3773,-0.13931 2.0769,-0.14848 0.69969,0.009 1.3918,0.0558 2.0769,0.14848 0.84666,0.11452 1.6232,0.40295 1.6566,0.83078 0.18467,2.3548 0.55391,7.0648 0.55391,7.0648 h 13.638 l -7.912,-40.981 z m 34.764,0 v 40.981 h 21.61 v -5.5609 h -7.7143 c -1.1627,0 -1.8049,-0.67881 -1.8049,-1.8051 V 262.51 Z m 29.989,0 v 40.981 h 12.591 V 262.51 Z m 36.693,0 v 40.981 h 21.61 v -5.5609 h -7.7145 c -1.1626,0 -1.8047,-0.67881 -1.8047,-1.8051 V 262.51 Z m 29.989,0 v 40.981 h 12.591 V 262.51 Z m 23.186,0 v 40.981 h 9.8956 v -19.407 c 0,-0.62882 1.364,-1.4184 1.896,-0.18551 l 8.4543,19.592 h 10.455 v -40.981 h -9.5808 v 19.235 c 0,1.0792 -1.9934,1.4976 -2.6576,0 l -8.5319,-19.235 z m 40.185,0 v 34.579 c 2.9054,5.104 9.5406,7.5915 16.16,7.445 6.6198,0.14659 13.255,-2.3409 16.16,-7.445 V 262.51 h -12.64 v 34.579 c -0.95229,1.5863 -2.2386,2.3789 -3.521,2.3836 -1.2824,-0.005 -2.5684,-0.79736 -3.5207,-2.3836 V 262.51 h -12.016 z m 39.956,0 5.6647,19.235 -5.6647,21.747 h 11.763 l 3.5623,-14.109 c 0.17577,-0.69596 0.53292,-1.1182 0.92879,-1.2697 0.39603,0.15144 0.75344,0.57359 0.9292,1.2697 l 3.562,14.109 h 11.763 l -5.6644,-21.747 5.6644,-19.235 h -11.763 l -3.5915,10.601 c -0.1787,0.52731 -0.52645,0.83452 -0.89972,0.91111 -0.3732,-0.0767 -0.72086,-0.38393 -0.89948,-0.91111 l -3.5916,-10.601 h -11.203 z m -225.11,7.5624 c 0.42526,0.0946 0.82205,0.53727 0.9612,1.3103 0.3113,1.7305 3.2854,18.262 3.2854,18.262 -2.049,0.66021 -3.1763,1.0081 -4.2466,1.0441 -1.0703,-0.036 -2.1977,-0.38395 -4.2466,-1.0441 0,0 2.9742,-16.531 3.2854,-18.262 0.13923,-0.77295 0.53594,-1.2156 0.9612,-1.3103 z"
           fill="url(#a)"
           stroke-width="0.96923"
           style="fill:url(#a-3);paint-order:stroke fill markers"
           id="path3774" />
        <path
           id="path4632"
           style="fill:url(#linearGradient4647);fill-opacity:1;paint-order:stroke fill markers"
           d="m 363.94853,262.50919 -13.00851,0.001 v 19.2505 h 24.70857 l -0.33589,-0.78909 8.60154,-18.46193 h -11.32902 l -7.13239,16.85582 c -0.29207,0.6902 -1.5043,0.6718 -1.5043,-0.0884 z m 198.22615,5.1e-4 -9.93066,5.2e-4 v 19.2505 h 18.47122 c -0.003,-0.006 -0.006,-0.0102 -0.009,-0.016 z m 11.18949,0 v 19.235 c 0,0.006 -0.002,0.0105 -0.002,0.016 h 9.58288 v -19.251 z m -175.74121,5.2e-4 -3.71657,19.2505 h 10.54045 c 0.8623,-4.79293 1.69021,-9.39446 1.86707,-10.37817 0.13923,-0.77295 0.53592,-1.2153 0.96118,-1.31 0.42526,0.0946 0.82203,0.53697 0.96118,1.31 0.17691,0.98343 1.00478,5.58515 1.86707,10.37817 h 11.26339 l -3.71657,-19.2505 z m 34.76429,0 v 19.2505 h 12.09073 v -19.2505 z m 29.98887,0 v 19.2505 h 12.59096 v -19.2505 z m 36.69285,0 v 19.2505 h 12.09073 v -19.2505 z m 29.98886,0 v 19.2505 h 12.59097 v -19.2505 z m 63.37133,0 v 19.2505 h 12.63799 v -19.2505 h -12.01581 z m 19.67994,0 v 19.2505 h 12.64005 v -19.2505 z m 20.27576,0 5.66477,19.235 -0.004,0.0155 h 21.18733 l -0.004,-0.0155 5.66477,-19.235 h -11.7631 l -3.59152,10.6009 c -0.1787,0.52731 -0.52641,0.83447 -0.89968,0.91106 -0.3732,-0.0767 -0.72107,-0.38388 -0.89969,-0.91106 l -3.59151,-10.6009 h -11.20294 z" />
      </g>
      <use
         x="0"
         y="0"
         xlink:href="#g3776"
         id="use9313"
         transform="matrix(1,0,0,-1.1848053,4.0100116e-6,579.05572)"
         clip-path="url(#clipPath1026)" />
      <path
         id="rect9367"
         style="mix-blend-mode:darken;fill:url(#linearGradient9427);fill-opacity:1;stroke:none;stroke-width:2.45918;stroke-linecap:round;stroke-linejoin:round;stroke-miterlimit:16.8;stroke-dasharray:none;stroke-opacity:1;paint-order:normal"
         d="m 216.9928,266.25215 v 19.94784 h 197.40406 v -19.94784 z" />
    </g>
  </g>
  <use
     transform="translate(1.2106245e-5)"
     width="100%"
     height="100%"
     clip-path="url(#g)"
     style="stroke-width:0.625;filter:url(#e)"
     xlink:href="#b"
     id="use35"
     x="0"
     y="0" />
  <rect
     x="119.84"
     y="66.981003"
     width="268.32001"
     height="151.78999"
     rx="2.6458001"
     ry="2.6458001"
     style="opacity:0.307322;mix-blend-mode:screen;fill:url(#linearGradient7684);fill-opacity:1;stroke-width:0.625;paint-order:normal;filter:url(#filter7676-8)"
     id="rect7484"
     transform="matrix(0.7721529,0,0,0.59550716,-59.391499,34.963798)" />
</svg>
