<svg width="3840" height="2160" version="1.1" viewBox="0 0 1016 571.5" xmlns="http://www.w3.org/2000/svg">
  <defs>
    <linearGradient id="a" x1="662.87" x2="662.87" y1="6.4967" y2="6.4857" gradientTransform="matrix(.83977 0 0 .83977 81.4 276.3)" gradientUnits="userSpaceOnUse">
      <stop stop-color="#153873" offset="0"/>
      <stop stop-color="#367bf0" offset="1"/>
    </linearGradient>
  </defs>
  <path d="m1016 5e-7h-1016v571.5h1016z" fill="#111217" style="paint-order:fill markers stroke"/>
  <path d="m1016 1e-6h-1016v571.5h1016z" opacity=".15" style="paint-order:fill markers stroke"/>
  <path d="m1016 0v571.49h-196.06c-5.5535-26.297-16.149-51.45-31.392-73.995-1.6345-2.7646-3.3247-5.5133-5.1323-8.2335-1.6025-1.855-3.2075-3.6271-4.8124-5.4038-37.211-46.709-92.603-75.305-152.23-78.586-37.372-1.9218-74.575 6.2092-107.74 23.547 25.596-8.9222 52.681-12.788 79.752-11.384 5.1948 0.3452 10.375 0.8846 15.529 1.6159-17.825 2.9255-35.261 10.985-54.966 15.57-143.31 33.345-283.02-33.075-283.02-181.74-3e-5 -151.18 179.21-215.22 319.3-187.28 43.928 8.752 83.38 28.17 111.42 59.79l1.4547 3.7388c-1.623 6.8651-30.077 49.879-13.255 81.61 0.96151 1.5435 1.7291 3.2014 2.7156 4.8074 0.98172 1.5957 1.9741 3.2199 3.0855 4.8373 1.1195 1.6388 2.2392 3.28 3.425 4.9651 1.2441 1.6504 2.4007 3.38 3.7409 5.0895 22.466 28.725 45.225 52.924 65.383 80.006 1.788 2.4276 3.6004 4.9167 5.3789 7.4445 1.6107 2.2798 3.18 4.6487 4.7894 6.9891 0.12153 0.3138 0.5597 0.50318 0.60047 0.60822 1.7369 2.6044 3.4607 5.2138 5.1794 7.8977 1.7532 2.6461 3.4298 5.3715 5.0979 8.111 1.672 2.7506 3.4022 5.5615 5.0109 8.3962 1.5878 2.8432 3.1882 5.716 4.782 8.6052 0.85145 1.2607 1.3818 2.622 2.0407 4.0055 0.96958 1.5644 1.7368 3.231 2.5016 4.887 1.5195 2.9784 2.9382 6.0105 4.2695 9.1225 0.32572 0.83774 0.66965 1.6806 0.98958 2.545 0.9164 2.3564 2.1262 4.5362 3.1559 6.873 0.63351 1.6708 1.3442 3.4575 1.9999 5.1437l1.7678 4.545c1.2632 3.2588 2.2353 6.6804 3.4131 10.021 2.2604 6.7415 4.2246 13.645 6.0414 20.766 0.79641 3.597 1.6112 7.2458 2.3647 10.919 0.71103 3.6904 1.3992 7.3791 2.0515 11.165 31.734-14.258 67.965-21.654 107.34-24.235-10.468-6.95-24.592-14.248-40.772-28.884-3.4485-3.1321-7.0339-6.6179-10.684-10.486-2.4316-2.563-4.8548-5.3466-7.341-8.2986-1.2963-1.4734-2.5377-2.9929-3.7578-4.5799-2.5428-3.1591-5.0476-6.5031-7.6133-10.124-1.2972-1.7867-2.6606-3.6438-3.9295-5.5736-0.14377-0.30517-0.30453-0.84721-0.79683-1.126-1.0869-1.5549-2.0622-3.1279-3.1631-4.7495-1.3948-2.038-2.5882-4.1774-3.9491-6.3126-1.3231-2.1623-2.7762-4.3473-4.025-6.659-1.2628-2.3185-2.5397-4.6696-3.8478-7.1029-0.5989-0.61118-0.91838-1.4271-1.1994-2.1497-1.8118-3.4192-3.6803-6.9838-5.5287-10.684-0.36655-0.94262-1.0002-1.65-1.3668-2.5926-1.4094-2.6953-2.6394-5.5427-4.1026-8.374-0.78614-2.0215-1.9171-3.9946-2.7358-6.0999l-1.1167-2.8712c-1.2015-3.0898-2.735-6.1086-3.9936-9.345l3.6515-9.8382c15.15 4.7556 15.553 1.9583 11.243-16.273-1.507-6.0457-3.3985-13.821-5.5004-23.597-0.69952-3.6589-1.631-7.7334-2.4598-12.067-5.8774-30.429-12.6-75.482-11.836-97.085l-65.113-21.473c-1.2237-1.598-2.4483-3.1969-3.6872-4.8011-8.6568-11.223-18.514-21.782-29.461-31.533-2.8437-2.5322-5.7882-4.9884-8.7782-7.4104-5.2641-6.56-10.931-12.878-16.997-18.909-12.334-12.167-38.007-32.34-64.798-45.264h49.344c0.2388 0.21442 24.82 13.655 25.059 13.87 1.8767 1.694 3.697 3.4237 5.5144 5.213 1.7816 1.7908 3.598 3.5803 5.3665 5.4607 1.806 1.8539 3.4758 3.761 5.1556 5.7242 1.7217 1.9472 3.3472 3.9322 4.995 5.9681 0.12183 0.3139 0.14046 0.42584 0.55964 0.50384 1.4599 1.892 2.9569 3.7576 4.3904 5.708 7.8752 10.732 14.905 22.667 20.945 35.906 2.4196 5.2929 4.6725 10.783 6.7743 16.496l59.668 19.477c-4.1902-26.062-13.834-51.879-28.8-75.911-3.3192-5.3411-6.8722-10.543-10.713-15.707-1.9581-2.5544-3.8936-5.153-5.9247-7.6696-0.48969-0.60681-8.5396-9.9313-13.334-15.038l248.7-0.0010335zm-519.58 0c-28.805 2.3341-79.123 11.949-100.92 21.773-28.241-1.8499-56.379 1.1506-82.84 9.0304-0.0156 2e-3 -0.0314 0.0042-0.047 0.0072l-0.014 0.01085c0.0201-6e-3 0.0407-0.01147 0.061-0.01757 20.968-3.1821 42.478-3.5149 63.846-1.0795-98.119 40.827-151.71 120.36-151.71 245.18 0 33.006 8.2692 46.005-7.4842 33.006-1.0396-0.81347-2.1195-1.8536-3.2004-2.989-0.55782-0.50614-1.0056-1.0425-1.4433-1.5477-0.63957-0.71598-1.1456-1.3973-1.9115-2.1244-1.1137-1.3154-2.44-2.731-3.6353-4.2555-1.3087-1.5048-2.4934-3.1294-3.8105-4.8116-1.3614-1.641-2.6961-3.4004-4.01-5.2286-9.4262-12.799-19.679-28.958-28.831-44.989-5.2252-9.1579-10.077-18.279-14.183-26.699-1.1653-2.0672-1.9808-4.174-2.8805-6.1758-1.9142-3.9941-3.5186-7.8059-4.8812-11.311-2.057-5.2892-3.798-9.7643-4.5098-13.453-26.95 43.69-44.92 92.338-52.85 143.06-13.433 87.277 3.4946 172.23 42.91 244.11h-134.07v-571.49h243.58c-93.569 69.275-161.53 198.24-169.55 319.88 21.678-130.03 99.289-254.1 208.01-319.88l214.37-0.0025838zm124.04 13.228c0.10607 0.0591 0.21285 0.11696 0.31884 0.17622-0.20584-0.0594-0.41298-0.11716-0.61909-0.17622zm185.45 192.24c0.26892 8e-3 0.56983 0.13917 0.78858 0.23564 0.43577 0.19169 0.72675 0.31993 0.88987 0.73947 6.3645 8.7388 5.2564 36.184 7.187 44.746l-3.5316-1.0485c-0.022 8e-3 -7.2595-25.549-10.971-30.067-2.8141-3.3914 0.79046-9.1944 2.7466-12.969 0.24625-0.4564 0.66129-0.7971 1.1436-1.0299h5.2e-4c0.48072-0.23721 1.0324-0.35154 1.542-0.37414l-0.0501-0.1943c0.0784-0.0306 0.1646-0.0414 0.25424-0.0388v-5.2e-4zm-650.02 55.895c-1.9e-4 6.8e-4 -3.2e-4 1e-3 -5e-4 2e-3l-5.3e-4 -5.1e-4zm-5e-4 2e-3c23.72 36.84 52.493 65.637 89.391 93.892 38.412 79.014 158.7 158.5 298.58 126.19 90.222-20.84 150.53-23.665 205.58 53.268 9.4606 13.221 16.52 25.425 21.605 36.779h-420.58c-2.1353-1.2772-4.2486-2.5856-6.3359-3.929-2.8998-1.8751-5.7581-3.8232-8.5642-5.8306-2.8167-2.0036-5.6094-4.0441-8.3184-6.1737-2.7011-2.1086-5.3519-4.2735-7.9554-6.5044-2.5938-2.235-5.2194-4.5158-7.7141-6.8378-2.5022-2.3424-4.9545-4.7164-7.335-7.1788-0.93053-0.84398-1.6711-1.809-2.5435-2.6876-1.4661-1.6001-3.0168-3.1691-4.4844-4.8048-2.2882-2.5346-4.4936-5.1752-6.6552-7.8191-2.1236-2.6709-4.282-5.3286-6.3338-8.0636-4.1087-5.4802-7.9578-11.165-11.535-17.014-23.309-37.986-35.745-83.057-33.501-130.53-1.491-0.7341-2.9069-1.7977-4.3656-2.726-4.119-2.8715-8.1694-5.8456-12.131-8.9328-1.9684-1.5255-3.9206-3.1022-5.8771-4.6926-1.8558-1.4994-3.7568-3.0562-5.5692-4.5971-0.61242 2.4105-1.0834 4.809-1.5849 7.2624-7.8173 50.794 1.7175 100.28 24.157 142.4 3.4771 6.461 7.1759 12.778 11.202 18.884 2.0284 3.0458 4.1407 6.0586 6.3142 9.0119 2.1207 2.9734 4.3764 5.8337 6.6764 8.6774 2.3098 2.8395 4.6574 5.5911 7.0976 8.3316 1.5314 1.7678 3.2723 3.4779 4.8942 5.1985 0.85017 0.9472 1.7096 1.915 2.6648 2.8215 2.5521 2.6249 5.2027 5.1646 7.894 7.6511 2.6953 2.4968 5.4453 4.8868 8.2377 7.2614 2.8024 2.3707 5.6662 4.6452 8.593 6.8709 1.7661 1.3399 3.5398 2.658 5.3313 3.9512h-33.872c-0.73096-0.81109-1.4626-1.6252-2.173-2.451-1.552-1.8202-3.1078-3.6517-4.622-5.4982-1.5522-1.8202-3.016-3.7256-4.4751-5.6176-1.4589-1.8924-2.9149-3.81-4.3357-5.7287-1.4679-1.9135-2.8098-3.8388-4.1936-5.7845-2.2108-3.2041-4.382-6.4338-6.5219-9.7358-0.32599-0.83801-0.93648-1.4818-1.4728-2.2381-0.59903-0.61102-0.95989-1.2195-1.3255-1.849-3.4284-5.4673-6.7259-11.059-9.817-16.745-1.1769-2.0983-2.1448-4.2801-3.2136-6.4089-2.1498-4.2883-4.291-8.5533-6.2766-12.947-22.875-50.482-32.094-107.83-23.859-166.63-0.7444-0.67499-1.4032-1.4333-2.158-2.1647-2.0473-1.9773-4.1145-4.0044-6.0859-6.0353-2.6778-2.7929-5.3421-5.6149-7.925-8.5052-1.7097-1.9157-3.3737-3.8364-5.0519-5.7644-0.89145-1.052-1.755-2.0306-2.6158-3.0345-0.5593-0.50685-0.87801-1.0324-1.2919-1.4743-2.0302-2.4302-3.9893-4.9275-5.9438-7.4109l0.13332-0.0765-0.3121 0.12506c-4.5391 14.345-7.9803 29.027-10.34 43.904-9.5368 61.943 0.48815 122.36 25.392 175.06 2.0734 4.4026 4.2365 8.7206 6.4883 12.992 1.1849 2.119 2.2723 4.2894 3.4498 6.3875 1.1772 2.0984 2.3512 4.1883 3.638 6.2562 4.964 8.3308 10.305 16.429 16.03 24.236 1.4678 1.9135 2.908 3.8742 4.3608 5.7811 0.3488 0.45477 0.70116 0.90524 1.0516 1.358h-17.716c-1.0615-1.7171-2.111-3.4422-3.1445-5.1773-3.1461-5.3001-6.1774-10.705-9.0928-16.156-1.4258-2.7374-2.8564-5.485-4.2907-8.2427-2.7519-5.5252-5.4122-11.124-7.9623-16.782-28.913-65.203-40.073-139.16-28.419-214.89 2.6329-16.544 6.3745-32.85 11.146-48.884zm55.313 81.771-3e-3 9e-3s0.0259 0.0268 0.0284 0.0176l-5e-3 7e-3 3e-3 3e-3c0-3e-3 2.3e-4 -6e-3 3e-3 -9e-3l-5.3e-4 -5e-4z" opacity=".15" stroke-width=".99998" style="paint-order:fill markers stroke"/>
  <path d="m1016 0 0.014 571.5-193.71-5e-3c-4.5039-31.078-15.968-60.922-33.75-87.224-1.6344-2.7646-3.3252-5.5133-5.1328-8.2335-1.6025-1.855-3.2075-3.6271-4.8124-5.4038-37.21-46.709-92.603-75.302-152.23-78.583-37.372-1.9218-74.574 6.2089-107.74 23.547 25.596-8.9222 52.68-12.788 79.752-11.384 5.1947 0.34519 10.375 0.88459 15.529 1.6159-17.825 2.9255-35.26 10.985-54.966 15.57-143.31 33.345-283.02-33.078-283.02-181.74-3e-5 -151.18 179.21-215.22 319.29-187.28 43.928 8.7521 83.379 28.17 111.42 59.793l1.4542 3.7388c-1.623 6.8651-30.077 49.879-13.255 81.61 0.96151 1.5435 1.7291 3.2014 2.7156 4.8074 0.98174 1.5957 1.974 3.22 3.0855 4.8373 1.1195 1.6388 2.2392 3.28 3.425 4.9651 1.2441 1.6504 2.4008 3.38 3.7409 5.0895 22.466 28.726 45.225 52.924 65.383 80.007 1.788 2.4276 3.6004 4.9167 5.3789 7.4445 1.6107 2.2798 3.18 4.6487 4.7894 6.9892 0.12152 0.3138 0.55969 0.50318 0.60046 0.60822 1.7369 2.6044 3.4607 5.2138 5.1794 7.8978 1.7532 2.6461 3.4297 5.3715 5.0979 8.111 1.672 2.7506 3.4022 5.5615 5.0109 8.3962 1.5878 2.8432 3.1882 5.716 4.782 8.605 0.85145 1.2607 1.3818 2.622 2.0407 4.0055 0.96958 1.5644 1.7367 3.2311 2.5016 4.8871 1.5195 2.9781 2.9382 6.0105 4.2695 9.1222 0.32575 0.83776 0.66965 1.6805 0.98958 2.545 0.91639 2.3565 2.1262 4.5362 3.1559 6.873 0.6335 1.6708 1.3442 3.4575 1.9998 5.1437l1.7678 4.545c1.2632 3.2588 2.2353 6.6801 3.4131 10.021 2.2604 6.7415 4.2245 13.645 6.0414 20.766 0.79641 3.597 1.6112 7.2458 2.3647 10.919 0.71103 3.6904 1.3992 7.3789 2.0515 11.165 31.734-14.258 67.965-21.654 107.34-24.235-10.468-6.95-24.592-14.248-40.772-28.884-3.4485-3.1321-7.0338-6.6182-10.684-10.486-2.4316-2.563-4.855-5.3466-7.341-8.2986-1.2963-1.4734-2.5377-2.993-3.7578-4.5802-2.5428-3.1591-5.0476-6.5029-7.6133-10.124-1.2972-1.7867-2.6606-3.6438-3.9295-5.5737-0.14377-0.30517-0.30453-0.84719-0.79683-1.126-1.0869-1.5549-2.0622-3.1279-3.163-4.7495-1.3948-2.038-2.5882-4.1775-3.9491-6.3126-1.3231-2.1623-2.7762-4.3473-4.025-6.659-1.2628-2.3185-2.5397-4.6701-3.8478-7.1035-0.5989-0.61119-0.91836-1.4271-1.1994-2.1497-1.8118-3.4192-3.6803-6.9839-5.5286-10.684-0.36655-0.94262-1.0002-1.65-1.3668-2.5926-1.4094-2.6953-2.6394-5.5427-4.1026-8.374-0.78614-2.0215-1.9171-3.9946-2.7357-6.0999l-1.1167-2.8712c-1.2015-3.0898-2.735-6.1086-3.9936-9.345l3.6514-9.8382c15.15 4.7556 15.553 1.9588 11.243-16.273-1.507-6.0457-3.3985-13.822-5.5004-23.598-0.69951-3.6589-1.631-7.7334-2.4598-12.067-5.8774-30.429-12.6-75.482-11.836-97.085l-65.113-21.473c-1.2237-1.598-2.4483-3.1969-3.6872-4.8011-8.6568-11.223-18.513-21.782-29.461-31.533-2.8437-2.5322-5.7882-4.9884-8.7782-7.4104-5.2641-6.56-10.931-12.878-16.997-18.909-12.333-12.167-25.933-22.874-40.457-32.035h49.344c0.23881 0.21442 0.47812 0.42574 0.71726 0.64079 1.8767 1.694 3.697 3.4237 5.5144 5.213 1.7816 1.7908 3.598 3.58 5.3665 5.4607 1.806 1.8539 3.4758 3.761 5.1556 5.7242 1.7217 1.9472 3.3472 3.9322 4.995 5.9682 0.12184 0.3139 0.14046 0.42584 0.55964 0.50384 1.4599 1.892 2.9569 3.7576 4.3904 5.7081 7.8752 10.732 14.905 22.667 20.945 35.906 2.4196 5.2929 4.6725 10.783 6.7743 16.496l59.668 19.477c-4.1902-26.062-13.834-51.879-28.799-75.911-3.3191-5.3411-6.8722-10.543-10.713-15.707-1.9581-2.5544-3.8869-5.1583-5.9247-7.6697-0.48291-0.61221-0.98493-1.212-1.4919-1.8086h236.86zm-395.55 0c0.10607 0.059102 0.21286 0.11696 0.31885 0.17622-0.20585-0.059404-0.41299-0.11716-0.61909-0.17622zm-197.59 0c-9.2423 2.5056-18.382 5.3554-27.371 8.5436-28.241-1.8499-56.379 1.1507-82.84 9.0304-0.0156 0.0024-0.0314 0.0043-0.047 0.0067l-0.014 0.01085c0.0202-6e-3 0.0407-0.01153 0.061-0.01757 20.968-3.1821 42.478-3.515 63.846-1.0795-98.119 40.828-151.71 120.36-151.71 245.18 0 33.006 8.2697 46.005-7.4836 33.006-1.0396-0.81347-2.12-1.8536-3.2009-2.989-0.5578-0.50614-1.0056-1.0425-1.4433-1.5477-0.63957-0.71598-1.1456-1.3973-1.9115-2.1244-1.1137-1.3154-2.44-2.7313-3.6353-4.2555-1.3087-1.5048-2.4934-3.1295-3.8105-4.8117-1.3614-1.641-2.6961-3.4004-4.01-5.2286-9.4262-12.799-19.679-28.958-28.831-44.989-5.2252-9.1579-10.077-18.28-14.183-26.699-1.1653-2.0672-1.9808-4.174-2.8805-6.1759-1.9142-3.9941-3.5186-7.8062-4.8812-11.311-2.057-5.2892-3.798-9.7644-4.5098-13.453-26.95 43.69-44.92 92.339-52.85 143.06-14.267 92.693 5.7086 182.77 50.503 257.34h-141.66v-571.5h226.79c-87.734 75.797-144.74 185.01-152.75 306.62 21.678-130.03 99.289-240.87 208.01-306.62h140.82zm383.03 192.24c0.26892 8e-3 0.56983 0.13918 0.78858 0.23564 0.43576 0.19169 0.72675 0.31993 0.88986 0.73947 6.3644 8.7389 5.2564 36.184 7.187 44.746l-3.5316-1.0485c-0.022 8e-3 -7.2595-25.549-10.971-30.067-2.8141-3.3914 0.79096-9.1942 2.7471-12.969 0.24626-0.4564 0.66079-0.7971 1.1431-1.0299h1e-3c0.48072-0.23722 1.0324-0.35155 1.542-0.37414l-0.0506-0.1943c0.0784-0.0306 0.1646-0.0414 0.25424-0.0388zm-650.04 55.898c23.72 36.843 52.492 65.637 89.391 93.895 38.412 79.014 158.7 158.5 298.58 126.19 90.221-20.84 150.53-23.665 205.58 53.268 13.244 18.509 21.786 35.025 26.786 50.008h-400.1c-11.194-4.8953-21.892-10.642-32.019-17.159-2.8998-1.8751-5.758-3.8232-8.5642-5.8306-2.8167-2.0036-5.6093-4.0441-8.3181-6.1737-2.7011-2.1086-5.3519-4.2735-7.9554-6.5045-2.5938-2.235-5.2194-4.5159-7.7141-6.8378-2.5022-2.3424-4.9545-4.7164-7.3349-7.1789-0.93054-0.84399-1.6711-1.809-2.5435-2.6876-1.466-1.6001-3.0167-3.1692-4.4843-4.8048-2.2882-2.5346-4.4936-5.1752-6.6552-7.8192-2.1237-2.671-4.282-5.3287-6.3338-8.0636-4.1086-5.48-7.958-11.165-11.535-17.014-23.309-37.986-35.745-83.057-33.501-130.53-1.491-0.73412-2.9069-1.7978-4.3656-2.726-4.119-2.8715-8.1694-5.8456-12.131-8.9328-1.9684-1.5255-3.9205-3.1022-5.8771-4.6926-1.856-1.4996-3.757-3.0564-5.5696-4.5976 8.5e-4 -3e-3 1e-3 -7e-3 2e-3 -0.01 0 0-2.9e-4 -8.8e-4 -0.0258-0.0269l-3e-3 9e-3s0.0259 0.0268 0.0284 0.0176l-5e-3 7e-3c1e-3 8.4e-4 2e-3 2e-3 3e-3 3e-3 -0.61247 2.4107-1.0834 4.8098-1.5849 7.2636-7.8173 50.794 1.7172 100.28 24.156 142.4 3.4771 6.4611 7.1759 12.778 11.202 18.884 2.0284 3.0458 4.1407 6.0586 6.3142 9.0116 2.1206 2.9734 4.3764 5.8338 6.6764 8.6775 2.3098 2.8395 4.6574 5.5911 7.0976 8.3317 1.5314 1.7678 3.2723 3.4779 4.8942 5.1985 0.85016 0.9472 1.7096 1.915 2.6648 2.8215 2.5521 2.6249 5.2027 5.1646 7.894 7.6512 2.6953 2.4968 5.4453 4.8868 8.2377 7.2614 2.8024 2.3707 5.6662 4.6452 8.593 6.8709 2.9421 2.2321 5.898 4.413 8.9393 6.4978 3.0456 2.0954 6.1147 4.0986 9.2748 6.0533 2.5818 1.5933 5.2014 3.135 7.8548 4.6286h-42.349c-1.6679-1.6266-3.2371-3.2914-4.8167-4.9646-0.59898-0.61134-1.2642-1.3904-1.8924-2.0748-1.0208-1.0739-2.036-2.1361-2.9601-3.2721-1.5402-1.7888-3.2033-3.5517-4.7661-5.3681-1.552-1.8202-3.1077-3.6518-4.6219-5.4983-1.5522-1.8202-3.0159-3.7256-4.4751-5.6176-1.4589-1.8924-2.9146-3.81-4.3357-5.7287-1.4679-1.9135-2.8098-3.8388-4.1936-5.7845-2.2108-3.2041-4.382-6.4338-6.5219-9.7358-0.32599-0.83798-0.93651-1.4818-1.4728-2.2381-0.59903-0.61102-0.95989-1.2194-1.3255-1.849-3.4284-5.4673-6.7259-11.059-9.817-16.745-1.1769-2.0982-2.1448-4.2801-3.2136-6.4089-2.1498-4.2883-4.2909-8.5534-6.2766-12.947-22.875-50.482-32.093-107.83-23.859-166.63-0.74439-0.675-1.4032-1.4333-2.158-2.1647-2.0473-1.9773-4.1145-4.0044-6.0858-6.0351-2.6778-2.7929-5.3421-5.6149-7.9249-8.5052-1.7097-1.9157-3.3736-3.8364-5.0519-5.7644-0.89144-1.052-1.7549-2.0305-2.6158-3.0345-0.55929-0.50686-0.87797-1.0324-1.2919-1.4743-2.0302-2.4302-3.9893-4.9276-5.9438-7.4109l0.13332-0.0765-0.31212 0.12504c-4.5391 14.345-7.9802 29.027-10.34 43.905-9.5368 61.944 0.48789 122.36 25.392 175.06 2.0733 4.4026 4.2364 8.7206 6.4883 12.992 1.1849 2.1191 2.2723 4.2894 3.4498 6.3878 1.1772 2.0984 2.3512 4.1883 3.638 6.2563 4.964 8.3309 10.306 16.429 16.031 24.236 1.4678 1.9135 2.908 3.874 4.3608 5.7811 1.4673 1.9131 2.9501 3.8084 4.4404 5.6885 1.5646 1.8517 3.0427 3.7348 4.5883 5.5697 0.94304 1.106 1.8818 2.2183 2.8307 3.3284h-19.963c-4.0735-6.0205-7.9816-12.154-11.704-18.405-3.1461-5.2998-6.1774-10.705-9.0928-16.156-1.4258-2.7374-2.8564-5.485-4.2907-8.2428-2.7519-5.5255-5.4122-11.124-7.9622-16.782-28.913-65.203-40.073-139.16-28.418-214.89 2.6331-16.545 6.3748-32.85 11.147-48.884z" fill="#111217" stroke-width=".99998" style="paint-order:fill markers stroke"/>
  <g stroke="#000">
    <path d="m348.47 268.67v46.454h18.52v-9.5381l3.0772 9.5381h36.06l0.20012-2.5486s0.2385-3.0551 0.42249-5.4034c0.36303-0.0326 0.72236-0.0717 1.1014-0.0776 0.37924 6e-3 0.73807 0.0451 1.1013 0.0776 0.18416 2.3483 0.42358 5.4034 0.42358 5.4034l0.20004 2.5486h19.526v-4.4438l-8.9686-42.01h-24.564l-0.43281 2.2414-7.6866 39.813-8.8512-20.802 10.179-21.245v-8.8875l-3.2477-7e-3 -14.513 8.8875-4.0265 9.5157v-9.5157zm81.332 0v46.454h27.11v-11.083h-9.5065v-35.37zm29.947 0v46.454h18.104v-46.454zm36.641 0v46.454h27.11v-11.083h-9.5065v-35.37zm29.946 0v46.454h18.105v-46.454zm23.153 0v46.454h15.413v-13.329l5.7514 13.329h15.024v-46.454h-15.098v14.901l-6.6098-14.901zm40.573 0v38.028l0.3623 0.63588c3.5956 6.3167 11.216 8.9752 18.54 8.8288 7.3249 0.14654 14.946-2.512 18.541-8.8288l0.36235-0.63588v-38.028h-18.152v36.343c-0.35622 0.40088-0.63941 0.56207-0.75126 0.5634-0.11176-2e-3 -0.39436-0.16221-0.75026-0.56238v-36.344h-14.765zm38.524 0.44437 1.0452 3.1024 5.4392 18.471-6.3648 19.992v4.4438h17.478l2.3312-9.2319 1.3588 5.3813 0.97236 3.8506h17.478v-4.4438l-6.3648-19.992 6.6247-21.841v-8.8875l-15.026 8.7103h-2.5415l-2.5017 7.3845-2.5017-7.3845h-2.5415l-14.885-8.4432zm-220.73 21.463c0.50184 2.7894 0.83515 4.6425 1.0666 5.9291-0.26629 0.0569-0.89627 0.26949-1.0666 0.27864-0.1703-9e-3 -0.8003-0.22172-1.0667-0.27864 0.23152-1.2865 0.56483-3.1396 1.0667-5.9291z" color="#000000" color-rendering="auto" dominant-baseline="auto" fill="#0b0b0b" image-rendering="auto" shape-rendering="auto" solid-color="#000000" stroke-opacity=".38164" stroke-width=".96786" style="font-feature-settings:normal;font-variant-alternates:normal;font-variant-caps:normal;font-variant-ligatures:normal;font-variant-numeric:normal;font-variant-position:normal;isolation:auto;mix-blend-mode:normal;paint-order:stroke fill markers;shape-padding:0;text-decoration-color:#000000;text-decoration-line:none;text-decoration-style:solid;text-indent:0;text-orientation:mixed;text-transform:none;white-space:normal"/>
    <path d="m348.46 259.78v46.454h18.52v-9.5381l3.0772 9.5381h36.06l0.20011-2.5486s0.2385-3.0551 0.42249-5.4034c0.36303-0.0326 0.72237-0.0717 1.1014-0.0776 0.37924 6e-3 0.73808 0.0451 1.1013 0.0776 0.18416 2.3483 0.42357 5.4034 0.42357 5.4034l0.20004 2.5486h19.526l-8.9686-46.454h-24.564l-0.43282 2.2414-7.6866 39.813-8.8512-20.802 9.9025-21.252h-17.485l-4.0265 9.5157v-9.5157zm81.332 0v46.454h27.11v-11.083h-9.5065v-35.37zm29.947 0v46.454h18.104v-46.454zm36.641 0v46.454h27.11v-11.083h-9.5065v-35.37zm29.946 0v46.454h18.105v-46.454zm23.153 0v46.454h15.413v-13.329l5.7514 13.329h15.024v-46.454h-15.098v14.901l-6.6098-14.901zm40.573 0v38.028l0.36228 0.63588c3.5956 6.3167 11.216 8.9752 18.54 8.8288 7.3249 0.14654 14.946-2.512 18.541-8.8288l0.36236-0.63588v-38.028h-18.479v36.343c-0.35623 0.40088-0.6394 0.56207-0.75126 0.56341-0.11177-2e-3 -0.39435-0.16222-0.75024-0.56238v-36.344h-14.438zm38.524 0 1.0452 3.5468 5.4392 18.471-6.3648 24.436h17.478l2.3312-9.2319 2.3312 9.2319h17.478l-6.3648-24.436 6.4843-22.018h-17.427l-2.5017 7.3845-2.5017-7.3845h-13.171zm-221.26 21.908c0.50185 2.7894 0.83515 4.6425 1.0666 5.9291-0.26629 0.0569-0.89628 0.26949-1.0666 0.27864-0.1703-9e-3 -0.80029-0.22172-1.0667-0.27864 0.23153-1.2865 0.56483-3.1396 1.0667-5.9291z" color="#000000" color-rendering="auto" dominant-baseline="auto" fill="#fff" image-rendering="auto" shape-rendering="auto" solid-color="#000000" stroke-width=".96786" style="font-feature-settings:normal;font-variant-alternates:normal;font-variant-caps:normal;font-variant-ligatures:normal;font-variant-numeric:normal;font-variant-position:normal;isolation:auto;mix-blend-mode:normal;paint-order:stroke fill markers;shape-padding:0;text-decoration-color:#000000;text-decoration-line:none;text-decoration-style:solid;text-indent:0;text-orientation:mixed;text-transform:none;white-space:normal"/>
    <path d="m350.94 262.51v40.981h13.008v-18.253c0-1.0678 1.6071-1.1528 1.8751-0.32152l5.9926 18.574h13.078l-9.5809-22.519 8.6016-18.462h-11.329l-7.1327 16.856c-0.29207 0.6902-1.5041 0.67207-1.5041-0.0881v-16.768zm46.683 0-7.912 40.981h13.638s0.36933-4.7099 0.55391-7.0648c0.0336-0.42783 0.81004-0.71626 1.6567-0.83078 0.68516-0.0927 1.3773-0.13931 2.0769-0.14848 0.69969 9e-3 1.3918 0.0558 2.0769 0.14848 0.84666 0.11452 1.6232 0.40295 1.6566 0.83078 0.18467 2.3548 0.55391 7.0648 0.55391 7.0648h13.638l-7.912-40.981zm34.764 0v40.981h21.61v-5.5609h-7.7143c-1.1627 0-1.8049-0.67881-1.8049-1.8051v-33.615zm29.989 0v40.981h12.591v-40.981zm36.693 0v40.981h21.61v-5.5609h-7.7145c-1.1626 0-1.8047-0.67881-1.8047-1.8051v-33.615zm29.989 0v40.981h12.591v-40.981zm23.186 0v40.981h9.8956v-19.407c0-0.62882 1.364-1.4184 1.896-0.18551l8.4543 19.592h10.455v-40.981h-9.5808v19.235c0 1.0792-1.9934 1.4976-2.6576 0l-8.5319-19.235zm40.185 0v34.579c2.9054 5.104 9.5406 7.5915 16.16 7.445 6.6198 0.14659 13.255-2.3409 16.16-7.445v-34.579h-12.64v34.579c-0.95229 1.5863-2.2386 2.3789-3.521 2.3836-1.2824-5e-3 -2.5684-0.79736-3.5207-2.3836v-34.579h-12.016zm39.956 0 5.6647 19.235-5.6647 21.747h11.763l3.5623-14.109c0.17577-0.69596 0.53292-1.1182 0.92879-1.2697 0.39603 0.15144 0.75344 0.57359 0.9292 1.2697l3.562 14.109h11.763l-5.6644-21.747 5.6644-19.235h-11.763l-3.5915 10.601c-0.1787 0.52731-0.52645 0.83452-0.89972 0.91111-0.3732-0.0767-0.72086-0.38393-0.89948-0.91111l-3.5916-10.601h-11.203zm-225.11 7.5624c0.42526 0.0946 0.82205 0.53727 0.9612 1.3103 0.3113 1.7305 3.2854 18.262 3.2854 18.262-2.049 0.66021-3.1763 1.0081-4.2466 1.0441-1.0703-0.036-2.1977-0.38395-4.2466-1.0441 0 0 2.9742-16.531 3.2854-18.262 0.13923-0.77295 0.53594-1.2156 0.9612-1.3103z" fill="url(#a)" stroke-width=".96923" style="paint-order:stroke fill markers"/>
  </g>
  <g shape-rendering="auto">
    <path d="m331.63 226.92c-5.5142 0-10.148 4.6332-10.148 10.147v88.48c0 5.5143 4.634 10.147 10.148 10.147h19.312v-12.444h-17.016v-83.887h348.15v83.887h-318.13v12.444h320.42c5.5143 0 10.148-4.6332 10.148-10.147v-88.48c0-5.5143-4.634-10.147-10.148-10.147z" color="#000000" color-rendering="auto" dominant-baseline="auto" image-rendering="auto" opacity=".15" solid-color="#000000" style="font-feature-settings:normal;font-variant-alternates:normal;font-variant-caps:normal;font-variant-ligatures:normal;font-variant-numeric:normal;font-variant-position:normal;isolation:auto;mix-blend-mode:normal;paint-order:stroke fill markers;shape-padding:0;text-decoration-color:#000000;text-decoration-line:none;text-decoration-style:solid;text-indent:0;text-orientation:mixed;text-transform:none;white-space:normal"/>
    <path transform="scale(.26458)" d="m1253.4 857.65c-20.841 0-38.355 17.51-38.355 38.352v20c0-20.841 17.514-38.352 38.355-38.352h1333.2c20.842 0 38.355 17.51 38.355 38.352v-20c0-20.841-17.514-38.352-38.355-38.352h-1333.2zm8.6778 364.08v20h64.314v-20h-64.314zm113.48 0v20h1202.4v-20h-1202.4z" color="#000000" color-rendering="auto" dominant-baseline="auto" image-rendering="auto" opacity=".15" solid-color="#000000" style="font-feature-settings:normal;font-variant-alternates:normal;font-variant-caps:normal;font-variant-ligatures:normal;font-variant-numeric:normal;font-variant-position:normal;isolation:auto;mix-blend-mode:normal;paint-order:stroke fill markers;shape-padding:0;text-decoration-color:#000000;text-decoration-line:none;text-decoration-style:solid;text-indent:0;text-orientation:mixed;text-transform:none;white-space:normal"/>
    <path d="m333.93 239.36v2.6458h348.15v-2.6458zm-12.444 86.183v2.6458c0 5.5143 4.634 10.148 10.148 10.148h19.313v-2.6458h-19.313c-5.5142 0-10.148-4.6334-10.148-10.148zm373.04 0c0 5.5143-4.6339 10.148-10.148 10.148h-320.42v2.6458h320.42c5.5143 0 10.148-4.6334 10.148-10.148z" color="#000000" color-rendering="auto" dominant-baseline="auto" fill="#fff" image-rendering="auto" opacity=".005" solid-color="#000000" style="font-feature-settings:normal;font-variant-alternates:normal;font-variant-caps:normal;font-variant-ligatures:normal;font-variant-numeric:normal;font-variant-position:normal;isolation:auto;mix-blend-mode:normal;paint-order:stroke fill markers;shape-padding:0;text-decoration-color:#000000;text-decoration-line:none;text-decoration-style:solid;text-indent:0;text-orientation:mixed;text-transform:none;white-space:normal"/>
  </g>
  <path d="m1016-0.0015503v2.6458h-234.7c-0.22205-0.27876-0.44108-0.55993-0.66558-0.83663-0.48291-0.61221-0.98492-1.2125-1.4919-1.8092h236.86zm-304.03 0c0.23881 0.21442 0.4781 0.42576 0.71728 0.64079 1.8767 1.694 3.697 3.4237 5.5144 5.213 1.7816 1.7908 3.598 3.5803 5.3665 5.4607 1.806 1.8539 3.4758 3.761 5.1556 5.7242 1.7217 1.9472 3.3472 3.9322 4.995 5.9681 0.12184 0.3139 0.14047 0.42584 0.55964 0.50384 1.4599 1.892 2.957 3.7576 4.3904 5.708 7.8752 10.732 14.905 22.667 20.945 35.906 2.4196 5.2929 4.6725 10.783 6.7743 16.496l59.194 19.322c0.16412 0.93307 0.32321 1.8666 0.47336 2.8003l-59.668-19.477c-2.1017-5.7128-4.3547-11.203-6.7743-16.496-6.0398-13.239-13.069-25.173-20.945-35.906-1.4335-1.9505-2.9305-3.816-4.3904-5.708-0.41917-0.078-0.4378-0.18995-0.55964-0.50384-1.6478-2.0359-3.2734-4.0208-4.995-5.9681-1.6799-1.9631-3.3496-3.8703-5.1556-5.7242-1.7686-1.8804-3.5851-3.6697-5.3665-5.4607-1.8173-1.7894-3.6377-3.5192-5.5144-5.213-0.23918-0.21503-0.47847-0.42637-0.71728-0.64079h-45.251c-1.3569-0.89425-2.7196-1.7791-4.0933-2.6458h49.344zm-91.526 0c0.10607 0.059099 0.21285 0.11697 0.31884 0.17622-0.20584-0.059398-0.41295-0.11716-0.61906-0.17622zm-197.59 0c-3.1062 0.84208-6.1994 1.7262-9.2804 2.6458l-131.54 0.0031c-108.72 65.769-186.33 176.61-208.01 306.65 0.10046-1.5235 0.21079-3.0445 0.3266-4.564 22.118-129.2 99.495-239.27 207.68-304.72l140.82-0.0031006zm-196.07 0.0031006c-1.015 0.87687-2.0246 1.76-3.0313 2.6458h-223.76v-2.6458h226.79zm121.64 14.891c9.3455-9.99e-4 18.721 0.53488 28.069 1.6004-1.6778 0.69809-3.3411 1.4083-4.9929 2.129-19.722-1.8479-39.518-1.3387-58.853 1.5957 6.1959-1.845 12.484-3.4189 18.844-4.7294 5.6244-0.39571 11.272-0.59522 16.932-0.59583zm-35.777 5.3252c-0.02 0.0061-0.041 0.01209-0.061 0.01809l0.0139-0.01137c0.016-3e-3 0.031-0.0047 0.047-0.0067zm214.86 25.783c22.965-0.10712 45.807 2.0128 67.695 6.3782 43.928 8.752 83.38 28.17 111.42 59.792l1.4542 3.7388c-0.0866 0.36623-0.25381 0.84134-0.48214 1.4061l-0.97254-2.499c-28.038-31.623-67.489-51.04-111.42-59.792-139.58-27.839-318 35.644-319.27 185.66-2e-3 -0.34496-8e-3 -0.68715-8e-3 -1.033-2e-5 -127.56 127.58-193.08 251.59-193.66zm299.56 72.789 0.0522 0.017c-0.0249 0.70434-0.0413 1.4361-0.0506 2.189-7e-3 -0.75562-8e-3 -1.4905-2e-3 -2.206zm-137.53 57.279c0.16012 7.3577 1.6821 14.664 5.2813 21.453 0.96151 1.5435 1.7291 3.2014 2.7156 4.8074 0.98175 1.5957 1.9741 3.2199 3.0855 4.8373 1.1195 1.6388 2.2392 3.28 3.425 4.9651 1.2441 1.6504 2.4007 3.38 3.7409 5.0895 22.466 28.725 45.225 52.924 65.383 80.006 1.788 2.4276 3.6004 4.9167 5.3789 7.4445 1.6107 2.2798 3.18 4.6487 4.7894 6.9891 0.12153 0.31379 0.5597 0.50321 0.60047 0.60824 1.7369 2.6044 3.4607 5.2138 5.1794 7.8977 1.7532 2.6461 3.4298 5.3715 5.0979 8.111 1.672 2.7506 3.4028 5.5615 5.0114 8.3962 1.5878 2.8432 3.1877 5.716 4.7815 8.6049 0.85145 1.2607 1.3818 2.622 2.0407 4.0055 0.96958 1.5644 1.7368 3.231 2.5016 4.887 1.5195 2.9781 2.9382 6.0105 4.2695 9.1222 0.32573 0.83777 0.66965 1.6801 0.98958 2.5445 0.9164 2.3565 2.1262 4.5368 3.1559 6.8733 0.63351 1.6708 1.3442 3.4575 1.9999 5.1437l1.7678 4.545c1.2632 3.2588 2.2353 6.6799 3.4131 10.02 2.2604 6.7415 4.2246 13.646 6.0414 20.767 0.79641 3.597 1.6112 7.2458 2.3647 10.919 0.71103 3.6904 1.3992 7.3786 2.0515 11.164 30.736-13.81 65.693-21.182 103.64-23.977 1.2777 0.80665 2.5169 1.6009 3.7031 2.3885-39.375 2.581-75.604 9.9765-107.34 24.234-0.6523-3.7859-1.3405-7.4741-2.0515-11.164-0.75349-3.6732-1.5683-7.322-2.3647-10.919-1.8169-7.1209-3.7811-14.026-6.0414-20.767-1.1779-3.3406-2.15-6.7616-3.4131-10.02l-1.7678-4.545c-0.65568-1.6862-1.3663-3.4729-1.9999-5.1437-1.0296-2.3367-2.2394-4.5164-3.1559-6.8727-0.31993-0.86439-0.66385-1.7073-0.98958-2.545-1.3312-3.112-2.75-6.1441-4.2695-9.1222-0.7648-1.656-1.532-3.3226-2.5016-4.8871-0.65888-1.3834-1.1892-2.7448-2.0407-4.0055-1.5938-2.8889-3.1943-5.7618-4.782-8.6049-1.6087-2.8347-3.339-5.6459-5.0109-8.3962-1.6682-2.7395-3.3446-5.4649-5.0979-8.111-1.7189-2.6839-3.4427-5.2932-5.1794-7.8977-0.0408-0.10504-0.47894-0.29445-0.60046-0.60824-1.6094-2.3404-3.1787-4.7093-4.7894-6.9892-1.7786-2.5276-3.5909-5.017-5.3789-7.4445-20.159-27.082-42.918-51.281-65.383-80.006-1.3401-1.7095-2.4967-3.4393-3.7409-5.0895-1.1859-1.6851-2.3056-3.3263-3.425-4.9651-1.1115-1.6174-2.1038-3.2416-3.0855-4.8373-0.98649-1.6059-1.7541-3.2639-2.7156-4.8074-4.0303-7.6027-5.4572-15.853-5.2813-24.099zm116.35 16.17c0.26891 8e-3 0.56982 0.13918 0.78858 0.23564 0.43576 0.19169 0.72674 0.31991 0.88986 0.73948 6.3645 8.7388 5.2564 36.184 7.187 44.746l-0.45939-0.13643c-1.3314-10.624-0.94233-34.02-6.7277-41.965-0.1631-0.41957-0.45407-0.54779-0.88986-0.73948-0.21875-0.0965-0.51966-0.22764-0.78858-0.23564v5.2e-4c-0.0896-3e-3 -0.17585 8e-3 -0.25425 0.0387l0.0501 0.1943c-0.50959 0.0226-1.0613 0.13692-1.542 0.37415h-5.2e-4c-0.4823 0.23278-0.89682 0.57347-1.1431 1.0299-1.2373 2.3877-3.1329 5.5863-3.6478 8.4732-0.76982-3.3962 2.0133-7.9649 3.6478-11.119 0.24626-0.45643 0.66077-0.79713 1.1431-1.0299h1e-3c0.48072-0.23722 1.0319-0.35155 1.5415-0.37415l-0.0501-0.1943c0.0784-0.0306 0.16461-0.0413 0.25425-0.0387v-5.2e-4zm-650.02 55.895c-1.3e-4 5.2e-4 -3.4e-4 1e-3 -5e-4 2e-3l-5.3e-4 -5.1e-4zm-5e-4 2e-3c23.72 36.84 52.493 65.637 89.391 93.892 38.412 79.014 158.7 158.5 298.58 126.19 90.222-20.84 150.53-23.665 205.58 53.268 13.245 18.509 21.786 35.028 26.789 50.011h-0.91519c-5.103-14.277-13.403-29.938-25.872-47.363-55.049-76.932-115.36-74.106-205.58-53.268-139.87 32.311-260.15-47.175-298.58-126.19-36.898-28.254-65.671-57.051-89.391-93.894l-7e-3 -1e-3c-4.7722 16.033-8.5134 32.34-11.146 48.884-2.9106 18.912-4.3984 37.713-4.5423 56.295 0.0171-19.442 1.5018-39.131 4.5505-58.94 2.633-16.544 6.3745-32.85 11.146-48.884zm68.931 14.344c0.0734 17.74 2.4996 29.575 2.1218 34.53-0.29488-6.043-2.128-17.146-2.128-32.692 0-0.61446 4e-3 -1.2259 6e-3 -1.8381zm624.44 1.1136c0.56613 7.173-2.7302 7.6323-13.547 4.237l-3.1403 8.461c-0.17404-0.41968-0.34519-0.84208-0.51106-1.2687l3.6515-9.8381c9.2905 2.9165 13.034 2.9908 13.547-1.5911zm-653.01 55.39c0.10284 0.099 0.20375 0.19965 0.30953 0.29559-1.886 13.468-2.8535 26.86-2.9538 40.11-0.0154-13.343 0.84964-26.834 2.6443-40.407zm42.833 34.499c0.0357 0.018 0.0707 0.0382 0.10647 0.0558-0.15245 3.2218-0.23487 6.4322-0.25323 9.6302-0.0184-3.2162 0.0296-6.4452 0.14676-9.686zm-32.115 19.355c0.0902 38.089 9.7006 74.58 26.85 106.77 3.4771 6.461 7.1759 12.777 11.202 18.883 2.0284 3.0458 4.1407 6.0586 6.3142 9.0116 2.1207 2.9734 4.3764 5.8337 6.6764 8.6774 2.3098 2.8395 4.6574 5.5911 7.0976 8.3316 1.5314 1.7678 3.2723 3.4779 4.8942 5.1985 0.85017 0.94719 1.7097 1.915 2.6648 2.8215 2.5521 2.6249 5.2027 5.1646 7.894 7.6511 2.6953 2.4968 5.4453 4.8868 8.2377 7.2614 2.8024 2.3707 5.6662 4.6452 8.593 6.8709 2.9421 2.232 5.898 4.4129 8.9394 6.4978 3.0456 2.0954 6.1147 4.0986 9.2748 6.0533 2.5818 1.5933 5.2014 3.135 7.8548 4.6286h-4.5815c-1.0998-0.65262-2.1947-1.3122-3.2813-1.9828-3.1599-1.9547-6.2293-3.9578-9.2748-6.0533-3.0414-2.0848-5.9972-4.2656-8.9394-6.4978-2.927-2.2255-5.7906-4.5002-8.593-6.8709-2.7924-2.3747-5.5424-4.7648-8.2377-7.2614-2.6913-2.4866-5.3419-5.0262-7.894-7.6511-0.95519-0.90648-1.8148-1.8743-2.6648-2.8215-1.622-1.7207-3.3628-3.4308-4.8942-5.1985-2.4402-2.7405-4.7878-5.4922-7.0976-8.3316-2.3001-2.8437-4.5558-5.7041-6.6764-8.6774-2.1737-2.9532-4.2859-5.966-6.3142-9.0116-4.0258-6.106-7.7247-12.422-11.202-18.883-17.545-32.932-27.201-70.37-26.842-109.41zm-55.549 0.0765c0.0607 45.362 10.358 88.999 28.948 128.34 2.0734 4.4026 4.2364 8.7206 6.4883 12.992 1.1849 2.1191 2.2723 4.2894 3.4499 6.3878 1.1772 2.0984 2.3512 4.1888 3.638 6.2568 4.964 8.3308 10.305 16.429 16.03 24.236 1.4678 1.9135 2.908 3.8742 4.3608 5.7811 1.4673 1.9131 2.9506 3.8084 4.441 5.6885 1.5645 1.8517 3.0427 3.7348 4.5884 5.5697 0.94304 1.106 1.8818 2.2182 2.8307 3.3284h-2.2593c-0.19312-0.22725-0.38695-0.45585-0.58031-0.68264-1.5457-1.8348-3.0239-3.7179-4.5883-5.5697-1.4904-1.8801-2.9734-3.7753-4.4404-5.6885-1.453-1.9068-2.8932-3.8676-4.3608-5.7811-5.725-7.807-11.067-15.904-16.031-24.236-1.2868-2.0681-2.4608-4.1581-3.638-6.2563-1.1776-2.0983-2.2651-4.2685-3.4499-6.3878-2.252-4.2714-4.415-8.5896-6.4883-12.992-18.951-40.102-29.284-84.674-28.94-130.99zm-64.759 2.1869c0.32123 70.81 20.152 138.3 55.043 196.4h-1.5704c-34.342-58.219-53.638-125.69-53.472-196.4zm501.62 28.831c3.3813 0.0112 6.7653 0.10459 10.149 0.28009 5.1948 0.34519 10.375 0.88459 15.529 1.6159-2.7059 0.44407-5.403 1.0077-8.1001 1.6583-2.4722-0.25309-4.949-0.46357-7.4289-0.62837-27.072-1.404-54.157 2.4616-79.752 11.384 5.2165-2.727 10.533-5.2257 15.934-7.494 17.511-4.5799 35.549-6.8756 53.667-6.8156z" fill="#fff" opacity=".005" stroke-width=".99998" style="paint-order:fill markers stroke"/>
</svg>
