<svg width="3840" height="2160" version="1.1" viewBox="0 0 1016 571.5" xmlns="http://www.w3.org/2000/svg" xmlns:xlink="http://www.w3.org/1999/xlink">
	<defs>
		<linearGradient id="a">
			<stop stop-color="#367bf0" offset="0"/>
			<stop stop-color="#23bac2" offset="1"/>
		</linearGradient>
		<linearGradient id="c" x1="811.47" x2="-151.12" y1="793.59" y2="15.439" gradientUnits="userSpaceOnUse" xlink:href="#a"/>
		<linearGradient id="b" x1="1153.3" x2="1397.2" y1="875.6" y2="875.6" gradientUnits="userSpaceOnUse" xlink:href="#a"/>
		<filter id="h" x="-.013388" y="-.010873" width="1.0268" height="1.0217" color-interpolation-filters="sRGB">
			<feGaussianBlur stdDeviation="3.6818734"/>
		</filter>
		<filter id="g" x="-.013273" y="-.01095" width="1.0265" height="1.0219" color-interpolation-filters="sRGB">
			<feGaussianBlur stdDeviation="3.6501712"/>
		</filter>
		<filter id="f" x="-.024727" y="-.023314" width="1.0495" height="1.0466" color-interpolation-filters="sRGB">
			<feGaussianBlur stdDeviation="3.7107373"/>
		</filter>
		<filter id="e" x="-.027602" y="-.021229" width="1.0552" height="1.0425" color-interpolation-filters="sRGB">
			<feGaussianBlur stdDeviation="2.5455061"/>
		</filter>
		<filter id="d" x="-.057299" y="-.096849" width="1.1146" height="1.1937" color-interpolation-filters="sRGB">
			<feGaussianBlur stdDeviation="8.9351949"/>
		</filter>
		<filter id="i" x="-.025172" y="-.063175" width="1.0503" height="1.1263" color-interpolation-filters="sRGB">
			<feGaussianBlur stdDeviation="18.677604"/>
		</filter>
	</defs>
	<path d="m0 0h1016v571.5h-1016z" fill="#1f222a" style="paint-order:fill markers stroke"/>
	<path transform="scale(.26458)" d="m1929.3 756.11a3.5564 3.5197 0 0 0-0.3476 0.02149 3.5564 3.5197 0 0 0-0.0235 0c-69.847 0.10129-116 5.654-116.37 5.6992-0.0015 2.3e-4 -0.2618 0.02735-0.2618 0.02735a3.5564 3.5197 0 0 0 0.6016 7.0098s254.81-11.912 459 69.324c7.2879 30.851 26.523 78.137 37.891 103.27-15.475 10.511-32.08 21.181-45.738 38.113-14.336 17.774-25.169 42.3-28.053 79.805-5.8525 76.076 60.079 142.68 141.62 144.73 75.613 3.9842 127.02 4.5328 189.6 36.635 29.227 16.013 56.454 48.929 76.783 89.137 20.341 40.229 33.834 87.692 36.256 132.45a3.5564 3.5197 0 0 0 7.0976 0.086c0.0227-0.1369 0-0.322 0-0.459 2.626-34.273-2.4879-87.323-23.248-137.79-17.388-42.273-46.115-82.518-90.281-107.76 63.477 17.156 99.822 49.037 120.71 78.172 23.971 33.429 27.478 62.906 27.48 62.93a3.5564 3.5197 0 0 0 7.0801-0.0273s3.1521-36.47-22.275-76.654c-25.428-40.182-79.408-84.098-191.94-100.44-28.505-4.1392-64.478-7.3211-100.93-7.4122a3.5564 3.5197 0 0 0-0.0547 0c-88.219 1.1543-132.7-48.609-139.62-99.652-3.4621-25.521 2.5974-51.372 17.578-71.404 14.981-20.032 38.817-34.373 71.666-36.914a3.5564 3.5197 0 0 0 0.0234 0c53.936-4.4043 119.72 24.455 184.41 54.242-0.0642 7.3995 0.5967 14.864 6.0606 21.623 3.6581 4.5249 10.256 7.6686 16.973 10.809 6.7166 3.1399 13.633 5.9844 16.375 7.541 6.2341 3.5414 27.027 16.748 39.285 32.539a3.5564 3.5197 0 0 0 5.959-0.4882c0.0642-0.118 1.9275-2.2446 4.3867-4.2813 2.4595-2.0364 5.5758-4.3581 8.6152-6.5234 6.0791-4.331 11.838-8.0371 11.838-8.0371a3.5564 3.5197 0 0 0-2.0195-6.4727s-0.8682 0.0537-3.6602-0.4746c-2.7919-0.5275-7.2303-1.641-13.545-3.9766-5.8115-2.1493-12.758-6.8035-18.113-11.012-2.6776-2.104-4.9776-4.0932-6.6054-5.584-0.1954-0.1791-0.2762-0.2666-0.4512-0.4296 1.7014-1.5151 1.9355-3.9362 1.5918-5.459-0.3511-1.5564-1.0384-2.8123-1.8067-4.041-1.5368-2.4574-3.4916-4.6492-4.8417-5.9844 0.2025 0.2003-0.4009-0.498-1.004-1.3692-0.6028-0.8711-1.3791-2.0479-2.2519-3.4062-1.7455-2.7169-3.8851-6.1705-5.9668-9.5742-4.1638-6.8075-7.8916-13.08-8.2891-13.736 0 0-0.9054-1.8846-2.6523-3.039a3.5564 3.5197 0 0 0-0.8828-0.42383c-1.972-0.62767-3.5372-0.48033-5.5606-0.37696-2.0232 0.10356-4.267 0.34242-6.3945 0.61133-3.5545 0.4495-5.7587 0.84703-6.7266 1.0137-2.3942-1.2492-21.216-11.562-28.129-32.578a3.5564 3.5197 0 0 0-6.9355 1.1836c0.0382 1.38-2.0699 5.4948-1.6133 11.715-8.3561-4.9829-15.545-12.901-21.807-29.211a3.5564 3.5197 0 0 0-6.6329-0.05078c-2.398 5.9684-2.5434 10.967-2.0566 14.838-7.9369-3.6937-20.934-11.826-23.766-27.98a3.5564 3.5197 0 0 0-6.7774-0.77344c-2.3332 5.4442-2.5399 9.9494-2.1484 13.58-14.8-6.2812-55.543-20.951-116.33-21.277-11.734-1.0666-21.061-6.8814-28.721-15.596-7.6599-8.7152-13.472-20.334-17.592-32.363-4.1194-12.031-6.5582-24.459-7.6601-34.717-1.102-10.258-0.6349-18.746 0.1347-21.178a3.5564 3.5197 0 0 0-1.7343-4.1602s-74.348-38.71-219.69-55.723c-54.491-6.3796-105.29-8.3326-147.51-8.2852h-0.0059zm178.66 76.635c-2.9383-8.1e-4 -5.9075 0.01085-8.9063 0.0332l-0.0214-0.00391c-22.146 0.16517-45.916 0.98333-70.896 2.7402-133.43 9.3865-267.74 55.52-267.74 55.52a3.5564 3.5197 0 0 0 2.0332 6.7383s273.98-68.048 502.87-28.158a3.5564 3.5197 0 0 0 0.6192 0.05078 3.5564 3.5197 0 0 0 3.3945-4.5606l-5.9804-19.105a3.5564 3.5197 0 0 0-2.7774-2.4219s-61.512-10.807-152.6-10.832zm302.61 40.389a3.5564 3.5197 0 0 0-1.2187 6.7773h0.0215c62.472 25.133 116.65 58.35 158.65 104.02a3.5564 3.5197 0 0 0 0.1171 0.1211 3.5564 3.5197 0 0 0 2.75 1.0273l10.192-0.66406a3.5564 3.5197 0 0 0 2.5117-5.75s-59.006-70.766-171.51-105.26c-0.0227 0-0.0339-0.02357-0.0547-0.02735a3.5564 3.5197 0 0 0-0.2617-0.09179 3.5564 3.5197 0 0 0-0.0332 0 3.5564 3.5197 0 0 0-1.0938-0.1543h-0.0078a3.5564 3.5197 0 0 0-0.0684 0zm-148.86 0.32812c-23.55-0.09902-96.014 2.841-204.86 36.547-136.59 42.299-214.33 102.43-214.33 102.43a3.5564 3.5197 0 0 0 3.9258 5.8457s202.25-111.63 430-117.97a3.5564 3.5197 0 0 0 3.2793-4.623l-6.5489-19.605a3.5564 3.5197 0 0 0-3.1347-2.4082s-2.9402-0.17869-8.2012-0.20703c-0.0302-2.3e-4 -0.0219 0-0.0469 0a3.5564 3.5197 0 0 0-0.0879 0l0.0079-0.00782zm595.2 34.225c-9.8585 0.07862-18.512 6.4416-21.787 15.916-1.0705 3.0804-1.3809 6.1967-1.3808 9.4277v317.59c0.3647 13.234 10.493 23.555 23.32 23.588 26.888 0.0378 82.258-0.0996 82.258-0.0996h0.0176l-0.0997-24.58h-80.764c-0.4287-2.6401-0.3216-313.43 0.0957-314.88 1.9625-0.26463 368.54-0.25925 552.34-0.0957h0.0117c30.631 0.02726 56.186 0.05823 74.127 0.09375 0.0034 1e-5 0.0104-1e-5 0.0137 0 8.9635 0.01775 16.031 0.03702 20.875 0.05664 0.0027 1e-5 9e-3 -1e-5 0.0117 0 4.8333 0.01961 7.4634 0.04116 7.5528 0.0625 0.3937 2.3971 0.2785 313.22-0.1524 314.88h-544.46v0.0019h-0.0117v24.58h0.0117v2e-3s0.847 0.0125 1.4297 0.0156c0.678 0.0044 1.1362-7e-4 1.6563 0.0195h543.72c0.6142-0.0062 1.2219-0.0375 1.8262-0.0918 8.9962-0.8028 16.785-6.8483 19.9-15.658 1.0704-2.9934 1.3769-6.0767 1.3769-9.2324v-318.19c-0.2049-10.511-7.2016-19.743-17.102-22.537h-0.0078c-2e-3 -5.7e-4 -0.0039-0.00139-0.0059-0.00196l-0.0195-0.02148c-2.6216-0.7169-5.2367-0.84766-7.9453-0.84766h-656.81zm303.19 93.248c-0.1019 0.1998-0.1889 0.3725-0.2617 0.5293-0.0317 0.0687-0.0505 0.1279-0.0762 0.1914-0.0331 0.0813-0.0731 0.1677-0.0957 0.2442-7e-4 0.0023-0.0013 0.0055-2e-3 0.0078-22.065 60.483-44.105 120.99-66.162 181.46-1e-3 0.0028-0.0029 0.0051-0.0039 0.0079-0.0116 0.0118-0.0106 0.0328-0.0195 0.0468-0.0265 0.0446-0.0539 0.09-0.0625 0.1446-0.0126 0.0751-0.0137 0.1534-0.0137 0.2128v0.1915c0 0.0785 0.0961 0.1161 0.1133 0.207h30.289l0.0547 0.0117c0.0012-0.0035 0.0027-0.0062 0.0039-0.0098h2e-3c0.2327-0.6873 0.4979-1.2768 0.7012-1.916 8e-4 -0.0025 0.0011-0.0053 0.0019-0.0078 4.6892-13.618 9.3839-27.214 14.086-40.844 9e-4 -0.0026 1e-3 -0.0053 0.0019-0.0079 0.3903-1.093 0.7804-2.1879 1.1602-3.2851 8e-4 -0.0025 1e-3 -0.0053 0.0019-0.0078 0.3798-1.0972 0.7508-2.1954 1.1035-3.293 0.2799-0.9184 0.7382-1.3995 1.6856-1.2832 0.3069 0.0364 0.6628 0 0.9746 0h66.209c5.9848 16.95 11.926 33.778 17.848 50.607h30.992c-9e-4 -0.0025-1e-3 -0.0053-0.0019-0.0078h0.0058c-22.358-61.235-44.622-122.23-66.842-183.21h-31.693zm-116.49 0.6153c-1.7272 0-2.8154 0.5125-3.9551 1.8828-23.077 27.937-46.212 55.877-69.342 83.781-0.3069 0.3572-0.7065 0.6766-1.373 1.3047v-69.496c0-5.7522 0.0967-11.52 0-17.275h-29.022v0.0079h-0.0059v182.23c2.304 0.4134 27.514 0.3263 29.068-0.1016v-0.0098c7e-4 -1e-4 0.0032 2e-4 0.0039 0v-2.3183l-0.0801-0.0098v-63.562c0-0.6205 0.0793-1.1592 0.2559-1.6465 0.0275-0.0751 0.0514-0.1519 0.084-0.2246v-0.0019c0.0592-0.1335 0.1279-0.2625 0.205-0.3887 0.2375-0.386 0.5627-0.7412 0.9922-1.082 4.8026-3.8821 9.5401-7.8747 14.279-11.838 0.4728-0.3588 0.9299-0.6774 1.5195-1.1172 0.5113 0.6754 0.9429 1.2286 1.3399 1.8359 8.0558 11.88 16.119 23.751 24.17 35.611 9.8784 14.611 19.773 29.156 29.631 43.697 0.5475 0.8442 1.0497 1.4824 2.2636 1.4824 10.38-0.0363 20.748-0.0351 31.117-0.0351 0.3432 0 0.6974-0.1175 1.2442-0.2442-0.0016-0.0024-0.0023-0.0054-0.0039-0.0078h0.0019c-22.954-34.173-45.814-68.108-68.744-102.25 4.6132-5.4743 9.0752-10.739 13.533-16.139 4.4695-5.286 8.9224-10.591 13.385-15.914 4.4556-5.3093 8.8785-10.625 13.346-15.94 4.458-5.3269 8.9226-10.643 13.33-15.955 4.438-5.2719 8.8446-10.547 13.549-16.234h-0.0059c0.0018-0.0022 4e-3 -0.0036 0.0059-0.0059h-2.6153c-9.3935 0-18.783 0.057-28.178-0.039zm235.18 0.1953c-1e-4 4e-4 1e-4 0.0073 0 0.0078h-0.0039c-0.4842 2.2785-0.3672 180.95 0.0957 182.45h104.4v-0.0098h0.0039v-25.385h-50.361c-4.2338 0-8.4997 0.0378-12.715 0-4.1547-0.0378-8.2925 0.1552-12.602-0.0996v-142.87l-0.0234-0.0254c0-4.719 0.1683-9.3941-0.1348-14.068h-28.662zm124.36 0.0566v0.0059h-2e-3v182.34h28.914c0.0012-0.0039 7e-4 -6e-3 0.0019-0.0098 0.0468-0.1494 0.087-0.2623 0.1172-0.3652 8e-4 -0.0028 0.0012-7e-3 2e-3 -0.0098 0.0304-0.1049 0.0488-0.1974 0.0488-0.3008v-180.6l-0.0137 0.0019c0-0.2831-0.0016-0.5187-0.0976-0.8125 0-0.0786-0.0957-0.1003-0.0957-0.1562 0-0.0378-0.1153-0.0977-0.1153-0.0977h-28.76zm-814.9 20.34c0.078-0.0096 0.1597-0.0042 0.2441 0.0117 2.0432 0.4075 5.9031 7.9122 9.4434 13.272 0.311 0.4356 0.6273 0.9011 0.9257 1.2676 0 0.034 8e-4 0.0526 0.0235 0.0859 0.4001 0.5647 0.8025 1.1506 1.1855 1.6211 0.1928 1.1207 0.5152 1.8051-2.1347 1.2656-0.2238-1.1523-0.6055-1.4863-0.6055-1.4863s-6.3984-3.7642-8.3594-6.4356c-1.9624-2.6716-2.3104-7.343-1.3535-9.1152 0.1752-0.3 0.3875-0.4566 0.6309-0.4863zm587.39 5.1894c0.1505 0.2343 0.2856 0.4242 0.3926 0.5938 0.0013 2e-3 0.0026 0.0057 0.0039 0.0078 0.0079 0.0126 0.01 0.0228 0.0176 0.0351 0.0967 0.1572 0.1743 0.3012 0.2129 0.4473 0.0587 0.224 0.1244 0.4461 0.1836 0.6699 3.6086 13.642 8.1624 26.991 12.717 40.344 8e-4 0.0025 0.0011 0.0053 0.0019 0.0078 1.5425 4.5224 3.0843 9.0465 4.5879 13.582 7e-4 2e-3 0.0013 0.0039 2e-3 0.0059 1.2493 3.7744 2.5215 7.5374 3.7988 11.301 1.2789 3.7687 2.5626 7.5373 3.8359 11.318 0.1928 0.6731 0.3857 1.3489 0.6192 2.1797h-51.996c0.2307-0.7828 0.4265-1.4605 0.6504-2.1348 6.1037-18.067 12.295-36.054 18.242-54.17 2.3864-7.2806 4.1871-14.792 6.2187-22.217 0.1713-0.5616 0.2812-1.1262 0.5117-1.9707zm-226.37 268.35c-5.5107 4e-4 -9.7609 1.6533-12.725 4.9532-2.9756 3.3059-4.4668 8.0287-4.4668 14.186 0 4.6182 0.8362 8.4428 2.5019 11.478 0.0011 2e-3 0.0028 0.0039 0.0039 0.0059 0.2767 0.5037 0.578 0.989 0.9004 1.4492 8e-4 0.0012 0.0012 0.0027 2e-3 0.0039 0.3226 0.46 0.6668 0.898 1.0351 1.3145 0.0016 0.0017 0.0024 0.0041 0.0039 0.0058 0.3678 0.4159 0.7569 0.8059 1.1641 1.1699 2.8632 2.5616 6.703 3.8399 11.527 3.8399 5.4561 0 9.661-1.6889 12.631-5.0469 2.975-3.3726 4.4629-8.0834 4.4629-14.166 0-6.0883-1.4751-10.811-4.4512-14.16-0.3718-0.4205-0.7633-0.8158-1.1738-1.1836-0.4077-0.3654-0.8354-0.7041-1.2813-1.0175-0.0014-0.0011-0.0024-0.0029-0.0039-0.0039-0.4455-0.313-0.9108-0.5984-1.3945-0.8594-2e-3 -0.0011-0.0038-0.0028-0.0058-0.0039-2.4292-1.3094-5.3394-1.9646-8.7286-1.9649h-0.0019zm183.55 0.0645c-3.6446 0-6.5546 0.8986-8.7188 2.6758-2.1655 1.7869-3.2461 4.2398-3.2461 7.3457 0 2.4898 0.6856 4.6121 2.0567 6.3867 0.3397 0.4424 0.7414 0.8719 1.205 1.289 0.0025 0.0023 0.0054 0.0037 0.0078 0.0059 0.2298 0.2064 0.4743 0.411 0.7344 0.6113 0.0023 0.0018 0.0036 0.0042 0.0059 0.0059 0.2609 0.2007 0.5367 0.3972 0.8281 0.5918 0.0028 0.0019 5e-3 4e-3 0.0078 0.0058 0.2914 0.1944 0.5982 0.3859 0.9199 0.5743 0.9751 0.5716 2.0891 1.1168 3.3438 1.6347 1.6087 0.6646 2.9482 1.2833 4.0137 1.8575 1.0607 0.5728 1.8517 1.1014 2.3671 1.5878 1.0288 0.9761 1.5469 2.1572 1.5469 3.5411 0 1.5483-0.5575 2.7838-1.6855 3.707-1.12 0.9145-2.8766 1.375-5.2422 1.375-1.6057 0-3.3568-0.2298-5.2266-0.6875-1.8791-0.4614-3.6375-1.0874-5.3008-1.8887v5.7676c0.0018 9e-4 0.0041 0.0011 0.0059 2e-3v0.0019c0.3269 0.1614 0.6657 0.3114 1.0156 0.4531 2.4658 1.0004 5.5025 1.5137 9.1133 1.5137 4.1342 0 7.3728-0.9529 9.7246-2.8359 2.3464-1.8821 3.5215-4.4862 3.5215-7.8008 0-1.6958-0.2968-3.152-0.875-4.3906-0.5746-1.2496-1.498-2.3598-2.7441-3.3496h0.0097c-0.0017-0.0014-0.0041-0.0026-0.0058-4e-3 -0.3129-0.2456-0.67-0.4969-1.0703-0.7519l-2e-3 -2e-3c-0.0011-7e-4 -0.0028-0.0012-0.0039-0.0019-0.4007-0.255-0.8461-0.5153-1.334-0.7793-0.9821-0.5315-2.1413-1.0825-3.4746-1.6485-2.3918-1.0031-4.0422-1.8166-4.9512-2.4335-0.9221-0.6107-1.5744-1.2585-1.9687-1.9395-0.4094-0.6951-0.6113-1.5239-0.6113-2.4941 0-1.4086 0.5004-2.5525 1.498-3.4004 0.9965-0.8713 2.4653-1.293 4.4004-1.293 2.5394 0 5.4412 0.6893 8.6934 2.0898l1.8847-4.9648c-0.0019-9e-4 -4e-3 -0.0011-0.0058-0.0019v-2e-3c-3.4475-1.5677-6.9352-2.3535-10.438-2.3535zm142.96 0c-3.6464 0-6.5465 0.8986-8.709 2.6758-2.1644 1.7869-3.2519 4.2398-3.2519 7.3457 0 2.4898 0.6849 4.6121 2.0527 6.3867 0.3398 0.4424 0.7419 0.8719 1.2051 1.289 0.0024 0.0023 0.0053 0.0037 0.0078 0.0059 0.2311 0.2078 0.4764 0.4136 0.7383 0.6152l0.0019 2e-3c0.2603 0.2004 0.5356 0.3975 0.8262 0.5918 0.1492 0.0998 0.3135 0.1966 0.4707 0.2949 0.1522 0.0951 0.2973 0.1916 0.457 0.2852 0.0026 0.0015 0.0053 0.0024 0.0078 0.0039 0.0647 0.0378 0.1373 0.0737 0.2032 0.1113 0.9261 0.5291 1.9649 1.037 3.1347 1.5195 1.6134 0.6646 2.9534 1.2833 4.0176 1.8575 1.0604 0.5728 1.8493 1.1014 2.3652 1.5878 1.0288 0.9761 1.543 2.1572 1.543 3.5411 0 1.5483-0.5582 2.7838-1.6797 3.707-1.1219 0.9145-2.8734 1.375-5.2422 1.375-1.6038 0-3.3579-0.2298-5.2168-0.6875-1.8904-0.4614-3.6474-1.0874-5.3222-1.8887v5.7676c0.0018 9e-4 4e-3 0.0011 0.0058 2e-3v0.0019c0.3283 0.1614 0.6686 0.3114 1.0196 0.4531 2.4727 1.0004 5.509 1.5137 9.125 1.5137 4.129 0 7.3778-0.9529 9.7246-2.8359 2.3428-1.8821 3.5176-4.4862 3.5176-7.8008 0-1.6958-0.3044-3.1518-0.879-4.3906-0.5902-1.2496-1.5031-2.3594-2.7441-3.3496-0.0021-0.0017-0.0057-0.0023-0.0078-4e-3 -0.311-0.2456-0.6664-0.4969-1.0664-0.7519l-2e-3 -2e-3c-0.0011-7e-4 -0.0027-0.0012-0.0039-0.0019-0.4003-0.255-0.8469-0.5153-1.3359-0.7793-0.9846-0.5315-2.1484-1.0825-3.4902-1.6485-1.185-0.5027-2.1949-0.9566-3.0215-1.3632-0.4106-0.2021-0.7743-0.3923-1.0938-0.5703-0.3207-0.1787-0.5954-0.3458-0.8222-0.5-0.9108-0.6107-1.5741-1.2585-1.9688-1.9395-0.3938-0.6951-0.5996-1.5239-0.5996-2.4941 0-1.4086 0.4952-2.5525 1.5-3.4004 0.9964-0.8713 2.4672-1.293 4.3906-1.293 2.5508 0 5.45 0.6893 8.7012 2.0898l1.8848-4.9648c-0.0027-0.0012-0.0052-0.0027-0.0079-0.0039-0.4287-0.1948-0.8593-0.3763-1.289-0.5469-0.0027-0.0011-0.0051-0.0028-0.0078-0.0039-3.027-1.2007-6.0788-1.8027-9.1387-1.8027zm72.416 0c-3.547 0-6.6466 0.7734-9.2734 2.3222-2.6239 1.5464-4.6338 3.7725-6.0254 6.6817-1.3912 2.9183-2.0879 6.3109-2.0879 10.182 0 6.1632 1.4356 10.893 4.3047 14.193 0.7165 0.8307 1.5106 1.5557 2.3828 2.1777l2e-3 2e-3c0.4336 0.3091 0.8872 0.5919 1.3593 0.8496 0.0021 0.0011 0.0038 0.0028 0.0059 0.0039 0.4723 0.2574 0.9638 0.4893 1.4746 0.6953 2.0539 0.83 4.4184 1.2461 7.0918 1.2461 3.6215 0 6.8735-0.5657 9.7383-1.6523v-5.2422c-0.0014 4e-4 -0.0025 0.0015-0.0039 0.0019v-0.0039c-1.56 0.5051-3.0756 0.9061-4.5254 1.2305-1.4426 0.3107-2.9505 0.4629-4.4942 0.4629-2.2301 0-4.1352-0.4582-5.7129-1.375-2e-3 -0.0012-0.0038-0.0027-0.0058-0.0039-0.6292-0.3663-1.2056-0.8067-1.7305-1.3184l-0.0039-0.0039-0.0019-2e-3c-0.2611-0.2554-0.509-0.5288-0.7442-0.8203-1.8867-2.3421-2.834-5.8175-2.834-10.377 0-4.3826 0.9866-7.7935 2.9512-10.287 1.9641-2.4896 4.6546-3.7246 8.0801-3.7246l0.0039-0.0039c0.7554 0 1.4938 0.0544 2.2168 0.166 0.3595 0.0556 0.7149 0.1243 1.0664 0.209 2e-3 4e-4 0.0039 0.0014 0.0058 0.0019 0.3514 0.0848 0.6997 0.1841 1.043 0.2988 0.0014 5e-4 0.0045 0.0015 0.0059 2e-3 0.6841 0.2236 1.349 0.4656 1.998 0.7266 0.0027 1e-3 0.0052 0.0028 0.0078 0.0039 0.648 0.2607 1.2792 0.5384 1.8946 0.8339 0.0026 0.0013 0.0052 0.0027 0.0078 4e-3l2.1445-5.0743c-0.0013-6e-4 -0.0026-0.0013-0.0039-0.0019v-2e-3c-3.1593-1.6046-6.6206-2.4023-10.338-2.4023zm-472.92 0.5215 12.107 23.047v14.26h0.0137v2e-3h5.9961v-14.465l12.164-22.838h-0.0136l0.0019-0.0039h-6.498l-8.6309 17.016-8.6386-17.012h-0.0079l-0.0039-0.0058h-6.4902zm168.65 0v37.309h0.0098v0.0039h20.652v-5.1797h-0.0098v-0.0039h-14.666v-11.705h13.758v-5.1074h-0.0136v-2e-3h-13.744v-10.156h14.676v-5.1543h-0.0098v-0.0039h-20.652zm169.73 0.0019v37.314h0.0117v0.0039h20.639v-5.1875h-0.0118v-0.0039h-14.674v-11.705h13.773v-5.1035h-0.0136v-0.0039h-13.76v-10.154h14.686v-5.1563h-0.0118v-0.0039h-20.639zm85.285 0v37.314h0.0117v0.0039h20.652v-5.1875h-0.0117v-0.0039h-14.668v-11.705h13.754v-5.1035h-0.0117v-0.0039h-13.742v-10.154h14.68v-5.1563h-0.0117v-0.0039h-20.652zm-457.72 2e-3v37.307h0.0117v0.0059h13.18c4.0769 0 7.2638-0.9313 9.5586-2.8438 2.2862-1.9015 3.4257-4.5263 3.4257-7.873 0-2.4894-0.6106-4.4524-1.8105-5.9082-0.7582-0.9161-1.7816-1.6395-3.0664-2.1739-0.7661-0.3192-1.6267-0.5712-2.582-0.7578v-0.25c2.0622-0.3682 3.6477-1.2808 4.75-2.7226 1.0876-1.4436 1.6386-3.2597 1.6386-5.4395 0-3.2308-1.1123-5.6001-3.3554-7.0937-0.5592-0.3736-1.209-0.7-1.9434-0.9805-0.3667-0.1406-0.7538-0.2694-1.1641-0.3867-0.0043-0.0013-0.0093-0.0027-0.0136-0.0039-2.0541-0.5852-4.6534-0.8789-7.791-0.8789h-10.838zm138.03 0v37.301l-0.0039 0.0039h0.0156l-0.0039 0.0039h5.9297v-15.316h13.758v-5.1739h-0.0117v-0.0019h-13.746v-11.658h14.678v-5.1563h-0.0137v-0.0019h-20.602zm32.338 0v37.301l-0.0059 0.0039h0.0176l-0.0039 0.0039h5.9238v-15.316h13.758v-5.1739h-0.0137v-0.0019h-13.744v-11.658h14.684v-5.1563h-0.0098v-0.0019h-20.605zm66.018 0v37.307h0.0098v2e-3h5.4199v-19.385c0-2.6231-0.136-5.5139-0.3574-8.6777l-0.1133-1.6504h0.1817l17.965 29.715h0.0098l0.0019 0.0039h7.3008v-37.305h-0.0117v-0.0058h-5.461v19.549l-0.0214-0.0019c0 1.3717-0.0017 3.2863 0.1699 5.75 0.0967 2.4638 0.1702 3.8875 0.1894 4.2753h-0.123l-17.912-29.574h-0.0098l-0.0019-0.0019h-7.2364zm78.383 0.0039v37.309h0.0196v0.0039h5.9707v-37.307h-0.0176v-0.0058h-5.9727zm15.896 0.0019 12.734 37.305h0.0156l2e-3 0.0059h6.2988l12.787-37.307h-0.0156l0.0019-0.0039h-6.2011l-7.5996 23.09c-0.2899 0.8207-0.6546 2.0866-1.1133 3.7832-0.4376 1.6783-0.7732 3.1675-0.9883 4.4414-0.153-0.8481-0.4256-2.1187-0.8672-3.8399-0.4592-1.7461-0.8672-3.1685-1.2832-4.2773l-7.6172-23.195h-0.0156v-2e-3h-6.1387zm197.93 0v24.043c0 4.2756 1.2554 7.6506 3.7695 10.098 1.5772 1.5376 3.543 2.5894 5.9043 3.1621 0.0014 3e-4 0.0025 0.0016 0.0039 0.0019 0.4658 0.1129 0.9468 0.2077 1.4434 0.2832 1.0104 0.1549 2.0838 0.2344 3.2226 0.2344 3.046 0 5.6729-0.564 7.8633-1.6699 2.1845-1.1098 3.8569-2.7072 5.0156-4.7657 1.1617-2.064 1.7364-4.4811 1.7364-7.2343v-24.146h-0.0196v-0.0039h-5.9629v23.549h-0.0039c0 6.0388-2.8082 9.0645-8.4414 9.0645-1.0768 0-2.0536-0.1024-2.9258-0.3067-0.2916-0.069-0.5714-0.1485-0.8398-0.2402h-2e-3c-1.0751-0.3677-1.964-0.9194-2.6601-1.6484-1.4007-1.4553-2.0977-3.7255-2.0977-6.8086v-23.609h-0.0176v-2e-3h-5.9882zm81.186 2e-3v37.305h0.0215v0.0039h5.9688v-37.307h-0.0196v-0.0019h-5.9707zm16.646 0v5.2402h2e-3 10.726v32.064h0.0176v0.0039h5.9609v-32.068h10.727 0.0215v-5.2383h-0.0215v-0.0019h-27.434zm-54.441 0.0019v37.309h0.0195v2e-3h5.9668v-14.906h5.875l8.7266 14.896h0.0195l2e-3 2e-3h6.8027l-10.309-16.508c4.7321-1.9732 7.0872-5.2684 7.0899-9.9219v-0.0078c-0.0017-3.632-1.1342-6.344-3.3848-8.1582-1.4229-1.1246-3.3262-1.9007-5.707-2.3243-0.2015-0.036-0.4206-0.0589-0.629-0.0898-0.276-0.0408-0.5439-0.0873-0.832-0.1191-1.0309-0.1148-2.1384-0.1739-3.3242-0.1739h-10.316zm87.754 0 12.117 23.049v14.258h5.9941 0.0215v-14.465l12.164-22.838h-0.0215l0.0019-0.0019-6.498-2e-3 -8.627 17.01-8.6308-17.006h-0.0195l-2e-3 -0.0039h-6.5zm-551.67 4.6485c0.4428 0 0.874 0.0181 1.2891 0.0547 2.8953 0.262 5.1186 1.4165 6.6875 3.4843 1.7784 2.3623 2.6777 5.836 2.6777 10.41 0 4.6406-0.9013 8.1345-2.7011 10.477-1.8203 2.3507-4.486 3.5293-8.0391 3.5293-0.8898 0-1.7248-0.0743-2.5059-0.2227-2.3296-0.4491-4.174-1.5612-5.5351-3.334-1.8049-2.371-2.7129-5.857-2.7129-10.445 0-4.574 0.9119-8.0455 2.7422-10.41 1.8164-2.368 4.5192-3.5429 8.0976-3.5429zm-102.08 0.4433h5.1621c1.3402 0 2.4967 0.0961 3.4766 0.2891 0.9842 0.1965 1.7889 0.4913 2.416 0.8867 1.2338 0.7823 1.8457 2.0548 1.8457 3.8067 0 1.9363-0.5673 3.3006-1.7168 4.1171-1.1426 0.7998-2.9756 1.2149-5.4688 1.2149h-5.7148v-10.314zm571.98 0.0684h3.9414c0.6793 0 1.3163 0.0285 1.9102 0.0859 1.7714 0.174 3.1607 0.6038 4.1621 1.2852 1.359 0.9231 2.0195 2.4345 2.0195 4.5449 0 2.0756-0.6101 3.6447-1.8613 4.7012-1.2411 1.0478-3.2642 1.5801-6.0469 1.5801v0.0019h-4.125v-12.199zm-571.98 15.191h6.0371c0.6624 0 1.2834 0.029 1.8613 0.0879 0.2782 0.0288 0.5482 0.063 0.8067 0.1055 0.0012 2e-4 0.0027-2e-4 0.0039 0 1.3373 0.2202 2.4097 0.6244 3.2109 1.2109 1.3096 0.9232 1.9512 2.3738 1.9512 4.3105 0 2.1105-0.6202 3.6486-1.9043 4.6329v0.0019c-1.281 0.976-3.1516 1.4707-5.6562 1.4707h-6.3106v-11.82z" color="#000000" color-rendering="auto" dominant-baseline="auto" filter="url(#i)" image-rendering="auto" shape-rendering="auto" solid-color="#000000" stroke="#000" stroke-width="5" style="font-feature-settings:normal;font-variant-alternates:normal;font-variant-caps:normal;font-variant-ligatures:normal;font-variant-numeric:normal;font-variant-position:normal;isolation:auto;mix-blend-mode:normal;shape-padding:0;text-decoration-color:#000000;text-decoration-line:none;text-decoration-style:solid;text-indent:0;text-orientation:mixed;text-transform:none;white-space:normal"/>
	<rect transform="rotate(-37.564)" x="-147.3" y="-125.54" width="107.95" height="942.27" filter="url(#h)" opacity=".3" style="paint-order:normal"/>
	<path d="m141.09 93.075 221.33 287.77v-137.34l-115.7-150.43z" filter="url(#e)" opacity=".3" style="paint-order:normal"/>
	<rect transform="rotate(-37.564)" x="-36.142" y="-135.83" width="83.728" height="948.49" opacity=".25" style="paint-order:normal"/>
	<rect transform="rotate(-37.564)" x="-144.31" y="-89.661" width="21.032" height="921.87" fill="#1d1f27" style="paint-order:normal"/>
	<path transform="scale(.26458)" d="m533.24 331.78 836.52 1087.6v-519.07l-437.29-568.57h-399.22z" fill="url(#b)" style="paint-order:normal"/>
	<path d="m-107.73-75.517-85.568 65.811 24.429 31.763 16.487-12.68 550.03 715.15 69.081-53.131z" filter="url(#g)" opacity=".3" style="paint-order:normal"/>
	<path transform="scale(.26458)" d="m-407.17-305.42-323.41 248.73 92.33 120.05 62.314-47.926 2078.8 2702.9 261.09-200.81-2171.2-2823z" fill="#272a34" style="paint-order:normal"/>
	<path d="m-45.087-131.39-66.369 51.045 254.53 330.94h105.63z" filter="url(#f)" opacity=".3" style="paint-order:normal"/>
	<path transform="scale(.26458)" d="m-170.41-516.58-250.84 192.93 962.01 1250.8h399.22l-1110.4-1443.7z" fill="url(#c)" style="paint-order:normal"/>
	<g transform="matrix(.63013 0 0 .62362 465.08 121.29)" fill="#f6f6f6" stroke-width=".42207">
		<g transform="translate(2.0107)" fill="#f6f6f6" stroke-width=".42207">
			<g shape-rendering="auto" stroke-width=".42207">
				<path transform="translate(-3324.5,-1663.4)" d="m3394.5 1789.7a1.4933 1.4933 0 0 0-0.1485 0.01 1.4933 1.4933 0 0 0-0.01 0c-29.328 0.043-48.706 2.3987-48.863 2.4179-6e-4 1e-4 -0.1093 0.012-0.1093 0.012a1.4933 1.4933 0 0 0 0.2519 2.9747s106.99-5.0541 192.73 29.412c3.0601 13.089 11.137 33.151 15.91 43.814-6.4979 4.4595-13.47 8.9863-19.205 16.17-6.0197 7.5408-10.568 17.947-11.779 33.859-2.4574 32.277 25.226 60.533 59.463 61.404 31.749 1.6904 53.334 1.9231 79.611 15.543 12.272 6.7938 23.704 20.759 32.24 37.818 8.5411 17.068 14.206 37.205 15.223 56.195a1.4933 1.4933 0 0 0 2.9804 0.037c0.01-0.058 0-0.1373 0-0.1954 1.1026-14.541-1.0448-37.048-9.7617-58.461-7.3012-17.935-19.363-35.01-37.908-45.721 26.653 7.2789 41.914 20.805 50.686 33.166 10.065 14.183 11.538 26.689 11.539 26.699a1.4933 1.4933 0 0 0 2.9726-0.012s1.3232-15.473-9.3535-32.522c-10.677-17.048-33.342-35.681-80.594-42.615-11.969-1.7561-27.074-3.1059-42.381-3.1445a1.4933 1.4933 0 0 0-0.023 0c-37.042 0.4897-55.718-20.623-58.625-42.279-1.4537-10.828 1.0906-21.796 7.3808-30.295 6.2903-8.4988 16.299-14.584 30.092-15.662a1.4933 1.4933 0 0 0 0.01 0c22.647-1.8686 50.27 10.376 77.432 23.014-0.027 3.1394 0.2507 6.3062 2.5449 9.1738 1.536 1.9198 4.3068 3.2538 7.127 4.586s5.7238 2.5388 6.875 3.1992c2.6176 1.5025 11.349 7.1054 16.496 13.805a1.4933 1.4933 0 0 0 2.5019-0.207c0.027-0.05 0.8092-0.9524 1.8418-1.8165 1.0327-0.864 2.341-1.8488 3.6172-2.7675 2.5525-1.8375 4.9707-3.4102 4.9707-3.4102a1.4933 1.4933 0 0 0-0.8476-2.7461s-0.3648 0.023-1.5371-0.2012c-1.1723-0.2238-3.0361-0.6965-5.6875-1.6874-2.4402-0.9119-5.3568-2.8865-7.6055-4.6719-1.1243-0.8927-2.0899-1.7367-2.7734-2.3692-0.082-0.076-0.1161-0.1124-0.1895-0.1816 0.7144-0.6428 0.8123-1.6703 0.668-2.3164-0.1475-0.6603-0.4352-1.1936-0.7578-1.7149-0.6453-1.0426-1.4663-1.9725-2.0332-2.539 0.085 0.085-0.1687-0.2105-0.4219-0.5801-0.2531-0.3696-0.5788-0.869-0.9453-1.4453-0.7329-1.1527-1.6317-2.6184-2.5058-4.0625-1.7483-2.8882-3.3136-5.5496-3.4805-5.8281 0 0-0.3798-0.7993-1.1133-1.2891a1.4933 1.4933 0 0 0-0.3711-0.1797c-0.828-0.2663-1.4844-0.2039-2.334-0.1601-0.8495 0.044-1.7922 0.1456-2.6855 0.2597-1.4925 0.1907-2.4178 0.359-2.8242 0.4297-1.0053-0.53-8.9083-4.9054-11.811-13.822a1.4933 1.4933 0 0 0-2.9121 0.502c0.016 0.5855-0.8694 2.3317-0.6777 4.9707-3.5086-2.1141-6.5273-5.4733-9.1563-12.393a1.4933 1.4933 0 0 0-2.7851-0.022c-1.0069 2.5322-1.0677 4.6527-0.8633 6.295-3.3326-1.5671-8.7894-5.0173-9.9785-11.871a1.4933 1.4933 0 0 0-2.8457-0.3282c-0.9797 2.3098-1.0668 4.2214-0.9024 5.7618-6.2144-2.6649-23.322-8.8889-48.844-9.0274-4.9269-0.4525-8.8428-2.92-12.059-6.6172-3.2163-3.6976-5.657-8.6263-7.3867-13.73-1.7297-5.1042-2.7541-10.378-3.2168-14.73s-0.2662-7.9526 0.057-8.9844a1.4933 1.4933 0 0 0-0.7285-1.7656s-31.218-16.423-92.244-23.641c-22.881-2.7068-44.211-3.5359-61.938-3.5157zm71.266 32.527c-9.2988 0.07-19.279 0.4167-29.768 1.1621-56.026 3.9824-112.42 23.555-112.42 23.555a1.4933 1.4933 0 0 0 0.8535 2.8594s115.04-28.871 211.15-11.947a1.4933 1.4933 0 0 0 0.2597 0.022 1.4933 1.4933 0 0 0 1.4258-1.9355l-2.5117-8.1055a1.4933 1.4933 0 0 0-1.1661-1.0273s-27.521-4.8856-67.814-4.5821zm130.84 17.123a1.4933 1.4933 0 0 0-0.029 0 1.4933 1.4933 0 0 0-0.5117 2.875h0.01c26.231 10.663 48.981 24.757 66.617 44.133a1.4933 1.4933 0 0 0 0.049 0.051 1.4933 1.4933 0 0 0 1.1543 0.4356l4.2793-0.2813a1.4933 1.4933 0 0 0 1.0547-2.4394s-24.776-30.024-72.014-44.658c-0.01 0-0.015-0.01-0.023-0.012a1.4933 1.4933 0 0 0-0.1094-0.039 1.4933 1.4933 0 0 0-0.014 0 1.4933 1.4933 0 0 0-0.459-0.066zm-62.533 0.1387c-9.8882-0.042-40.315 1.2056-86.016 15.506-57.354 17.946-89.996 43.457-89.996 43.457a1.4933 1.4933 0 0 0 1.6484 2.4805s84.921-47.363 180.55-50.051a1.4933 1.4933 0 0 0 1.3769-1.9609l-2.75-8.3184a1.4933 1.4933 0 0 0-1.3164-1.0215s-1.2343-0.076-3.4433-0.088c-0.013-1e-4 -0.01 0-0.02 0a1.4933 1.4933 0 0 0-0.037 0zm137.21 63.086c0.8579 0.1729 2.4783 3.357 3.9648 5.6308 0.1306 0.1848 0.2634 0.3817 0.3887 0.5372 0 0.014 0 0.023 0.01 0.037 0.168 0.2396 0.3373 0.4879 0.4981 0.6875 0.081 0.4755 0.2162 0.766-0.8965 0.5371-0.094-0.4889-0.2539-0.6309-0.2539-0.6309s-2.6864-1.597-3.5098-2.7304c-0.824-1.1335-0.9701-3.1153-0.5683-3.8672 0.098-0.1697 0.2233-0.231 0.3711-0.2012z" color="#000000" color-rendering="auto" dominant-baseline="auto" fill="#fff" image-rendering="auto" solid-color="#000000" style="font-feature-settings:normal;font-variant-alternates:normal;font-variant-caps:normal;font-variant-ligatures:normal;font-variant-numeric:normal;font-variant-position:normal;isolation:auto;mix-blend-mode:normal;shape-padding:0;text-decoration-color:#000000;text-decoration-line:none;text-decoration-style:solid;text-indent:0;text-orientation:mixed;text-transform:none;white-space:normal"/>
			</g>
		</g>
	</g>
	<g transform="matrix(.49844 0 0 .50952 715.43 166.13)" clip-rule="evenodd" fill-rule="evenodd">
		<path d="m81.17 145.29c-5.2331 0.0408-9.8259 3.3438-11.564 8.2637-0.56825 1.5996-0.73438 3.2187-0.73438 4.8965v164.92c0.19351 6.8719 5.5697 12.231 12.379 12.248 14.273 0.0189 43.666-0.0508 43.666-0.0508l-0.0527-12.764h-42.871c-0.22753-1.371-0.17072-162.77 0.05078-163.51 1.3133-0.18331 346.9-0.11711 347.66 0.0606 0.209 1.2448 0.14852 162.66-0.0801 163.51h-289.02v12.766s1.1283-1e-3 1.6445 0.0176h288.62c5.1761-0.0514 9.763-3.2979 11.527-8.1777 0.5682-1.5544 0.73047-3.1562 0.73047-4.7949v-165.23c-0.1088-5.4584-3.823-10.252-9.0781-11.703h-0.0176c-1.3916-0.37228-2.779-0.43945-4.2168-0.43945zm160.93 48.426c-0.10811 0.2075-0.1858 0.35815-0.22852 0.5-11.713 31.409-23.414 62.832-35.123 94.236-0.0514 0.0514-0.0508 0.14852-0.0508 0.20899v0.0996c0 0.0408 0.0514 0.0602 0.0605 0.10742h16.078l0.0293 6e-3c0.12396-0.35829 0.26691-0.66657 0.375-1 2.4896-7.073 4.9821-14.134 7.4785-21.213 0.41529-1.1378 0.82782-2.2814 1.2031-3.4238 0.14854-0.4769 0.39164-0.72641 0.89453-0.66601 0.1629 0.0189 0.35207 0 0.51757 0h35.145c3.1769 8.8018 6.3315 17.54 9.4746 26.279h16.451c-11.868-31.798-23.685-63.47-35.48-95.135zm-61.836 0.32031c-0.91684 0-1.4947 0.26694-2.0996 0.97851-12.25 14.507-24.53 29.016-36.809 43.506-0.16289 0.18556-0.37472 0.35157-0.72852 0.67774v-36.088c0-2.987 0.0514-5.9842 0-8.9727h-15.406v94.629c1.223 0.21468 14.605 0.1695 15.43-0.0527v-1.2031l-0.043-6e-3v-33.008c0-0.74445 0.21031-1.2683 0.81836-1.7402 2.5493-2.0159 5.0644-4.0885 7.5801-6.1465 0.25096-0.18633 0.49365-0.35168 0.80664-0.58008 0.27137 0.35074 0.50023 0.63776 0.71094 0.95313 4.2762 6.1693 8.5566 12.333 12.83 18.492 5.2437 7.5874 10.496 15.14 15.729 22.691 0.29065 0.43835 0.55681 0.76953 1.2012 0.76953 5.5098-0.0189 11.014-0.0176 16.518-0.0176 0.18218 0 0.36992-0.0612 0.66016-0.12695-12.185-17.746-24.32-35.37-36.492-53.1 2.4488-2.8427 4.8172-5.5772 7.1836-8.3809 2.3725-2.7449 4.7368-5.4997 7.1055-8.2637 2.3651-2.757 4.7127-5.5175 7.084-8.2774 2.3664-2.7662 4.7366-5.5268 7.0762-8.2852 2.3558-2.7376 4.6943-5.4764 7.1914-8.4297h-1.3887c-4.9863 0-9.97 0.0296-14.957-0.0195zm124.84 0.0996c-0.25701 1.1832-0.19489 93.964 0.0508 94.742h55.42v-13.184h-26.734c-2.2474 0-4.5106 0.0189-6.748 0-2.2054-0.0189-4.4021 0.0815-6.6895-0.0508v-74.188l-0.0137-0.0137c0-2.4505 0.0907-4.8794-0.0703-7.3066zm66.014 0.0293v94.686h15.348c0.051-0.15912 0.0899-0.24422 0.0899-0.35156v-93.781l-8e-3 2e-3c0-0.14702 2.1e-4 -0.26933-0.0508-0.42187 0-0.0408-0.0527-0.051-0.0527-0.0801 0-0.0189-0.0605-0.0527-0.0605-0.0527zm-120.77 13.252c0.16291 0.24869 0.28976 0.40065 0.33399 0.56445 2.5735 9.6091 6.0907 18.932 9.2852 28.357 1.327 3.922 2.7018 7.8218 4.0527 11.746 0.1028 0.35112 0.20536 0.70253 0.33007 1.1367h-27.605c0.12319-0.40895 0.22823-0.76152 0.34765-1.1133 3.24-9.3819 6.5265-18.722 9.6836-28.129 1.2668-3.7807 2.2224-7.6812 3.3008-11.537 0.0911-0.29216 0.14864-0.58553 0.27148-1.0254zm-120.16 139.35c-2.9257 0-5.1805 0.85852-6.7539 2.5723-1.5795 1.7167-2.3711 4.1681-2.3711 7.3652 0 3.1975 0.78678 5.6649 2.3574 7.4024 1.5675 1.7358 3.8113 2.6016 6.7363 2.6016 2.8962 0 5.1286-0.87734 6.7051-2.6211 1.5792-1.7513 2.3691-4.1969 2.3691-7.3555 0-3.1615-0.78352-5.6142-2.3633-7.3535-1.5736-1.741-3.8004-2.6113-6.6797-2.6113zm97.432 0.0332c-1.9346 0-3.48 0.46586-4.6289 1.3887-1.1495 0.92791-1.7227 2.2036-1.7227 3.8164 0 1.2929 0.36394 2.3949 1.0918 3.3164 0.7214 0.91892 1.968 1.7317 3.7402 2.4473 1.7079 0.69018 2.8419 1.2844 3.3906 1.791 0.54609 0.50684 0.82031 1.1193 0.82031 1.8379 0 0.80402-0.29574 1.4464-0.89453 1.9258-0.59449 0.47489-1.5256 0.71485-2.7812 0.71485-0.85233 0-1.7828-0.1197-2.7754-0.35743-0.9975-0.23962-1.9316-0.56437-2.8144-0.98046v2.9941c1.3961 0.67514 3.1884 1.0215 5.377 1.0215 2.1945 0 3.9137-0.49489 5.1621-1.4727 1.2455-0.9773 1.8691-2.3296 1.8691-4.0508 0-0.88059-0.15791-1.6361-0.46484-2.2793-0.30501-0.64887-0.79554-1.2262-1.457-1.7402h6e-3c-0.66795-0.51306-1.7115-1.0665-3.127-1.6543-1.2696-0.52089-2.1464-0.94335-2.6289-1.2637-0.48949-0.31711-0.83557-0.65416-1.0449-1.0078-0.21732-0.36095-0.32422-0.79108-0.32422-1.2949 0-0.73146 0.26538-1.3253 0.79493-1.7656 0.52898-0.45241 1.3087-0.67187 2.3359-0.67187 1.348 0 2.8889 0.35864 4.6152 1.0859l1-2.5781c-1.83-0.81408-3.68-1.2226-5.5391-1.2226zm75.889 0c-1.9356 0-3.4752 0.46586-4.623 1.3887-1.1489 0.92791-1.7266 2.2036-1.7266 3.8164 0 1.2929 0.36383 2.3949 1.0898 3.3164 0.7214 0.91892 1.9667 1.7317 3.7402 2.4473 1.7128 0.69018 2.8414 1.2844 3.3906 1.791 0.54607 0.50684 0.82031 1.1193 0.82031 1.8379 0 0.80402-0.29726 1.4464-0.89257 1.9258-0.59554 0.47489-1.5258 0.71485-2.7832 0.71485-0.85137 0-1.7809-0.1197-2.7676-0.35743-1.0035-0.23962-1.9371-0.56437-2.8262-0.98046v2.9941c1.4019 0.67514 3.1931 1.0215 5.3848 1.0215 2.1918 0 3.9164-0.49489 5.1621-1.4727 1.2436-0.9773 1.8672-2.3296 1.8672-4.0508 0-0.88059-0.16179-1.636-0.46679-2.2793-0.31332-0.64887-0.79826-1.226-1.457-1.7402-0.66399-0.51306-1.7102-1.0665-3.1348-1.6543-1.2549-0.52089-2.1395-0.94335-2.6211-1.2637-0.48344-0.31711-0.83539-0.65416-1.0449-1.0078-0.20902-0.36095-0.31836-0.79108-0.31836-1.2949 0-0.73146 0.26348-1.3253 0.79687-1.7656 0.52891-0.45241 1.3091-0.67187 2.3301-0.67187 1.354 0 2.8933 0.35864 4.6191 1.0859l1-2.5781c-1.8319-0.81408-3.6828-1.2226-5.5391-1.2226zm38.439 0c-1.8828 0-3.5294 0.40072-4.9238 1.2051-1.3928 0.80297-2.4586 1.96-3.1973 3.4707-0.73848 1.5154-1.1074 3.2771-1.1074 5.2871 0 3.2004 0.76021 5.6551 2.2832 7.3691 1.5194 1.7232 3.7 2.582 6.5352 2.582 1.9224 0 3.6492-0.29314 5.1699-0.85742v-2.7227c-0.82808 0.2623-1.6309 0.47022-2.4004 0.63867-0.76574 0.16139-1.5673 0.24219-2.3867 0.24219-1.8965 0-3.3492-0.61219-4.3555-1.832-1.0015-1.2162-1.5039-3.0211-1.5039-5.3887 0-2.2758 0.52356-4.0469 1.5664-5.3418 1.0426-1.2928 2.4708-1.9336 4.2891-1.9336l2e-3 -2e-3c0.80198 0 1.5696 0.11194 2.3027 0.35156 0.72847 0.23282 1.4182 0.5062 2.0742 0.81446l1.1387-2.6348c-1.677-0.83324-3.5131-1.248-5.4863-1.248zm-251.03 0.27148 6.4258 11.967v7.4043h3.1836v-7.5117l6.457-11.859h-3.4492l-4.584 8.8418-4.5898-8.8418zm55.191 0v19.371l-2e-3 2e-3h3.1484v-7.9531h7.3027v-2.6875h-7.3027v-6.0547h7.791v-2.6777zm17.166 0v19.371l-2e-3 2e-3h3.1445v-7.9531h7.3027v-2.6875h-7.3027v-6.0547h7.7949v-2.6777zm17.164 0v19.373h10.963v-2.6895h-7.791v-6.0801h7.3027v-2.6524h-7.3027v-5.2754h7.791v-2.6758zm17.879 0v19.373h2.877v-10.066c0-1.3621-0.0719-2.863-0.18945-4.5059l-0.0606-0.85742h0.10156l9.5371 15.432h3.875v-19.371h-2.8984v10.15h-0.0117c0 0.71233 6.9e-4 1.705 0.0918 2.9844 0.0514 1.2794 0.0894 2.0193 0.0996 2.2207h-0.0703l-9.5098-15.359zm72.221 0v19.377h10.955v-2.6934h-7.7949v-6.0801h7.3105v-2.6504h-7.3105v-5.2754h7.7949v-2.6777zm45.271 0v19.377h10.963v-2.6934h-7.793v-6.0801h7.3008v-2.6504h-7.3008v-5.2754h7.793v-2.6777zm-242.97 2e-3v19.373h6.9961c2.1641 0 3.8561-0.48349 5.0742-1.4766 1.2136-0.98744 1.8184-2.35 1.8184-4.0879 0-1.2927-0.324-2.3124-0.96093-3.0684-0.64275-0.75969-1.6401-1.2629-2.998-1.5215v-0.13086c1.0947-0.19124 1.9364-0.66541 2.5215-1.4141 0.57732-0.74963 0.86914-1.6923 0.86914-2.8242 0-1.6777-0.59051-2.908-1.7812-3.6836-1.1872-0.77586-3.1204-1.166-5.7852-1.166zm167.09 2e-3v19.373h3.1699v-19.373zm8.4356 0 6.7617 19.373h3.3438l6.7871-19.373h-3.291l-4.0332 11.99c-0.15382 0.42618-0.34637 1.0839-0.58985 1.9648-0.23469 0.88055-0.41528 1.6622-0.52929 2.3281-0.0805-0.44017-0.22709-1.1111-0.46485-2.0176-0.24378-0.90674-0.46081-1.6449-0.68164-2.2207l-4.043-12.045zm105.07 0v12.484c0 2.2202 0.66552 3.9734 2 5.2441 1.3371 1.2752 3.2 1.9102 5.6035 1.9102 1.6169 0 3.0111-0.29289 4.1738-0.86719 1.1596-0.57628 2.047-1.4057 2.6621-2.4746 0.61663-1.0718 0.92188-2.3262 0.92188-3.7559v-12.539h-3.166v12.227l-2e-3 2e-3c0 3.1358-1.4903 4.707-4.4805 4.707-1.5352 0-2.6825-0.38505-3.4219-1.1426-0.74354-0.75567-1.1133-1.9342-1.1133-3.5352v-12.26zm43.096 0v19.373h3.168v-19.373zm8.8359 0v2.7207h5.6934v16.652h3.1641v-16.652h5.7051v-2.7207zm-28.9 2e-3v19.373h3.168v-7.7402h3.127l4.6348 7.7363h3.6113l-5.4726-8.5723c2.5119-1.0246 3.7623-2.7358 3.7637-5.1523v-4e-3c-8.6e-4 -1.886-0.60223-3.2942-1.7969-4.2363-1.2053-0.93192-3.0575-1.4043-5.5586-1.4043zm46.584 0 6.4316 11.967v7.4043h3.1816v-7.5117l6.457-11.859h-3.4473l-4.5859 8.8418-4.5879-8.8418zm-292.85 2.4121c1.8832 0 3.2929 0.60843 4.248 1.8398 0.94401 1.2267 1.4219 3.031 1.4219 5.4062 0 2.4098-0.47824 4.2232-1.4336 5.4395-0.96623 1.2207-2.3816 1.834-4.2676 1.834-1.8893 0-3.316-0.61722-4.2832-1.8496-0.95807-1.2312-1.4394-3.0412-1.4394-5.4238 0-2.3752 0.48355-4.1783 1.4551-5.4062 0.96419-1.2297 2.3993-1.8398 4.2988-1.8398zm-54.186 0.23047h2.7402c1.435 0 2.4763 0.20233 3.1426 0.61328 0.65495 0.40626 0.98047 1.0669 0.98047 1.9766 0 1.0055-0.30191 1.7128-0.91211 2.1367-0.60654 0.4153-1.5789 0.63086-2.9023 0.63086h-3.0488zm303.62 0.0352h2.0918c1.4423 0 2.5227 0.23916 3.2344 0.71289 0.7214 0.47935 1.0723 1.2655 1.0723 2.3613 0 1.0778-0.32408 1.8927-0.98828 2.4414-0.65849 0.54384-1.7349 0.82005-3.2109 0.82031h-2.1992zm-303.62 7.8885h3.2051c1.4064 0 2.4556 0.24468 3.1367 0.73243 0.69516 0.47939 1.0371 1.2326 1.0371 2.2383 0 1.0959-0.33016 1.8931-1.0117 2.4043v2e-3c-0.68002 0.50684-1.6745 0.76367-3.0039 0.76367h-3.3633z" filter="url(#d)" opacity=".3" stroke-width=".78947"/>
		<path d="m434.03 145.73c-1.3916-0.37228-2.7798-0.44066-4.2176-0.44066h-348.65c-5.2331 0.0408-9.8268 3.3448-11.565 8.2647-0.56825 1.5996-0.73349 3.2186-0.73349 4.8964v164.92c0.19351 6.8719 5.5699 12.231 12.379 12.248 14.273 0.0189 43.665-0.0514 43.665-0.0514l-0.0518-12.763h-42.871c-0.22752-1.371-0.1697-162.77 0.0518-163.51 1.3133-0.18331 346.9-0.11716 347.66 0.0605 0.209 1.2448 0.1486 162.66-0.08 163.51h-289.02v12.764s1.128 0 1.6443 0.0189h288.62c5.1761-0.0514 9.7622-3.2983 11.526-8.1781 0.5682-1.5544 0.73151-3.1568 0.73151-4.7955v-165.23c-0.1088-5.4584-3.8237-10.253-9.0788-11.704zm-293.42 141.77v-33.007c0-0.74445 0.209-1.2672 0.81705-1.7392 2.5493-2.0159 5.0642-4.0891 7.5798-6.147 0.25096-0.18633 0.49496-0.35187 0.80795-0.58027 0.27137 0.35074 0.49961 0.6378 0.71032 0.95316 4.2762 6.1693 8.5557 12.332 12.829 18.491 5.2437 7.5874 10.496 15.14 15.729 22.692 0.29065 0.43835 0.55733 0.77072 1.2017 0.77072 5.5098-0.0189 11.014-0.0189 16.517-0.0189 0.18218 0 0.36964-0.0605 0.65987-0.12623-12.185-17.746-24.32-35.369-36.492-53.099 2.4488-2.8427 4.8178-5.5786 7.1841-8.3822 2.3725-2.7449 4.7365-5.4992 7.1051-8.2632 2.3651-2.757 4.7131-5.5185 7.0844-8.2783 2.3664-2.7662 4.7365-5.526 7.076-8.2844 2.3558-2.7376 4.6946-5.4765 7.1917-8.4298h-1.3883c-4.9863 0-9.97 0.0302-14.957-0.0189-0.91684 0-1.495 0.26569-2.1 0.97726-12.25 14.507-24.53 29.016-36.808 43.506-0.16289 0.18556-0.37455 0.35187-0.72835 0.67804v-36.088c0-2.987 0.0514-5.983 0-8.9715h-15.406v94.628c1.223 0.21468 14.605 0.17084 15.43-0.0514v-1.204zm82.258 1.3696c0.12396-0.35829 0.2657-0.66602 0.37378-0.99945 2.4896-7.073 4.9818-14.134 7.4782-21.213 0.41529-1.1378 0.82821-2.2819 1.2035-3.4244 0.14854-0.4769 0.39175-0.72642 0.89464-0.66602 0.1629 0.0189 0.35226 0 0.51776 0h35.144c3.1769 8.8018 6.3318 17.54 9.4749 26.279h16.452c-11.868-31.798-23.686-63.47-35.481-95.134h-16.823c-0.10811 0.2075-0.18747 0.35868-0.23019 0.50053-11.713 31.409-23.413 62.831-35.122 94.235-0.0514 0.0514-0.0514 0.14854-0.0514 0.20901v0.10054c0 0.0408 0.0514 0.0605 0.0605 0.10771h16.078zm14.223-40.766c3.24-9.3819 6.5261-18.722 9.6832-28.129 1.2668-3.7807 2.2217-7.6804 3.3002-11.536 0.0911-0.29216 0.14854-0.58538 0.27138-1.0252 0.1629 0.24869 0.29027 0.40037 0.33449 0.56417 2.5735 9.6091 6.0914 18.932 9.2859 28.358 1.327 3.922 2.7014 7.8202 4.0524 11.744 0.1028 0.35112 0.20447 0.70232 0.32919 1.1365h-27.605c0.12321-0.40895 0.22753-0.76067 0.34696-1.1124zm83.301-46.666c0-2.4505 0.0903-4.8786-0.0707-7.3058h-15.215c-0.25701 1.1832-0.19427 93.963 0.0514 94.741h55.419v-13.182h-26.733c-2.2474 0-4.5124 0.0189-6.7499 0-2.2054-0.0189-4.4016 0.0809-6.689-0.0514v-74.188zm66.157-6.7226c0-0.14702 0-0.2691-0.051-0.42164 0-0.0408-0.051-0.0514-0.051-0.0805 0-0.0189-0.061-0.0514-0.061-0.0514h-15.267v94.685h15.348c0.051-0.15912 0.09-0.24378 0.09-0.35112v-93.781z" fill="#fff" stroke-width=".52502"/>
		<path d="m82.764 356.29v-0.1304c1.0947-0.19124 1.9355-0.66595 2.5206-1.4146 0.57732-0.74963 0.86854-1.6912 0.86854-2.8231 0-1.6777-0.5904-2.9089-1.7811-3.6845-1.1872-0.77586-3.1202-1.1666-5.785-1.1666h-5.7532v19.373h6.9959c2.1641 0 3.8551-0.48344 5.0733-1.4765 1.2136-0.98744 1.8199-2.3496 1.8199-4.0876 0-1.2927-0.32428-2.312-0.96121-3.068-0.64275-0.75969-1.6397-1.2628-2.9977-1.5214zm-6.7631-6.5726h2.7406c1.435 0 2.4761 0.20258 3.1423 0.61353 0.65495 0.40626 0.98041 1.0673 0.98041 1.977 0 1.0055-0.30161 1.7136-0.91181 2.1376-0.60654 0.4153-1.5795 0.63073-2.9029 0.63073h-3.049zm6.3678 13.301c-0.68002 0.50684-1.6737 0.76369-3.0032 0.76369h-3.365v-6.1398h3.2052c1.4064 0 2.4564 0.24378 3.1376 0.73153 0.69516 0.47939 1.0361 1.2328 1.0361 2.2385 0 1.0959-0.3292 1.8941-1.0108 2.4052zm16.575-7.1074-4.5883-8.8418h-3.4449l6.4263 11.968v7.4048h3.183v-7.5126l6.4577-11.859h-3.449zm31.242-9.1457c-2.9257 0-5.1821 0.85837-6.7555 2.5721-1.5795 1.7167-2.3706 4.1688-2.3706 7.3659 0 3.1975 0.78788 5.6632 2.3585 7.4007 1.5675 1.7358 3.8113 2.6023 6.7363 2.6023 2.8962 0 5.1281-0.87658 6.7045-2.6203 1.5792-1.7513 2.3687-4.1972 2.3687-7.3557 0-3.1615-0.78286-5.6145-2.3626-7.3538-1.5736-1.741-3.8007-2.6114-6.6799-2.6114zm4.2376 15.409c-0.96623 1.2207-2.3814 1.8326-4.2675 1.8326-1.8893 0-3.3165-0.61671-4.2837-1.8491-0.95807-1.2312-1.4395-3.041-1.4395-5.4236 0-2.3752 0.48344-4.1779 1.455-5.4059 0.96419-1.2297 2.3989-1.84 4.2985-1.84 1.8832 0 3.2942 0.60854 4.2493 1.84 0.94401 1.2267 1.4213 3.0306 1.4213 5.4059 0 2.4098-0.47792 4.224-1.4333 5.4402zm11.678 4.2682h3.1482v-7.9529h7.3024v-2.6863h-7.3024v-6.0552h7.79v-2.6773h-10.936v19.37zm17.165 0h3.1457v-7.9529h7.3013v-2.6863h-7.3013v-6.0552h7.7945v-2.6773h-10.938v19.37zm17.167 0h10.963v-2.6898h-7.7915v-6.0794h7.3024v-2.6517h-7.3024v-5.2751h7.7915v-2.6773h-10.963zm31.109-9.2186c0 0.71233 0 1.7062 0.0911 2.9855 0.0514 1.2794 0.0903 2.019 0.10053 2.2204h-0.0707l-9.5093-15.359h-3.8419v19.373h2.876v-10.067c0-1.3621-0.0707-2.8623-0.18822-4.5052l-0.0605-0.85852h0.10054l9.5376 15.433h3.8752v-19.373h-2.8982v10.152zm19.992-0.0522c-0.66795-0.51306-1.7118-1.0658-3.1272-1.6536-1.2696-0.52089-2.1451-0.94404-2.6276-1.2644-0.48949-0.31711-0.83626-0.65386-1.0456-1.0075-0.21732-0.36095-0.32466-0.79193-0.32466-1.2958 0-0.73146 0.26646-1.3245 0.79601-1.7648 0.52898-0.45241 1.3069-0.67204 2.3342-0.67204 1.348 0 2.8896 0.3583 4.6159 1.0856l1.0004-2.5782c-1.83-0.81408-3.6806-1.2222-5.5397-1.2222-1.9346 0-3.4792 0.46628-4.628 1.3891-1.1495 0.92791-1.7237 2.2022-1.7237 3.815 0 1.2929 0.36359 2.3949 1.0914 3.3164 0.7214 0.91892 1.9692 1.7318 3.7415 2.4473 1.7079 0.69018 2.841 1.2854 3.3897 1.792 0.5461 0.50684 0.82121 1.1198 0.82121 1.8384 0 0.80402-0.29593 1.4462-0.89472 1.9256-0.59449 0.47489-1.5266 0.71338-2.7823 0.71338-0.85233 0-1.7827-0.11868-2.7752-0.35641-0.99749-0.23962-1.9302-0.56526-2.8131-0.98135v2.9947c1.3961 0.67514 3.1886 1.0207 5.3771 1.0207 2.1945 0 3.9126-0.49403 5.161-1.4718 1.2455-0.9773 1.8698-2.3301 1.8698-4.0513 0-0.88059-0.15836-1.6358-0.46529-2.279-0.30501-0.64887-0.79593-1.2252-1.4574-1.7392zm8.386 9.275h3.1703v-19.373h-3.1703zm18.005-7.3826c-0.15382 0.42618-0.34696 1.0838-0.59043 1.9648-0.2347 0.88055-0.41485 1.6626-0.52887 2.3286-0.0805-0.44017-0.22753-1.111-0.46529-2.0175-0.24378-0.90674-0.46028-1.6461-0.68111-2.2219l-4.0433-12.044h-3.2582l6.7601 19.372h3.3437l6.7888-19.372h-3.291zm12.607 7.3826h10.956v-2.6933h-7.7953v-6.079h7.31v-2.6518h-7.31v-5.2751h7.7953v-2.6774h-10.956zm36.885-9.275c-0.66399-0.51306-1.7102-1.0658-3.1348-1.6536-1.2549-0.52089-2.1387-0.94404-2.6203-1.2644-0.48344-0.31711-0.83622-0.65386-1.0458-1.0075-0.20901-0.36095-0.31711-0.79193-0.31711-1.2958 0-0.73146 0.26156-1.3245 0.79495-1.7648 0.52891-0.45241 1.3107-0.67204 2.3317-0.67204 1.354 0 2.8924 0.3583 4.6182 1.0856l0.99951-2.5782c-1.8319-0.81408-3.6822-1.2222-5.5385-1.2222-1.9356 0-3.4756 0.46628-4.6235 1.3891-1.1489 0.92791-1.7265 2.2022-1.7265 3.815 0 1.2929 0.36434 2.3949 1.0904 3.3164 0.7214 0.91892 1.966 1.7318 3.7395 2.4473 1.7128 0.69018 2.8426 1.2854 3.3918 1.792 0.54607 0.50684 0.81914 1.1198 0.81914 1.8384 0 0.80402-0.29632 1.4462-0.89163 1.9256-0.59554 0.47489-1.5253 0.71338-2.7827 0.71338-0.85137 0-1.7823-0.11868-2.769-0.35641-1.0035-0.23962-1.9361-0.56526-2.8251-0.98135v2.9947c1.4019 0.67514 3.1934 1.0207 5.3851 1.0207 2.1918 0 3.9152-0.49403 5.1609-1.4718 1.2436-0.9773 1.8672-2.3301 1.8672-4.0513 0-0.88059-0.16026-1.6357-0.46526-2.2789-0.31332-0.64887-0.79899-1.2251-1.4578-1.7393zm8.3868 9.275h10.962v-2.6933h-7.793v-6.079h7.3024v-2.6518h-7.3024v-5.2751h7.793v-2.6774h-10.962zm26.111-16.931c0.80198 0 1.5697 0.11188 2.3029 0.3515 0.72847 0.23282 1.4182 0.50585 2.0743 0.81411l1.1399-2.6352c-1.677-0.83324-3.5139-1.2477-5.4871-1.2477-1.8828 0-3.5288 0.40128-4.9232 1.2056-1.3928 0.80297-2.4592 1.9588-3.1979 3.4695-0.73848 1.5154-1.1083 3.2772-1.1083 5.2872 0 3.2004 0.76172 5.6564 2.2847 7.3704 1.5194 1.7232 3.6985 2.5806 6.5337 2.5806 1.9224 0 3.6504-0.29216 5.1712-0.85644v-2.7219c-0.82808 0.2623-1.6322 0.47032-2.4018 0.63877-0.76574 0.16139-1.5665 0.24076-2.3859 0.24076-1.8965 0-3.3496-0.61259-4.3559-1.8324-1.0015-1.2162-1.5026-3.0202-1.5026-5.3877 0-2.2758 0.52293-4.0467 1.5658-5.3416 1.0426-1.2928 2.4715-1.9346 4.2898-1.9346zm23.704 9.7882c0 3.1358-1.4908 4.707-4.481 4.707-1.5352 0-2.6822-0.38498-3.4215-1.1425-0.74354-0.75567-1.1133-1.9332-1.1133-3.5341v-12.26h-3.1784v12.485c0 2.2202 0.66599 3.973 2.0005 5.2437 1.3371 1.2752 3.2008 1.909 5.6043 1.909 1.6169 0 3.0099-0.29214 4.1726-0.86644 1.1596-0.57628 2.0469-1.4054 2.6621-2.4743 0.61663-1.0718 0.92191-2.3271 0.92191-3.7567v-12.539h-3.1649v12.228zm23.67-6.5839c0-1.8881-0.6014-3.2967-1.7969-4.2395-1.2053-0.93192-3.057-1.4039-5.5581-1.4039h-5.4766v19.373h3.1676v-7.7397h3.1274l4.6337 7.7356h3.6118l-5.4735-8.5724c2.5133-1.0251 3.7646-2.7373 3.7646-5.156zm-7.4638 3.3703h-2.2008v-6.336h2.0911c1.4423 0 2.5235 0.23962 3.2352 0.71335 0.7214 0.47935 1.0724 1.2642 1.0724 2.3601 0 1.0778-0.3243 1.8928-0.9885 2.4414-0.6588 0.5441-1.7328 0.82016-3.2099 0.82016zm14.695 10.357h3.1688v-19.372h-3.1688zm8.8369-16.651h5.6935v16.651h3.1643v-16.651h5.7041v-2.7211h-14.563v2.7211zm30.305-2.7195-4.5842 8.8418-4.5884-8.8418h-3.4505l6.4328 11.968v7.4041h3.1813v-7.5126l6.4581-11.859z" fill="#fff" stroke-width=".52502"/>
	</g>
</svg>
