<?xml version="1.0" encoding="UTF-8" standalone="no"?>
<svg
   width="640"
   height="480"
   version="1.1"
   viewBox="0 0 169.33 127"
   id="svg43"
   sodipodi:docname="syslinux-new.svg"
   inkscape:version="1.1.1 (3bf5ae0d25, 2021-09-20, custom)"
   xmlns:inkscape="http://www.inkscape.org/namespaces/inkscape"
   xmlns:sodipodi="http://sodipodi.sourceforge.net/DTD/sodipodi-0.dtd"
   xmlns:xlink="http://www.w3.org/1999/xlink"
   xmlns="http://www.w3.org/2000/svg"
   xmlns:svg="http://www.w3.org/2000/svg">
  <sodipodi:namedview
     id="namedview45"
     pagecolor="#ffffff"
     bordercolor="#111111"
     borderopacity="1"
     inkscape:pageshadow="0"
     inkscape:pageopacity="0"
     inkscape:pagecheckerboard="1"
     showgrid="false"
     inkscape:zoom="1.1446291"
     inkscape:cx="357.32099"
     inkscape:cy="98.285112"
     inkscape:window-width="1964"
     inkscape:window-height="1218"
     inkscape:window-x="2556"
     inkscape:window-y="441"
     inkscape:window-maximized="0"
     inkscape:current-layer="svg43"
     borderlayer="true" />
  <defs
     id="defs22">
    <filter
       id="c"
       x="-0.01569312"
       y="-0.021101909"
       width="1.0313862"
       height="1.0422038"
       style="color-interpolation-filters:sRGB">
      <feGaussianBlur
         stdDeviation="8.0153465"
         id="feGaussianBlur2" />
    </filter>
    <filter
       id="e"
       style="color-interpolation-filters:sRGB"
       x="-0.023686603"
       y="-0.022912305"
       width="1.0473732"
       height="1.051016">
      <feGaussianBlur
         stdDeviation="3"
         id="feGaussianBlur5" />
    </filter>
    <clipPath
       id="g">
      <rect
         x="20.028"
         y="47.12"
         width="129.49"
         height="56.495"
         rx="1.2769"
         ry=".98475"
         style="opacity:.2;paint-order:normal;stroke-width:.42381"
         id="rect8" />
    </clipPath>
    <filter
       id="f"
       x="-0.027153944"
       y="-0.05339146"
       width="1.0543079"
       height="1.1067829"
       style="color-interpolation-filters:sRGB">
      <feGaussianBlur
         stdDeviation="1.4197901"
         id="feGaussianBlur11" />
    </filter>
    <radialGradient
       id="a"
       cx="455.5"
       cy="-321.35"
       r="508"
       gradientTransform="matrix(.35218 .0039207 0 .3516 288.4 357.19)"
       gradientUnits="userSpaceOnUse">
      <stop
         stop-color="#23bac2"
         offset="0"
         id="stop14" />
      <stop
         stop-color="#3b6ab9"
         offset="1"
         id="stop16" />
    </radialGradient>
    <filter
       id="d"
       x="-0.025853322"
       y="-0.0592574"
       width="1.0517066"
       height="1.1185148"
       style="color-interpolation-filters:sRGB">
      <feGaussianBlur
         stdDeviation="1.3948945"
         id="feGaussianBlur19" />
    </filter>
    <radialGradient
       id="a-3-3"
       cx="509.19199"
       cy="277.0477"
       r="508"
       gradientTransform="matrix(1.4993723,0,0,1.2986325,-1270.0953,-84.837182)"
       gradientUnits="userSpaceOnUse"
       fx="509.19199"
       fy="277.0477">
      <stop
         stop-color="#316fd8"
         offset="0"
         id="stop2-6-6"
         style="stop-color:#2777ff;stop-opacity:1" />
      <stop
         stop-color="#23bac2"
         offset="1"
         id="stop4-7-7"
         style="stop-color:#622e78;stop-opacity:1" />
    </radialGradient>
    <linearGradient
       inkscape:collect="always"
       xlink:href="#linearGradient27865-3"
       id="linearGradient1411"
       gradientUnits="userSpaceOnUse"
       x1="828.55188"
       y1="-171.77519"
       x2="136.24309"
       y2="650.08893" />
    <linearGradient
       inkscape:collect="always"
       id="linearGradient27865-3">
      <stop
         style="stop-color:#23bac2;stop-opacity:1"
         offset="0"
         id="stop27861" />
      <stop
         style="stop-color:#367bf0;stop-opacity:1"
         offset="1"
         id="stop27863" />
    </linearGradient>
    <linearGradient
       inkscape:collect="always"
       xlink:href="#linearGradient27865"
       id="linearGradient1225"
       gradientUnits="userSpaceOnUse"
       x1="877.41821"
       y1="-286.21796"
       x2="489.71811"
       y2="271.81079" />
    <linearGradient
       inkscape:collect="always"
       id="linearGradient27865">
      <stop
         style="stop-color:#f8de68;stop-opacity:1"
         offset="0"
         id="stop1220" />
      <stop
         style="stop-color:#367bf0;stop-opacity:0"
         offset="1"
         id="stop1222" />
    </linearGradient>
    <linearGradient
       inkscape:collect="always"
       xlink:href="#linearGradient27865-3"
       id="linearGradient995"
       gradientUnits="userSpaceOnUse"
       x1="828.55188"
       y1="-171.77519"
       x2="136.24309"
       y2="650.08893" />
    <linearGradient
       inkscape:collect="always"
       xlink:href="#linearGradient27865-3"
       id="linearGradient997"
       gradientUnits="userSpaceOnUse"
       x1="828.55188"
       y1="-171.77519"
       x2="136.24309"
       y2="650.08893" />
    <linearGradient
       inkscape:collect="always"
       xlink:href="#linearGradient27865-3"
       id="linearGradient999"
       gradientUnits="userSpaceOnUse"
       x1="828.55188"
       y1="-171.77519"
       x2="136.24309"
       y2="650.08893" />
    <filter
       inkscape:collect="always"
       style="color-interpolation-filters:sRGB"
       id="filter1378"
       x="-0.020365928"
       y="-0.040044114"
       width="1.0407319"
       height="1.0800882">
      <feGaussianBlur
         inkscape:collect="always"
         stdDeviation="0.33982841"
         id="feGaussianBlur1380" />
    </filter>
  </defs>
  <g
     id="b"
     transform="matrix(.44498 0 0 .44498 -56.507 .0025851)">
    <g
       id="g970"
       transform="matrix(0.67234895,0,0,1.1557358,122.82835,-370.96116)"
       style="stroke-width:2.54937">
      <rect
         transform="scale(-1,1)"
         x="-1015.9999"
         y="0.012235352"
         width="1016"
         height="571.5"
         fill="url(#a)"
         style="fill:url(#a-3-3);stroke-width:2.54937;paint-order:fill markers stroke"
         id="rect12-5-5" />
      <path
         id="rect9052"
         style="opacity:0.3;fill:url(#linearGradient995);fill-opacity:1;stroke-width:2.54937;paint-order:fill markers stroke"
         d="M 1015.998,0.01096465 H 6.2948249e-5 V 434.30126 L 305.95864,254.80256 c 0,0 0.0486,-0.026 0.0491,-0.026 0.0644,-0.035 8.68701,-4.6735 22.4064,-10.8164 2.4207,-1.0838 4.39542,-2.0324 7.14116,-3.2003 0.0796,-0.034 0.16298,-0.068 0.24289,-0.1018 3.98285,-1.6853 8.7817,-3.5038 13.40072,-5.2963 2.52455,-0.9798 4.64023,-1.9059 7.33237,-2.8965 0.0432,-0.016 0.0881,-0.032 0.13126,-0.048 8.91106,-3.2689 18.7992,-6.5418 29.37031,-9.5907 0.3615,-0.1049 0.73284,-0.2057 1.09604,-0.31 10.66337,-3.0445 22.01351,-5.8626 33.89251,-8.1758 1.04241,-0.203 2.06841,-0.4196 3.1011,-0.6309 3.36151,-0.6245 6.7994,-1.1484 10.23401,-1.6842 2.27015,-0.3541 4.49778,-0.7656 6.79492,-1.0785 0.0337,0 0.0671,-0.01 0.10078,-0.014 10.4366,-1.4096 21.16527,-2.3223 32.03628,-2.6562 1.18483,-0.037 2.37326,-0.036 3.55947,-0.061 6e-4,0 9.7e-4,0 0.002,0 2.90793,7.7084 6.00834,15.0988 8.1871,19.9135 -3.15301,2.18 -6.40675,4.3274 -9.54825,6.7768 -1.57075,1.2247 -3.11367,2.525 -4.60179,3.9424 -1.48813,1.4175 -2.92137,2.9519 -4.27363,4.6457 -1.35229,1.6938 -2.62359,3.5465 -3.78685,5.6002 -1.16211,2.0516 -2.21583,4.3043 -3.13627,6.7986 -0.002,0.01 -0.004,0.01 -0.006,0.015 -0.9189,2.4926 -1.70434,5.2268 -2.32907,8.2444 -8.5e-4,0 -0.002,0.01 -0.003,0.012 -6.3e-4,0 -10e-4,0 -0.002,0.01 -2.7e-4,0 -2.7e-4,0 -5.3e-4,0 -0.6236,3.0175 -1.08691,6.318 -1.36374,9.9431 0,0 8e-5,0.01 -0.003,0.011 0,0.01 -8e-5,0.011 0,0.016 -2.9e-4,0 2.9e-4,0.01 0,0.012 -1.40139,18.557 8.28842,35.6741 23.53707,45.8412 0.007,0 0.014,0.01 0.0212,0.014 0.017,0.011 0.0342,0.023 0.0512,0.034 0.3338,0.2233 0.66497,0.4492 1.00459,0.6646 15.88321,10.2053 28.55437,20.068 39.97638,37.0298 14.36399,22.6156 12.36019,66.4158 -2.89751,98.5971 l -0.35242,0.7431 c 0.0514,-0.09 0.10001,-0.1921 0.15501,-0.2812 l -6.83471,14.393 -47.63947,100.3116 H 1015.998 Z" />
      <path
         id="path9075"
         style="opacity:0.3;fill:url(#linearGradient997);fill-opacity:1;stroke-width:2.54937;paint-order:fill markers stroke"
         d="M 6.2948249e-5,0.01196465 V 288.34216 L 274.29545,207.08306 c 0.67027,-0.1664 5.26942,-1.2428 11.25204,-2.5213 0.78018,-0.1647 1.6773,-0.3463 2.52646,-0.5214 6.6e-4,-2e-4 0.002,-4e-4 0.003,-5e-4 6.87097,-1.4229 16.24015,-3.1866 27.17197,-4.9517 0.002,-4e-4 0.003,-6e-4 0.006,-10e-4 0.76086,-0.1225 1.56493,-0.2436 2.34352,-0.3654 1.09278,-0.1719 2.17297,-0.3431 3.29644,-0.5141 4.55422,-0.6937 9.27505,-1.3789 14.29785,-2.0314 1.13088,-0.147 2.24591,-0.2963 3.39772,-0.4398 6.6e-4,-1e-4 0.001,1e-4 0.002,0 6.36161,-0.7918 13.03959,-1.5245 19.96725,-2.1632 0.003,-3e-4 0.006,-7e-4 0.009,-0.001 0.27096,-0.025 0.5398,-0.051 0.80769,-0.077 0.38642,-0.035 0.76089,-0.075 1.14877,-0.1096 7.53197,-0.6693 15.33625,-1.2225 23.33604,-1.604 6.8e-4,0 10e-4,0 0.002,0 0.22799,-0.011 0.45127,-0.026 0.67956,-0.037 5.2e-4,0 0.001,0 0.002,0 8.31897,-0.386 16.83377,-0.5925 25.45064,-0.5509 l 0.002,-5e-4 c 0.0108,1e-4 0.0217,5e-4 0.0326,5e-4 0.0119,3e-4 0.0238,5e-4 0.0356,5e-4 9.71167,0.048 19.53586,0.4332 29.32174,1.1886 0.66288,0.051 1.3255,0.1028 1.98799,0.1576 4.3225,0.3578 8.63606,0.7857 12.92686,1.3074 0.72506,0.088 1.44566,0.1917 2.16937,0.2848 4.46484,0.5743 8.91135,1.2167 13.30822,1.988 0.003,5e-4 0.006,0.001 0.009,0 0.0528,0.01 0.10591,0.018 0.15867,0.027 l -0.004,-0.012 c 0.0118,0.01 0.0227,0.01 0.0326,0.01 0.9467,0.2033 1.88997,0.4316 2.83445,0.6501 0.002,0.01 0.005,0.012 0.007,0.018 3.65281,11.1791 8.96303,24.1185 12.22097,31.318 -3.15724,2.1829 -6.41524,4.3337 -9.56066,6.7872 -1.56234,1.2186 -3.09695,2.5123 -4.5775,3.9217 -0.004,0 -0.008,0.01 -0.0119,0.011 -0.002,0 -0.005,0.01 -0.007,0.01 -1.48539,1.4154 -2.91645,2.947 -4.2664,4.6379 v 5e-4 c -1.35149,1.6928 -2.6221,3.5443 -3.78479,5.5966 -1.16237,2.0517 -2.21665,4.3042 -3.1373,6.7985 -2.6e-4,8e-4 -7.4e-4,0 -0.001,0 -4.7e-4,0 -10e-4,0 -0.002,0 -6.4e-4,0 -10e-4,0 -0.002,0 v 5e-4 c -4.2e-4,0 -6.3e-4,0 -0.001,0 -2.4e-4,7e-4 -2.9e-4,0 -5.3e-4,0 -0.92186,2.5003 -1.70897,5.2441 -2.33473,8.2729 -0.62296,3.0152 -1.08596,6.313 -1.36271,9.9348 -6e-5,7e-4 -4.5e-4,0 -5.3e-4,0 -5e-4,0 -0.001,0.01 -0.002,0.012 -5e-5,6e-4 3e-5,10e-4 0,0 v 5e-4 5e-4 c -3.9e-4,0.01 -1.3e-4,0.01 -5.3e-4,0.015 -10e-5,0 1.4e-4,0 0,0 -0.18838,2.4892 -0.16401,4.9497 0.0331,7.3742 0.008,0.096 0.0112,0.1924 0.0196,0.2884 0.20751,2.372 0.60071,4.703 1.15189,6.9866 0.0306,0.1265 0.0588,0.2526 0.0904,0.3788 0.56798,2.2723 1.30014,4.4918 2.18385,6.6497 0.0426,0.1039 0.0864,0.2064 0.1297,0.3101 0.9122,2.1852 1.97352,4.3058 3.18431,6.3459 0.0213,0.036 0.0437,0.071 0.0651,0.1064 5.00833,8.3927 12.43412,15.4321 21.3713,20.2205 0.0534,0.029 0.10618,0.057 0.15968,0.085 2.864,1.5228 5.87552,2.8222 9.01752,3.852 1.6e-4,0 3.7e-4,-10e-5 5.3e-4,0 9e-4,3e-4 0.002,7e-4 0.003,0.001 0.0357,0.024 0.0679,0.048 0.10385,0.072 1.88362,0.6064 3.73898,1.2143 5.58157,1.8303 3.6967,1.2361 7.46789,2.5902 10.93319,3.9595 1.4801,0.5848 3.02014,1.117 4.46743,1.742 0.55028,0.2377 1.09411,0.509 1.64021,0.7534 3.0186,1.3512 5.97381,2.8311 8.89402,4.4406 v 5e-4 c 0.45011,0.248 0.92226,0.4289 1.37046,0.6842 l 0.0269,0.092 c 6.1979,3.5338 12.26916,7.7021 18.42265,13.1082 19.71929,18.2847 28.72592,62.2079 22.01572,97.284 0.032,-0.098 0.0595,-0.2064 0.0946,-0.3054 l -3.77238,15.4797 -25.74158,105.6168 H 1016.0018 V -0.01223535 Z M 469.94554,196.14936 l 5e-4,0.001 0.004,-5e-4 c -10e-4,-3e-4 -0.003,-3e-4 -0.004,-5e-4 z m -4.05712,4.2891 v 5e-4 c -2.75521,0.048 -6.50375,0.2027 -11.1859,0.599 -4.68058,0.3961 -10.29406,1.0332 -16.78088,2.0453 -0.001,2e-4 -0.002,4e-4 -0.003,5e-4 -10e-4,2e-4 -0.002,4e-4 -0.003,5e-4 -10e-4,2e-4 -0.002,4e-4 -0.004,6e-4 -10e-4,1e-4 -0.003,3e-4 -0.004,5e-4 -6.48533,1.0122 -13.84342,2.3995 -22.01415,4.2948 -0.002,5e-4 -0.003,6e-4 -0.005,0 -10e-4,3e-4 -0.003,6e-4 -0.004,0.001 -0.002,4e-4 -0.003,6e-4 -0.005,0.001 -0.002,6e-4 -0.006,0 -0.008,0 -8.17036,1.8958 -17.15262,4.2999 -26.88828,7.3458 -0.003,0.001 -0.006,0 -0.009,0 -0.002,5e-4 -0.003,0 -0.005,0 -0.002,8e-4 -0.004,0 -0.007,0 -6.61575,2.0702 -12.87412,4.2483 -18.76063,6.4751 -0.002,9e-4 -0.005,0 -0.007,0 -0.003,0 -0.006,0 -0.009,0 -5.88719,2.2274 -11.40299,4.5032 -16.53284,6.7686 -5.12696,2.264 -9.86774,4.5178 -14.2105,6.7013 -0.007,0 -0.0139,0.01 -0.0207,0.01 -0.005,0 -0.009,0 -0.0139,0.01 -0.005,0 -0.008,0 -0.0124,0.01 -13.01792,6.5484 -22.44556,12.4664 -27.90785,16.1556 -0.012,0.01 -0.0175,0.012 -0.0295,0.02 -0.003,0 -0.003,0 -0.008,0.01 -0.008,0.01 -0.004,0 -0.0119,0.01 -3.60741,2.4387 -5.47976,3.9 -5.47976,3.9 0,0 0.003,0 0.003,0 h -0.003 c 0,0 0.0486,-0.026 0.0491,-0.026 8e-5,0 0.0113,-0.01 0.0114,-0.01 0.062,-0.035 2.84567,-1.5839 7.88686,-4.0891 0.002,-8e-4 10e-4,-3e-4 0.003,0 0.0118,-0.01 0.0285,-0.014 0.0403,-0.02 10e-4,-7e-4 0.004,0 0.006,0 5.06552,-2.5161 12.40332,-5.9946 21.60074,-9.8986 0.0796,-0.034 0.16298,-0.068 0.24289,-0.1018 6.14224,-2.603 13.08975,-5.386 20.7269,-8.1902 0.002,-9e-4 0.004,0 0.006,0 10e-4,-5e-4 0.003,0 0.004,0 0.0336,-0.012 0.0682,-0.024 0.10181,-0.037 0.008,0 0.017,-0.01 0.0253,-0.01 0.003,0 0.008,0 0.0114,0 8.90159,-3.2651 18.80827,-6.5257 29.35168,-9.5849 0.003,-8e-4 0.005,0 0.007,0 0.3615,-0.1049 0.73284,-0.2057 1.09604,-0.31 0.002,-7e-4 0.005,-0.001 0.007,0 5.29624,-1.5213 10.7606,-2.9651 16.38659,-4.3346 0.0573,-0.014 0.11372,-0.028 0.17106,-0.042 11.9104,-2.8936 24.41562,-5.4243 37.44163,-7.1887 0.006,-7e-4 0.011,0 0.0165,0 0.007,-9e-4 0.0145,0 0.0217,0 0.0204,0 0.0406,-0.01 0.061,-0.01 0.006,-8e-4 0.012,0 0.0181,0 0.007,-9e-4 0.0139,0 0.0207,0 5.33405,-0.7203 10.74099,-1.3209 16.20419,-1.7802 5.46317,-0.4594 10.98254,-0.7775 16.54162,-0.9338 l -2.54868,-7.7153 c 0,0 -1.8991,-0.1234 -5.51749,-0.063 -0.005,1e-4 -0.006,0 -0.0103,0 -0.0351,6e-4 -0.0184,0 -0.0537,-5e-4 z" />
      <path
         id="path9291"
         style="opacity:0.3;fill:url(#linearGradient999);fill-opacity:1;stroke-width:2.54937;paint-order:fill markers stroke"
         d="M 6.2948249e-5,0.01196465 V 182.67526 L 289.93482,158.35116 c 0.17957,-0.01 6.26803,-0.2942 16.72611,-0.2383 h 0.003 c 23.88531,0.128 69.9027,2.0598 116.73911,13.2685 3.2e-4,1e-4 7.2e-4,-1e-4 0.001,0 15.61182,3.7362 31.31476,8.5035 46.31915,14.5779 0.002,0.01 0.007,0.023 0.009,0.032 2.72732,12.1704 10.90022,32.4094 15.3045,42.1422 -12.61199,8.7201 -26.83393,16.9198 -29.05095,46.0008 -1.55372,20.4075 10.30531,39.0785 28.22723,48.6813 0.0185,0.01 0.0337,0.024 0.0522,0.034 0.0262,0.014 0.0538,0.026 0.0801,0.04 0.01,0.01 0.0204,0.01 0.03,0.013 7.5766,4.0281 16.22139,6.4493 25.40103,6.6838 0.001,0 0.002,0 0.004,0 10e-4,0 0.002,5e-4 0.003,5e-4 8.817,0.4696 16.52505,0.9021 24.07036,1.5079 3.88549,0.312 7.87136,0.7206 11.56414,1.2175 1.57689,0.2122 3.19974,0.3589 4.75475,0.6181 0.59129,0.099 1.18486,0.2318 1.77406,0.3379 3.2544,0.5866 6.47888,1.3131 9.70018,2.1741 v 5e-4 c 0.49509,0.1324 0.99555,0.1947 1.49087,0.3343 10e-4,3e-4 0.002,3e-4 0.003,5e-4 l 0.0491,0.083 c 6.86295,1.941 13.755,4.5284 21.02416,8.2966 0.002,0 0.004,0 0.006,0 2.6e-4,10e-5 2.6e-4,-1e-4 5.3e-4,0 10e-4,5e-4 0.002,0 0.003,0 2.93979,1.6258 5.81343,3.6673 8.59579,6.0647 5.3e-4,6e-4 10e-4,10e-4 0.002,0 2.7e-4,2e-4 8e-4,2e-4 10e-4,5e-4 0.001,0 0.002,0 0.003,0 2.77151,2.3886 5.45095,5.1332 8.01502,8.169 0.0225,0.027 0.0447,0.053 0.0672,0.08 2.53735,3.0113 4.95802,6.3141 7.24191,9.8439 0.0466,0.072 0.0929,0.1439 0.13917,0.216 2.2471,3.4906 4.3553,7.2077 6.30767,11.0897 0.0709,0.1414 0.14155,0.283 0.21219,0.4248 1.90871,3.8302 3.65839,7.8233 5.23478,11.9228 0.0847,0.2202 0.16828,0.4406 0.25189,0.6614 1.53511,4.053 2.89321,8.2081 4.0595,12.4163 0.0767,0.2764 0.15213,0.5527 0.22701,0.8294 1.13083,4.1792 2.0656,8.4056 2.78897,12.6329 0.0519,0.303 0.10266,0.6059 0.1524,0.909 0.69136,4.221 1.16602,8.4362 1.406,12.6007 0.009,0.1518 0.0236,0.3047 0.0317,0.4563 0.003,-0.037 0.004,-0.077 0.007,-0.1136 0.002,0.037 0.0109,0.076 0.013,0.1136 v 15.613 123.4137 H 1016.0004 V 0.00136465 Z M 404.98567,184.40746 c -8.59557,0.065 -17.82296,0.3843 -27.51616,1.0733 -51.69699,3.6747 -103.88978,21.7707 -103.88978,21.7707 0,0 0.0426,-0.01 0.0429,-0.01 -8e-5,0 -0.0331,0.01 -0.0331,0.01 0,0 0.60111,-0.1411 0.66562,-0.1571 l 0.0403,-0.012 c 0.0122,0 0.19003,-0.043 0.20413,-0.046 0.69167,-0.1711 3.43635,-0.7889 7.73234,-1.7327 2.23994,-0.5033 3.23048,-0.7076 6.63578,-1.4087 6.93404,-1.4252 15.55324,-3.0618 26.31157,-4.7946 1.97072,-0.3184 3.77078,-0.5968 5.85028,-0.9131 3.63066,-0.552 7.42444,-1.0842 11.3497,-1.6123 2.35227,-0.3164 4.59671,-0.6279 7.04609,-0.9296 5.48338,-0.6766 11.22833,-1.2894 17.12195,-1.8547 2.17586,-0.2082 4.33745,-0.3952 6.56186,-0.5834 6.44397,-0.5477 13.01898,-1.0223 19.78485,-1.3597 0.5792,-0.029 1.12466,-0.077 1.70582,-0.1043 7.32959,-0.3418 14.83278,-0.4714 22.38933,-0.4848 1.01452,0 1.98761,-0.07 3.00501,-0.065 l 0.002,-5e-4 c 0.0227,1e-4 0.0455,9e-4 0.0682,0.001 0.7483,0.01 1.50834,0.084 2.25724,0.091 8.98316,0.089 18.02374,0.3993 27.06037,1.0966 0.66045,0.051 1.32067,0.1025 1.98075,0.1571 1.8e-4,0 3.4e-4,0 5.3e-4,0 4.32548,0.3578 8.63978,0.7854 12.93357,1.3074 0.73059,0.089 1.45666,0.1935 2.18591,0.2873 4.46127,0.5737 8.90294,1.2165 13.29634,1.987 0.0555,0.01 0.11145,0.018 0.16693,0.028 l -0.004,-0.012 -2.32648,-7.5034 c 0,0 -6.28491,-1.1011 -17.0594,-2.1813 -0.26834,-0.027 -0.33989,-0.034 -0.61394,-0.061 -5.31252,-0.5236 -11.67329,-1.0284 -18.93785,-1.4035 -0.28829,-0.015 -0.53215,-0.03 -0.82322,-0.045 -7.54949,-0.3752 -15.98187,-0.605 -25.18399,-0.5359 -0.004,0 -0.007,-1e-4 -0.0114,0 z m 64.95987,11.7419 5e-4,0.001 0.004,-5e-4 c -10e-4,-3e-4 -0.003,-3e-4 -0.004,-5e-4 z m -4.05712,4.2896 c -2.75521,0.048 -6.50375,0.2027 -11.1859,0.599 -4.68122,0.3962 -10.29549,1.0335 -16.78347,2.0458 -0.001,2e-4 -0.002,4e-4 -0.004,5e-4 -0.002,4e-4 -0.003,8e-4 -0.005,0 -6.48682,1.0124 -13.84676,2.3999 -22.01985,4.2959 -0.003,7e-4 -0.007,0 -0.01,0 -8.5e-4,2e-4 -0.002,3e-4 -0.003,5e-4 -0.001,3e-4 -0.003,8e-4 -0.004,0 -8.1728,1.8963 -17.15799,4.3012 -26.89707,7.3484 -0.001,3e-4 -0.002,6e-4 -0.004,0.001 -10e-4,3e-4 -0.003,6e-4 -0.004,0.001 -0.004,0 -0.007,0 -0.0109,0 -5.5e-4,10e-5 -10e-4,3e-4 -0.002,5e-4 -6.61244,2.0693 -12.86793,4.2462 -18.75181,6.4719 -10e-4,5e-4 -0.002,0 -0.004,0 -5.3e-4,2e-4 -10e-4,3e-4 -0.002,5e-4 -0.002,6e-4 -0.003,0 -0.005,0 -0.006,0 -0.0118,0 -0.0181,0.01 -5.87925,2.2246 -11.38777,4.4973 -16.51164,6.7598 -7.4e-4,3e-4 -0.001,7e-4 -0.002,0.001 -5.12786,2.2643 -9.86954,4.5181 -14.2131,6.7019 -0.006,0 -0.0133,0.01 -0.0191,0.01 -10e-4,6e-4 -0.002,0 -0.004,0 -0.004,0 -0.007,0 -0.0103,0.01 -13.02973,6.5529 -22.46405,12.4755 -27.92955,16.1669 -3.64794,2.4638 -5.52887,3.9336 -5.52887,3.9336 0,0 0.004,0 0.004,0 0,0 5.3e-4,-6e-4 5.3e-4,-6e-4 0,0 0.003,0 0.003,0 7e-5,0 0.0495,-0.027 0.0501,-0.027 0.0275,-0.014 0.0584,-0.03 0.0584,-0.03 0.0401,-0.022 2.05518,-1.0524 2.68872,-1.3931 1.23735,-0.6653 1.87219,-1.0412 5.16972,-2.6795 0.006,0 0.004,0 0.01,-0.01 0.003,0 0.009,0 0.0119,-0.01 5.05296,-2.5119 12.33472,-5.9645 21.59145,-9.894 0.004,0 0.005,0 0.009,0 0.002,-8e-4 0.004,0 0.006,0 0.005,0 0.009,0 0.0145,-0.01 0.0127,-0.01 0.0227,-0.01 0.0331,-0.015 0.0379,-0.016 0.0763,-0.032 0.1142,-0.048 0.0212,-0.01 0.0424,-0.016 0.0605,-0.024 5.1e-4,-2e-4 10e-4,-3e-4 0.002,-5e-4 0.004,0 0.009,0 0.0135,-0.01 0.004,0 0.008,0 0.0119,0 6.13939,-2.6016 13.08256,-5.383 20.71502,-8.1855 0.002,-9e-4 0.004,0 0.006,0 0.002,-6e-4 0.003,-0.001 0.004,0 0.013,0 0.0248,-0.01 0.0367,-0.014 0.001,-4e-4 0.002,-7e-4 0.003,0 0.0278,-0.01 0.0575,-0.02 0.0853,-0.03 0.12006,-0.042 0.2486,-0.084 0.36483,-0.1272 4.17941,-1.5293 8.58893,-3.0562 13.15114,-4.5687 0.90649,-0.2994 1.85536,-0.5864 2.77606,-0.8836 4.0926,-1.3279 8.30517,-2.6233 12.65918,-3.8913 0.13197,-0.038 0.26725,-0.075 0.39944,-0.1132 0.005,0 0.009,0 0.0145,0 0.003,-8e-4 0.005,0 0.007,0 0.3615,-0.1049 0.73284,-0.2057 1.09604,-0.31 0.002,-7e-4 0.005,0 0.007,0 5.3e-4,-1e-4 0.001,-4e-4 0.002,-5e-4 0.92413,-0.263 1.84483,-0.5268 2.78019,-0.787 9.59794,-2.6865 19.76847,-5.1254 30.30357,-7.2172 1.06564,-0.2128 2.12598,-0.4212 3.19982,-0.6258 5.7993,-1.0976 11.67381,-2.1158 17.69761,-2.9321 0.006,-8e-4 0.0109,0 0.0165,0 0.006,-7e-4 0.011,0 0.0165,0 0.007,-9e-4 0.0145,0 0.0217,0 0.0166,0 0.0332,-0.01 0.0506,-0.01 3.2e-4,-1e-4 6.9e-4,0 0.001,0 10e-4,-2e-4 0.002,-4e-4 0.003,-5e-4 0.008,0 0.0163,0 0.0243,0 0.71043,-0.096 1.43166,-0.1717 2.14458,-0.2625 4.19103,-0.5389 8.43188,-0.9859 12.69947,-1.3679 0.66149,-0.059 1.3145,-0.131 1.97766,-0.1855 5.25629,-0.4367 10.562,-0.7471 15.9091,-0.8982 0.012,-3e-4 0.0237,0 0.0357,0 l -2.54868,-7.7153 c 0,0 -1.90791,-0.1267 -5.58107,-0.063 -2.1e-4,0 -2.9e-4,0 -5e-4,0 z" />
      <path
         id="path11434"
         style="opacity:0.3;fill:url(#linearGradient1411);fill-opacity:1;stroke-width:2.54937;paint-order:fill markers stroke"
         d="M 6.2948249e-5,0.01196465 V 182.67526 L 289.93482,158.35116 c 0.17957,-0.01 6.26803,-0.2942 16.72611,-0.2383 h 0.003 c 5.74027,0.031 12.88865,0.1869 20.88967,0.5297 0.61468,0.026 1.28485,0.066 1.91098,0.095 16.52474,0.7633 36.90313,2.4023 58.83878,5.8033 0.41482,0.064 0.82958,0.1287 1.24543,0.1943 5.10193,0.8045 10.27998,1.7064 15.50498,2.7119 0.45571,0.088 0.90892,0.1701 1.3653,0.2594 5.62491,1.1009 11.29675,2.3142 16.98397,3.6753 3.2e-4,10e-5 7.2e-4,-1e-4 0.001,0 7.80593,1.8681 15.63444,3.9939 23.38721,6.412 7.75277,2.4181 15.42974,5.1287 22.93194,8.1659 0.002,0.01 0.007,0.022 0.009,0.032 3e-5,2e-4 -3e-5,4e-4 0,5e-4 0.68167,3.0419 1.70307,6.5872 2.92126,10.3472 0.002,0.01 0.004,0.011 0.006,0.016 1.21706,3.7553 2.6289,7.7223 4.09382,11.6149 0.002,0.01 0.004,0.01 0.006,0.016 2.93368,7.7941 6.0764,15.2834 8.27754,20.1476 -3.15301,2.18 -6.40675,4.3274 -9.54825,6.7768 -1.57067,1.2246 -3.11325,2.5251 -4.60129,3.9424 -1.4882,1.4175 -2.92177,2.9518 -4.27413,4.6457 -2.70457,3.3876 -5.08408,7.4115 -6.92621,12.406 -0.92107,2.4972 -1.70802,5.2371 -2.33371,8.2615 -0.62568,3.0244 -1.09024,6.3332 -1.36736,9.9684 -0.18947,2.4887 -0.16489,4.9486 0.031,7.3727 0.008,0.1012 0.0113,0.2027 0.0202,0.3038 0.2069,2.3696 0.59891,4.6981 1.14876,6.9794 0.031,0.1284 0.06,0.2565 0.092,0.3845 0.56743,2.2719 1.29873,4.4912 2.18175,6.6487 0.0427,0.1041 0.0864,0.2068 0.12973,0.3106 0.91244,2.187 1.97437,4.3093 3.18585,6.351 0.02,0.034 0.0414,0.066 0.0615,0.1 5.00821,8.3972 12.43594,15.4404 21.37648,20.2309 5.3e-4,2e-4 0.001,7e-4 0.002,0 0.0178,0.01 0.0327,0.024 0.0507,0.033 0.0261,0.014 0.0538,0.026 0.0801,0.04 0.01,0.01 0.0204,0.01 0.03,0.013 5.3e-4,3e-4 0.001,7e-4 0.002,10e-4 3.76571,2.0019 7.79349,3.6058 12.02357,4.7392 0.0633,0.017 0.12731,0.031 0.19068,0.048 2.00549,0.53 4.05495,0.9515 6.14175,1.264 0.16256,0.024 0.32377,0.05 0.48678,0.073 2.14937,0.303 4.33292,0.5007 6.55153,0.5576 0.002,0 0.003,5e-4 0.005,5e-4 10e-4,0 0.002,0 0.004,0 10e-4,0 0.002,5e-4 0.003,5e-4 8.817,0.4696 16.52505,0.9021 24.07036,1.5079 1.84446,0.1481 3.64196,0.387 5.48958,0.5778 l 0.0124,-0.1943 c 3.74709,0.3773 7.39156,0.8546 10.99365,1.4578 0.22927,0.038 0.45789,0.079 0.68678,0.1188 3.58751,0.6193 7.13206,1.3669 10.67583,2.3156 0.0237,0.01 0.0476,0.011 0.0713,0.018 3.5198,0.9448 7.04577,2.1023 10.61582,3.4696 0.28258,0.1081 0.56568,0.219 0.84852,0.3302 3.59225,1.4102 7.22895,3.0319 10.97254,4.9728 5.88354,3.2533 11.5017,8.1712 16.65023,14.2756 2.57413,3.0522 5.03078,6.4009 7.3443,9.9865 2.31114,3.5824 4.4794,7.4017 6.47912,11.3972 0.003,0.01 0.007,0.014 0.0109,0.021 1.99707,3.9921 3.82561,8.1607 5.46047,12.4457 0.003,0.01 0.006,0.016 0.01,0.024 1.63566,4.2895 3.07737,8.6954 4.29895,13.1589 1.22264,4.4677 2.22515,8.993 2.98159,13.5155 0.75644,4.5225 1.26709,9.0423 1.50601,13.4999 0.2577,-3.3073 0.32835,-7.0904 0.16378,-11.2122 -0.16457,-4.1218 -0.56462,-8.5822 -1.24699,-13.2447 -0.68236,-4.6625 -1.64756,-9.5268 -2.94296,-14.4564 -1.29566,-4.9296 -2.92179,-9.9247 -4.92574,-14.8477 -0.99907,-2.4538 -2.09259,-4.8898 -3.28507,-7.2911 -0.007,-0.014 -0.0143,-0.028 -0.0212,-0.042 -1.19459,-2.4019 -2.48814,-4.7691 -3.88831,-7.0843 -1.40388,-2.3215 -2.91439,-4.5907 -4.53708,-6.7908 -1.62295,-2.2001 -3.35809,-4.3308 -5.2115,-6.3754 -1.85367,-2.0445 -3.82587,-4.0027 -5.92216,-5.8575 -2.0963,-1.8547 -4.31695,-3.6061 -6.66777,-5.2369 -2.35109,-1.6307 -4.83235,-3.1408 -7.44987,-4.5134 -2.61753,-1.3726 -5.37104,-2.6074 -8.26717,-3.6876 3.66236,0.6409 7.12496,1.4049 10.41902,2.2645 0.11669,0.03 0.23495,0.06 0.35084,0.09 3.21681,0.8496 6.25925,1.7975 9.14109,2.8272 0.14526,0.052 0.2884,0.1048 0.43259,0.1571 2.63446,0.9543 5.10488,1.9902 7.47184,3.0722 0.48022,0.2197 0.95832,0.4406 1.42795,0.665 2.16959,1.0361 4.23175,2.1181 6.18094,3.2433 0.45878,0.2651 0.90275,0.5356 1.34963,0.8051 1.8759,1.1295 3.66792,2.2886 5.34247,3.483 0.41011,0.2927 0.79375,0.5923 1.19221,0.8883 1.55655,1.1555 3.04483,2.3289 4.42966,3.5238 0.38603,0.3332 0.75062,0.6696 1.12395,1.0051 1.21629,1.0931 2.36379,2.1965 3.44831,3.3063 0.37095,0.3794 0.75354,0.7573 1.10967,1.1379 1.0787,1.1532 2.07301,2.3087 3.02127,3.4628 0.29766,0.3619 0.60061,0.7241 0.88583,1.0852 2.29949,2.914 4.20634,5.7934 5.77903,8.5401 0.13652,0.238 0.26775,0.4735 0.39952,0.7095 1.51156,2.716 2.73367,5.304 3.6658,7.6254 0.0598,0.1484 0.10821,0.285 0.16589,0.4315 0.87683,2.2332 1.51501,4.2157 1.97247,5.8626 0.0392,0.1398 0.0974,0.3133 0.13388,0.4481 0.44847,1.6715 0.72522,3.0036 0.8599,3.7775 0.0439,0.3098 0.11033,0.6189 0.15293,0.9287 h 5.2e-4 l 26.67953,180.3218 H 1016.0019 V 0.00656465 Z M 404.98567,184.40746 c -8.59557,0.065 -17.82296,0.3843 -27.51616,1.0733 -6.4621,0.4593 -12.93212,1.1441 -19.30683,1.9906 -6.37241,0.8462 -12.64912,1.8543 -18.72856,2.9605 -0.006,0 -0.0116,0 -0.0176,0 -6.07758,1.1061 -11.95784,2.3101 -17.53692,3.5491 -5.58245,1.2398 -10.86356,2.5142 -15.74115,3.76 -9.74265,2.4885 -17.87189,4.8623 -23.5717,6.6156 -0.077,0.024 -0.0598,0.02 -0.13589,0.043 -5.61192,1.7287 -8.85116,2.8489 -8.85116,2.8489 0,0 0.0426,-0.01 0.0429,-0.01 -8e-5,0 -0.0331,0.01 -0.0331,0.01 0,0 0.60111,-0.1411 0.66562,-0.1571 l 0.0403,-0.012 c 0.0122,0 0.19003,-0.043 0.20413,-0.046 0.69167,-0.1711 3.43635,-0.7889 7.73234,-1.7327 2.23994,-0.5033 3.23048,-0.7076 6.63578,-1.4087 6.93404,-1.4252 15.55324,-3.0618 26.31157,-4.7946 1.97072,-0.3184 3.77078,-0.5968 5.85028,-0.9131 3.63066,-0.552 7.42444,-1.0842 11.3497,-1.6123 2.35227,-0.3164 4.59671,-0.6279 7.04609,-0.9296 5.48338,-0.6766 11.22833,-1.2894 17.12195,-1.8547 2.17586,-0.2082 4.33745,-0.3952 6.56186,-0.5834 6.44397,-0.5477 13.01898,-1.0223 19.78485,-1.3597 0.5792,-0.029 1.12472,-0.077 1.70582,-0.1043 7.32959,-0.3418 14.83278,-0.4714 22.38933,-0.4848 1.01452,0 1.98761,-0.07 3.00501,-0.065 l 0.002,-5e-4 c 0.0108,10e-5 0.0217,5e-4 0.0326,5e-4 0.0119,3e-4 0.0238,5e-4 0.0356,5e-4 0.7483,0.01 1.50834,0.084 2.25724,0.091 8.98247,0.089 18.02236,0.3994 27.0583,1.0966 6.9e-4,0 0.001,-1e-4 0.002,0 0.66045,0.051 1.32067,0.1025 1.98075,0.1571 0.001,1e-4 0.002,-1e-4 0.003,0 4.32203,0.3575 8.63285,0.7849 12.92326,1.3064 0.003,3e-4 0.005,7e-4 0.008,0.001 0.50242,0.061 1.00145,0.1339 1.50326,0.1974 0.22735,0.031 0.4549,0.061 0.68265,0.09 4.46127,0.5737 8.90294,1.2165 13.29634,1.987 0.0555,0.01 0.11145,0.018 0.16693,0.028 l -0.004,-0.012 -2.32648,-7.5034 c 0,0 -6.28491,-1.1011 -17.0594,-2.1813 -0.26834,-0.027 -0.33989,-0.034 -0.61394,-0.061 -5.31252,-0.5236 -11.67329,-1.0284 -18.93785,-1.4035 -0.20433,-0.011 -0.39113,-0.021 -0.58343,-0.032 -0.0815,0 -0.15803,-0.01 -0.23979,-0.013 -9.3e-4,-1e-4 -0.002,0 -0.003,0 -7.5484,-0.3751 -15.97943,-0.605 -25.17984,-0.5359 -0.004,0 -0.008,-1e-4 -0.0124,0 z m 64.95987,11.7419 5e-4,0.001 0.004,-5e-4 c -10e-4,-3e-4 -0.003,-3e-4 -0.004,-5e-4 z m -4.05712,4.2896 c -2.75521,0.048 -6.50375,0.2027 -11.1859,0.599 -4.68122,0.3962 -10.29549,1.0335 -16.78347,2.0458 -0.001,2e-4 -0.002,4e-4 -0.004,5e-4 -0.002,4e-4 -0.003,8e-4 -0.005,0 -6.48682,1.0124 -13.84676,2.3999 -22.01985,4.2959 -0.002,4e-4 -0.004,5e-4 -0.006,0.001 -0.001,3e-4 -0.003,7e-4 -0.004,0.001 -1.6e-4,1e-4 -3.5e-4,0 -5e-4,0 -7.2e-4,2e-4 -0.001,4e-4 -0.002,5e-4 -10e-4,3e-4 -0.003,8e-4 -0.004,0 -8.1728,1.8963 -17.15799,4.3012 -26.89707,7.3484 -10e-4,3e-4 -0.002,6e-4 -0.004,0 -5.3e-4,2e-4 -10e-4,3e-4 -0.002,5e-4 -8.2e-4,2e-4 -0.002,2e-4 -0.003,5e-4 -0.004,0 -0.007,0 -0.0109,0 -5.5e-4,1e-4 -10e-4,3e-4 -0.002,5e-4 -1.6e-4,0 -3.7e-4,-1e-4 -5.3e-4,0 -6.60773,2.0678 -12.85867,4.2437 -18.7389,6.4678 -0.004,0 -0.009,0 -0.0124,0 -10e-4,5e-4 -0.002,0 -0.004,0 -5.3e-4,2e-4 -10e-4,3e-4 -0.002,5e-4 -0.002,6e-4 -0.003,0 -0.005,0 -0.006,0 -0.0118,0 -0.0181,0.01 -5.87925,2.2246 -11.38777,4.4973 -16.51164,6.7598 -7.4e-4,3e-4 -10e-4,7e-4 -0.002,0.001 -5.12786,2.2643 -9.86954,4.5181 -14.2131,6.7019 -0.003,0 -0.006,0 -0.008,0 -0.004,0 -0.008,0 -0.0109,0.01 -10e-4,6e-4 -0.002,0 -0.004,0 -0.004,0 -0.007,0 -0.0103,0.01 -0.003,0 -0.004,0 -0.007,0 -6.51177,3.2751 -12.12594,6.3927 -16.79483,9.1529 -4.67069,2.7612 -8.39523,5.1647 -11.128,7.0104 -3.64794,2.4638 -5.52887,3.9336 -5.52887,3.9336 0,0 0.004,0 0.004,0 l 5.3e-4,-6e-4 h 0.003 c 7e-5,0 0.0495,-0.027 0.0501,-0.027 0.005,0 0.005,0 0.01,-0.01 0.023,-0.012 0.0486,-0.024 0.0486,-0.025 0.0401,-0.022 2.05523,-1.0524 2.68872,-1.3931 1.23735,-0.6653 1.87219,-1.0412 5.16972,-2.6795 0.006,0 0.004,0 0.01,-0.01 0.003,0 0.009,0 0.0119,-0.01 0.002,0 0.007,0 0.009,0 5.05272,-2.5115 12.32972,-5.9619 21.58267,-9.8898 0.004,0 0.005,0 0.009,0 0.002,-8e-4 0.004,0 0.006,0 0.005,0 0.009,0 0.0145,-0.01 0.0127,-0.01 0.0227,-0.01 0.0331,-0.015 0.0379,-0.016 0.0763,-0.032 0.1142,-0.048 0.0212,-0.01 0.0424,-0.016 0.0605,-0.024 5.1e-4,-2e-4 10e-4,-3e-4 0.002,-5e-4 0.004,0 0.009,0 0.0135,-0.01 0.004,0 0.008,0 0.0119,0 6.13939,-2.6016 13.08256,-5.383 20.71502,-8.1855 0.002,-9e-4 0.004,0 0.006,0 0.002,-6e-4 0.003,-0.001 0.004,0 0.013,0 0.0248,-0.01 0.0367,-0.014 0.001,-4e-4 0.002,-7e-4 0.003,0 0.0278,-0.01 0.0575,-0.02 0.0853,-0.03 0.12006,-0.042 0.2486,-0.084 0.36483,-0.1272 4.17941,-1.5293 8.58893,-3.0562 13.15114,-4.5687 0.90649,-0.2994 1.85536,-0.5864 2.77606,-0.8836 4.0926,-1.3279 8.30517,-2.6233 12.65918,-3.8913 0.13197,-0.038 0.26725,-0.075 0.39944,-0.1132 0.005,0 0.009,0 0.0145,0 0.003,-8e-4 0.005,0 0.007,0 0.3615,-0.1049 0.73284,-0.2057 1.09604,-0.31 0.002,-7e-4 0.005,-0.001 0.007,0 5.3e-4,-1e-4 0.001,-4e-4 0.002,-5e-4 0.92413,-0.263 1.84483,-0.5268 2.78019,-0.787 9.59794,-2.6865 19.76847,-5.1254 30.30357,-7.2172 1.06564,-0.2128 2.12598,-0.4212 3.19982,-0.6258 5.7993,-1.0976 11.67381,-2.1158 17.69761,-2.9321 0.006,-8e-4 0.0109,0 0.0165,0 0.006,-6e-4 0.011,0 0.0165,0 0.007,-9e-4 0.0145,0 0.0217,0 0.0128,0 0.026,0 0.0393,-0.01 0.002,-2e-4 0.004,-2e-4 0.006,-5e-4 0.002,-3e-4 0.004,-7e-4 0.006,-0.001 10e-4,-2e-4 0.002,-4e-4 0.003,-5e-4 0.003,-5e-4 0.007,-7e-4 0.01,0 0.005,-6e-4 0.01,-9e-4 0.0145,0 0.71043,-0.096 1.43166,-0.1717 2.14458,-0.2625 4.19103,-0.5389 8.43188,-0.9859 12.69947,-1.3679 0.66149,-0.059 1.3145,-0.131 1.97766,-0.1855 5.25629,-0.4367 10.562,-0.7471 15.9091,-0.8982 0.012,-3e-4 0.0237,0 0.0357,0 l -2.54868,-7.7153 c 0,0 -1.90791,-0.1267 -5.58107,-0.063 -2.1e-4,0 -2.9e-4,0 -5e-4,0 z" />
      <path
         id="path1218"
         style="opacity:0.3;fill:url(#linearGradient1225);fill-opacity:1;stroke-width:2.54937;paint-order:fill markers stroke"
         d="M 6.2948249e-5,0.01196465 V 182.67526 L 289.93482,158.35116 c 0.17957,-0.01 6.26803,-0.2942 16.72611,-0.2383 h 0.003 c 5.74027,0.031 12.88865,0.1869 20.88967,0.5297 0.61468,0.026 1.28485,0.066 1.91098,0.095 16.52474,0.7633 36.90313,2.4023 58.83878,5.8033 0.41482,0.064 0.82958,0.1287 1.24543,0.1943 5.10193,0.8045 10.27998,1.7064 15.50498,2.7119 0.45571,0.088 0.90892,0.1701 1.3653,0.2594 5.62491,1.1009 11.29675,2.3142 16.98397,3.6753 3.2e-4,10e-5 7.2e-4,-1e-4 0.001,0 7.80593,1.8681 15.63444,3.9939 23.38721,6.412 7.75277,2.4181 15.42974,5.1287 22.93194,8.1659 0.002,0.01 0.007,0.022 0.009,0.032 3e-5,2e-4 -3e-5,4e-4 0,5e-4 0.68167,3.0419 1.70307,6.5872 2.92126,10.3472 0.002,0.01 0.004,0.011 0.006,0.016 1.21706,3.7553 2.6289,7.7223 4.09382,11.6149 0.002,0.01 0.004,0.01 0.006,0.016 2.93368,7.7941 6.0764,15.2834 8.27754,20.1476 -3.15301,2.18 -6.40675,4.3274 -9.54825,6.7768 -1.57067,1.2246 -3.11325,2.5251 -4.60129,3.9424 -1.4882,1.4175 -2.92177,2.9518 -4.27413,4.6457 -2.70457,3.3876 -5.08408,7.4115 -6.92621,12.406 -0.92107,2.4972 -1.70802,5.2371 -2.33371,8.2615 -0.62568,3.0244 -1.09024,6.3332 -1.36736,9.9684 -0.18947,2.4887 -0.16489,4.9486 0.031,7.3727 0.008,0.1012 0.0113,0.2027 0.0202,0.3038 0.2069,2.3696 0.59891,4.6981 1.14876,6.9794 0.031,0.1284 0.06,0.2565 0.092,0.3845 0.56743,2.2719 1.29873,4.4912 2.18175,6.6487 0.0427,0.1041 0.0864,0.2068 0.12973,0.3106 0.91244,2.187 1.97437,4.3093 3.18585,6.351 0.02,0.034 0.0414,0.066 0.0615,0.1 5.00821,8.3972 12.43594,15.4404 21.37648,20.2309 5.3e-4,2e-4 0.001,7e-4 0.002,0 0.0178,0.01 0.0327,0.024 0.0507,0.033 0.0261,0.014 0.0538,0.026 0.0801,0.04 0.01,0.01 0.0204,0.01 0.03,0.013 5.3e-4,3e-4 0.001,7e-4 0.002,10e-4 3.76571,2.0019 7.79349,3.6058 12.02357,4.7392 0.0633,0.017 0.12731,0.031 0.19068,0.048 2.00549,0.53 4.05495,0.9515 6.14175,1.264 0.16256,0.024 0.32377,0.05 0.48678,0.073 2.14937,0.303 4.33292,0.5007 6.55153,0.5576 0.002,0 0.003,5e-4 0.005,5e-4 10e-4,0 0.002,0 0.004,0 10e-4,0 0.002,5e-4 0.003,5e-4 8.817,0.4696 16.52505,0.9021 24.07036,1.5079 1.84446,0.1481 3.64196,0.387 5.48958,0.5778 l 0.0124,-0.1943 c 3.74709,0.3773 7.39156,0.8546 10.99365,1.4578 0.22927,0.038 0.45789,0.079 0.68678,0.1188 3.58751,0.6193 7.13206,1.3669 10.67583,2.3156 0.0237,0.01 0.0476,0.011 0.0713,0.018 3.5198,0.9448 7.04577,2.1023 10.61582,3.4696 0.28258,0.1081 0.56568,0.219 0.84852,0.3302 3.59225,1.4102 7.22895,3.0319 10.97254,4.9728 5.88354,3.2533 11.5017,8.1712 16.65023,14.2756 2.57413,3.0522 5.03078,6.4009 7.3443,9.9865 2.31114,3.5824 4.4794,7.4017 6.47912,11.3972 0.003,0.01 0.007,0.014 0.0109,0.021 1.99707,3.9921 3.82561,8.1607 5.46047,12.4457 0.003,0.01 0.006,0.016 0.01,0.024 1.63566,4.2895 3.07737,8.6954 4.29895,13.1589 1.22264,4.4677 2.22515,8.993 2.98159,13.5155 0.75644,4.5225 1.26709,9.0423 1.50601,13.4999 0.2577,-3.3073 0.32835,-7.0904 0.16378,-11.2122 -0.16457,-4.1218 -0.56462,-8.5822 -1.24699,-13.2447 -0.68236,-4.6625 -1.64756,-9.5268 -2.94296,-14.4564 -1.29566,-4.9296 -2.92179,-9.9247 -4.92574,-14.8477 -0.99907,-2.4538 -2.09259,-4.8898 -3.28507,-7.2911 -0.007,-0.014 -0.0143,-0.028 -0.0212,-0.042 -1.19459,-2.4019 -2.48814,-4.7691 -3.88831,-7.0843 -1.40388,-2.3215 -2.91439,-4.5907 -4.53708,-6.7908 -1.62295,-2.2001 -3.35809,-4.3308 -5.2115,-6.3754 -1.85367,-2.0445 -3.82587,-4.0027 -5.92216,-5.8575 -2.0963,-1.8547 -4.31695,-3.6061 -6.66777,-5.2369 -2.35109,-1.6307 -4.83235,-3.1408 -7.44987,-4.5134 -2.61753,-1.3726 -5.37104,-2.6074 -8.26717,-3.6876 3.66236,0.6409 7.12496,1.4049 10.41902,2.2645 0.11669,0.03 0.23495,0.06 0.35084,0.09 3.21681,0.8496 6.25925,1.7975 9.14109,2.8272 0.14526,0.052 0.2884,0.1048 0.43259,0.1571 2.63446,0.9543 5.10488,1.9902 7.47184,3.0722 0.48022,0.2197 0.95832,0.4406 1.42795,0.665 2.16959,1.0361 4.23175,2.1181 6.18094,3.2433 0.45878,0.2651 0.90275,0.5356 1.34963,0.8051 1.8759,1.1295 3.66792,2.2886 5.34247,3.483 0.41011,0.2927 0.79375,0.5923 1.19221,0.8883 1.55655,1.1555 3.04483,2.3289 4.42966,3.5238 0.38603,0.3332 0.75062,0.6696 1.12395,1.0051 1.21629,1.0931 2.36379,2.1965 3.44831,3.3063 0.37095,0.3794 0.75354,0.7573 1.10967,1.1379 1.0787,1.1532 2.07301,2.3087 3.02127,3.4628 0.29766,0.3619 0.60061,0.7241 0.88583,1.0852 2.29949,2.914 4.20634,5.7934 5.77903,8.5401 0.13652,0.238 0.26775,0.4735 0.39952,0.7095 1.51156,2.716 2.73367,5.304 3.6658,7.6254 0.0598,0.1484 0.10821,0.285 0.16589,0.4315 0.87683,2.2332 1.51501,4.2157 1.97247,5.8626 0.0392,0.1398 0.0974,0.3133 0.13388,0.4481 0.44847,1.6715 0.72522,3.0036 0.8599,3.7775 0.0439,0.3098 0.11033,0.6189 0.15293,0.9287 h 5.2e-4 l 26.67953,180.3218 H 1016.0019 V 0.00656465 Z M 404.98567,184.40746 c -8.59557,0.065 -17.82296,0.3843 -27.51616,1.0733 -6.4621,0.4593 -12.93212,1.1441 -19.30683,1.9906 -6.37241,0.8462 -12.64912,1.8543 -18.72856,2.9605 -0.006,0 -0.0116,0 -0.0176,0 -6.07758,1.1061 -11.95784,2.3101 -17.53692,3.5491 -5.58245,1.2398 -10.86356,2.5142 -15.74115,3.76 -9.74265,2.4885 -17.87189,4.8623 -23.5717,6.6156 -0.077,0.024 -0.0598,0.02 -0.13589,0.043 -5.61192,1.7287 -8.85116,2.8489 -8.85116,2.8489 0,0 0.0426,-0.01 0.0429,-0.01 -8e-5,0 -0.0331,0.01 -0.0331,0.01 0,0 0.60111,-0.1411 0.66562,-0.1571 l 0.0403,-0.012 c 0.0122,0 0.19003,-0.043 0.20413,-0.046 0.69167,-0.1711 3.43635,-0.7889 7.73234,-1.7327 2.23994,-0.5033 3.23048,-0.7076 6.63578,-1.4087 6.93404,-1.4252 15.55324,-3.0618 26.31157,-4.7946 1.97072,-0.3184 3.77078,-0.5968 5.85028,-0.9131 3.63066,-0.552 7.42444,-1.0842 11.3497,-1.6123 2.35227,-0.3164 4.59671,-0.6279 7.04609,-0.9296 5.48338,-0.6766 11.22833,-1.2894 17.12195,-1.8547 2.17586,-0.2082 4.33745,-0.3952 6.56186,-0.5834 6.44397,-0.5477 13.01898,-1.0223 19.78485,-1.3597 0.5792,-0.029 1.12472,-0.077 1.70582,-0.1043 7.32959,-0.3418 14.83278,-0.4714 22.38933,-0.4848 1.01452,0 1.98761,-0.07 3.00501,-0.065 l 0.002,-5e-4 c 0.0108,10e-5 0.0217,5e-4 0.0326,5e-4 0.0119,3e-4 0.0238,5e-4 0.0356,5e-4 0.7483,0.01 1.50834,0.084 2.25724,0.091 8.98247,0.089 18.02236,0.3994 27.0583,1.0966 6.9e-4,0 0.001,-1e-4 0.002,0 0.66045,0.051 1.32067,0.1025 1.98075,0.1571 0.001,1e-4 0.002,-1e-4 0.003,0 4.32203,0.3575 8.63285,0.7849 12.92326,1.3064 0.003,3e-4 0.005,7e-4 0.008,0.001 0.50242,0.061 1.00145,0.1339 1.50326,0.1974 0.22735,0.031 0.4549,0.061 0.68265,0.09 4.46127,0.5737 8.90294,1.2165 13.29634,1.987 0.0555,0.01 0.11145,0.018 0.16693,0.028 l -0.004,-0.012 -2.32648,-7.5034 c 0,0 -6.28491,-1.1011 -17.0594,-2.1813 -0.26834,-0.027 -0.33989,-0.034 -0.61394,-0.061 -5.31252,-0.5236 -11.67329,-1.0284 -18.93785,-1.4035 -0.20433,-0.011 -0.39113,-0.021 -0.58343,-0.032 -0.0815,0 -0.15803,-0.01 -0.23979,-0.013 -9.3e-4,-1e-4 -0.002,0 -0.003,0 -7.5484,-0.3751 -15.97943,-0.605 -25.17984,-0.5359 -0.004,0 -0.008,-1e-4 -0.0124,0 z m 64.95987,11.7419 5e-4,0.001 0.004,-5e-4 c -10e-4,-3e-4 -0.003,-3e-4 -0.004,-5e-4 z m -4.05712,4.2896 c -2.75521,0.048 -6.50375,0.2027 -11.1859,0.599 -4.68122,0.3962 -10.29549,1.0335 -16.78347,2.0458 -0.001,2e-4 -0.002,4e-4 -0.004,5e-4 -0.002,4e-4 -0.003,8e-4 -0.005,0 -6.48682,1.0124 -13.84676,2.3999 -22.01985,4.2959 -0.002,4e-4 -0.004,5e-4 -0.006,0.001 -0.001,3e-4 -0.003,7e-4 -0.004,0.001 -1.6e-4,1e-4 -3.5e-4,0 -5e-4,0 -7.2e-4,2e-4 -0.001,4e-4 -0.002,5e-4 -10e-4,3e-4 -0.003,8e-4 -0.004,0 -8.1728,1.8963 -17.15799,4.3012 -26.89707,7.3484 -10e-4,3e-4 -0.002,6e-4 -0.004,0 -5.3e-4,2e-4 -10e-4,3e-4 -0.002,5e-4 -8.2e-4,2e-4 -0.002,2e-4 -0.003,5e-4 -0.004,0 -0.007,0 -0.0109,0 -5.5e-4,1e-4 -10e-4,3e-4 -0.002,5e-4 -1.6e-4,0 -3.7e-4,-1e-4 -5.3e-4,0 -6.60773,2.0678 -12.85867,4.2437 -18.7389,6.4678 -0.004,0 -0.009,0 -0.0124,0 -10e-4,5e-4 -0.002,0 -0.004,0 -5.3e-4,2e-4 -10e-4,3e-4 -0.002,5e-4 -0.002,6e-4 -0.003,0 -0.005,0 -0.006,0 -0.0118,0 -0.0181,0.01 -5.87925,2.2246 -11.38777,4.4973 -16.51164,6.7598 -7.4e-4,3e-4 -10e-4,7e-4 -0.002,0.001 -5.12786,2.2643 -9.86954,4.5181 -14.2131,6.7019 -0.003,0 -0.006,0 -0.008,0 -0.004,0 -0.008,0 -0.0109,0.01 -10e-4,6e-4 -0.002,0 -0.004,0 -0.004,0 -0.007,0 -0.0103,0.01 -0.003,0 -0.004,0 -0.007,0 -6.51177,3.2751 -12.12594,6.3927 -16.79483,9.1529 -4.67069,2.7612 -8.39523,5.1647 -11.128,7.0104 -3.64794,2.4638 -5.52887,3.9336 -5.52887,3.9336 0,0 0.004,0 0.004,0 l 5.3e-4,-6e-4 h 0.003 c 7e-5,0 0.0495,-0.027 0.0501,-0.027 0.005,0 0.005,0 0.01,-0.01 0.023,-0.012 0.0486,-0.024 0.0486,-0.025 0.0401,-0.022 2.05523,-1.0524 2.68872,-1.3931 1.23735,-0.6653 1.87219,-1.0412 5.16972,-2.6795 0.006,0 0.004,0 0.01,-0.01 0.003,0 0.009,0 0.0119,-0.01 0.002,0 0.007,0 0.009,0 5.05272,-2.5115 12.32972,-5.9619 21.58267,-9.8898 0.004,0 0.005,0 0.009,0 0.002,-8e-4 0.004,0 0.006,0 0.005,0 0.009,0 0.0145,-0.01 0.0127,-0.01 0.0227,-0.01 0.0331,-0.015 0.0379,-0.016 0.0763,-0.032 0.1142,-0.048 0.0212,-0.01 0.0424,-0.016 0.0605,-0.024 5.1e-4,-2e-4 10e-4,-3e-4 0.002,-5e-4 0.004,0 0.009,0 0.0135,-0.01 0.004,0 0.008,0 0.0119,0 6.13939,-2.6016 13.08256,-5.383 20.71502,-8.1855 0.002,-9e-4 0.004,0 0.006,0 0.002,-6e-4 0.003,-0.001 0.004,0 0.013,0 0.0248,-0.01 0.0367,-0.014 0.001,-4e-4 0.002,-7e-4 0.003,0 0.0278,-0.01 0.0575,-0.02 0.0853,-0.03 0.12006,-0.042 0.2486,-0.084 0.36483,-0.1272 4.17941,-1.5293 8.58893,-3.0562 13.15114,-4.5687 0.90649,-0.2994 1.85536,-0.5864 2.77606,-0.8836 4.0926,-1.3279 8.30517,-2.6233 12.65918,-3.8913 0.13197,-0.038 0.26725,-0.075 0.39944,-0.1132 0.005,0 0.009,0 0.0145,0 0.003,-8e-4 0.005,0 0.007,0 0.3615,-0.1049 0.73284,-0.2057 1.09604,-0.31 0.002,-7e-4 0.005,-0.001 0.007,0 5.3e-4,-1e-4 0.001,-4e-4 0.002,-5e-4 0.92413,-0.263 1.84483,-0.5268 2.78019,-0.787 9.59794,-2.6865 19.76847,-5.1254 30.30357,-7.2172 1.06564,-0.2128 2.12598,-0.4212 3.19982,-0.6258 5.7993,-1.0976 11.67381,-2.1158 17.69761,-2.9321 0.006,-8e-4 0.0109,0 0.0165,0 0.006,-6e-4 0.011,0 0.0165,0 0.007,-9e-4 0.0145,0 0.0217,0 0.0128,0 0.026,0 0.0393,-0.01 0.002,-2e-4 0.004,-2e-4 0.006,-5e-4 0.002,-3e-4 0.004,-7e-4 0.006,-0.001 10e-4,-2e-4 0.002,-4e-4 0.003,-5e-4 0.003,-5e-4 0.007,-7e-4 0.01,0 0.005,-6e-4 0.01,-9e-4 0.0145,0 0.71043,-0.096 1.43166,-0.1717 2.14458,-0.2625 4.19103,-0.5389 8.43188,-0.9859 12.69947,-1.3679 0.66149,-0.059 1.3145,-0.131 1.97766,-0.1855 5.25629,-0.4367 10.562,-0.7471 15.9091,-0.8982 0.012,-3e-4 0.0237,0 0.0357,0 l -2.54868,-7.7153 c 0,0 -1.90791,-0.1267 -5.58107,-0.063 -2.1e-4,0 -2.9e-4,0 -5e-4,0 z" />
    </g>
    <path
       transform="matrix(.1907 0 0 .19058 -190.53 -68.832)"
       d="m2719 1208.5c-89.905 0.104-149.3 7.3646-149.5 7.3887-3e-4 0-0.1113 0.01-0.1113 0.01l0.25 2.9902s328.16-15.668 591.1 90.531c9.0967 40.059 35.27 104.92 49.814 137.19-20.448 14.099-42.279 28-59.994 50.19-17.997 22.543-31.643 53.583-35.307 101.69-7.3587 96.658 75.664 181.55 178.54 184.19 96.954 5.1644 163.58 5.8866 244.46 47.805 38.332 21.195 73.475 64.317 99.738 116.8 26.264 52.488 43.669 114.31 46.801 172.78l2.9961 0.039v-0.1992c3.3854-43.837-3.1194-112.49-29.586-177.5-24.86-61.066-67.747-118.56-136.28-149.12 96.821 20.36 150.98 66.106 180.63 107.91 31.141 43.897 35.766 83.01 35.766 83.01l2.9824-0.045s3.9971-46.147-28.104-97.404-100.28-107.64-243.91-128.71c-36.4-5.3408-82.402-9.4487-128.96-9.5664h-0.026c-114.29 1.5111-172.99-64.144-182.07-131.74-4.537-33.796 3.3933-68.084 23.111-94.725 19.718-26.64 51.196-45.694 94.09-49.045h0.01c70.883-5.8487 156.12 32.412 239.6 71.279-0.2456 10.066 0.3263 19.508 7.2266 28.133 3.8348 4.7931 12.166 9.1336 20.678 13.154 8.5116 4.0206 17.238 7.5995 21.207 9.8769 8.256 4.7391 35.052 21.825 51.268 42.932l1.4102 1.8379 1.0996-2.043c0.6257-1.1703 3.1136-3.7343 6.3633-6.4531s7.2883-5.7534 11.221-8.584c7.8648-5.6613 15.295-10.498 15.295-10.498l4.4082-2.8711-5.2559 0.1114s-1.5686 0.047-5.3378-0.6719c-3.7693-0.7195-9.6275-2.2063-17.865-5.2852-8.0259-2.9993-17.049-9.1773-24.049-14.734-3.4998-2.7786-6.5071-5.406-8.6523-7.3907-1.0727-0.9923-1.9265-1.8236-2.5176-2.4277-0.2956-0.302-0.5272-0.5437-0.6719-0.709-0.052-0.059-0.083-0.1177-0.1133-0.1699-0.089-0.2485-0.1081-0.3943-0.078-0.4512 0.038-0.07 0.4295-0.5549 2.1562-0.9004l0.375-0.072 0.2969-0.252c1.257-1.0582 1.4343-2.7785 1.1133-4.2148-0.3209-1.4364-1.0493-2.8683-1.9336-4.2969-1.7686-2.8573-4.2065-5.639-5.7656-7.1973-0.1618-0.1621-0.8404-1.0299-1.6465-2.207s-1.8075-2.7191-2.9375-4.4961c-2.2601-3.554-5.0159-8.0393-7.6914-12.459-5.351-8.8393-10.324-17.298-10.631-17.812-0.3152-0.5259-0.8-1.8439-2.4726-2.9609l-0.1778-0.1172-0.1992-0.061c-1.5613-0.5021-3.5641-0.4726-6.0293-0.3457-2.4651 0.1269-5.2911 0.425-7.9726 0.7675-5.0479 0.6448-9.0506 1.3614-9.5684 1.4532-0.5828-0.2903-28.606-14.316-38.406-44.424l-2.9239 0.502c0.1089 4.0222-3.745 10.322-0.7754 20.973-13.758-6.5114-25.576-17.213-35.174-42.469l-1.3672-3.6016-1.4238 3.5801c-3.1916 8.0265-3.2126 14.689-2.3984 19.34 0.456 2.6055 0.8486 2.8892 1.4082 4.1563-6.7931-2.3256-33.078-12.881-37.979-41.131l-0.8632-5.0136-1.9942 4.6875c-3.2788 7.7301-3.3075 14.049-2.4648 18.426 0.3958 2.0558 0.7047 2.0786 1.2324 3.2559-8.2693-4.0356-63.332-29.363-153.74-29.801-15.918-1.4623-28.65-9.5189-38.844-21.238-10.196-11.721-17.782-27.106-23.15-42.947s-8.5295-32.134-9.9649-45.635c-1.4353-13.501-1.0459-24.384 0.295-28.672l0.3691-1.1875-1.0996-0.5839s-94.664-49.857-280.58-71.848c-69.714-8.2481-134.72-10.775-188.75-10.713zm243.8 93.148c-32.231-0.066-67.418 0.9267-104.69 3.5762-170.32 12.106-341.97 71.605-342.34 71.73-3e-4 1e-4 -0.125 0.037-0.125 0.037l0.8555 2.8711s351.52-88.378 645.95-36.533l0.2578-1.4766 1.4336-0.4414-7.9433-25.623-0.9004-0.1621s-71.317-12.665-178.86-13.887c-4.4811-0.051-9.0265-0.082-13.631-0.092zm194.6 52.75c-2.2974-0.01-4.967 0-8 0.057-36.396 0.6335-125.25 6.924-253.75 47.133-174.64 54.645-273.8 132.17-273.8 132.17l1.6543 2.4942s259.73-144.96 552.67-153.2l2.0156-0.061-9.3535-28.272-1.0039-0.066s-3.5472-0.2352-10.44-0.2637zm180.57 22.225-1.004 2.8203c80.394 32.679 150.29 75.943 204.52 135.53l2.6055 2.8711v-2.4726l14.586-0.9532-1.8594-2.2578s-75.116-91.106-218.7-135.49c-0.01 0-0.016-0.01-0.023-0.01-0.044-0.014-0.081-0.029-0.125-0.043zm227.28 176.59c0.7743 0.7973 1.8804 2.3643 3.0781 4.2734 1.833 2.9217 3.901 6.2209 5.9141 9.2266-0.5861-0.3594-1.2272-0.7295-2.6426-1.7188-1.9375-1.354-4.1418-3.146-4.9395-4.2441h-0.01c-0.8375-1.1521-1.4256-2.9571-1.6308-4.6367-0.1607-1.3151 0.058-2.2104 0.2285-2.9004z"
       dominant-baseline="auto"
       style="color-rendering:auto;color:#000000;dominant-baseline:auto;fill:#000919;filter:url(#c);font-feature-settings:normal;font-variant-alternates:normal;font-variant-caps:normal;font-variant-ligatures:normal;font-variant-numeric:normal;font-variant-position:normal;image-rendering:auto;isolation:auto;mix-blend-mode:normal;opacity:.3;shape-padding:0;shape-rendering:auto;solid-color:#000000;text-decoration-color:#000000;text-decoration-line:none;text-decoration-style:solid;text-indent:0;text-orientation:mixed;text-transform:none;white-space:normal"
       id="path26" />
    <g
       transform="matrix(.4999 0 0 .49961 15.203 4.1653)"
       style="fill:#fff"
       id="g30">
      <path
         d="m796.88 371.23s-38.338-2.551-103.62 17.878c-66.534 20.817-104.27 50.326-104.27 50.326s99.165-55.367 211.1-58.513zm143 60.2 4.9842-0.32513s-28.556-34.647-83.213-51.522c30.725 12.489 57.469 29.038 78.229 51.848zm8.1568 14.395c0.7663-1.3286 3.2399 4.2209 5.1188 6.5522 0.0796 0.46554 0.21173 0.74962-0.87749 0.52554-0.0915-0.47857-0.24966-0.61734-0.24966-0.61734s-2.629-1.5643-3.4352-2.674c-0.80667-1.1096-0.94983-3.0505-0.55659-3.7865zm67.076 164.92s6.0619-69.597-103.28-85.641c-13.859-2.0334-31.385-3.5986-49.114-3.6433-87.64 1.1587-90.833-101.08-24.794-106.24 27.369-2.2582 60.051 12.506 91.999 27.384-0.11864 3.9678 0.0455 7.4941 2.6523 10.752 2.606 3.2573 12.617 6.8109 15.816 8.6463 3.1987 1.8361 13.446 8.3514 19.726 16.525 1.3618-2.5474 12.735-9.9504 12.735-9.9504s-2.7246 0.0594-9.0628-2.3096c-6.3389-2.3688-13.861-9.5362-14.039-9.9504-0.17764-0.41493-0.29585-1.0662 1.1855-1.3627 1.1248-0.94693-1.4226-4.0272-2.5481-5.1519-1.1248-1.1256-8.6485-13.918-8.8257-14.215-0.17762-0.29621-0.23727-0.592-0.76988-0.94769-1.659-0.53349-8.9449 0.7699-8.9449 0.7699s-11.205-5.5034-15.068-17.369c0.0562 2.0783-1.9215 4.3474 0 9.122-5.8423-2.4715-10.861-6.6867-14.819-17.103-2.3559 5.9248 0 9.6916 0 9.6916s-13.758-3.8443-15.958-16.532c-2.4159 5.6955 0 9.1212 0 9.1212s-22.429-11.703-59.698-11.873c-24.951-2.2886-30.145-46.18-27.834-53.571 0 0-35.988-18.967-106.83-27.346-70.845-8.3804-128.94-1.2629-128.94-1.2629s125.47-6.0216 225.99 34.673c3.4171 15.283 13.696 40.737 19.232 52.974-15.842 10.953-33.706 21.252-36.488 57.78-2.781 36.528 28.625 68.66 67.57 69.65 36.98 1.9698 62.53 2.2496 93.5 18.305 29.561 16.344 53.798 66.149 56.196 110.94 2.5907-33.234-9.8811-104.7-68.082-126.4 81.343 14.235 88.5 74.538 88.5 74.538zm-220.15-244.97-2.9269-9.4408s-48.296-8.5762-113.23-3.9606c-64.934 4.6155-130.49 27.346-130.49 27.346s134.15-33.755 246.65-13.944"
         style="stroke-width:1.4346"
         id="path28" />
    </g>
  </g>
  <rect
     x="20.028"
     y="48.708"
     width="129.49"
     height="56.495"
     rx="1.2769"
     ry=".98475"
     style="filter:url(#d);opacity:.2;paint-order:normal;stroke-width:.42381"
     id="rect33" />
  <use
     transform="translate(7.5664e-6 -3.5003e-6)"
     width="100%"
     height="100%"
     clip-path="url(#g)"
     style="filter:url(#e)"
     xlink:href="#b"
     id="use35" />
  <path
     d="m 103.82779,14.997531 c -0.14892,-0.03987 -0.29747,-0.04707 -0.45131,-0.04707 H 66.069211 c -0.55996,0.0039 -1.051557,0.357911 -1.237599,0.884378 -0.06082,0.171174 -0.07858,0.344414 -0.07858,0.523929 v 17.646688 c 0.02083,0.735344 0.595992,1.308745 1.324667,1.310538 1.527276,0.002 4.67241,-0.0057 4.67241,-0.0057 l -0.0057,-1.365691 h -4.587493 c -0.02438,-0.146753 -0.01825,-17.416467 0.0057,-17.49751 0.140521,-0.01959 37.120794,-0.01251 37.201124,0.0067 0.0226,0.133198 0.0158,17.405709 -0.009,17.496076 H 72.428065 v 1.365834 c 0,0 0.120719,0 0.175958,0.002 h 30.884037 c 0.55387,-0.0057 1.0446,-0.352926 1.23337,-0.875055 0.0608,-0.166333 0.0783,-0.337793 0.0783,-0.513127 V 16.249136 c -0.0115,-0.584073 -0.40916,-1.0971 -0.97152,-1.252446 z M 72.429521,30.16773 v -3.531991 c 0,-0.07964 0.0225,-0.135608 0.08743,-0.186121 0.272766,-0.215705 0.541916,-0.437534 0.811009,-0.657743 0.02681,-0.01998 0.05293,-0.03766 0.08647,-0.06205 0.02904,0.03755 0.05351,0.0682 0.07599,0.101993 0.457595,0.660146 0.915505,1.319575 1.372863,1.978681 0.561115,0.811869 1.123134,1.620009 1.683123,2.42815 0.03103,0.04688 0.05956,0.08252 0.128594,0.08252 0.589602,-0.0019 1.178502,-0.0019 1.767466,-0.0019 0.0195,0 0.03958,-0.0067 0.07061,-0.01345 -1.303868,-1.898857 -2.602429,-3.784733 -3.904863,-5.681868 0.262036,-0.304186 0.515544,-0.596932 0.768766,-0.89693 0.25386,-0.293736 0.506845,-0.588447 0.760303,-0.884235 0.253071,-0.295012 0.504306,-0.590506 0.75808,-0.885812 0.253207,-0.295988 0.506844,-0.591324 0.757147,-0.88653 0.252074,-0.292933 0.502341,-0.586038 0.769483,-0.902094 h -0.148546 c -0.533561,0 -1.066834,0.0029 -1.600502,-0.0019 -0.09808,0 -0.159993,0.02843 -0.224713,0.104553 -1.310825,1.552306 -2.624806,3.104899 -3.938643,4.655484 -0.01749,0.0198 -0.04016,0.03767 -0.07791,0.07254 v -3.861688 c 0,-0.319627 0.0057,-0.640229 0,-0.959971 h -1.648554 v 10.126136 c 0.130875,0.02296 1.562849,0.01835 1.651065,-0.0058 v -0.128888 z m 8.802187,0.146552 c 0.01328,-0.03833 0.02846,-0.07128 0.04007,-0.10697 0.26639,-0.75686 0.533073,-1.51243 0.800251,-2.269935 0.04438,-0.121759 0.08857,-0.244178 0.128788,-0.366432 0.01586,-0.05101 0.04198,-0.07772 0.09578,-0.07128 0.01748,0.0019 0.03775,0 0.05543,0 h 3.760635 c 0.339938,0.941826 0.677566,1.876838 1.013904,2.812066 h 1.760509 C 87.617133,26.909192 86.352496,23.519709 85.090297,20.131803 h -1.800098 c -0.01155,0.02218 -0.02008,0.03833 -0.0247,0.05361 -1.253377,3.361011 -2.505392,6.723385 -3.758339,10.083822 -0.0058,0.0058 -0.0058,0.01585 -0.0058,0.02248 v 0.01056 c 0,0.0049 0.0058,0.0067 0.0067,0.01153 h 1.72049 z m 1.521896,-4.362221 c 0.346687,-1.003863 0.698323,-2.003352 1.03621,-3.009942 0.135565,-0.40455 0.237737,-0.821838 0.353134,-1.234515 0.01,-0.03122 0.01586,-0.06254 0.02904,-0.109688 0.01745,0.02661 0.03103,0.04284 0.03583,0.06032 0.275376,1.028248 0.651834,2.025872 0.99368,3.034541 0.142005,0.419677 0.289074,0.836828 0.433618,1.256749 0.01095,0.03756 0.02179,0.07513 0.03525,0.121622 h -2.953857 c 0.01328,-0.04381 0.02451,-0.08137 0.03709,-0.119048 z m 8.91407,-4.993571 c 0,-0.262208 0.0096,-0.522021 -0.0067,-0.781747 H 90.03289 c -0.02748,0.126607 -0.02083,10.055133 0.0058,10.137611 h 5.930091 V 28.903767 H 93.10816 c -0.24047,0 -0.482833,0.0019 -0.722292,0 -0.23598,-0.0019 -0.47097,0.0087 -0.715757,-0.0058 v -7.938688 z m 7.079331,-0.719351 c 0,-0.01576 0,-0.02882 -0.0057,-0.04506 0,-0.0049 -0.0065,-0.0058 -0.0065,-0.0086 0,-0.0019 -0.0065,-0.0057 -0.0065,-0.0057 h -1.633636 v 10.131874 h 1.642386 c 0.0065,-0.017 0.0096,-0.02613 0.0096,-0.03747 V 20.239046 Z"
     style="clip-rule:evenodd;opacity:0.3;fill:#000000;fill-opacity:1;fill-rule:evenodd;stroke-width:0.22436;filter:url(#filter1378)"
     id="path1322" />
  <path
     d="m 103.82779,14.468364 c -0.14892,-0.03987 -0.29747,-0.04707 -0.45131,-0.04707 H 66.069211 c -0.55996,0.0039 -1.051557,0.357911 -1.237599,0.884378 -0.06082,0.171174 -0.07858,0.344414 -0.07858,0.523929 v 17.646688 c 0.02083,0.735344 0.595992,1.308745 1.324667,1.310538 1.527276,0.002 4.67241,-0.0057 4.67241,-0.0057 l -0.0057,-1.365691 h -4.587493 c -0.02438,-0.146753 -0.01825,-17.416467 0.0057,-17.49751 0.140521,-0.01959 37.120794,-0.01251 37.201124,0.0067 0.0226,0.133198 0.0158,17.405709 -0.009,17.496076 H 72.428065 v 1.365834 c 0,0 0.120719,0 0.175958,0.002 h 30.884037 c 0.55387,-0.0057 1.0446,-0.352926 1.23337,-0.875055 0.0608,-0.166333 0.0783,-0.337793 0.0783,-0.513127 V 15.719969 c -0.0115,-0.584073 -0.40916,-1.0971 -0.97152,-1.252446 z M 72.429521,29.638563 v -3.531991 c 0,-0.07964 0.0225,-0.135608 0.08743,-0.186121 0.272766,-0.215705 0.541916,-0.437534 0.811009,-0.657743 0.02681,-0.01998 0.05293,-0.03766 0.08647,-0.06205 0.02904,0.03755 0.05351,0.0682 0.07599,0.101993 0.457595,0.660146 0.915505,1.319575 1.372863,1.978681 0.561115,0.811869 1.123134,1.620009 1.683123,2.42815 0.03103,0.04688 0.05956,0.08252 0.128594,0.08252 0.589602,-0.0019 1.178502,-0.0019 1.767466,-0.0019 0.0195,0 0.03958,-0.0067 0.07061,-0.01345 -1.303868,-1.898857 -2.602429,-3.784733 -3.904863,-5.681868 0.262036,-0.304186 0.515544,-0.596932 0.768766,-0.89693 0.25386,-0.293736 0.506845,-0.588447 0.760303,-0.884235 0.253071,-0.295012 0.504306,-0.590506 0.75808,-0.885812 0.253207,-0.295988 0.506844,-0.591324 0.757147,-0.88653 0.252074,-0.292933 0.502341,-0.586038 0.769483,-0.902094 h -0.148546 c -0.533561,0 -1.066834,0.0029 -1.600502,-0.0019 -0.09808,0 -0.159993,0.02843 -0.224713,0.104553 -1.310825,1.552306 -2.624806,3.104899 -3.938643,4.655484 -0.01749,0.0198 -0.04016,0.03767 -0.07791,0.07254 v -3.861688 c 0,-0.319627 0.0057,-0.640229 0,-0.959971 h -1.648554 v 10.126136 c 0.130875,0.02296 1.562849,0.01835 1.651065,-0.0058 v -0.128888 z m 8.802187,0.146552 c 0.01328,-0.03833 0.02846,-0.07128 0.04007,-0.10697 0.26639,-0.75686 0.533073,-1.51243 0.800251,-2.269935 0.04438,-0.121759 0.08857,-0.244178 0.128788,-0.366432 0.01586,-0.05101 0.04198,-0.07772 0.09578,-0.07128 0.01748,0.0019 0.03775,0 0.05543,0 h 3.760635 c 0.339938,0.941826 0.677566,1.876838 1.013904,2.812066 h 1.760509 C 87.617133,26.380025 86.352496,22.990542 85.090297,19.602636 h -1.800098 c -0.01155,0.02218 -0.02008,0.03833 -0.0247,0.05361 -1.253377,3.361011 -2.505392,6.723385 -3.758339,10.083822 -0.0058,0.0058 -0.0058,0.01585 -0.0058,0.02248 v 0.01056 c 0,0.0049 0.0058,0.0067 0.0067,0.01153 h 1.72049 z m 1.521896,-4.362221 c 0.346687,-1.003863 0.698323,-2.003352 1.03621,-3.009942 0.135565,-0.40455 0.237737,-0.821838 0.353134,-1.234515 0.01,-0.03122 0.01586,-0.06254 0.02904,-0.109688 0.01745,0.02661 0.03103,0.04284 0.03583,0.06032 0.275376,1.028248 0.651834,2.025872 0.99368,3.034541 0.142005,0.419677 0.289074,0.836828 0.433618,1.256749 0.01095,0.03756 0.02179,0.07513 0.03525,0.121622 h -2.953857 c 0.01328,-0.04381 0.02451,-0.08137 0.03709,-0.119048 z m 8.91407,-4.993571 c 0,-0.262208 0.0096,-0.522021 -0.0067,-0.781747 H 90.03289 c -0.02748,0.126607 -0.02083,10.055133 0.0058,10.137611 h 5.930091 V 28.3746 H 93.10816 c -0.24047,0 -0.482833,0.0019 -0.722292,0 -0.23598,-0.0019 -0.47097,0.0087 -0.715757,-0.0058 v -7.938688 z m 7.079331,-0.719351 c 0,-0.01576 0,-0.02882 -0.0057,-0.04506 0,-0.0049 -0.0065,-0.0058 -0.0065,-0.0086 0,-0.0019 -0.0065,-0.0057 -0.0065,-0.0057 h -1.633636 v 10.131874 h 1.642386 c 0.0065,-0.017 0.0096,-0.02613 0.0096,-0.03747 V 19.709879 Z"
     style="clip-rule:evenodd;fill:#ffffff;fill-rule:evenodd;stroke-width:0.22436"
     id="path39" />
  <rect
     x="20.028"
     y="47.12"
     width="129.49"
     height="56.495"
     rx="1.2769"
     ry=".98475"
     style="opacity:.2;paint-order:normal;stroke-width:.42381"
     id="rect41" />
</svg>
