<svg version="1.1" viewBox="0 0 81 16" xmlns="http://www.w3.org/2000/svg">
	<g id="active-center">
		<path d="m8 0.75c-4.0041 0-7.25 3.2459-7.25 7.25s3.2459 7.25 7.25 7.25 7.25-3.2459 7.25-7.25-3.2459-7.25-7.25-7.25z" fill="none"/>
		<path d="m4.003 4.0002h0.99962c0.01066-1.2e-4 0.02079-4.7e-4 0.03119 0 0.25486 0.0107 0.50967 0.12853 0.68724 0.31248l2.2803 2.2812 2.3117-2.2812c0.26552-0.23049 0.4465-0.30548 0.68723-0.31248h0.99962v0.99997c0 0.28646-0.03425 0.55063-0.2499 0.74998l-2.2803 2.2812 2.2491 2.2499c0.18812 0.18817 0.28113 0.45344 0.28113 0.71874v0.99998h-0.99962c-0.26519-1e-5 -0.53037-0.0931-0.71847-0.28125l-2.2803-2.2811-2.2803 2.2811c-0.1881 0.18819-0.45329 0.28125-0.71849 0.28125h-0.99962v-0.99998c0-0.26528 0.09303-0.53057 0.28115-0.71874l2.2803-2.2499-2.2803-2.2812c-0.21065-0.19463-0.30304-0.46924-0.28115-0.74998v-0.99997z" color="#bebebe" enable-background="new" fill="#fff" stroke-width="1.3331" style="text-decoration-line:none;text-indent:0;text-transform:none"/>
	</g>
	<g id="hover-center" transform="translate(76.896 -6.3051)" fill="#fff">
		<path d="m-36.271 7.3051c-3.866 0-7 3.134-7 7s3.134 7 7 7 7-3.134 7-7-3.134-7-7-7z" opacity=".15" stroke="#000" stroke-width=".5"/>
		<path d="m-40.268 10.305h0.99962c0.01066-1.2e-4 0.02079-4.7e-4 0.03119 0 0.25486 0.0107 0.50967 0.12853 0.68724 0.31248l2.2803 2.2812 2.3117-2.2812c0.26552-0.23049 0.4465-0.30548 0.68723-0.31248h0.99962v0.99997c0 0.28646-0.03425 0.55063-0.2499 0.74998l-2.2803 2.2812 2.2491 2.2499c0.18812 0.18817 0.28113 0.45344 0.28113 0.71874v0.99998h-0.99962c-0.26519-1e-5 -0.53037-0.0931-0.71847-0.28125l-2.2803-2.2811-2.2803 2.2811c-0.1881 0.18819-0.45329 0.28125-0.71849 0.28125h-0.99962v-0.99998c0-0.26528 0.09303-0.53057 0.28115-0.71874l2.2803-2.2499-2.2803-2.2812c-0.21065-0.19463-0.30304-0.46924-0.28115-0.74998v-0.99997z" color="#bebebe" enable-background="new" fill="#fff" stroke-width="1.3331" style="text-decoration-line:none;text-indent:0;text-transform:none"/>
	</g>
	<g id="pressed-center" transform="translate(74.346 -.88136)">
		<path d="m-50.034 1.8814c-3.866 0-7 3.134-7 7s3.134 7 7 7 7-3.134 7-7-3.134-7-7-7z" opacity=".5" stroke="#000" stroke-width=".5"/>
		<path d="m-54.031 4.8816h0.99962c0.01066-1.2e-4 0.02079-4.7e-4 0.03119 0 0.25486 0.0107 0.50967 0.12853 0.68724 0.31248l2.2803 2.2812 2.3117-2.2812c0.26552-0.23049 0.4465-0.30548 0.68723-0.31248h0.99962v0.99997c0 0.28646-0.03425 0.55063-0.2499 0.74998l-2.2803 2.2812 2.2491 2.2499c0.18812 0.18817 0.28113 0.45344 0.28113 0.71874v0.99998h-0.99962c-0.26519-1e-5 -0.53037-0.0931-0.71847-0.28125l-2.2803-2.2811-2.2803 2.2811c-0.1881 0.18819-0.45329 0.28125-0.71849 0.28125h-0.99962v-0.99998c0-0.26528 0.09303-0.53057 0.28115-0.71874l2.2803-2.2499-2.2803-2.2812c-0.21065-0.19463-0.30304-0.46924-0.28115-0.74998v-0.99997z" color="#bebebe" enable-background="new" fill="#fff" stroke-width="1.3331" style="text-decoration-line:none;text-indent:0;text-transform:none"/>
	</g>
	<g id="deactivated-center" transform="translate(48.938 .25)" opacity=".5">
		<path d="m8 0.75c-4.0041 0-7.25 3.2459-7.25 7.25s3.2459 7.25 7.25 7.25 7.25-3.2459 7.25-7.25-3.2459-7.25-7.25-7.25z" fill="none"/>
		<path d="m4.003 4.0002h0.99962c0.01066-1.2e-4 0.02079-4.7e-4 0.03119 0 0.25486 0.0107 0.50967 0.12853 0.68724 0.31248l2.2803 2.2812 2.3117-2.2812c0.26552-0.23049 0.4465-0.30548 0.68723-0.31248h0.99962v0.99997c0 0.28646-0.03425 0.55063-0.2499 0.74998l-2.2803 2.2812 2.2491 2.2499c0.18812 0.18817 0.28113 0.45344 0.28113 0.71874v0.99998h-0.99962c-0.26519-1e-5 -0.53037-0.0931-0.71847-0.28125l-2.2803-2.2811-2.2803 2.2811c-0.1881 0.18819-0.45329 0.28125-0.71849 0.28125h-0.99962v-0.99998c0-0.26528 0.09303-0.53057 0.28115-0.71874l2.2803-2.2499-2.2803-2.2812c-0.21065-0.19463-0.30304-0.46924-0.28115-0.74998v-0.99997z" color="#bebebe" enable-background="new" fill="#fff" stroke-width="1.3331" style="text-decoration-line:none;text-indent:0;text-transform:none"/>
	</g>
	<g id="inactive-center" transform="translate(65.25 .25)" opacity=".5">
		<path d="m8 0.75c-4.0041 0-7.25 3.2459-7.25 7.25s3.2459 7.25 7.25 7.25 7.25-3.2459 7.25-7.25-3.2459-7.25-7.25-7.25z" fill="none" style=""/>
		<path d="m4.003 4.0002h0.99962c0.01066-1.2e-4 0.02079-4.7e-4 0.03119 0 0.25486 0.0107 0.50967 0.12853 0.68724 0.31248l2.2803 2.2812 2.3117-2.2812c0.26552-0.23049 0.4465-0.30548 0.68723-0.31248h0.99962v0.99997c0 0.28646-0.03425 0.55063-0.2499 0.74998l-2.2803 2.2812 2.2491 2.2499c0.18812 0.18817 0.28113 0.45344 0.28113 0.71874v0.99998h-0.99962c-0.26519-1e-5 -0.53037-0.0931-0.71847-0.28125l-2.2803-2.2811-2.2803 2.2811c-0.1881 0.18819-0.45329 0.28125-0.71849 0.28125h-0.99962v-0.99998c0-0.26528 0.09303-0.53057 0.28115-0.71874l2.2803-2.2499-2.2803-2.2812c-0.21065-0.19463-0.30304-0.46924-0.28115-0.74998v-0.99997z" color="#bebebe" enable-background="new" fill="#fff" stroke-width="1.3331" style="text-decoration-line:none;text-indent:0;text-transform:none"/>
	</g>
</svg>
