<svg version="1.1" viewBox="0 0 81 16" xmlns="http://www.w3.org/2000/svg">
	<g id="active-center">
		<path d="m8 0.75c-4.0041 0-7.25 3.2459-7.25 7.25s3.2459 7.25 7.25 7.25 7.25-3.2459 7.25-7.25-3.2459-7.25-7.25-7.25z" fill="none"/>
		<path d="m12.515 10-3.6381-3.6381c-0.48258-0.48259-1.2722-0.48256-1.7547 0l-3.6381 3.6381h9.0308" fill="#5c616c" fill-rule="evenodd" stroke-width="1.5154"/>
	</g>
	<g id="hover-center" transform="translate(76.896 -6.3051)">
		<path d="m-36.271 7.3051c-3.866 0-7 3.134-7 7s3.134 7 7 7 7-3.134 7-7-3.134-7-7-7z" opacity=".07" stroke="#000" stroke-width=".5"/>
		<path d="m-31.756 16.305-3.6381-3.6381c-0.48258-0.48259-1.2722-0.48256-1.7547 0l-3.6381 3.6381h9.0308" fill="#5c616c" fill-rule="evenodd" stroke-width="1.5154"/>
	</g>
	<g id="pressed-center" transform="translate(74.346 -.88136)">
		<path d="m-50.034 1.8814c-3.866 0-7 3.134-7 7s3.134 7 7 7 7-3.134 7-7-3.134-7-7-7z" fill="#fff" opacity=".7" stroke="#5c616c" stroke-width=".5"/>
		<path d="m-45.519 10.881-3.6381-3.6381c-0.48258-0.48259-1.2722-0.48256-1.7547 0l-3.6381 3.6381h9.0308" fill="#5c616c" fill-rule="evenodd" stroke-width="1.5154"/>
	</g>
	<g id="deactivated-center" transform="translate(48.938 .25)" opacity=".5">
		<path d="m8 0.75c-4.0041 0-7.25 3.2459-7.25 7.25s3.2459 7.25 7.25 7.25 7.25-3.2459 7.25-7.25-3.2459-7.25-7.25-7.25z" fill="none"/>
		<path d="m12.515 9.75-3.6381-3.6381c-0.48258-0.48259-1.2722-0.48256-1.7547 0l-3.6381 3.6381h9.0308" fill="#5c616c" fill-rule="evenodd" stroke-width="1.5154"/>
	</g>
	<g id="inactive-center" transform="translate(65.25 .25)" opacity=".5">
		<path d="m8 0.75c-4.0041 0-7.25 3.2459-7.25 7.25s3.2459 7.25 7.25 7.25 7.25-3.2459 7.25-7.25-3.2459-7.25-7.25-7.25z" fill="none" style=""/>
		<path d="m12.515 9.75-3.6381-3.6381c-0.48258-0.48259-1.2722-0.48256-1.7547 0l-3.6381 3.6381h9.0308" fill="#5c616c" fill-rule="evenodd" stroke-width="1.5154"/>
	</g>
</svg>
