<?xml version="1.0" encoding="utf-8"?>
<!-- Generator: Adobe Illustrator 15.0.0, SVG Export Plug-In . SVG Version: 6.00 Build 0)  -->
<!DOCTYPE svg PUBLIC "-//W3C//DTD SVG 1.1//EN" "http://www.w3.org/Graphics/SVG/1.1/DTD/svg11.dtd">
<svg version="1.1" xmlns="http://www.w3.org/2000/svg" xmlns:xlink="http://www.w3.org/1999/xlink" x="0px" y="0px"
	 width="1919.76px" height="1079.865px" viewBox="0 0 1919.76 1079.865" enable-background="new 0 0 1919.76 1079.865"
	 xml:space="preserve">
<g id="Color_Fill_1_1_" enable-background="new    ">
	<g id="Color_Fill_1">
		<g>
			<radialGradient id="SVGID_1_" cx="959.8799" cy="539.9326" r="778.7479" gradientUnits="userSpaceOnUse">
				<stop  offset="0" style="stop-color:#4BBBEB"/>
				<stop  offset="0.1009" style="stop-color:#3DA4D3"/>
				<stop  offset="0.2785" style="stop-color:#2781B0"/>
				<stop  offset="0.4579" style="stop-color:#166594"/>
				<stop  offset="0.6377" style="stop-color:#0A5280"/>
				<stop  offset="0.8181" style="stop-color:#024674"/>
				<stop  offset="1" style="stop-color:#004270"/>
			</radialGradient>
			<rect fill-rule="evenodd" clip-rule="evenodd" fill="url(#SVGID_1_)" width="1919.76" height="1079.865"/>
		</g>
	</g>
</g>
<g id="Group_1_1_">
</g>
<g id="Layer_3">
	<g>
		<g id="Shape_1_copy">
			<g>
				<path fill-rule="evenodd" clip-rule="evenodd" fill="#4BBBEB" d="M1222.579,366.315l17.676-1.153
					c0,0-107.354-121.212-300.051-181.077C1049.181,228.39,1148.014,287.26,1222.579,366.315z M724.723,186.865l-11.061-34.102
					c-102.339-5.823-538.055,106.31-736.061,262.95v0.438C208.37,296.717,300.691,265.08,413.63,233.637
					C526.834,202.12,668.764,183.649,724.723,186.865z M1489.421,1002.43c0,0-10.962-137.405-155.806-222.744
					c-144.843-85.341-288.902-95.52-388.336-97.477c-99.432-1.957-149.168-9.781-198.231-61.195
					c-77.249-94.08-47.483-162.617-36.348-197.073c11.135-34.457,57.777-111.774,147.911-117.446
					c102.319-4.833,116.606,11.345,158.835,26.262c42.23,14.917,155.686,64.711,171.023,71.854
					c-0.421,14.077-1.051,27.942,8.192,39.499c9.246,11.556,44.753,24.161,56.098,30.675c11.346,6.513,47.692,29.624,69.964,58.619
					c4.833-9.036,45.172-35.298,45.172-35.298s-9.665,0.21-32.146-8.193c-22.48-8.404-49.163-33.826-49.793-35.298
					c-0.63-1.471-1.051-3.781,4.202-4.832c3.991-3.362-5.042-14.288-9.035-18.278c-3.991-3.992-30.674-49.375-31.305-50.425
					c-0.63-1.051-0.841-2.101-2.73-3.362c-5.883-1.891-31.725,2.731-31.725,2.731s-20.325-15.013-53.2-55.062
					c0.199,7.372,0.797,5.579,5.778,30.883c-20.723-8.767-52.004-36.462-62.165-52.8c-0.398,8.568,3.983,22.516,3.983,22.516
					s-23.111-8.169-31.28-13.948c-8.17-5.778-23.61-24.064-23.61-24.064l0.518,13.954c0,0-90.956-40.827-143.154-43.412
					c-52.196-2.584-55.298,3.101-74.419-3.618c-84.755-24.29-90.439-68.217-97.674-95.09c-7.236-26.874-12.404-51.681,0-95.608
					c0,0-87.101-44.399-220.934-71.502H334.72c171.337,24.244,290.192,60.855,372.86,95.274
					c10.852,60.983,48.579,150.906,68.217,194.316c-56.848,33.593-112.146,63.567-127.133,206.204
					c-14.987,142.635,105.427,235.145,235.661,237.729s198.451-3.619,320.932,79.069c95.326,64.355,164.299,186.926,195.044,294.519
					h9.886c-21.98-112.752-95.562-253.593-242.946-351.441C1455.754,798.867,1489.421,1002.43,1489.421,1002.43z M1269.563,440.245
					c0.33,0.332,0,1.092,0,1.092s-0.896,0.298-1.192,0c-0.298-0.298-0.595-0.729-0.199-1.159
					C1268.802,439.714,1269.231,439.914,1269.563,440.245z M1252.271,417.738c3.726,3.966,15.505,18.63,15.625,19.833
					c0.12,1.202,0.603,2.403-0.841,2.283c-1.442-0.12-9.615-6.73-12.5-10.697C1251.67,425.19,1252.271,417.738,1252.271,417.738z
					 M710.283,133.407c0,0-4.609-20.892-7.067-33.489c-19.083-3.495-384.505-4.872-725.615,53.871v10.931
					C253.702,130.913,440.272,116.515,710.283,133.407z"/>
			</g>
		</g>
		<g id="Shape_1">
			<g>
				<path fill-rule="evenodd" clip-rule="evenodd" fill="#004270" d="M708.791,129.686c0,0-4.625-20.971-7.093-33.616
					c-19.075-3.492-382.922-4.875-724.097,53.348v11.18C252.407,127.037,439.152,112.818,708.791,129.686z M1223.025,363.477
					l17.744-1.158c0,0-107.761-121.67-301.187-181.762C1048.973,225.028,1148.18,284.123,1223.025,363.477z M723.287,183.348
					l-11.103-34.233c-101.999-5.802-533.905,105.123-734.583,260.607v1.576c228.512-118.069,320.75-149.635,433.416-181.002
					C524.649,198.659,667.116,180.12,723.287,183.348z M1490.877,1001.998c0,0-11.003-137.925-156.392-223.588
					c-145.393-85.662-289.998-95.88-389.807-97.845c-99.81-1.965-149.733-9.819-198.982-61.427
					c-77.542-94.437-47.663-163.232-36.485-197.819c11.177-34.586,57.997-112.197,148.471-117.891
					c102.706-4.851,117.048,11.388,159.438,26.361c42.39,14.974,156.273,64.957,171.668,72.128
					c-0.421,14.129-1.053,28.049,8.226,39.648c9.28,11.599,44.921,24.251,56.31,30.79c11.388,6.538,47.873,29.738,70.229,58.84
					c4.851-9.068,45.343-35.429,45.343-35.429s-9.702,0.21-32.267-8.226c-22.566-8.436-49.351-33.955-49.983-35.431
					c-0.633-1.477-1.055-3.797,4.219-4.851c4.006-3.374-5.063-14.34-9.069-18.348s-30.79-49.561-31.424-50.615
					c-0.633-1.055-0.844-2.109-2.74-3.375c-5.906-1.898-31.846,2.742-31.846,2.742s-20.399-15.07-53.401-55.27
					c0.201,7.399,0.801,5.6,5.801,31c-20.801-8.8-52.2-36.6-62.4-53c-0.399,8.6,4,22.6,4,22.6s-23.199-8.2-31.4-14
					c-8.199-5.8-23.699-24.155-23.699-24.155l0.52,14.006c0,0-91.302-40.981-143.696-43.575
					c-52.394-2.594-55.507,3.112-74.701-3.631c-85.075-24.381-90.782-68.476-98.044-95.451c-7.263-26.975-12.45-51.875,0-95.97
					c0,0-98.373-50.142-246.753-76.521H296.295C487.538,7.815,617.503,47.201,706.08,84.08
					c10.894,61.213,48.763,151.478,68.475,195.052c-57.063,33.72-112.57,63.808-127.613,206.983
					c-15.044,143.178,105.826,236.034,236.552,238.628c130.726,2.593,199.202-3.632,322.148,79.368
					c95.705,64.612,164.947,187.682,195.799,295.697h9.918c-22.048-113.188-95.908-254.597-243.878-352.835
					C1457.085,797.664,1490.877,1001.998,1490.877,1001.998z M1270.188,437.686c0.332,0.333,0,1.097,0,1.097s-0.896,0.299-1.196,0
					c-0.299-0.299-0.598-0.731-0.2-1.163C1269.424,437.154,1269.856,437.353,1270.188,437.686z M1252.833,415.094
					c3.739,3.981,15.563,18.7,15.684,19.906c0.12,1.207,0.604,2.413-0.844,2.292c-1.448-0.12-9.652-6.756-12.549-10.738
					C1252.229,422.574,1252.833,415.094,1252.833,415.094z"/>
			</g>
		</g>
		<g id="Shape_4_1_">
			<g>
				<path fill-rule="evenodd" clip-rule="evenodd" fill="#FFFFFF" d="M1115.705,432.979c-1.22-0.328-2.437-0.382-3.692-0.382
					H806.874c-4.582,0.038-8.598,2.926-10.125,7.235c-0.492,1.399-0.637,2.818-0.637,4.29v144.419
					c0.165,6.017,4.873,10.709,10.836,10.726c12.488,0.019,38.212-0.057,38.212-0.057l-0.034-11.177h-37.525
					c-0.199-1.2-0.145-142.529,0.037-143.185c1.146-0.163,303.614-0.108,304.268,0.056c0.181,1.089,0.126,142.437-0.075,143.183
					H858.885v11.18c0,0,0.981,0,1.437,0.019h252.602c4.526-0.056,8.544-2.892,10.089-7.163c0.491-1.363,0.637-2.764,0.637-4.201
					V443.232C1123.559,438.45,1120.305,434.251,1115.705,432.979z M858.903,557.131c0-9.634,0-19.269-0.019-28.901
					c0-0.656,0.182-1.109,0.709-1.528c2.235-1.764,4.436-3.582,6.635-5.38c0.218-0.163,0.436-0.309,0.709-0.509
					c0.236,0.309,0.436,0.563,0.618,0.836c3.746,5.398,7.488,10.798,11.235,16.197c4.581,6.635,9.181,13.25,13.762,19.866
					c0.255,0.383,0.49,0.674,1.054,0.674c4.817-0.019,9.636-0.019,14.452-0.019c0.162,0,0.328-0.054,0.582-0.109
					c-10.671-15.543-21.288-30.974-31.94-46.498c2.145-2.491,4.216-4.89,6.289-7.344c2.072-2.399,4.145-4.817,6.217-7.234
					c2.072-2.417,4.127-4.834,6.199-7.253c2.074-2.417,4.145-4.834,6.2-7.253c2.054-2.398,4.108-4.798,6.289-7.38h-1.217
					c-4.363,0-8.727,0.02-13.09-0.017c-0.8,0-1.309,0.235-1.836,0.854c-10.724,12.706-21.468,25.412-32.213,38.101
					c-0.145,0.162-0.327,0.309-0.636,0.6v-31.611c0-2.616,0.037-5.234-0.019-7.853h-13.489v82.871
					c1.072,0.183,12.779,0.146,13.508-0.053V557.131z M930.892,558.33c0.108-0.311,0.235-0.582,0.327-0.873
					c2.181-6.198,4.362-12.377,6.544-18.575c0.364-1.002,0.728-2.001,1.055-2.999c0.127-0.42,0.346-0.638,0.782-0.583
					c0.145,0.018,0.309,0,0.454,0h30.759c2.78,7.707,5.545,15.361,8.29,23.013H993.5c-10.379-27.85-20.723-55.588-31.049-83.309
					h-14.727c-0.09,0.181-0.163,0.309-0.199,0.437c-10.254,27.502-20.488,55.022-30.741,82.526c-0.037,0.052-0.037,0.127-0.037,0.18
					c0,0.039,0,0.054,0.018,0.092c0.019,0.036,0.037,0.055,0.055,0.091H930.892z M943.344,522.631
					c2.836-8.219,5.708-16.396,8.472-24.63c1.109-3.31,1.946-6.728,2.891-10.108c0.073-0.253,0.128-0.509,0.236-0.891
					c0.146,0.219,0.254,0.346,0.291,0.492c2.254,8.416,5.327,16.577,8.127,24.83c1.163,3.437,2.362,6.854,3.544,10.289
					c0.091,0.308,0.183,0.617,0.29,1h-24.158C943.144,523.248,943.236,522.939,943.344,522.631z M1016.245,481.767
					c-0.019-2.144,0.072-4.272-0.055-6.398h-13.325c-0.22,1.037-0.164,82.29,0.035,82.962h48.503v-11.541h-23.396
					c-1.962,0-3.945,0.017-5.908,0c-1.927-0.019-3.854,0.073-5.854-0.056v-58.422
					C1016.245,486.13,1016.264,483.949,1016.245,481.767z M1074.145,475.877c0-0.125-0.017-0.235-0.035-0.363
					c0-0.037-0.037-0.055-0.054-0.073c-0.019-0.018-0.055-0.054-0.055-0.054h-13.362v82.926h13.434
					c0.037-0.146,0.072-0.219,0.072-0.309V475.877z"/>
			</g>
		</g>
		<g id="BY_OFFENSIVE_SECURITY_1_">
			<g>
				<path fill-rule="evenodd" clip-rule="evenodd" fill="#FFFFFF" d="M808.285,617.393v-0.116c0.959-0.17,1.695-0.584,2.205-1.241
					c0.511-0.657,0.765-1.481,0.765-2.471c0-1.47-0.519-2.546-1.56-3.226c-1.04-0.682-2.728-1.021-5.064-1.021h-5.035v16.961h6.127
					c1.894,0,3.374-0.428,4.437-1.292c1.063-0.862,1.596-2.056,1.596-3.579c0-1.129-0.28-2.024-0.842-2.686
					C810.353,618.059,809.477,617.617,808.285,617.393z M802.369,611.64h2.401c1.252,0,2.168,0.177,2.743,0.533
					c0.577,0.354,0.865,0.931,0.865,1.728c0,0.882-0.266,1.506-0.8,1.872c-0.534,0.369-1.381,0.552-2.541,0.552h-2.668V611.64z
					 M807.942,623.28c-0.591,0.444-1.467,0.667-2.627,0.667h-2.946v-5.372h2.807c1.23,0,2.147,0.214,2.75,0.638
					c0.604,0.427,0.906,1.079,0.906,1.962C808.832,622.134,808.535,622.837,807.942,623.28z M822.45,617.058l-4.015-7.74h-3.018
					l5.628,10.477v6.484h2.785v-6.576l5.65-10.385h-3.016L822.45,617.058z M849.792,609.05c-2.562,0-4.531,0.751-5.912,2.251
					c-1.379,1.5-2.071,3.651-2.071,6.452c0,2.799,0.686,4.96,2.059,6.478c1.373,1.522,3.34,2.282,5.9,2.282
					c2.53,0,4.484-0.768,5.865-2.297c1.382-1.533,2.072-3.68,2.072-6.44c0-2.77-0.689-4.914-2.066-6.439
					C854.262,609.813,852.313,609.05,849.792,609.05z M853.498,622.545c-0.839,1.066-2.083,1.601-3.73,1.601
					c-1.655,0-2.904-0.54-3.749-1.619c-0.842-1.08-1.264-2.662-1.264-4.751c0-2.08,0.424-3.659,1.272-4.734
					c0.847-1.073,2.102-1.612,3.765-1.612c1.647,0,2.887,0.539,3.718,1.612c0.832,1.075,1.247,2.654,1.247,4.734
					C854.757,619.886,854.337,621.477,853.498,622.545z M863.723,626.278h2.75v-6.96h6.393v-2.354h-6.393v-5.303h6.822v-2.345
					h-9.572V626.278z M878.747,626.278h2.75v-6.96h6.393v-2.354h-6.393v-5.303h6.822v-2.345h-9.571V626.278z M893.769,626.278h9.595
					v-2.354h-6.822V618.6h6.393v-2.321h-6.393v-4.616h6.822v-2.345h-9.595V626.278z M920.996,618.204
					c0,0.627,0.023,1.499,0.07,2.617c0.046,1.119,0.077,1.766,0.092,1.943h-0.069l-8.319-13.447h-3.365v16.961h2.518v-8.816
					c0-1.191-0.054-2.506-0.162-3.944l-0.057-0.754h0.091l8.344,13.515h3.399v-16.961h-2.542V618.204z M938.49,618.159
					c-0.58-0.449-1.493-0.934-2.738-1.451c-1.106-0.457-1.871-0.824-2.297-1.102c-0.426-0.28-0.731-0.574-0.916-0.888
					c-0.187-0.313-0.278-0.69-0.278-1.131c0-0.644,0.231-1.159,0.695-1.549c0.463-0.392,1.145-0.588,2.041-0.588
					c1.184,0,2.53,0.318,4.038,0.951l0.883-2.262c-1.609-0.711-3.226-1.066-4.851-1.066c-1.693,0-3.043,0.406-4.049,1.217
					c-1.004,0.812-1.507,1.927-1.507,3.342c0,1.13,0.317,2.097,0.952,2.901c0.633,0.804,1.724,1.52,3.271,2.146
					c1.5,0.603,2.49,1.125,2.971,1.567c0.479,0.439,0.718,0.977,0.718,1.61c0,0.704-0.26,1.266-0.783,1.683
					c-0.521,0.42-1.332,0.626-2.43,0.626c-0.75,0-1.561-0.103-2.432-0.313c-0.869-0.206-1.691-0.493-2.465-0.858v2.622
					c1.222,0.596,2.792,0.896,4.711,0.896c1.918,0,3.422-0.432,4.513-1.288c1.091-0.858,1.636-2.044,1.636-3.55
					c0-0.768-0.136-1.433-0.406-1.996C939.497,619.114,939.071,618.607,938.49,618.159z M945.833,626.278h2.772v-16.961h-2.772
					V626.278z M961.586,619.817c-0.132,0.37-0.302,0.942-0.51,1.719c-0.21,0.772-0.364,1.451-0.465,2.039
					c-0.062-0.385-0.197-0.975-0.405-1.768c-0.21-0.792-0.408-1.44-0.592-1.943l-3.539-10.547h-2.854l5.917,16.961h2.925
					l5.938-16.961h-2.877L961.586,619.817z M972.617,626.278h9.594v-2.354h-6.82V618.6h6.393v-2.321h-6.393v-4.616h6.82v-2.345
					h-9.594V626.278z M1004.901,618.159c-0.58-0.449-1.492-0.934-2.738-1.451c-1.104-0.457-1.873-0.824-2.298-1.102
					c-0.424-0.28-0.73-0.574-0.916-0.888s-0.28-0.69-0.28-1.131c0-0.644,0.234-1.159,0.697-1.549
					c0.465-0.392,1.145-0.588,2.044-0.588c1.183,0,2.528,0.318,4.035,0.951l0.883-2.262c-1.608-0.711-3.225-1.066-4.85-1.066
					c-1.693,0-3.044,0.406-4.048,1.217c-1.008,0.812-1.509,1.927-1.509,3.342c0,1.13,0.316,2.097,0.95,2.901
					c0.633,0.804,1.725,1.52,3.271,2.146c1.502,0.603,2.493,1.125,2.972,1.567c0.48,0.439,0.721,0.977,0.721,1.61
					c0,0.704-0.263,1.266-0.784,1.683c-0.523,0.42-1.332,0.626-2.431,0.626c-0.75,0-1.562-0.103-2.433-0.313
					c-0.869-0.206-1.691-0.493-2.464-0.858v2.622c1.221,0.596,2.79,0.896,4.708,0.896c1.92,0,3.424-0.432,4.516-1.288
					c1.091-0.858,1.637-2.044,1.637-3.55c0-0.768-0.136-1.433-0.408-1.996C1005.907,619.114,1005.48,618.607,1004.901,618.159z
					 M1012.243,626.278h9.596v-2.354h-6.823V618.6h6.395v-2.321h-6.395v-4.616h6.823v-2.345h-9.596V626.278z M1035.098,611.451
					c0.704,0,1.375,0.104,2.012,0.31c0.64,0.205,1.245,0.442,1.817,0.713l0.997-2.31c-1.47-0.726-3.071-1.09-4.803-1.09
					c-1.647,0-3.083,0.352-4.305,1.055s-2.158,1.718-2.803,3.04c-0.646,1.323-0.97,2.866-0.97,4.629
					c0,2.801,0.667,4.953,1.996,6.457c1.33,1.504,3.236,2.258,5.722,2.258c1.686,0,3.194-0.252,4.524-0.755v-2.379
					c-0.729,0.226-1.428,0.408-2.1,0.551c-0.674,0.145-1.37,0.216-2.089,0.216c-1.664,0-2.934-0.534-3.812-1.601
					c-0.88-1.068-1.317-2.643-1.317-4.724c0-1.987,0.458-3.545,1.368-4.674C1032.251,612.017,1033.504,611.451,1035.098,611.451z
					 M1055.84,620.025c0,2.747-1.308,4.12-3.922,4.12c-1.345,0-2.344-0.333-2.993-0.996c-0.649-0.667-0.975-1.699-0.975-3.1v-10.732
					h-2.785v10.931c0,1.948,0.585,3.479,1.753,4.595c1.168,1.113,2.804,1.67,4.908,1.67c1.413,0,2.63-0.255,3.648-0.76
					c1.017-0.507,1.794-1.231,2.332-2.17c0.536-0.941,0.807-2.037,0.807-3.291v-10.975h-2.773V620.025z M1076.56,614.259
					c0-1.654-0.527-2.893-1.579-3.712c-1.052-0.818-2.671-1.229-4.859-1.229h-4.794v16.961h2.775v-6.774h2.737l4.062,6.774h3.155
					l-4.792-7.506C1075.461,617.876,1076.56,616.371,1076.56,614.259z M1070.026,617.207h-1.924v-5.545h1.83
					c1.263,0,2.206,0.208,2.833,0.625c0.626,0.418,0.939,1.107,0.939,2.065c0,0.944-0.289,1.656-0.87,2.136
					C1072.255,616.967,1071.318,617.207,1070.026,617.207z M1082.892,626.278h2.772v-16.961h-2.772V626.278z M1090.616,611.696
					h4.989v14.582h2.771v-14.582h4.991v-2.379h-12.752V611.696z M1117.149,609.317l-4.016,7.74l-4.014-7.74h-3.017l5.626,10.477
					v6.484h2.785v-6.576l5.649-10.385H1117.149z"/>
			</g>
		</g>
	</g>
</g>
</svg>
