<?xml version="1.0" encoding="utf-8"?>
<!-- Generator: Adobe Illustrator 15.0.0, SVG Export Plug-In . SVG Version: 6.00 Build 0)  -->
<!DOCTYPE svg PUBLIC "-//W3C//DTD SVG 1.1//EN" "http://www.w3.org/Graphics/SVG/1.1/DTD/svg11.dtd">
<svg version="1.1" xmlns="http://www.w3.org/2000/svg" xmlns:xlink="http://www.w3.org/1999/xlink" x="0px" y="0px"
	 width="639.92px" height="479.939px" viewBox="0 0 639.92 479.939" enable-background="new 0 0 639.92 479.939"
	 xml:space="preserve">
<g id="Color_Fill_1_1_" enable-background="new    ">
	<g id="Color_Fill_1">
		<g>
			<radialGradient id="SVGID_1_" cx="319.96" cy="239.9697" r="282.8072" gradientUnits="userSpaceOnUse">
				<stop  offset="0" style="stop-color:#4BBBEB"/>
				<stop  offset="0.0799" style="stop-color:#40A9D9"/>
				<stop  offset="0.2694" style="stop-color:#2984B3"/>
				<stop  offset="0.4584" style="stop-color:#176796"/>
				<stop  offset="0.6447" style="stop-color:#0A5381"/>
				<stop  offset="0.8268" style="stop-color:#034674"/>
				<stop  offset="1" style="stop-color:#004270"/>
			</radialGradient>
			<rect fill-rule="evenodd" clip-rule="evenodd" fill="url(#SVGID_1_)" width="639.92" height="479.939"/>
		</g>
	</g>
</g>
<g id="Group_1_1_">
</g>
<g id="Layer_3">
	<g>
		<g id="Shape_1_copy">
			<g>
				<path fill-rule="evenodd" clip-rule="evenodd" fill="#4BBBEB" d="M456.757,172.498l8.659-0.564c0,0-52.59-59.378-146.986-88.705
					C371.814,104.932,420.229,133.771,456.757,172.498z M205.798,58.402c0,0-2.258-10.234-3.462-16.405
					c-6.654-1.218-99.277-1.91-212.376,8.17v8.897C59.524,54.015,125.044,53.351,205.798,58.402z M587.475,484.113
					c0,0-5.369-67.312-76.323-109.117c-70.955-41.806-141.526-46.792-190.235-47.75c-48.709-0.959-73.073-4.793-97.108-29.978
					c-37.842-46.089-23.261-79.662-17.806-96.542c5.455-16.879,28.304-54.754,72.458-57.533
					c50.123-2.368,57.122,5.558,77.809,12.864c20.688,7.308,76.266,31.701,83.779,35.2c-0.206,6.896-0.515,13.688,4.014,19.35
					c4.529,5.661,21.923,11.836,27.48,15.027c5.558,3.189,23.363,14.512,34.273,28.715c2.367-4.426,22.128-17.291,22.128-17.291
					s-4.734,0.103-15.747-4.014c-11.013-4.117-24.084-16.571-24.393-17.291c-0.309-0.721-0.515-1.854,2.059-2.368
					c1.955-1.646-2.47-6.998-4.426-8.954c-1.955-1.955-15.026-24.187-15.336-24.701c-0.309-0.515-0.411-1.029-1.337-1.647
					c-2.882-0.926-15.542,1.337-15.542,1.337s-9.956-7.354-26.061-26.973c0.098,3.612,0.391,2.733,2.831,15.129
					c-10.151-4.294-25.476-17.861-30.453-25.865c-0.195,4.197,1.952,11.029,1.952,11.029s-11.322-4.001-15.324-6.832
					s-11.566-11.789-11.566-11.789l0.254,6.836c0,0-44.558-20-70.127-21.266c-25.57-1.267-27.089,1.518-36.456-1.772
					c-41.519-11.899-44.304-33.417-47.848-46.583c-3.544-13.165-6.076-25.316,0-46.835c0,0-35.823-18.259-92.252-31.531H44.742
					c71.76,11.735,123.032,27.896,159.732,43.176c5.316,29.874,23.797,73.924,33.417,95.19
					c-27.848,16.456-54.937,31.14-62.279,101.013c-7.341,69.874,51.646,115.19,115.444,116.456
					c63.798,1.267,97.215-1.772,157.216,38.734c35.166,23.741,63.008,63.656,81.049,104.431h7.77
					c-17.685-45.993-51.837-95.399-107.441-132.315C570.983,384.393,587.475,484.113,587.475,484.113z M479.773,208.714
					c0.162,0.162,0,0.535,0,0.535s-0.438,0.146-0.584,0c-0.146-0.146-0.292-0.356-0.098-0.567
					C479.4,208.454,479.611,208.552,479.773,208.714z M471.303,197.688c1.825,1.942,7.596,9.126,7.654,9.715
					s0.295,1.178-0.412,1.119c-0.706-0.059-4.71-3.298-6.123-5.24C471.009,201.339,471.303,197.688,471.303,197.688z
					 M212.872,84.591l-5.418-16.706C176.073,66.1,80.704,86.954-10.04,121.624v8.66c25.612-9.761,47.164-16.28,70.517-22.781
					C115.932,92.063,185.459,83.016,212.872,84.591z"/>
			</g>
		</g>
		<g id="Shape_1">
			<g>
				<path fill-rule="evenodd" clip-rule="evenodd" fill="#004270" d="M456.976,171.107l8.692-0.566
					c0,0-52.788-59.603-147.543-89.041C371.712,103.286,420.312,132.234,456.976,171.107z M205.067,56.581
					c0,0-2.266-10.273-3.475-16.468c-6.649-1.217-98.81-1.911-211.633,8.064v8.957C59.213,52.166,124.607,51.547,205.067,56.581z
					 M588.189,483.901c0,0-5.39-67.566-76.613-109.529c-71.223-41.965-142.062-46.969-190.954-47.932
					c-48.894-0.963-73.351-4.811-97.476-30.091c-37.985-46.263-23.349-79.964-17.873-96.907
					c5.476-16.942,28.411-54.962,72.731-57.75c50.313-2.376,57.338,5.579,78.104,12.914s76.554,31.82,84.096,35.333
					c-0.207,6.922-0.517,13.74,4.029,19.423c4.546,5.682,22.006,11.88,27.584,15.083c5.579,3.203,23.452,14.567,34.402,28.824
					c2.377-4.442,22.213-17.356,22.213-17.356s-4.753,0.103-15.807-4.029c-11.055-4.133-24.175-16.633-24.485-17.356
					c-0.31-0.724-0.517-1.86,2.066-2.377c1.963-1.651-2.479-7.024-4.442-8.987s-15.084-24.279-15.394-24.795
					c-0.31-0.517-0.413-1.033-1.343-1.653c-2.893-0.93-15.601,1.344-15.601,1.344s-9.993-7.383-26.159-27.076
					c0.098,3.625,0.392,2.744,2.842,15.187c-10.19-4.311-25.572-17.93-30.568-25.964c-0.196,4.213,1.959,11.071,1.959,11.071
					s-11.364-4.017-15.382-6.857c-4.017-2.841-11.609-11.833-11.609-11.833l0.254,6.862c0,0-44.726-20.076-70.392-21.346
					c-25.667-1.271-27.192,1.524-36.594-1.779c-41.676-11.944-44.472-33.545-48.029-46.759c-3.558-13.214-6.099-25.413,0-47.012
					c0,0-32.392-16.51-84.115-29.58H55.599c65.691,11.568,113.415,26.811,148.14,41.27c5.336,29.987,23.888,74.204,33.544,95.55
					c-27.954,16.519-55.145,31.258-62.515,101.396c-7.369,70.138,51.841,115.626,115.88,116.896
					c64.04,1.271,97.584-1.779,157.812,38.881c35.352,23.866,63.329,64.016,81.436,105.008h7.789
					c-17.731-46.219-52.03-95.894-107.919-132.998C571.635,383.803,588.189,483.901,588.189,483.901z M480.08,207.46
					c0.163,0.163,0,0.537,0,0.537s-0.439,0.146-0.586,0s-0.293-0.358-0.098-0.569C479.705,207.199,479.917,207.297,480.08,207.46z
					 M471.577,196.394c1.832,1.949,7.624,9.16,7.684,9.751c0.059,0.591,0.296,1.183-0.414,1.123c-0.709-0.059-4.729-3.31-6.146-5.26
					S471.577,196.394,471.577,196.394z M212.168,82.867l-5.439-16.77C175.408,64.316,80.582,85.004-10.04,119.452v8.695
					c25.031-9.474,46.268-15.887,69.236-22.282C114.861,90.368,184.652,81.286,212.168,82.867z"/>
			</g>
		</g>
		<g id="Shape_4_1_">
			<g>
				<path fill-rule="evenodd" clip-rule="evenodd" fill="#FFFFFF" d="M384.828,198.821c-0.508-0.136-1.015-0.158-1.537-0.158
					H256.266c-1.907,0.016-3.579,1.219-4.215,3.012c-0.205,0.582-0.265,1.173-0.265,1.786v60.119
					c0.069,2.505,2.028,4.458,4.511,4.465c5.199,0.009,15.908-0.022,15.908-0.022l-0.014-4.653h-15.621
					c-0.083-0.5-0.061-59.333,0.015-59.606c0.478-0.068,126.391-0.045,126.663,0.023c0.075,0.453,0.053,59.295-0.031,59.605H277.917
					v4.653c0,0,0.409,0,0.598,0.009H383.67c1.884-0.023,3.557-1.204,4.2-2.982c0.204-0.567,0.265-1.15,0.265-1.748V203.09
					C388.097,201.1,386.742,199.353,384.828,198.821z M277.925,250.505c0-4.01,0-8.021-0.008-12.031
					c0-0.273,0.076-0.462,0.295-0.636c0.931-0.734,1.847-1.491,2.762-2.24c0.091-0.067,0.182-0.128,0.295-0.212
					c0.099,0.129,0.182,0.234,0.258,0.348c1.559,2.248,3.118,4.495,4.677,6.743c1.907,2.762,3.822,5.516,5.729,8.271
					c0.106,0.159,0.204,0.28,0.439,0.28c2.005-0.008,4.011-0.008,6.017-0.008c0.068,0,0.136-0.022,0.242-0.046
					c-4.441-6.47-8.861-12.894-13.296-19.356c0.893-1.036,1.755-2.035,2.618-3.058c0.862-0.998,1.726-2.004,2.588-3.011
					c0.863-1.007,1.718-2.013,2.581-3.02s1.726-2.013,2.581-3.019c0.855-0.999,1.71-1.998,2.619-3.072h-0.507
					c-1.816,0-3.632,0.008-5.449-0.008c-0.333,0-0.545,0.098-0.765,0.355c-4.465,5.289-8.938,10.578-13.41,15.86
					c-0.061,0.067-0.136,0.129-0.265,0.25v-13.159c0-1.09,0.015-2.18-0.008-3.27h-5.615v34.498c0.446,0.076,5.32,0.062,5.623-0.021
					V250.505z M307.893,251.004c0.045-0.129,0.099-0.242,0.136-0.363c0.908-2.58,1.816-5.153,2.725-7.733
					c0.151-0.416,0.303-0.832,0.439-1.248c0.053-0.175,0.144-0.266,0.325-0.242c0.06,0.008,0.128,0,0.189,0h12.804
					c1.158,3.208,2.309,6.395,3.451,9.58h5.994c-4.321-11.594-8.627-23.141-12.926-34.68h-6.13
					c-0.038,0.075-0.068,0.129-0.083,0.182c-4.269,11.448-8.529,22.904-12.797,34.354c-0.016,0.022-0.016,0.054-0.016,0.076
					c0,0.016,0,0.022,0.007,0.037c0.008,0.016,0.016,0.023,0.023,0.038H307.893z M313.076,236.143
					c1.181-3.421,2.376-6.825,3.526-10.253c0.462-1.378,0.811-2.801,1.204-4.207c0.03-0.106,0.053-0.213,0.098-0.371
					c0.061,0.091,0.106,0.143,0.122,0.204c0.938,3.503,2.217,6.901,3.382,10.337c0.484,1.43,0.983,2.853,1.476,4.282
					c0.038,0.128,0.076,0.257,0.121,0.417h-10.057C312.993,236.399,313.031,236.271,313.076,236.143z M343.424,219.132
					c-0.007-0.893,0.03-1.778-0.022-2.664h-5.547c-0.091,0.432-0.068,34.257,0.015,34.536h20.191V246.2h-9.74
					c-0.817,0-1.643,0.007-2.459,0c-0.803-0.009-1.605,0.029-2.438-0.023v-24.32C343.424,220.948,343.432,220.04,343.424,219.132z
					 M367.527,216.681c0-0.053-0.008-0.099-0.016-0.152c0-0.015-0.015-0.022-0.021-0.029c-0.008-0.008-0.023-0.023-0.023-0.023
					h-5.563v34.521h5.593c0.015-0.061,0.03-0.091,0.03-0.129V216.681z"/>
			</g>
		</g>
		<g id="BY_OFFENSIVE_SECURITY_1_">
			<g>
				<path fill-rule="evenodd" clip-rule="evenodd" fill="#FFFFFF" d="M256.854,275.591v-0.048c0.398-0.071,0.705-0.243,0.918-0.518
					c0.212-0.273,0.318-0.616,0.318-1.028c0-0.611-0.217-1.059-0.649-1.343c-0.434-0.283-1.136-0.425-2.108-0.425h-2.097v7.061
					h2.551c0.788,0,1.404-0.179,1.848-0.538c0.442-0.359,0.664-0.855,0.664-1.49c0-0.47-0.117-0.843-0.351-1.118
					C257.714,275.869,257.35,275.685,256.854,275.591z M254.39,273.195h1c0.521,0,0.902,0.074,1.143,0.223
					c0.24,0.147,0.359,0.388,0.359,0.72c0,0.366-0.11,0.627-0.333,0.779c-0.222,0.153-0.574,0.229-1.058,0.229h-1.111V273.195z
					 M256.711,278.042c-0.246,0.186-0.611,0.277-1.094,0.277h-1.228v-2.236h1.169c0.513,0,0.894,0.09,1.146,0.266
					c0.251,0.178,0.376,0.449,0.376,0.816C257.08,277.564,256.957,277.857,256.711,278.042z M262.75,275.451l-1.672-3.222h-1.256
					l2.343,4.361v2.699h1.159v-2.738l2.353-4.322h-1.256L262.75,275.451z M274.132,272.118c-1.066,0-1.886,0.313-2.461,0.937
					c-0.574,0.625-0.862,1.521-0.862,2.687c0,1.165,0.286,2.063,0.857,2.697c0.571,0.633,1.39,0.949,2.456,0.949
					c1.053,0,1.866-0.319,2.441-0.957s0.862-1.531,0.862-2.681c0-1.152-0.287-2.046-0.86-2.681
					C275.993,272.436,275.181,272.118,274.132,272.118z M275.675,277.735c-0.35,0.444-0.867,0.667-1.553,0.667
					c-0.689,0-1.209-0.226-1.561-0.675c-0.351-0.449-0.526-1.107-0.526-1.978c0-0.866,0.177-1.522,0.529-1.971
					c0.353-0.447,0.875-0.671,1.567-0.671c0.686,0,1.202,0.224,1.548,0.671c0.347,0.448,0.519,1.104,0.519,1.971
					C276.198,276.629,276.024,277.291,275.675,277.735z M279.931,279.29h1.146v-2.897h2.661v-0.98h-2.661v-2.207h2.84v-0.976h-3.985
					V279.29z M286.186,279.29h1.144v-2.897h2.662v-0.98h-2.662v-2.207h2.841v-0.976h-3.984V279.29z M292.438,279.29h3.994v-0.979
					h-2.84v-2.217h2.661v-0.967h-2.661v-1.922h2.84v-0.976h-3.994V279.29z M303.773,275.929c0,0.261,0.01,0.624,0.029,1.089
					c0.019,0.466,0.031,0.735,0.038,0.81h-0.028l-3.464-5.598h-1.4v7.061h1.048v-3.67c0-0.496-0.022-1.044-0.067-1.643l-0.023-0.313
					h0.038l3.473,5.626h1.415v-7.061h-1.058V275.929z M311.056,275.91c-0.241-0.187-0.621-0.389-1.14-0.604
					c-0.461-0.189-0.779-0.343-0.956-0.458c-0.178-0.117-0.305-0.239-0.382-0.37c-0.077-0.13-0.116-0.287-0.116-0.471
					c0-0.268,0.097-0.482,0.29-0.645c0.193-0.163,0.477-0.244,0.85-0.244c0.493,0,1.054,0.132,1.682,0.396l0.366-0.941
					c-0.669-0.296-1.342-0.444-2.019-0.444c-0.705,0-1.267,0.169-1.686,0.507c-0.418,0.338-0.628,0.802-0.628,1.392
					c0,0.47,0.133,0.872,0.396,1.207s0.718,0.633,1.361,0.894c0.625,0.251,1.037,0.468,1.237,0.652
					c0.199,0.184,0.299,0.407,0.299,0.671c0,0.293-0.108,0.526-0.326,0.7c-0.217,0.175-0.555,0.261-1.012,0.261
					c-0.313,0-0.649-0.043-1.012-0.13s-0.704-0.206-1.026-0.357v1.091c0.509,0.248,1.162,0.373,1.961,0.373s1.425-0.18,1.879-0.536
					c0.454-0.357,0.681-0.851,0.681-1.479c0-0.319-0.056-0.596-0.169-0.831C311.475,276.308,311.298,276.097,311.056,275.91z
					 M314.112,279.29h1.154v-7.061h-1.154V279.29z M320.67,276.601c-0.055,0.154-0.125,0.393-0.212,0.715s-0.151,0.604-0.193,0.85
					c-0.026-0.16-0.082-0.406-0.169-0.736c-0.088-0.33-0.169-0.6-0.246-0.809l-1.474-4.391h-1.188l2.464,7.061h1.217l2.473-7.061
					h-1.197L320.67,276.601z M325.262,279.29h3.995v-0.979h-2.84v-2.217h2.661v-0.967h-2.661v-1.922h2.84v-0.976h-3.995V279.29z
					 M338.702,275.91c-0.241-0.187-0.621-0.389-1.141-0.604c-0.46-0.189-0.778-0.343-0.956-0.458
					c-0.176-0.117-0.305-0.239-0.381-0.37c-0.078-0.13-0.116-0.287-0.116-0.471c0-0.268,0.097-0.482,0.29-0.645
					c0.192-0.163,0.477-0.244,0.85-0.244c0.493,0,1.053,0.132,1.681,0.396l0.367-0.941c-0.67-0.296-1.343-0.444-2.019-0.444
					c-0.705,0-1.268,0.169-1.686,0.507c-0.419,0.338-0.628,0.802-0.628,1.392c0,0.47,0.132,0.872,0.396,1.207
					s0.719,0.633,1.362,0.894c0.625,0.251,1.037,0.468,1.236,0.652c0.2,0.184,0.3,0.407,0.3,0.671c0,0.293-0.108,0.526-0.326,0.7
					c-0.217,0.175-0.555,0.261-1.012,0.261c-0.313,0-0.649-0.043-1.012-0.13s-0.704-0.206-1.026-0.357v1.091
					c0.508,0.248,1.162,0.373,1.961,0.373c0.798,0,1.425-0.18,1.879-0.536c0.454-0.357,0.681-0.851,0.681-1.479
					c0-0.319-0.057-0.596-0.169-0.831C339.121,276.308,338.943,276.097,338.702,275.91z M341.758,279.29h3.995v-0.979h-2.841v-2.217
					h2.662v-0.967h-2.662v-1.922h2.841v-0.976h-3.995V279.29z M351.272,273.118c0.293,0,0.572,0.043,0.838,0.128
					c0.266,0.086,0.518,0.185,0.756,0.297l0.415-0.961c-0.611-0.303-1.278-0.454-2-0.454c-0.685,0-1.282,0.146-1.791,0.439
					s-0.898,0.715-1.166,1.266c-0.27,0.551-0.404,1.192-0.404,1.927c0,1.166,0.277,2.062,0.831,2.688
					c0.554,0.627,1.348,0.94,2.382,0.94c0.701,0,1.329-0.104,1.883-0.314v-0.99c-0.303,0.094-0.594,0.17-0.874,0.229
					s-0.57,0.09-0.869,0.09c-0.692,0-1.222-0.223-1.587-0.667s-0.548-1.1-0.548-1.966c0-0.827,0.189-1.476,0.569-1.946
					C350.088,273.354,350.609,273.118,351.272,273.118z M359.907,276.687c0,1.144-0.544,1.716-1.633,1.716
					c-0.56,0-0.976-0.139-1.246-0.416c-0.271-0.276-0.405-0.706-0.405-1.289v-4.468h-1.16v4.55c0,0.812,0.243,1.448,0.73,1.912
					c0.485,0.464,1.167,0.696,2.043,0.696c0.589,0,1.095-0.106,1.519-0.316c0.423-0.211,0.747-0.513,0.972-0.903
					c0.223-0.392,0.335-0.849,0.335-1.37v-4.568h-1.154V276.687z M368.532,274.286c0-0.688-0.22-1.204-0.657-1.545
					s-1.112-0.512-2.023-0.512h-1.995v7.061h1.155v-2.82h1.14l1.69,2.82h1.313l-1.995-3.125
					C368.075,275.792,368.532,275.166,368.532,274.286z M365.813,275.514h-0.801v-2.309h0.763c0.524,0,0.918,0.087,1.179,0.261
					s0.391,0.461,0.391,0.859c0,0.393-0.12,0.689-0.362,0.889C366.74,275.414,366.351,275.514,365.813,275.514z M371.168,279.29
					h1.154v-7.061h-1.154V279.29z M374.384,273.22h2.077v6.07h1.154v-6.07h2.077v-0.99h-5.309V273.22z M385.43,272.229l-1.672,3.222
					l-1.671-3.222h-1.256l2.342,4.361v2.699h1.159v-2.738l2.353-4.322H385.43z"/>
			</g>
		</g>
	</g>
</g>
</svg>
