<svg id="Kali_site_Blue_1_" enable-background="new 0 0 234.72 144" version="1.1" viewBox="0 0 400 256" xmlns="http://www.w3.org/2000/svg">
	<path d="m385.53 13.458c-1.4501-0.38671-2.8967-0.45774-4.395-0.45774h-363.32c-5.4533 0.04234-10.24 3.4743-12.052 8.5848-0.59215 1.6616-0.76435 3.3433-0.76435 5.086v171.31c0.20166 7.1381 5.8042 12.705 12.9 12.722 14.873 0.0189 45.502-0.0535 45.502-0.0535l-0.05386-13.257h-44.675c-0.23707-1.4241-0.17694-169.07 0.05386-169.84 1.3685-0.1905 361.49-0.12165 362.29 0.06285 0.2178 1.293 0.15467 168.96-0.0834 169.84h-301.18v13.258s1.1755 0 1.7135 0.0191h300.76c5.3939-0.0535 10.173-3.4261 12.011-8.4948 0.5921-1.6146 0.76231-3.2791 0.76231-4.9812v-171.63c-0.11339-5.6698-3.9846-10.65-9.4608-12.157zm-305.76 147.26v-34.285c0-0.77327 0.21778-1.3163 0.85142-1.8065 2.6565-2.094 5.2772-4.2475 7.8987-6.3851 0.26151-0.19344 0.51577-0.3655 0.84193-0.60272 0.2828 0.36431 0.52063 0.66249 0.7402 0.99007 4.4561 6.4082 8.9157 12.81 13.369 19.207 5.4643 7.8813 10.938 15.726 16.391 23.571 0.30288 0.4553 0.58078 0.80054 1.2523 0.80054 5.7416-0.0191 11.477-0.0191 17.212-0.0191 0.18983 0 0.38517-0.0628 0.68761-0.13107-12.698-18.433-25.343-36.739-38.027-55.156 2.5518-2.9528 5.0205-5.7947 7.4863-8.7068 2.4723-2.8512 4.9358-5.7122 7.404-8.5833 2.4646-2.8638 4.9114-5.7322 7.3824-8.5989 2.466-2.8733 4.9358-5.74 7.3737-8.6053 2.4549-2.8436 4.8921-5.6886 7.4943-8.7563h-1.4467c-5.1961 0-10.389 0.03142-15.586-0.01908-0.9554 0-1.5579 0.27599-2.1883 1.0151-12.765 15.069-25.562 30.14-38.357 45.191-0.16974 0.19282-0.39031 0.36551-0.759 0.70429v-37.486c0-3.1027 0.05354-6.2147 0-9.319h-16.054v98.293c1.2745 0.223 15.219 0.17749 16.079-0.0533v-1.2506zm85.719 1.4226c0.12923-0.37219 0.2769-0.69183 0.3895-1.0382 2.5944-7.3469 5.1914-14.681 7.7928-22.035 0.43278-1.1819 0.86307-2.3703 1.2541-3.557 0.15472-0.49538 0.40824-0.75457 0.93229-0.69181 0.16972 0.0191 0.3671 0 0.53958 0h36.623c3.3105 9.1427 6.5982 18.219 9.8735 27.297h17.144c-12.367-33.03-24.682-65.928-36.974-98.819h-17.531c-0.1128 0.21552-0.19532 0.37258-0.23989 0.51991-12.206 32.625-24.398 65.264-36.6 97.885-0.0535 0.0533-0.0535 0.1542-0.0535 0.2171v0.10445c0 0.0424 0.0535 0.0628 0.063 0.11185h16.754zm14.821-42.345c3.3763-9.7452 6.8006-19.447 10.091-29.218 1.3201-3.9271 2.3152-7.9779 3.439-11.983 0.0949-0.30347 0.15469-0.60804 0.28279-1.0649 0.16969 0.25835 0.30247 0.4159 0.34856 0.58604 2.6818 9.9813 6.3477 19.665 9.6765 29.456 1.3828 4.0739 2.815 8.1231 4.2229 12.199 0.10704 0.36473 0.21308 0.72954 0.34303 1.1805h-28.766c0.12834-0.42478 0.2371-0.79014 0.36154-1.1555zm86.805-48.473c0-2.5454 0.094-5.0675-0.0738-7.5888h-15.855c-0.26782 1.229-0.20254 97.602 0.0537 98.41h57.751v-13.693h-27.858c-2.3419 0-4.7022 0.0191-7.0338 0-2.2982-0.0191-4.5868 0.0841-6.9704-0.0533v-77.061zm68.94-6.983c0-0.1527 0-0.27951-0.0533-0.43797 0-0.04244-0.0532-0.05327-0.0532-0.0838 0-0.01908-0.0635-0.05327-0.0635-0.05327h-15.909v98.352h15.994c0.0532-0.1651 0.0939-0.25325 0.0939-0.36472v-97.413z" fill="#fff" stroke-width="1.0404"/>
	<path d="m19.485 232.17v-0.13551c1.1408-0.19868 2.0169-0.69176 2.6267-1.4694 0.60159-0.77866 0.90506-1.7567 0.90506-2.9324 0-1.7427-0.61522-3.0216-1.856-3.8272-1.2371-0.80592-3.2515-1.2118-6.0284-1.2118h-5.9952v20.123h7.2902c2.2552 0 4.0173-0.50214 5.2867-1.5337 1.2647-1.0257 1.8965-2.4406 1.8965-4.2459 0-1.3428-0.33793-2.4015-1.0017-3.1868-0.66979-0.78911-1.7087-1.3117-3.1238-1.5803zm-7.0476-6.8272h2.8559c1.4954 0 2.5803 0.21049 3.2745 0.63727 0.68249 0.422 1.0217 1.1087 1.0217 2.0536 0 1.0444-0.3143 1.78-0.95016 2.2204-0.63206 0.43141-1.646 0.65518-3.025 0.65518h-3.1773zm6.6357 13.816c-0.70863 0.52648-1.7441 0.79327-3.1296 0.79327h-3.5066v-6.3776h3.34c1.4656 0 2.5597 0.25325 3.2696 0.75987 0.72438 0.49799 1.0797 1.2806 1.0797 2.3252 0 1.1383-0.34304 1.9674-1.0533 2.4984zm17.272-7.3826-4.7813-9.1842h-3.5898l6.6967 12.432v7.6916h3.3169v-7.8035l6.7294-12.318h-3.5941zm32.556-9.4999c-3.0488 0-5.4001 0.89164-7.0397 2.6717-1.646 1.7832-2.4703 4.3302-2.4703 7.6512 0 3.3214 0.82101 5.8825 2.4577 7.6873 1.6334 1.803 3.9716 2.7031 7.0197 2.7031 3.0181 0 5.3439-0.91051 6.9866-2.7218 1.6456-1.8191 2.4684-4.3598 2.4684-7.6406 0-3.284-0.81581-5.832-2.462-7.6386-1.6398-1.8084-3.9606-2.7126-6.9609-2.7126zm4.4159 16.006c-1.0069 1.268-2.4816 1.9036-4.4471 1.9036-1.9688 0-3.456-0.64059-4.4639-1.9207-0.99837-1.2789-1.5001-3.1588-1.5001-5.6337 0-2.4672 0.50379-4.3397 1.5162-5.6152 1.0047-1.2773 2.4998-1.9113 4.4793-1.9113 1.9624 0 3.4328 0.63212 4.4281 1.9113 0.98373 1.2742 1.4811 3.148 1.4811 5.6152 0 2.5031-0.49801 4.3876-1.4936 5.6509zm12.169 4.4335h3.2807v-8.2609h7.6096v-2.7903h-7.6096v-6.2897h8.1177v-2.781h-11.396v20.12zm17.887 0h3.278v-8.2609h7.6085v-2.7903h-7.6085v-6.2897h8.1224v-2.781h-11.398v20.12zm17.889 0h11.424v-2.794h-8.1193v-6.3148h7.6096v-2.7544h-7.6096v-5.4794h8.1193v-2.781h-11.424zm32.418-9.5756c0 0.73991 0 1.7723 0.0949 3.1011 0.0536 1.329 0.0941 2.0972 0.10484 2.3064h-0.0737l-9.9093-15.954h-4.0036v20.123h2.997v-10.457c0-1.4148-0.0737-2.9732-0.19617-4.6797l-0.063-0.89174h0.10485l9.9388 16.031h4.0382v-20.123h-3.0201v10.545zm20.833-0.0542c-0.69603-0.53292-1.7838-1.107-3.2588-1.7176-1.323-0.54106-2.2353-0.98062-2.7381-1.3134-0.5101-0.32939-0.87145-0.67919-1.0896-1.0465-0.22646-0.37492-0.33831-0.82262-0.33831-1.346 0-0.75978 0.27766-1.3758 0.82953-1.8332 0.55122-0.46993 1.3619-0.69808 2.4324-0.69808 1.4047 0 3.0112 0.3722 4.8101 1.1277l1.0425-2.6781c-1.907-0.84559-3.8354-1.2695-5.7728-1.2695-2.016 0-3.6256 0.48436-4.8227 1.4429-1.1979 0.96385-1.7962 2.2875-1.7962 3.9628 0 1.343 0.37888 2.4876 1.1373 3.4448 0.75176 0.95449 2.0521 1.7989 3.8989 2.5421 1.7797 0.7169 2.9605 1.3352 3.5323 1.8614 0.5691 0.52648 0.85577 1.1632 0.85577 1.9096 0 0.83516-0.30839 1.5022-0.93236 2.0002-0.6195 0.4933-1.5908 0.74101-2.8994 0.74101-0.88816 0-1.8577-0.12332-2.892-0.37021-1.0394-0.24891-2.0114-0.58717-2.9314-1.0193v3.1107c1.4548 0.70131 3.3228 1.0602 5.6034 1.0602 2.2868 0 4.0772-0.51317 5.3781-1.5288 1.2979-1.0152 1.9485-2.4203 1.9485-4.2082 0-0.91469-0.16506-1.6992-0.48484-2.3672-0.31786-0.67398-0.82943-1.2727-1.5187-1.8065zm8.7388 9.6343h3.3037v-20.123h-3.3037zm18.762-7.6686c-0.16024 0.44268-0.36159 1.1258-0.61528 2.0409-0.24458 0.91465-0.4323 1.727-0.55113 2.4188-0.084-0.45726-0.23709-1.1541-0.48487-2.0957-0.25403-0.94185-0.47963-1.7099-0.70977-2.3079l-4.2134-12.51h-3.3953l7.0445 20.122h3.4844l7.0744-20.122h-3.4294zm13.137 7.6686h11.417v-2.7976h-8.1232v-6.3144h7.6175v-2.7545h-7.6175v-5.4794h8.1232v-2.781h-11.417zm38.437-9.6343c-0.69191-0.53292-1.7822-1.107-3.2667-1.7176-1.3077-0.54106-2.2287-0.98062-2.7306-1.3134-0.50377-0.32939-0.87139-0.67919-1.0898-1.0465-0.21785-0.37492-0.33045-0.82262-0.33045-1.346 0-0.75978 0.27253-1.3758 0.82837-1.8332 0.55117-0.46993 1.3659-0.69808 2.4298-0.69808 1.411 0 3.0141 0.3722 4.8125 1.1277l1.0416-2.6781c-1.909-0.84559-3.8371-1.2695-5.7715-1.2695-2.017 0-3.6218 0.48436-4.818 1.4429-1.1972 0.96385-1.7991 2.2875-1.7991 3.9628 0 1.343 0.37969 2.4876 1.1363 3.4448 0.75176 0.95449 2.0487 1.7989 3.8968 2.5421 1.7849 0.7169 2.9622 1.3352 3.5345 1.8614 0.56904 0.52648 0.8536 1.1632 0.8536 1.9096 0 0.83516-0.3088 1.5022-0.92914 2.0002-0.62061 0.4933-1.5894 0.74101-2.8998 0.74101-0.88718 0-1.8573-0.12332-2.8855-0.37021-1.0457-0.24891-2.0176-0.58717-2.944-1.0193v3.1107c1.4609 0.70131 3.3278 1.0602 5.6117 1.0602 2.284 0 4.0799-0.51317 5.378-1.5288 1.2959-1.0152 1.9457-2.4203 1.9457-4.2082 0-0.91469-0.16711-1.699-0.48483-2.3672-0.3265-0.67396-0.83259-1.2726-1.5191-1.8066zm8.7396 9.6343h11.423v-2.7976h-8.1208v-6.3144h7.6096v-2.7545h-7.6096v-5.4794h8.1208v-2.781h-11.423zm27.21-17.587c0.83571 0 1.6357 0.1161 2.3998 0.36511 0.75912 0.24181 1.4779 0.52543 2.1616 0.84564l1.1878-2.7373c-1.7476-0.8655-3.6617-1.296-5.7179-1.296-1.962 0-3.6772 0.41679-5.1303 1.2523-1.4514 0.83405-2.5627 2.0346-3.3325 3.6038-0.76952 1.5741-1.1549 3.4041-1.1549 5.492 0 3.3244 0.79378 5.8755 2.3808 7.6559 1.5833 1.7899 3.8541 2.6805 6.8086 2.6805 2.0033 0 3.8039-0.30347 5.3887-0.88961v-2.8273c-0.86292 0.27247-1.7009 0.48853-2.5029 0.66354-0.79794 0.16767-1.6324 0.25006-2.4863 0.25006-1.9763 0-3.4905-0.63634-4.5391-1.9034-1.0436-1.2632-1.5658-3.1372-1.5658-5.5963 0-2.364 0.54494-4.2034 1.6317-5.5485 1.0864-1.3429 2.5755-2.0095 4.4703-2.0095zm24.701 10.167c0 3.2573-1.5535 4.8893-4.6695 4.8893-1.5998 0-2.795-0.39992-3.5655-1.1868-0.77481-0.78489-1.1601-2.0081-1.1601-3.671v-12.735h-3.3121v12.969c0 2.3062 0.69398 4.1269 2.0847 5.4468 1.3934 1.3246 3.3355 1.9829 5.8401 1.9829 1.6849 0 3.1366-0.30349 4.3482-0.90001 1.2084-0.59859 2.133-1.4598 2.7741-2.5701 0.64255-1.1133 0.96069-2.4172 0.96069-3.9022v-13.025h-3.2981v12.702zm24.666-6.8389c0-1.9612-0.62671-3.4244-1.8725-4.4037-1.256-0.968-3.1856-1.4583-5.792-1.4583h-5.707v20.123h3.3009v-8.0395h3.259l4.8286 8.0352h3.7638l-5.7038-8.9044c2.619-1.0648 3.923-2.8433 3.923-5.3557zm-7.7778 3.5008h-2.2934v-6.5814h2.1791c1.503 0 2.6297 0.2489 3.3713 0.741 0.75176 0.4979 1.1175 1.3131 1.1175 2.4515 0 1.1195-0.33793 1.9661-1.0301 2.536-0.68651 0.56518-1.8057 0.85195-3.345 0.85195zm15.313 10.758h3.3021v-20.122h-3.3021zm9.2086-17.296h5.933v17.296h3.2974v-17.296h5.9441v-2.8265h-15.176v2.8265zm31.58-2.8248-4.777 9.1843-4.7815-9.1843h-3.5957l6.7034 12.432v7.6908h3.3151v-7.8036l6.7298-12.318z" fill="#fff" stroke-width="1.0404"/>
</svg>
